<?xml version="1.0" encoding="UTF-8" standalone="no"?>
<!DOCTYPE svg PUBLIC "-//W3C//DTD SVG 1.1//EN"
 "http://www.w3.org/Graphics/SVG/1.1/DTD/svg11.dtd">
<!-- Generated by graphviz version 2.40.1 (20161225.0304)
 -->
<!-- Title: models_diagram Pages: 1 -->
<svg width="1455pt" height="1016pt"
 viewBox="0.00 0.00 1455.00 1016.00" xmlns="http://www.w3.org/2000/svg" xmlns:xlink="http://www.w3.org/1999/xlink">
<g id="graph0" class="graph" transform="scale(1 1) rotate(0) translate(36 980)">
<title>models_diagram</title>
<polygon fill="#ffffff" stroke="transparent" points="-36,36 -36,-980 1419,-980 1419,36 -36,36"/>
<!-- User -->
<g id="node1" class="node">
<title>User</title>
<polygon fill="#add8e6" stroke="transparent" points="1059.5,-561 1059.5,-583 1148.5,-583 1148.5,-561 1059.5,-561"/>
<polygon fill="none" stroke="#000000" points="1059.5,-561 1059.5,-583 1148.5,-583 1148.5,-561 1059.5,-561"/>
<text text-anchor="start" x="1094.562" y="-570" font-family="Times,serif" font-weight="bold" font-size="10.00" fill="#000000">User</text>
<polygon fill="none" stroke="#000000" points="1059.5,-539 1059.5,-561 1148.5,-561 1148.5,-539 1059.5,-539"/>
<text text-anchor="start" x="1064.5" y="-548" font-family="Times,serif" text-decoration="underline" font-size="10.00" fill="#000000">id</text>
<text text-anchor="start" x="1072.279" y="-548" font-family="Times,serif" font-size="10.00" fill="#000000">: UUID</text>
<polygon fill="none" stroke="#000000" points="1059.5,-517 1059.5,-539 1148.5,-539 1148.5,-517 1059.5,-517"/>
<text text-anchor="start" x="1064.5" y="-525" font-family="Times,serif" font-size="10.00" fill="#000000">googleId: STRING</text>
<polygon fill="none" stroke="#000000" points="1059.5,-495 1059.5,-517 1148.5,-517 1148.5,-495 1059.5,-495"/>
<text text-anchor="start" x="1064.1515" y="-503" font-family="Times,serif" font-size="10.00" fill="#000000">username: STRING</text>
<polygon fill="none" stroke="#000000" points="1059.5,-473 1059.5,-495 1148.5,-495 1148.5,-473 1059.5,-473"/>
<text text-anchor="start" x="1064.5" y="-481" font-family="Times,serif" font-size="10.00" fill="#000000">createdAt: DATE</text>
<polygon fill="none" stroke="#000000" points="1059.5,-451 1059.5,-473 1148.5,-473 1148.5,-451 1059.5,-451"/>
<text text-anchor="start" x="1064.5" y="-459" font-family="Times,serif" font-size="10.00" fill="#000000">updatedAt: DATE</text>
</g>
<!-- UserAccess -->
<g id="node10" class="node">
<title>UserAccess</title>
<polygon fill="#add8e6" stroke="transparent" points="1292.5,-674 1292.5,-696 1383.5,-696 1383.5,-674 1292.5,-674"/>
<polygon fill="none" stroke="#000000" points="1292.5,-674 1292.5,-696 1383.5,-696 1383.5,-674 1292.5,-674"/>
<text text-anchor="start" x="1314.405" y="-683" font-family="Times,serif" font-weight="bold" font-size="10.00" fill="#000000">UserAccess</text>
<polygon fill="none" stroke="#000000" points="1292.5,-652 1292.5,-674 1383.5,-674 1383.5,-652 1292.5,-652"/>
<text text-anchor="start" x="1297.5" y="-661" font-family="Times,serif" text-decoration="underline" font-size="10.00" fill="#000000">userId</text>
<text text-anchor="start" x="1322.486" y="-661" font-family="Times,serif" font-size="10.00" fill="#000000">: UUID</text>
<polygon fill="none" stroke="#000000" points="1292.5,-630 1292.5,-652 1383.5,-652 1383.5,-630 1292.5,-630"/>
<text text-anchor="start" x="1297.042" y="-639" font-family="Times,serif" text-decoration="underline" font-size="10.00" fill="#000000">accessId</text>
<text text-anchor="start" x="1330.905" y="-639" font-family="Times,serif" font-size="10.00" fill="#000000">: NUMBER</text>
</g>
<!-- User&#45;&gt;UserAccess -->
<g id="edge1" class="edge">
<title>User&#45;&gt;UserAccess</title>
<path fill="none" stroke="#0000ff" d="M1158.3322,-551.2116C1195.4633,-574.3788 1244.3672,-604.8915 1281.7005,-628.1849"/>
<polygon fill="#0000ff" stroke="#0000ff" points="1158.2453,-551.1573 1150.9229,-540.2237 1153.1548,-547.9812 1148.0644,-544.8051 1148.0644,-544.8051 1148.0644,-544.8051 1153.1548,-547.9812 1145.2059,-549.3865 1158.2453,-551.1573 1158.2453,-551.1573"/>
<polygon fill="#0000ff" stroke="#0000ff" points="1281.7232,-628.1991 1289.0456,-639.1327 1286.8137,-631.3752 1291.9041,-634.5513 1291.9041,-634.5513 1291.9041,-634.5513 1286.8137,-631.3752 1294.7626,-629.9699 1281.7232,-628.1991 1281.7232,-628.1991"/>
</g>
<!-- Prototype -->
<g id="node2" class="node">
<title>Prototype</title>
<polygon fill="#add8e6" stroke="transparent" points="801,-616 801,-638 915,-638 915,-616 801,-616"/>
<polygon fill="none" stroke="#000000" points="801,-616 801,-638 915,-638 915,-616 801,-616"/>
<text text-anchor="start" x="838.5575" y="-625" font-family="Times,serif" font-weight="bold" font-size="10.00" fill="#000000">Prototype</text>
<polygon fill="none" stroke="#000000" points="801,-594 801,-616 915,-616 915,-594 801,-594"/>
<text text-anchor="start" x="806" y="-603" font-family="Times,serif" text-decoration="underline" font-size="10.00" fill="#000000">id</text>
<text text-anchor="start" x="813.779" y="-603" font-family="Times,serif" font-size="10.00" fill="#000000">: UUID</text>
<polygon fill="none" stroke="#000000" points="801,-572 801,-594 915,-594 915,-572 801,-572"/>
<text text-anchor="start" x="806" y="-581" font-family="Times,serif" font-style="italic" text-decoration="underline" font-size="10.00" fill="#000000">userId</text>
<text text-anchor="start" x="830.986" y="-581" font-family="Times,serif" font-size="10.00" fill="#000000">: UUID</text>
<polygon fill="none" stroke="#000000" points="801,-550 801,-572 915,-572 915,-550 801,-550"/>
<text text-anchor="start" x="806" y="-558" font-family="Times,serif" font-size="10.00" fill="#000000">name: STRING</text>
<polygon fill="none" stroke="#000000" points="801,-528 801,-550 915,-550 915,-528 801,-528"/>
<text text-anchor="start" x="806" y="-536" font-family="Times,serif" font-size="10.00" fill="#000000">type: ENUM</text>
<polygon fill="none" stroke="#000000" points="801,-506 801,-528 915,-528 915,-506 801,-506"/>
<text text-anchor="start" x="805.9335" y="-515" font-family="Times,serif" font-style="italic" text-decoration="underline" font-size="10.00" fill="#000000">masterPrototypeId</text>
<text text-anchor="start" x="879.8015" y="-515" font-family="Times,serif" font-size="10.00" fill="#000000">: UUID</text>
<polygon fill="none" stroke="#000000" points="801,-484 801,-506 915,-506 915,-484 801,-484"/>
<text text-anchor="start" x="806" y="-492" font-family="Times,serif" font-size="10.00" fill="#000000">groupId: UUID</text>
<polygon fill="none" stroke="#000000" points="801,-462 801,-484 915,-484 915,-462 801,-462"/>
<text text-anchor="start" x="806" y="-470" font-family="Times,serif" font-size="10.00" fill="#000000">minPlayers: NUMBER</text>
<polygon fill="none" stroke="#000000" points="801,-440 801,-462 915,-462 915,-440 801,-440"/>
<text text-anchor="start" x="806" y="-448" font-family="Times,serif" font-size="10.00" fill="#000000">maxPlayers: NUMBER</text>
<polygon fill="none" stroke="#000000" points="801,-418 801,-440 915,-440 915,-418 801,-418"/>
<text text-anchor="start" x="806" y="-426" font-family="Times,serif" font-size="10.00" fill="#000000">createdAt: DATE</text>
<polygon fill="none" stroke="#000000" points="801,-396 801,-418 915,-418 915,-396 801,-396"/>
<text text-anchor="start" x="806" y="-404" font-family="Times,serif" font-size="10.00" fill="#000000">updatedAt: DATE</text>
</g>
<!-- Prototype&#45;&gt;User -->
<g id="edge3" class="edge">
<title>Prototype&#45;&gt;User</title>
<path fill="none" stroke="#0000ff" d="M927.4047,-517C965.1202,-517 1011.1771,-517 1046.7285,-517"/>
<polygon fill="#0000ff" stroke="#0000ff" points="915.249,-512.8 927.249,-517.0001 915.249,-521.2 915.249,-512.8"/>
<polygon fill="#0000ff" stroke="#0000ff" points="1046.8344,-517.0001 1058.8344,-522.4 1052.8344,-517 1058.8344,-517 1058.8344,-517 1058.8344,-517 1052.8344,-517 1058.8343,-511.6 1046.8344,-517.0001 1046.8344,-517.0001"/>
</g>
<!-- PrototypeGroup -->
<g id="node3" class="node">
<title>PrototypeGroup</title>
<polygon fill="#add8e6" stroke="transparent" points="557.5,-689 557.5,-711 643.5,-711 643.5,-689 557.5,-689"/>
<polygon fill="none" stroke="#000000" points="557.5,-689 557.5,-711 643.5,-711 643.5,-689 557.5,-689"/>
<text text-anchor="start" x="568.2835" y="-698" font-family="Times,serif" font-weight="bold" font-size="10.00" fill="#000000">PrototypeGroup</text>
<polygon fill="none" stroke="#000000" points="557.5,-667 557.5,-689 643.5,-689 643.5,-667 557.5,-667"/>
<text text-anchor="start" x="562.5" y="-676" font-family="Times,serif" text-decoration="underline" font-size="10.00" fill="#000000">id</text>
<text text-anchor="start" x="570.279" y="-676" font-family="Times,serif" font-size="10.00" fill="#000000">: UUID</text>
<polygon fill="none" stroke="#000000" points="557.5,-645 557.5,-667 643.5,-667 643.5,-645 557.5,-645"/>
<text text-anchor="start" x="562.04" y="-654" font-family="Times,serif" text-decoration="underline" font-size="10.00" fill="#000000">prototypeId</text>
<text text-anchor="start" x="608.695" y="-654" font-family="Times,serif" font-size="10.00" fill="#000000">: UUID</text>
</g>
<!-- PrototypeGroup&#45;&gt;Prototype -->
<g id="edge4" class="edge">
<title>PrototypeGroup&#45;&gt;Prototype</title>
<path fill="none" stroke="#0000ff" d="M653.8366,-644.6517C693.4523,-619.8822 747.7795,-585.9146 790.4334,-559.2455"/>
<polygon fill="#0000ff" stroke="#0000ff" points="641.3731,-647.491 653.7746,-644.6904 645.8263,-654.6134 641.3731,-647.491"/>
<polygon fill="#0000ff" stroke="#0000ff" points="790.5564,-559.1687 803.5941,-557.3856 795.6438,-555.9878 800.7312,-552.8069 800.7312,-552.8069 800.7312,-552.8069 795.6438,-555.9878 797.8684,-548.2282 790.5564,-559.1687 790.5564,-559.1687"/>
</g>
<!-- Access -->
<g id="node4" class="node">
<title>Access</title>
<polygon fill="#add8e6" stroke="transparent" points="263.5,-922 263.5,-944 375.5,-944 375.5,-922 263.5,-922"/>
<polygon fill="none" stroke="#000000" points="263.5,-922 263.5,-944 375.5,-944 375.5,-922 263.5,-922"/>
<text text-anchor="start" x="305.343" y="-931" font-family="Times,serif" font-weight="bold" font-size="10.00" fill="#000000">Access</text>
<polygon fill="none" stroke="#000000" points="263.5,-900 263.5,-922 375.5,-922 375.5,-900 263.5,-900"/>
<text text-anchor="start" x="268.5" y="-909" font-family="Times,serif" text-decoration="underline" font-size="10.00" fill="#000000">id</text>
<text text-anchor="start" x="276.279" y="-909" font-family="Times,serif" font-size="10.00" fill="#000000">: NUMBER</text>
<polygon fill="none" stroke="#000000" points="263.5,-878 263.5,-900 375.5,-900 375.5,-878 263.5,-878"/>
<text text-anchor="start" x="268.266" y="-886" font-family="Times,serif" font-size="10.00" fill="#000000">prototypeGroupId: UUID</text>
<polygon fill="none" stroke="#000000" points="263.5,-856 263.5,-878 375.5,-878 375.5,-856 263.5,-856"/>
<text text-anchor="start" x="268.5" y="-864" font-family="Times,serif" font-size="10.00" fill="#000000">name: STRING</text>
</g>
<!-- Access&#45;&gt;PrototypeGroup -->
<g id="edge5" class="edge">
<title>Access&#45;&gt;PrototypeGroup</title>
<path fill="none" stroke="#0000ff" d="M385.4144,-849.3811C390.3578,-845.5397 395.2626,-841.7141 400,-838 451.2645,-797.8086 509.4043,-751.3102 549.826,-718.8338"/>
<polygon fill="#0000ff" stroke="#0000ff" points="373.3206,-853.4435 385.3776,-849.4097 378.4677,-860.0818 373.3206,-853.4435"/>
<polygon fill="#0000ff" stroke="#0000ff" points="549.8405,-718.8221 562.5766,-715.5126 554.5169,-715.063 559.1933,-711.3038 559.1933,-711.3038 559.1933,-711.3038 554.5169,-715.063 555.8101,-707.095 549.8405,-718.8221 549.8405,-718.8221"/>
</g>
<!-- Access&#45;&gt;UserAccess -->
<g id="edge2" class="edge">
<title>Access&#45;&gt;UserAccess</title>
<path fill="none" stroke="#0000ff" d="M387.6279,-884.1392C576.595,-840.1459 1104.9204,-717.1467 1280.186,-676.3433"/>
<polygon fill="#0000ff" stroke="#0000ff" points="387.3696,-884.1992 374.4577,-881.6609 381.5259,-885.5598 375.6822,-886.9203 375.6822,-886.9203 375.6822,-886.9203 381.5259,-885.5598 376.9066,-892.1796 387.3696,-884.1992 387.3696,-884.1992"/>
<polygon fill="#0000ff" stroke="#0000ff" points="1280.2552,-676.3272 1293.1671,-678.8655 1286.099,-674.9667 1291.9427,-673.6062 1291.9427,-673.6062 1291.9427,-673.6062 1286.099,-674.9667 1290.7182,-668.3468 1280.2552,-676.3272 1280.2552,-676.3272"/>
</g>
<!-- Image -->
<g id="node5" class="node">
<title>Image</title>
<polygon fill="#add8e6" stroke="transparent" points="267.5,-798 267.5,-820 371.5,-820 371.5,-798 267.5,-798"/>
<polygon fill="none" stroke="#000000" points="267.5,-798 267.5,-820 371.5,-820 371.5,-798 267.5,-798"/>
<text text-anchor="start" x="307.007" y="-807" font-family="Times,serif" font-weight="bold" font-size="10.00" fill="#000000">Image</text>
<polygon fill="none" stroke="#000000" points="267.5,-776 267.5,-798 371.5,-798 371.5,-776 267.5,-776"/>
<text text-anchor="start" x="272.5" y="-785" font-family="Times,serif" text-decoration="underline" font-size="10.00" fill="#000000">id</text>
<text text-anchor="start" x="280.279" y="-785" font-family="Times,serif" font-size="10.00" fill="#000000">: UUID</text>
<polygon fill="none" stroke="#000000" points="267.5,-754 267.5,-776 371.5,-776 371.5,-754 267.5,-754"/>
<text text-anchor="start" x="272.4275" y="-762" font-family="Times,serif" font-size="10.00" fill="#000000">displayName: STRING</text>
<polygon fill="none" stroke="#000000" points="267.5,-732 267.5,-754 371.5,-754 371.5,-732 267.5,-732"/>
<text text-anchor="start" x="272.5" y="-740" font-family="Times,serif" font-size="10.00" fill="#000000">storagePath: STRING</text>
<polygon fill="none" stroke="#000000" points="267.5,-710 267.5,-732 371.5,-732 371.5,-710 267.5,-710"/>
<text text-anchor="start" x="272.5" y="-718" font-family="Times,serif" font-size="10.00" fill="#000000">contentType: STRING</text>
<polygon fill="none" stroke="#000000" points="267.5,-688 267.5,-710 371.5,-710 371.5,-688 267.5,-688"/>
<text text-anchor="start" x="272.5" y="-696" font-family="Times,serif" font-size="10.00" fill="#000000">fileSize: NUMBER</text>
<polygon fill="none" stroke="#000000" points="267.5,-666 267.5,-688 371.5,-688 371.5,-666 267.5,-666"/>
<text text-anchor="start" x="272.5" y="-675" font-family="Times,serif" font-style="italic" text-decoration="underline" font-size="10.00" fill="#000000">uploaderUserId</text>
<text text-anchor="start" x="334.691" y="-675" font-family="Times,serif" font-size="10.00" fill="#000000">: UUID</text>
<polygon fill="none" stroke="#000000" points="267.5,-644 267.5,-666 371.5,-666 371.5,-644 267.5,-644"/>
<text text-anchor="start" x="272.5" y="-652" font-family="Times,serif" font-size="10.00" fill="#000000">createdAt: DATE</text>
<polygon fill="none" stroke="#000000" points="267.5,-622 267.5,-644 371.5,-644 371.5,-622 267.5,-622"/>
<text text-anchor="start" x="272.5" y="-630" font-family="Times,serif" font-size="10.00" fill="#000000">updatedAt: DATE</text>
</g>
<!-- PrototypeVersion -->
<g id="node6" class="node">
<title>PrototypeVersion</title>
<polygon fill="#add8e6" stroke="transparent" points="544.5,-454 544.5,-476 657.5,-476 657.5,-454 544.5,-454"/>
<polygon fill="none" stroke="#000000" points="544.5,-454 544.5,-476 657.5,-476 657.5,-454 544.5,-454"/>
<text text-anchor="start" x="565.73" y="-463" font-family="Times,serif" font-weight="bold" font-size="10.00" fill="#000000">PrototypeVersion</text>
<polygon fill="none" stroke="#000000" points="544.5,-432 544.5,-454 657.5,-454 657.5,-432 544.5,-432"/>
<text text-anchor="start" x="549.5" y="-441" font-family="Times,serif" text-decoration="underline" font-size="10.00" fill="#000000">id</text>
<text text-anchor="start" x="557.279" y="-441" font-family="Times,serif" font-size="10.00" fill="#000000">: UUID</text>
<polygon fill="none" stroke="#000000" points="544.5,-410 544.5,-432 657.5,-432 657.5,-410 544.5,-410"/>
<text text-anchor="start" x="549.5" y="-419" font-family="Times,serif" font-style="italic" text-decoration="underline" font-size="10.00" fill="#000000">prototypeId</text>
<text text-anchor="start" x="596.155" y="-419" font-family="Times,serif" font-size="10.00" fill="#000000">: UUID</text>
<polygon fill="none" stroke="#000000" points="544.5,-388 544.5,-410 657.5,-410 657.5,-388 544.5,-388"/>
<text text-anchor="start" x="549.2075" y="-396" font-family="Times,serif" font-size="10.00" fill="#000000">versionNumber: STRING</text>
<polygon fill="none" stroke="#000000" points="544.5,-366 544.5,-388 657.5,-388 657.5,-366 544.5,-366"/>
<text text-anchor="start" x="549.5" y="-374" font-family="Times,serif" font-size="10.00" fill="#000000">description: STRING</text>
<polygon fill="none" stroke="#000000" points="544.5,-344 544.5,-366 657.5,-366 657.5,-344 544.5,-344"/>
<text text-anchor="start" x="549.5" y="-352" font-family="Times,serif" font-size="10.00" fill="#000000">createdAt: DATE</text>
<polygon fill="none" stroke="#000000" points="544.5,-322 544.5,-344 657.5,-344 657.5,-322 544.5,-322"/>
<text text-anchor="start" x="549.5" y="-330" font-family="Times,serif" font-size="10.00" fill="#000000">updatedAt: DATE</text>
</g>
<!-- PrototypeVersion&#45;&gt;Prototype -->
<g id="edge6" class="edge">
<title>PrototypeVersion&#45;&gt;Prototype</title>
<path fill="none" stroke="#0000ff" d="M668.0643,-429.9615C705.4562,-447.0965 751.8195,-468.3425 789.3786,-485.5541"/>
<polygon fill="#0000ff" stroke="#0000ff" points="658.7592,-421.0774 667.9186,-429.8948 655.2598,-428.7138 658.7592,-421.0774"/>
<polygon fill="#0000ff" stroke="#0000ff" points="789.8234,-485.7578 798.4829,-495.6661 795.2779,-488.2574 800.7325,-490.757 800.7325,-490.757 800.7325,-490.757 795.2779,-488.2574 802.9821,-485.8479 789.8234,-485.7578 789.8234,-485.7578"/>
</g>
<!-- Part -->
<g id="node7" class="node">
<title>Part</title>
<polygon fill="#add8e6" stroke="transparent" points="239.5,-564 239.5,-586 400.5,-586 400.5,-564 239.5,-564"/>
<polygon fill="none" stroke="#000000" points="239.5,-564 239.5,-586 400.5,-586 400.5,-564 239.5,-564"/>
<text text-anchor="start" x="311.947" y="-573" font-family="Times,serif" font-weight="bold" font-size="10.00" fill="#000000">Part</text>
<polygon fill="none" stroke="#000000" points="239.5,-542 239.5,-564 400.5,-564 400.5,-542 239.5,-542"/>
<text text-anchor="start" x="244.5" y="-551" font-family="Times,serif" text-decoration="underline" font-size="10.00" fill="#000000">id</text>
<text text-anchor="start" x="252.279" y="-551" font-family="Times,serif" font-size="10.00" fill="#000000">: NUMBER</text>
<polygon fill="none" stroke="#000000" points="239.5,-520 239.5,-542 400.5,-542 400.5,-520 239.5,-520"/>
<text text-anchor="start" x="244.5" y="-528" font-family="Times,serif" font-size="10.00" fill="#000000">type: ENUM</text>
<polygon fill="none" stroke="#000000" points="239.5,-498 239.5,-520 400.5,-520 400.5,-498 239.5,-498"/>
<text text-anchor="start" x="244.5" y="-507" font-family="Times,serif" font-style="italic" text-decoration="underline" font-size="10.00" fill="#000000">prototypeVersionId</text>
<text text-anchor="start" x="322.81" y="-507" font-family="Times,serif" font-size="10.00" fill="#000000">: UUID</text>
<polygon fill="none" stroke="#000000" points="239.5,-476 239.5,-498 400.5,-498 400.5,-476 239.5,-476"/>
<text text-anchor="start" x="244.5" y="-484" font-family="Times,serif" font-size="10.00" fill="#000000">parentId: NUMBER</text>
<polygon fill="none" stroke="#000000" points="239.5,-454 239.5,-476 400.5,-476 400.5,-454 239.5,-454"/>
<text text-anchor="start" x="244.5" y="-462" font-family="Times,serif" font-size="10.00" fill="#000000">position: JSON</text>
<polygon fill="none" stroke="#000000" points="239.5,-432 239.5,-454 400.5,-454 400.5,-432 239.5,-432"/>
<text text-anchor="start" x="244.5" y="-440" font-family="Times,serif" font-size="10.00" fill="#000000">width: NUMBER</text>
<polygon fill="none" stroke="#000000" points="239.5,-410 239.5,-432 400.5,-432 400.5,-410 239.5,-410"/>
<text text-anchor="start" x="244.5" y="-418" font-family="Times,serif" font-size="10.00" fill="#000000">height: NUMBER</text>
<polygon fill="none" stroke="#000000" points="239.5,-388 239.5,-410 400.5,-410 400.5,-388 239.5,-388"/>
<text text-anchor="start" x="244.5" y="-396" font-family="Times,serif" font-size="10.00" fill="#000000">order: NUMBER</text>
<polygon fill="none" stroke="#000000" points="239.5,-366 239.5,-388 400.5,-388 400.5,-366 239.5,-366"/>
<text text-anchor="start" x="244.5" y="-374" font-family="Times,serif" font-size="10.00" fill="#000000">configurableTypeAsChild: ARRAY</text>
<polygon fill="none" stroke="#000000" points="239.5,-344 239.5,-366 400.5,-366 400.5,-344 239.5,-344"/>
<text text-anchor="start" x="244.5" y="-352" font-family="Times,serif" font-size="10.00" fill="#000000">originalPartId: NUMBER</text>
<polygon fill="none" stroke="#000000" points="239.5,-322 239.5,-344 400.5,-344 400.5,-322 239.5,-322"/>
<text text-anchor="start" x="244.5" y="-330" font-family="Times,serif" font-size="10.00" fill="#000000">isReversible: BOOLEAN</text>
<polygon fill="none" stroke="#000000" points="239.5,-300 239.5,-322 400.5,-322 400.5,-300 239.5,-300"/>
<text text-anchor="start" x="244.5" y="-308" font-family="Times,serif" font-size="10.00" fill="#000000">isFlipped: BOOLEAN</text>
<polygon fill="none" stroke="#000000" points="239.5,-278 239.5,-300 400.5,-300 400.5,-278 239.5,-278"/>
<text text-anchor="start" x="244.5" y="-286" font-family="Times,serif" font-size="10.00" fill="#000000">ownerId: NUMBER</text>
<polygon fill="none" stroke="#000000" points="239.5,-256 239.5,-278 400.5,-278 400.5,-256 239.5,-256"/>
<text text-anchor="start" x="244.0615" y="-264" font-family="Times,serif" font-size="10.00" fill="#000000">canReverseCardOnDeck: BOOLEAN</text>
<polygon fill="none" stroke="#000000" points="239.5,-234 239.5,-256 400.5,-256 400.5,-234 239.5,-234"/>
<text text-anchor="start" x="244.5" y="-242" font-family="Times,serif" font-size="10.00" fill="#000000">createdAt: DATE</text>
<polygon fill="none" stroke="#000000" points="239.5,-212 239.5,-234 400.5,-234 400.5,-212 239.5,-212"/>
<text text-anchor="start" x="244.5" y="-220" font-family="Times,serif" font-size="10.00" fill="#000000">updatedAt: DATE</text>
</g>
<!-- Part&#45;&gt;PrototypeVersion -->
<g id="edge7" class="edge">
<title>Part&#45;&gt;PrototypeVersion</title>
<path fill="none" stroke="#0000ff" d="M412.0726,-399C450.9224,-399 495.3268,-399 531.2681,-399"/>
<polygon fill="#0000ff" stroke="#0000ff" points="400.0234,-394.8 412.0233,-399.0001 400.0233,-403.2 400.0234,-394.8"/>
<polygon fill="#0000ff" stroke="#0000ff" points="531.6051,-399.0001 543.6051,-404.4 537.6051,-399 543.6051,-399 543.6051,-399 543.6051,-399 537.6051,-399 543.605,-393.6 531.6051,-399.0001 531.6051,-399.0001"/>
</g>
<!-- PartProperty -->
<g id="node8" class="node">
<title>PartProperty</title>
<polygon fill="#add8e6" stroke="transparent" points=".5,-648 .5,-670 95.5,-670 95.5,-648 .5,-648"/>
<polygon fill="none" stroke="#000000" points=".5,-648 .5,-670 95.5,-670 95.5,-648 .5,-648"/>
<text text-anchor="start" x="22.7295" y="-657" font-family="Times,serif" font-weight="bold" font-size="10.00" fill="#000000">PartProperty</text>
<polygon fill="none" stroke="#000000" points=".5,-626 .5,-648 95.5,-648 95.5,-626 .5,-626"/>
<text text-anchor="start" x="5.5" y="-635" font-family="Times,serif" text-decoration="underline" font-size="10.00" fill="#000000">partId</text>
<text text-anchor="start" x="29.376" y="-635" font-family="Times,serif" font-size="10.00" fill="#000000">: NUMBER</text>
<polygon fill="none" stroke="#000000" points=".5,-604 .5,-626 95.5,-626 95.5,-604 .5,-604"/>
<text text-anchor="start" x="5.5" y="-613" font-family="Times,serif" text-decoration="underline" font-size="10.00" fill="#000000">side</text>
<text text-anchor="start" x="21.607" y="-613" font-family="Times,serif" font-size="10.00" fill="#000000">: ENUM</text>
<polygon fill="none" stroke="#000000" points=".5,-582 .5,-604 95.5,-604 95.5,-582 .5,-582"/>
<text text-anchor="start" x="5.5" y="-590" font-family="Times,serif" font-size="10.00" fill="#000000">name: STRING</text>
<polygon fill="none" stroke="#000000" points=".5,-560 .5,-582 95.5,-582 95.5,-560 .5,-560"/>
<text text-anchor="start" x="5.092" y="-568" font-family="Times,serif" font-size="10.00" fill="#000000">description: STRING</text>
<polygon fill="none" stroke="#000000" points=".5,-538 .5,-560 95.5,-560 95.5,-538 .5,-538"/>
<text text-anchor="start" x="5.5" y="-546" font-family="Times,serif" font-size="10.00" fill="#000000">color: STRING</text>
<polygon fill="none" stroke="#000000" points=".5,-516 .5,-538 95.5,-538 95.5,-516 .5,-516"/>
<text text-anchor="start" x="5.5" y="-524" font-family="Times,serif" font-size="10.00" fill="#000000">textColor: STRING</text>
<polygon fill="none" stroke="#000000" points=".5,-494 .5,-516 95.5,-516 95.5,-494 .5,-494"/>
<text text-anchor="start" x="5.5" y="-503" font-family="Times,serif" font-style="italic" text-decoration="underline" font-size="10.00" fill="#000000">ImageId</text>
<text text-anchor="start" x="38.815" y="-503" font-family="Times,serif" font-size="10.00" fill="#000000">: UUID</text>
<polygon fill="none" stroke="#000000" points=".5,-472 .5,-494 95.5,-494 95.5,-472 .5,-472"/>
<text text-anchor="start" x="5.5" y="-480" font-family="Times,serif" font-size="10.00" fill="#000000">createdAt: DATE</text>
<polygon fill="none" stroke="#000000" points=".5,-450 .5,-472 95.5,-472 95.5,-450 .5,-450"/>
<text text-anchor="start" x="5.5" y="-458" font-family="Times,serif" font-size="10.00" fill="#000000">updatedAt: DATE</text>
</g>
<!-- PartProperty&#45;&gt;Image -->
<g id="edge9" class="edge">
<title>PartProperty&#45;&gt;Image</title>
<path fill="none" stroke="#0000ff" d="M105.7141,-594.4576C150.1801,-620.7776 211.3596,-656.9904 256.8817,-683.9355"/>
<polygon fill="#0000ff" stroke="#0000ff" points="97.3294,-584.614 105.5166,-594.3408 93.0507,-591.8426 97.3294,-584.614"/>
<polygon fill="#0000ff" stroke="#0000ff" points="256.8926,-683.9419 264.4686,-694.7013 262.0559,-686.9981 267.2192,-690.0544 267.2192,-690.0544 267.2192,-690.0544 262.0559,-686.9981 269.9698,-685.4074 256.8926,-683.9419 256.8926,-683.9419"/>
</g>
<!-- PartProperty&#45;&gt;Part -->
<g id="edge8" class="edge">
<title>PartProperty&#45;&gt;Part</title>
<path fill="none" stroke="#0000ff" d="M105.7753,-525.5062C141.4558,-504.3865 187.8807,-476.907 228.3426,-452.9572"/>
<polygon fill="#0000ff" stroke="#0000ff" points="93.0507,-528.1574 105.5166,-525.6592 97.3294,-535.386 93.0507,-528.1574"/>
<polygon fill="#0000ff" stroke="#0000ff" points="228.4359,-452.902 241.5131,-451.4365 233.5992,-449.8457 238.7625,-446.7895 238.7625,-446.7895 238.7625,-446.7895 233.5992,-449.8457 236.0119,-442.1425 228.4359,-452.902 228.4359,-452.902"/>
</g>
<!-- Player -->
<g id="node9" class="node">
<title>Player</title>
<polygon fill="#add8e6" stroke="transparent" points="258.5,-154 258.5,-176 381.5,-176 381.5,-154 258.5,-154"/>
<polygon fill="none" stroke="#000000" points="258.5,-154 258.5,-176 381.5,-176 381.5,-154 258.5,-154"/>
<text text-anchor="start" x="307.2275" y="-163" font-family="Times,serif" font-weight="bold" font-size="10.00" fill="#000000">Player</text>
<polygon fill="none" stroke="#000000" points="258.5,-132 258.5,-154 381.5,-154 381.5,-132 258.5,-132"/>
<text text-anchor="start" x="263.5" y="-141" font-family="Times,serif" text-decoration="underline" font-size="10.00" fill="#000000">id</text>
<text text-anchor="start" x="271.279" y="-141" font-family="Times,serif" font-size="10.00" fill="#000000">: NUMBER</text>
<polygon fill="none" stroke="#000000" points="258.5,-110 258.5,-132 381.5,-132 381.5,-110 258.5,-110"/>
<text text-anchor="start" x="263.5" y="-119" font-family="Times,serif" font-style="italic" text-decoration="underline" font-size="10.00" fill="#000000">prototypeVersionId</text>
<text text-anchor="start" x="341.81" y="-119" font-family="Times,serif" font-size="10.00" fill="#000000">: UUID</text>
<polygon fill="none" stroke="#000000" points="258.5,-88 258.5,-110 381.5,-110 381.5,-88 258.5,-88"/>
<text text-anchor="start" x="263.5" y="-97" font-family="Times,serif" font-style="italic" text-decoration="underline" font-size="10.00" fill="#000000">userId</text>
<text text-anchor="start" x="288.486" y="-97" font-family="Times,serif" font-size="10.00" fill="#000000">: UUID</text>
<polygon fill="none" stroke="#000000" points="258.5,-66 258.5,-88 381.5,-88 381.5,-66 258.5,-66"/>
<text text-anchor="start" x="263.5" y="-74" font-family="Times,serif" font-size="10.00" fill="#000000">playerName: STRING</text>
<polygon fill="none" stroke="#000000" points="258.5,-44 258.5,-66 381.5,-66 381.5,-44 258.5,-44"/>
<text text-anchor="start" x="263.484" y="-52" font-family="Times,serif" font-size="10.00" fill="#000000">originalPlayerId: NUMBER</text>
<polygon fill="none" stroke="#000000" points="258.5,-22 258.5,-44 381.5,-44 381.5,-22 258.5,-22"/>
<text text-anchor="start" x="263.5" y="-30" font-family="Times,serif" font-size="10.00" fill="#000000">createdAt: DATE</text>
<polygon fill="none" stroke="#000000" points="258.5,0 258.5,-22 381.5,-22 381.5,0 258.5,0"/>
<text text-anchor="start" x="263.5" y="-8" font-family="Times,serif" font-size="10.00" fill="#000000">updatedAt: DATE</text>
</g>
<!-- Player&#45;&gt;User -->
<g id="edge11" class="edge">
<title>Player&#45;&gt;User</title>
<path fill="none" stroke="#0000ff" d="M392.497,-118.3986C507.0509,-167.2296 734.5848,-268.8002 915,-378 962.2593,-406.6046 1012.4472,-443.9967 1049.1451,-472.7928"/>
<polygon fill="#0000ff" stroke="#0000ff" points="383.0776,-109.8321 392.479,-118.391 379.7922,-117.563 383.0776,-109.8321"/>
<polygon fill="#0000ff" stroke="#0000ff" points="1049.2293,-472.8592 1055.3026,-484.533 1053.9388,-476.5768 1058.6484,-480.2943 1058.6484,-480.2943 1058.6484,-480.2943 1053.9388,-476.5768 1061.9942,-476.0557 1049.2293,-472.8592 1049.2293,-472.8592"/>
</g>
<!-- Player&#45;&gt;PrototypeVersion -->
<g id="edge10" class="edge">
<title>Player&#45;&gt;PrototypeVersion</title>
<path fill="none" stroke="#0000ff" d="M389.2918,-165.2429C434.1071,-214.8427 491.9042,-278.8103 535.7054,-327.2878"/>
<polygon fill="#0000ff" stroke="#0000ff" points="384.283,-153.4345 389.2116,-165.1541 378.0503,-159.066 384.283,-153.4345"/>
<polygon fill="#0000ff" stroke="#0000ff" points="535.9476,-327.5559 539.9859,-340.08 539.9701,-332.0078 543.9926,-336.4598 543.9926,-336.4598 543.9926,-336.4598 539.9701,-332.0078 547.9993,-332.8395 535.9476,-327.5559 535.9476,-327.5559"/>
</g>
</g>
</svg>
