<?xml version="1.0" encoding="UTF-8" standalone="no"?>
<!DOCTYPE svg PUBLIC "-//W3C//DTD SVG 1.1//EN"
 "http://www.w3.org/Graphics/SVG/1.1/DTD/svg11.dtd">
<!-- Generated by graphviz version 2.40.1 (20161225.0304)
 -->
<!-- Title: models_diagram Pages: 1 -->
<svg width="1216pt" height="804pt"
 viewBox="0.00 0.00 1216.00 804.00" xmlns="http://www.w3.org/2000/svg" xmlns:xlink="http://www.w3.org/1999/xlink">
<g id="graph0" class="graph" transform="scale(1 1) rotate(0) translate(36 768)">
<title>models_diagram</title>
<polygon fill="#ffffff" stroke="transparent" points="-36,36 -36,-768 1180,-768 1180,36 -36,36"/>
<!-- User -->
<g id="node1" class="node">
<title>User</title>
<polygon fill="#add8e6" stroke="transparent" points="820.5,-496 820.5,-518 909.5,-518 909.5,-496 820.5,-496"/>
<polygon fill="none" stroke="#000000" points="820.5,-496 820.5,-518 909.5,-518 909.5,-496 820.5,-496"/>
<text text-anchor="start" x="855.562" y="-505" font-family="Times,serif" font-weight="bold" font-size="10.00" fill="#000000">User</text>
<polygon fill="none" stroke="#000000" points="820.5,-474 820.5,-496 909.5,-496 909.5,-474 820.5,-474"/>
<text text-anchor="start" x="825.5" y="-483" font-family="Times,serif" text-decoration="underline" font-size="10.00" fill="#000000">id</text>
<text text-anchor="start" x="833.279" y="-483" font-family="Times,serif" font-size="10.00" fill="#000000">: UUID</text>
<polygon fill="none" stroke="#000000" points="820.5,-452 820.5,-474 909.5,-474 909.5,-452 820.5,-452"/>
<text text-anchor="start" x="825.5" y="-460" font-family="Times,serif" font-size="10.00" fill="#000000">googleId: STRING</text>
<polygon fill="none" stroke="#000000" points="820.5,-430 820.5,-452 909.5,-452 909.5,-430 820.5,-430"/>
<text text-anchor="start" x="825.1515" y="-438" font-family="Times,serif" font-size="10.00" fill="#000000">username: STRING</text>
<polygon fill="none" stroke="#000000" points="820.5,-408 820.5,-430 909.5,-430 909.5,-408 820.5,-408"/>
<text text-anchor="start" x="825.5" y="-416" font-family="Times,serif" font-size="10.00" fill="#000000">createdAt: DATE</text>
<polygon fill="none" stroke="#000000" points="820.5,-386 820.5,-408 909.5,-408 909.5,-386 820.5,-386"/>
<text text-anchor="start" x="825.5" y="-394" font-family="Times,serif" font-size="10.00" fill="#000000">updatedAt: DATE</text>
</g>
<!-- UserAccess -->
<g id="node8" class="node">
<title>UserAccess</title>
<polygon fill="#add8e6" stroke="transparent" points="1053.5,-543 1053.5,-565 1144.5,-565 1144.5,-543 1053.5,-543"/>
<polygon fill="none" stroke="#000000" points="1053.5,-543 1053.5,-565 1144.5,-565 1144.5,-543 1053.5,-543"/>
<text text-anchor="start" x="1075.405" y="-552" font-family="Times,serif" font-weight="bold" font-size="10.00" fill="#000000">UserAccess</text>
<polygon fill="none" stroke="#000000" points="1053.5,-521 1053.5,-543 1144.5,-543 1144.5,-521 1053.5,-521"/>
<text text-anchor="start" x="1058.5" y="-530" font-family="Times,serif" text-decoration="underline" font-size="10.00" fill="#000000">userId</text>
<text text-anchor="start" x="1083.486" y="-530" font-family="Times,serif" font-size="10.00" fill="#000000">: UUID</text>
<polygon fill="none" stroke="#000000" points="1053.5,-499 1053.5,-521 1144.5,-521 1144.5,-499 1053.5,-499"/>
<text text-anchor="start" x="1058.042" y="-508" font-family="Times,serif" text-decoration="underline" font-size="10.00" fill="#000000">accessId</text>
<text text-anchor="start" x="1091.905" y="-508" font-family="Times,serif" font-size="10.00" fill="#000000">: NUMBER</text>
</g>
<!-- User&#45;&gt;UserAccess -->
<g id="edge1" class="edge">
<title>User&#45;&gt;UserAccess</title>
<path fill="none" stroke="#0000ff" d="M920.6306,-471.19C957.1606,-483.6788 1004.6625,-499.9188 1041.3869,-512.4742"/>
<polygon fill="#0000ff" stroke="#0000ff" points="920.4192,-471.1177 910.8113,-462.1261 914.7418,-469.1767 909.0644,-467.2357 909.0644,-467.2357 909.0644,-467.2357 914.7418,-469.1767 907.3175,-472.3453 920.4192,-471.1177 920.4192,-471.1177"/>
<polygon fill="#0000ff" stroke="#0000ff" points="1041.5494,-512.5296 1051.1572,-521.5213 1047.2267,-514.4706 1052.9041,-516.4117 1052.9041,-516.4117 1052.9041,-516.4117 1047.2267,-514.4706 1054.651,-511.302 1041.5494,-512.5296 1041.5494,-512.5296"/>
</g>
<!-- UserPlayer -->
<g id="node9" class="node">
<title>UserPlayer</title>
<polygon fill="#add8e6" stroke="transparent" points="1053.5,-383 1053.5,-405 1144.5,-405 1144.5,-383 1053.5,-383"/>
<polygon fill="none" stroke="#000000" points="1053.5,-383 1053.5,-405 1144.5,-405 1144.5,-383 1053.5,-383"/>
<text text-anchor="start" x="1076.7895" y="-392" font-family="Times,serif" font-weight="bold" font-size="10.00" fill="#000000">UserPlayer</text>
<polygon fill="none" stroke="#000000" points="1053.5,-361 1053.5,-383 1144.5,-383 1144.5,-361 1053.5,-361"/>
<text text-anchor="start" x="1058.5" y="-370" font-family="Times,serif" text-decoration="underline" font-size="10.00" fill="#000000">userId</text>
<text text-anchor="start" x="1083.486" y="-370" font-family="Times,serif" font-size="10.00" fill="#000000">: UUID</text>
<polygon fill="none" stroke="#000000" points="1053.5,-339 1053.5,-361 1144.5,-361 1144.5,-339 1053.5,-339"/>
<text text-anchor="start" x="1058.316" y="-348" font-family="Times,serif" text-decoration="underline" font-size="10.00" fill="#000000">playerId</text>
<text text-anchor="start" x="1091.631" y="-348" font-family="Times,serif" font-size="10.00" fill="#000000">: NUMBER</text>
</g>
<!-- User&#45;&gt;UserPlayer -->
<g id="edge2" class="edge">
<title>User&#45;&gt;UserPlayer</title>
<path fill="none" stroke="#0000ff" d="M920.6306,-432.81C957.1606,-420.3212 1004.6625,-404.0812 1041.3869,-391.5258"/>
<polygon fill="#0000ff" stroke="#0000ff" points="920.4192,-432.8823 907.3175,-431.6547 914.7418,-434.8233 909.0644,-436.7643 909.0644,-436.7643 909.0644,-436.7643 914.7418,-434.8233 910.8113,-441.8739 920.4192,-432.8823 920.4192,-432.8823"/>
<polygon fill="#0000ff" stroke="#0000ff" points="1041.5494,-391.4704 1054.651,-392.698 1047.2267,-389.5294 1052.9041,-387.5883 1052.9041,-387.5883 1052.9041,-387.5883 1047.2267,-389.5294 1051.1572,-382.4787 1041.5494,-391.4704 1041.5494,-391.4704"/>
</g>
<!-- Prototype -->
<g id="node2" class="node">
<title>Prototype</title>
<polygon fill="#add8e6" stroke="transparent" points="562,-551 562,-573 676,-573 676,-551 562,-551"/>
<polygon fill="none" stroke="#000000" points="562,-551 562,-573 676,-573 676,-551 562,-551"/>
<text text-anchor="start" x="599.5575" y="-560" font-family="Times,serif" font-weight="bold" font-size="10.00" fill="#000000">Prototype</text>
<polygon fill="none" stroke="#000000" points="562,-529 562,-551 676,-551 676,-529 562,-529"/>
<text text-anchor="start" x="567" y="-538" font-family="Times,serif" text-decoration="underline" font-size="10.00" fill="#000000">id</text>
<text text-anchor="start" x="574.779" y="-538" font-family="Times,serif" font-size="10.00" fill="#000000">: UUID</text>
<polygon fill="none" stroke="#000000" points="562,-507 562,-529 676,-529 676,-507 562,-507"/>
<text text-anchor="start" x="567" y="-516" font-family="Times,serif" font-style="italic" text-decoration="underline" font-size="10.00" fill="#000000">userId</text>
<text text-anchor="start" x="591.986" y="-516" font-family="Times,serif" font-size="10.00" fill="#000000">: UUID</text>
<polygon fill="none" stroke="#000000" points="562,-485 562,-507 676,-507 676,-485 562,-485"/>
<text text-anchor="start" x="567" y="-493" font-family="Times,serif" font-size="10.00" fill="#000000">name: STRING</text>
<polygon fill="none" stroke="#000000" points="562,-463 562,-485 676,-485 676,-463 562,-463"/>
<text text-anchor="start" x="567" y="-471" font-family="Times,serif" font-size="10.00" fill="#000000">type: ENUM</text>
<polygon fill="none" stroke="#000000" points="562,-441 562,-463 676,-463 676,-441 562,-441"/>
<text text-anchor="start" x="566.9335" y="-450" font-family="Times,serif" font-style="italic" text-decoration="underline" font-size="10.00" fill="#000000">masterPrototypeId</text>
<text text-anchor="start" x="640.8015" y="-450" font-family="Times,serif" font-size="10.00" fill="#000000">: UUID</text>
<polygon fill="none" stroke="#000000" points="562,-419 562,-441 676,-441 676,-419 562,-419"/>
<text text-anchor="start" x="567" y="-427" font-family="Times,serif" font-size="10.00" fill="#000000">groupId: UUID</text>
<polygon fill="none" stroke="#000000" points="562,-397 562,-419 676,-419 676,-397 562,-397"/>
<text text-anchor="start" x="567" y="-405" font-family="Times,serif" font-size="10.00" fill="#000000">minPlayers: NUMBER</text>
<polygon fill="none" stroke="#000000" points="562,-375 562,-397 676,-397 676,-375 562,-375"/>
<text text-anchor="start" x="567" y="-383" font-family="Times,serif" font-size="10.00" fill="#000000">maxPlayers: NUMBER</text>
<polygon fill="none" stroke="#000000" points="562,-353 562,-375 676,-375 676,-353 562,-353"/>
<text text-anchor="start" x="567" y="-361" font-family="Times,serif" font-size="10.00" fill="#000000">createdAt: DATE</text>
<polygon fill="none" stroke="#000000" points="562,-331 562,-353 676,-353 676,-331 562,-331"/>
<text text-anchor="start" x="567" y="-339" font-family="Times,serif" font-size="10.00" fill="#000000">updatedAt: DATE</text>
</g>
<!-- Prototype&#45;&gt;User -->
<g id="edge5" class="edge">
<title>Prototype&#45;&gt;User</title>
<path fill="none" stroke="#0000ff" d="M688.4047,-452C726.1202,-452 772.1771,-452 807.7285,-452"/>
<polygon fill="#0000ff" stroke="#0000ff" points="676.249,-447.8 688.249,-452.0001 676.249,-456.2 676.249,-447.8"/>
<polygon fill="#0000ff" stroke="#0000ff" points="807.8344,-452.0001 819.8344,-457.4 813.8344,-452 819.8344,-452 819.8344,-452 819.8344,-452 813.8344,-452 819.8343,-446.6 807.8344,-452.0001 807.8344,-452.0001"/>
</g>
<!-- PrototypeGroup -->
<g id="node3" class="node">
<title>PrototypeGroup</title>
<polygon fill="#add8e6" stroke="transparent" points="318.5,-578 318.5,-600 404.5,-600 404.5,-578 318.5,-578"/>
<polygon fill="none" stroke="#000000" points="318.5,-578 318.5,-600 404.5,-600 404.5,-578 318.5,-578"/>
<text text-anchor="start" x="329.2835" y="-587" font-family="Times,serif" font-weight="bold" font-size="10.00" fill="#000000">PrototypeGroup</text>
<polygon fill="none" stroke="#000000" points="318.5,-556 318.5,-578 404.5,-578 404.5,-556 318.5,-556"/>
<text text-anchor="start" x="323.5" y="-565" font-family="Times,serif" text-decoration="underline" font-size="10.00" fill="#000000">id</text>
<text text-anchor="start" x="331.279" y="-565" font-family="Times,serif" font-size="10.00" fill="#000000">: UUID</text>
<polygon fill="none" stroke="#000000" points="318.5,-534 318.5,-556 404.5,-556 404.5,-534 318.5,-534"/>
<text text-anchor="start" x="323.04" y="-543" font-family="Times,serif" font-style="italic" text-decoration="underline" font-size="10.00" fill="#000000">prototypeId</text>
<text text-anchor="start" x="369.695" y="-543" font-family="Times,serif" font-size="10.00" fill="#000000">: UUID</text>
</g>
<!-- PrototypeGroup&#45;&gt;Prototype -->
<g id="edge6" class="edge">
<title>PrototypeGroup&#45;&gt;Prototype</title>
<path fill="none" stroke="#0000ff" d="M415.6546,-542.8144C454.9676,-525.2572 508.4458,-501.3737 550.6927,-482.5062"/>
<polygon fill="#0000ff" stroke="#0000ff" points="402.887,-543.9167 415.5567,-542.8581 406.3124,-551.5865 402.887,-543.9167"/>
<polygon fill="#0000ff" stroke="#0000ff" points="550.7743,-482.4698 563.9333,-482.507 556.2528,-480.0231 561.7312,-477.5763 561.7312,-477.5763 561.7312,-477.5763 556.2528,-480.0231 559.5292,-472.6457 550.7743,-482.4698 550.7743,-482.4698"/>
</g>
<!-- Access -->
<g id="node4" class="node">
<title>Access</title>
<polygon fill="#add8e6" stroke="transparent" points="24.5,-710 24.5,-732 136.5,-732 136.5,-710 24.5,-710"/>
<polygon fill="none" stroke="#000000" points="24.5,-710 24.5,-732 136.5,-732 136.5,-710 24.5,-710"/>
<text text-anchor="start" x="66.343" y="-719" font-family="Times,serif" font-weight="bold" font-size="10.00" fill="#000000">Access</text>
<polygon fill="none" stroke="#000000" points="24.5,-688 24.5,-710 136.5,-710 136.5,-688 24.5,-688"/>
<text text-anchor="start" x="29.5" y="-697" font-family="Times,serif" text-decoration="underline" font-size="10.00" fill="#000000">id</text>
<text text-anchor="start" x="37.279" y="-697" font-family="Times,serif" font-size="10.00" fill="#000000">: NUMBER</text>
<polygon fill="none" stroke="#000000" points="24.5,-666 24.5,-688 136.5,-688 136.5,-666 24.5,-666"/>
<text text-anchor="start" x="29.266" y="-675" font-family="Times,serif" font-style="italic" text-decoration="underline" font-size="10.00" fill="#000000">prototypeGroupId</text>
<text text-anchor="start" x="101.469" y="-675" font-family="Times,serif" font-size="10.00" fill="#000000">: UUID</text>
<polygon fill="none" stroke="#000000" points="24.5,-644 24.5,-666 136.5,-666 136.5,-644 24.5,-644"/>
<text text-anchor="start" x="29.5" y="-652" font-family="Times,serif" font-size="10.00" fill="#000000">name: STRING</text>
</g>
<!-- Access&#45;&gt;PrototypeGroup -->
<g id="edge7" class="edge">
<title>Access&#45;&gt;PrototypeGroup</title>
<path fill="none" stroke="#0000ff" d="M148.0043,-658.9323C196.7596,-637.938 261.7515,-609.9522 307.1706,-590.3945"/>
<polygon fill="#0000ff" stroke="#0000ff" points="135.0281,-659.9471 147.7108,-659.0586 138.3503,-667.6622 135.0281,-659.9471"/>
<polygon fill="#0000ff" stroke="#0000ff" points="307.2527,-590.3592 320.41,-590.5729 312.7635,-587.9862 318.2743,-585.6132 318.2743,-585.6132 318.2743,-585.6132 312.7635,-587.9862 316.1386,-580.6535 307.2527,-590.3592 307.2527,-590.3592"/>
</g>
<!-- Access&#45;&gt;UserAccess -->
<g id="edge3" class="edge">
<title>Access&#45;&gt;UserAccess</title>
<path fill="none" stroke="#0000ff" d="M148.6279,-677.56C337.5005,-648.6168 865.3924,-567.7218 1040.9229,-540.8232"/>
<polygon fill="#0000ff" stroke="#0000ff" points="148.5437,-677.5728 135.8642,-674.0529 142.6129,-678.4817 136.6822,-679.3906 136.6822,-679.3906 136.6822,-679.3906 142.6129,-678.4817 137.5002,-684.7282 148.5437,-677.5728 148.5437,-677.5728"/>
<polygon fill="#0000ff" stroke="#0000ff" points="1041.0811,-540.799 1053.7607,-544.319 1047.0119,-539.8902 1052.9427,-538.9813 1052.9427,-538.9813 1052.9427,-538.9813 1047.0119,-539.8902 1052.1247,-533.6436 1041.0811,-540.799 1041.0811,-540.799"/>
</g>
<!-- PrototypeVersion -->
<g id="node5" class="node">
<title>PrototypeVersion</title>
<polygon fill="#add8e6" stroke="transparent" points="305.5,-443 305.5,-465 418.5,-465 418.5,-443 305.5,-443"/>
<polygon fill="none" stroke="#000000" points="305.5,-443 305.5,-465 418.5,-465 418.5,-443 305.5,-443"/>
<text text-anchor="start" x="326.73" y="-452" font-family="Times,serif" font-weight="bold" font-size="10.00" fill="#000000">PrototypeVersion</text>
<polygon fill="none" stroke="#000000" points="305.5,-421 305.5,-443 418.5,-443 418.5,-421 305.5,-421"/>
<text text-anchor="start" x="310.5" y="-430" font-family="Times,serif" text-decoration="underline" font-size="10.00" fill="#000000">id</text>
<text text-anchor="start" x="318.279" y="-430" font-family="Times,serif" font-size="10.00" fill="#000000">: UUID</text>
<polygon fill="none" stroke="#000000" points="305.5,-399 305.5,-421 418.5,-421 418.5,-399 305.5,-399"/>
<text text-anchor="start" x="310.5" y="-408" font-family="Times,serif" font-style="italic" text-decoration="underline" font-size="10.00" fill="#000000">prototypeId</text>
<text text-anchor="start" x="357.155" y="-408" font-family="Times,serif" font-size="10.00" fill="#000000">: UUID</text>
<polygon fill="none" stroke="#000000" points="305.5,-377 305.5,-399 418.5,-399 418.5,-377 305.5,-377"/>
<text text-anchor="start" x="310.2075" y="-385" font-family="Times,serif" font-size="10.00" fill="#000000">versionNumber: STRING</text>
<polygon fill="none" stroke="#000000" points="305.5,-355 305.5,-377 418.5,-377 418.5,-355 305.5,-355"/>
<text text-anchor="start" x="310.5" y="-363" font-family="Times,serif" font-size="10.00" fill="#000000">description: STRING</text>
<polygon fill="none" stroke="#000000" points="305.5,-333 305.5,-355 418.5,-355 418.5,-333 305.5,-333"/>
<text text-anchor="start" x="310.5" y="-341" font-family="Times,serif" font-size="10.00" fill="#000000">createdAt: DATE</text>
<polygon fill="none" stroke="#000000" points="305.5,-311 305.5,-333 418.5,-333 418.5,-311 305.5,-311"/>
<text text-anchor="start" x="310.5" y="-319" font-family="Times,serif" font-size="10.00" fill="#000000">updatedAt: DATE</text>
</g>
<!-- PrototypeVersion&#45;&gt;Prototype -->
<g id="edge8" class="edge">
<title>PrototypeVersion&#45;&gt;Prototype</title>
<path fill="none" stroke="#0000ff" d="M429.8574,-404.9898C466.9744,-414.215 512.7494,-425.5921 549.9702,-434.8431"/>
<polygon fill="#0000ff" stroke="#0000ff" points="419.0226,-397.9691 429.6552,-404.9396 416.9964,-406.1211 419.0226,-397.9691"/>
<polygon fill="#0000ff" stroke="#0000ff" points="550.0868,-434.872 560.43,-443.0071 555.9097,-436.3193 561.7325,-437.7665 561.7325,-437.7665 561.7325,-437.7665 555.9097,-436.3193 563.035,-432.526 550.0868,-434.872 550.0868,-434.872"/>
</g>
<!-- Part -->
<g id="node6" class="node">
<title>Part</title>
<polygon fill="#add8e6" stroke="transparent" points=".5,-586 .5,-608 161.5,-608 161.5,-586 .5,-586"/>
<polygon fill="none" stroke="#000000" points=".5,-586 .5,-608 161.5,-608 161.5,-586 .5,-586"/>
<text text-anchor="start" x="72.947" y="-595" font-family="Times,serif" font-weight="bold" font-size="10.00" fill="#000000">Part</text>
<polygon fill="none" stroke="#000000" points=".5,-564 .5,-586 161.5,-586 161.5,-564 .5,-564"/>
<text text-anchor="start" x="5.5" y="-573" font-family="Times,serif" text-decoration="underline" font-size="10.00" fill="#000000">id</text>
<text text-anchor="start" x="13.279" y="-573" font-family="Times,serif" font-size="10.00" fill="#000000">: NUMBER</text>
<polygon fill="none" stroke="#000000" points=".5,-542 .5,-564 161.5,-564 161.5,-542 .5,-542"/>
<text text-anchor="start" x="5.5" y="-550" font-family="Times,serif" font-size="10.00" fill="#000000">type: STRING</text>
<polygon fill="none" stroke="#000000" points=".5,-520 .5,-542 161.5,-542 161.5,-520 .5,-520"/>
<text text-anchor="start" x="5.5" y="-529" font-family="Times,serif" font-style="italic" text-decoration="underline" font-size="10.00" fill="#000000">prototypeVersionId</text>
<text text-anchor="start" x="83.81" y="-529" font-family="Times,serif" font-size="10.00" fill="#000000">: UUID</text>
<polygon fill="none" stroke="#000000" points=".5,-498 .5,-520 161.5,-520 161.5,-498 .5,-498"/>
<text text-anchor="start" x="5.5" y="-506" font-family="Times,serif" font-size="10.00" fill="#000000">parentId: NUMBER</text>
<polygon fill="none" stroke="#000000" points=".5,-476 .5,-498 161.5,-498 161.5,-476 .5,-476"/>
<text text-anchor="start" x="5.5" y="-484" font-family="Times,serif" font-size="10.00" fill="#000000">name: STRING</text>
<polygon fill="none" stroke="#000000" points=".5,-454 .5,-476 161.5,-476 161.5,-454 .5,-454"/>
<text text-anchor="start" x="5.5" y="-462" font-family="Times,serif" font-size="10.00" fill="#000000">description: STRING</text>
<polygon fill="none" stroke="#000000" points=".5,-432 .5,-454 161.5,-454 161.5,-432 .5,-432"/>
<text text-anchor="start" x="5.5" y="-440" font-family="Times,serif" font-size="10.00" fill="#000000">color: STRING</text>
<polygon fill="none" stroke="#000000" points=".5,-410 .5,-432 161.5,-432 161.5,-410 .5,-410"/>
<text text-anchor="start" x="5.5" y="-418" font-family="Times,serif" font-size="10.00" fill="#000000">position: JSON</text>
<polygon fill="none" stroke="#000000" points=".5,-388 .5,-410 161.5,-410 161.5,-388 .5,-388"/>
<text text-anchor="start" x="5.5" y="-396" font-family="Times,serif" font-size="10.00" fill="#000000">width: NUMBER</text>
<polygon fill="none" stroke="#000000" points=".5,-366 .5,-388 161.5,-388 161.5,-366 .5,-366"/>
<text text-anchor="start" x="5.5" y="-374" font-family="Times,serif" font-size="10.00" fill="#000000">height: NUMBER</text>
<polygon fill="none" stroke="#000000" points=".5,-344 .5,-366 161.5,-366 161.5,-344 .5,-344"/>
<text text-anchor="start" x="5.5" y="-352" font-family="Times,serif" font-size="10.00" fill="#000000">order: NUMBER</text>
<polygon fill="none" stroke="#000000" points=".5,-322 .5,-344 161.5,-344 161.5,-322 .5,-322"/>
<text text-anchor="start" x="5.5" y="-330" font-family="Times,serif" font-size="10.00" fill="#000000">configurableTypeAsChild: ARRAY</text>
<polygon fill="none" stroke="#000000" points=".5,-300 .5,-322 161.5,-322 161.5,-300 .5,-300"/>
<text text-anchor="start" x="5.5" y="-308" font-family="Times,serif" font-size="10.00" fill="#000000">isReversible: BOOLEAN</text>
<polygon fill="none" stroke="#000000" points=".5,-278 .5,-300 161.5,-300 161.5,-278 .5,-278"/>
<text text-anchor="start" x="5.5" y="-286" font-family="Times,serif" font-size="10.00" fill="#000000">isFlipped: BOOLEAN</text>
<polygon fill="none" stroke="#000000" points=".5,-256 .5,-278 161.5,-278 161.5,-256 .5,-256"/>
<text text-anchor="start" x="5.5" y="-264" font-family="Times,serif" font-size="10.00" fill="#000000">ownerId: NUMBER</text>
<polygon fill="none" stroke="#000000" points=".5,-234 .5,-256 161.5,-256 161.5,-234 .5,-234"/>
<text text-anchor="start" x="5.0615" y="-242" font-family="Times,serif" font-size="10.00" fill="#000000">canReverseCardOnDeck: BOOLEAN</text>
<polygon fill="none" stroke="#000000" points=".5,-212 .5,-234 161.5,-234 161.5,-212 .5,-212"/>
<text text-anchor="start" x="5.5" y="-220" font-family="Times,serif" font-size="10.00" fill="#000000">originalPartId: NUMBER</text>
<polygon fill="none" stroke="#000000" points=".5,-190 .5,-212 161.5,-212 161.5,-190 .5,-190"/>
<text text-anchor="start" x="5.5" y="-198" font-family="Times,serif" font-size="10.00" fill="#000000">createdAt: DATE</text>
<polygon fill="none" stroke="#000000" points=".5,-168 .5,-190 161.5,-190 161.5,-168 .5,-168"/>
<text text-anchor="start" x="5.5" y="-176" font-family="Times,serif" font-size="10.00" fill="#000000">updatedAt: DATE</text>
</g>
<!-- Part&#45;&gt;PrototypeVersion -->
<g id="edge9" class="edge">
<title>Part&#45;&gt;PrototypeVersion</title>
<path fill="none" stroke="#0000ff" d="M173.0726,-388C211.9224,-388 256.3268,-388 292.2681,-388"/>
<polygon fill="#0000ff" stroke="#0000ff" points="161.0234,-383.8 173.0233,-388.0001 161.0233,-392.2 161.0234,-383.8"/>
<polygon fill="#0000ff" stroke="#0000ff" points="292.6051,-388.0001 304.6051,-393.4 298.6051,-388 304.6051,-388 304.6051,-388 304.6051,-388 298.6051,-388 304.605,-382.6 292.6051,-388.0001 292.6051,-388.0001"/>
</g>
<!-- Player -->
<g id="node7" class="node">
<title>Player</title>
<polygon fill="#add8e6" stroke="transparent" points="21.5,-110 21.5,-132 139.5,-132 139.5,-110 21.5,-110"/>
<polygon fill="none" stroke="#000000" points="21.5,-110 21.5,-132 139.5,-132 139.5,-110 21.5,-110"/>
<text text-anchor="start" x="67.7275" y="-119" font-family="Times,serif" font-weight="bold" font-size="10.00" fill="#000000">Player</text>
<polygon fill="none" stroke="#000000" points="21.5,-88 21.5,-110 139.5,-110 139.5,-88 21.5,-88"/>
<text text-anchor="start" x="26.5" y="-97" font-family="Times,serif" text-decoration="underline" font-size="10.00" fill="#000000">id</text>
<text text-anchor="start" x="34.279" y="-97" font-family="Times,serif" font-size="10.00" fill="#000000">: NUMBER</text>
<polygon fill="none" stroke="#000000" points="21.5,-66 21.5,-88 139.5,-88 139.5,-66 21.5,-66"/>
<text text-anchor="start" x="26.2125" y="-75" font-family="Times,serif" font-style="italic" text-decoration="underline" font-size="10.00" fill="#000000">prototypeVersionId</text>
<text text-anchor="start" x="104.5225" y="-75" font-family="Times,serif" font-size="10.00" fill="#000000">: UUID</text>
<polygon fill="none" stroke="#000000" points="21.5,-44 21.5,-66 139.5,-66 139.5,-44 21.5,-44"/>
<text text-anchor="start" x="26.5" y="-52" font-family="Times,serif" font-size="10.00" fill="#000000">playerName: STRING</text>
<polygon fill="none" stroke="#000000" points="21.5,-22 21.5,-44 139.5,-44 139.5,-22 21.5,-22"/>
<text text-anchor="start" x="26.5" y="-30" font-family="Times,serif" font-size="10.00" fill="#000000">createdAt: DATE</text>
<polygon fill="none" stroke="#000000" points="21.5,0 21.5,-22 139.5,-22 139.5,0 21.5,0"/>
<text text-anchor="start" x="26.5" y="-8" font-family="Times,serif" font-size="10.00" fill="#000000">updatedAt: DATE</text>
</g>
<!-- Player&#45;&gt;PrototypeVersion -->
<g id="edge10" class="edge">
<title>Player&#45;&gt;PrototypeVersion</title>
<path fill="none" stroke="#0000ff" d="M148.272,-136.0556C152.6113,-140.7449 156.8862,-145.4226 161,-150 207.7096,-201.9736 258.4003,-262.1815 297.1263,-309.0364"/>
<polygon fill="#0000ff" stroke="#0000ff" points="142.9451,-124.1828 148.0561,-135.824 136.8011,-129.9109 142.9451,-124.1828"/>
<polygon fill="#0000ff" stroke="#0000ff" points="297.317,-309.2676 300.7896,-321.9602 301.1358,-313.8954 304.9546,-318.5232 304.9546,-318.5232 304.9546,-318.5232 301.1358,-313.8954 309.1197,-315.0863 297.317,-309.2676 297.317,-309.2676"/>
</g>
<!-- Player&#45;&gt;UserPlayer -->
<g id="edge4" class="edge">
<title>Player&#45;&gt;UserPlayer</title>
<path fill="none" stroke="#0000ff" d="M151.1742,-87.2439C342.2484,-144.6788 866.4379,-302.2446 1041.0544,-354.7324"/>
<polygon fill="#0000ff" stroke="#0000ff" points="151.1242,-87.229 141.1867,-78.6031 145.3782,-85.5017 139.6321,-83.7745 139.6321,-83.7745 139.6321,-83.7745 145.3782,-85.5017 138.0776,-88.9459 151.1242,-87.229 151.1242,-87.229"/>
<polygon fill="#0000ff" stroke="#0000ff" points="1041.2792,-354.8 1051.2167,-363.4258 1047.0252,-356.5272 1052.7712,-358.2544 1052.7712,-358.2544 1052.7712,-358.2544 1047.0252,-356.5272 1054.3257,-353.083 1041.2792,-354.8 1041.2792,-354.8"/>
</g>
</g>
</svg>
