<?xml version="1.0" encoding="UTF-8" standalone="no"?>
<!DOCTYPE svg PUBLIC "-//W3C//DTD SVG 1.1//EN"
 "http://www.w3.org/Graphics/SVG/1.1/DTD/svg11.dtd">
<!-- Generated by graphviz version 2.40.1 (20161225.0304)
 -->
<!-- Title: models_diagram Pages: 1 -->
<svg width="1481pt" height="705pt"
 viewBox="0.00 0.00 1481.00 705.00" xmlns="http://www.w3.org/2000/svg" xmlns:xlink="http://www.w3.org/1999/xlink">
<g id="graph0" class="graph" transform="scale(1 1) rotate(0) translate(36 669)">
<title>models_diagram</title>
<polygon fill="#ffffff" stroke="transparent" points="-36,36 -36,-669 1445,-669 1445,36 -36,36"/>
<!-- Role -->
<g id="node1" class="node">
<title>Role</title>
<polygon fill="#add8e6" stroke="transparent" points="1060.5,-399 1060.5,-421 1155.5,-421 1155.5,-399 1060.5,-399"/>
<polygon fill="none" stroke="#000000" points="1060.5,-399 1060.5,-421 1155.5,-421 1155.5,-399 1060.5,-399"/>
<text text-anchor="start" x="1098.5565" y="-408" font-family="Times,serif" font-weight="bold" font-size="10.00" fill="#000000">Role</text>
<polygon fill="none" stroke="#000000" points="1060.5,-377 1060.5,-399 1155.5,-399 1155.5,-377 1060.5,-377"/>
<text text-anchor="start" x="1065.5" y="-386" font-family="Times,serif" text-decoration="underline" font-size="10.00" fill="#000000">id</text>
<text text-anchor="start" x="1073.279" y="-386" font-family="Times,serif" font-size="10.00" fill="#000000">: NUMBER</text>
<polygon fill="none" stroke="#000000" points="1060.5,-355 1060.5,-377 1155.5,-377 1155.5,-355 1060.5,-355"/>
<text text-anchor="start" x="1065.5" y="-363" font-family="Times,serif" font-size="10.00" fill="#000000">name: STRING</text>
<polygon fill="none" stroke="#000000" points="1060.5,-333 1060.5,-355 1155.5,-355 1155.5,-333 1060.5,-333"/>
<text text-anchor="start" x="1065.092" y="-341" font-family="Times,serif" font-size="10.00" fill="#000000">description: STRING</text>
<polygon fill="none" stroke="#000000" points="1060.5,-311 1060.5,-333 1155.5,-333 1155.5,-311 1060.5,-311"/>
<text text-anchor="start" x="1065.5" y="-319" font-family="Times,serif" font-size="10.00" fill="#000000">createdAt: DATE</text>
<polygon fill="none" stroke="#000000" points="1060.5,-289 1060.5,-311 1155.5,-311 1155.5,-289 1060.5,-289"/>
<text text-anchor="start" x="1065.5" y="-297" font-family="Times,serif" font-size="10.00" fill="#000000">updatedAt: DATE</text>
</g>
<!-- RolePermission -->
<g id="node3" class="node">
<title>RolePermission</title>
<polygon fill="#add8e6" stroke="transparent" points="1299,-447 1299,-469 1409,-469 1409,-447 1299,-447"/>
<polygon fill="none" stroke="#000000" points="1299,-447 1299,-469 1409,-469 1409,-447 1299,-447"/>
<text text-anchor="start" x="1322.3355" y="-456" font-family="Times,serif" font-weight="bold" font-size="10.00" fill="#000000">RolePermission</text>
<polygon fill="none" stroke="#000000" points="1299,-425 1299,-447 1409,-447 1409,-425 1299,-425"/>
<text text-anchor="start" x="1304" y="-434" font-family="Times,serif" text-decoration="underline" font-size="10.00" fill="#000000">roleId</text>
<text text-anchor="start" x="1327.876" y="-434" font-family="Times,serif" font-size="10.00" fill="#000000">: NUMBER</text>
<polygon fill="none" stroke="#000000" points="1299,-403 1299,-425 1409,-425 1409,-403 1299,-403"/>
<text text-anchor="start" x="1303.8675" y="-412" font-family="Times,serif" text-decoration="underline" font-size="10.00" fill="#000000">permissionId</text>
<text text-anchor="start" x="1356.0795" y="-412" font-family="Times,serif" font-size="10.00" fill="#000000">: NUMBER</text>
</g>
<!-- Role&#45;&gt;RolePermission -->
<g id="edge1" class="edge">
<title>Role&#45;&gt;RolePermission</title>
<path fill="none" stroke="#0000ff" d="M1166.5336,-374.3985C1202.7947,-386.3139 1249.346,-401.6106 1286.9883,-413.9799"/>
<polygon fill="#0000ff" stroke="#0000ff" points="1166.428,-374.3638 1156.7135,-365.4875 1160.7278,-372.4907 1155.0277,-370.6176 1155.0277,-370.6176 1155.0277,-370.6176 1160.7278,-372.4907 1153.3419,-375.7477 1166.428,-374.3638 1166.428,-374.3638"/>
<polygon fill="#0000ff" stroke="#0000ff" points="1287.4721,-414.1388 1297.1866,-423.0152 1293.1723,-416.0119 1298.8724,-417.8851 1298.8724,-417.8851 1298.8724,-417.8851 1293.1723,-416.0119 1300.5582,-412.7549 1287.4721,-414.1388 1287.4721,-414.1388"/>
</g>
<!-- UserRole -->
<g id="node5" class="node">
<title>UserRole</title>
<polygon fill="#add8e6" stroke="transparent" points="1302,-340 1302,-362 1407,-362 1407,-340 1302,-340"/>
<polygon fill="none" stroke="#000000" points="1302,-340 1302,-362 1407,-362 1407,-340 1302,-340"/>
<text text-anchor="start" x="1335.6185" y="-349" font-family="Times,serif" font-weight="bold" font-size="10.00" fill="#000000">UserRole</text>
<polygon fill="none" stroke="#000000" points="1302,-318 1302,-340 1407,-340 1407,-318 1302,-318"/>
<text text-anchor="start" x="1307" y="-327" font-family="Times,serif" text-decoration="underline" font-size="10.00" fill="#000000">id</text>
<text text-anchor="start" x="1314.779" y="-327" font-family="Times,serif" font-size="10.00" fill="#000000">: NUMBER</text>
<polygon fill="none" stroke="#000000" points="1302,-296 1302,-318 1407,-318 1407,-296 1302,-296"/>
<text text-anchor="start" x="1307" y="-305" font-family="Times,serif" font-style="italic" text-decoration="underline" font-size="10.00" fill="#000000">userId</text>
<text text-anchor="start" x="1331.986" y="-305" font-family="Times,serif" font-size="10.00" fill="#000000">: UUID</text>
<polygon fill="none" stroke="#000000" points="1302,-274 1302,-296 1407,-296 1407,-274 1302,-274"/>
<text text-anchor="start" x="1307" y="-283" font-family="Times,serif" font-style="italic" text-decoration="underline" font-size="10.00" fill="#000000">roleId</text>
<text text-anchor="start" x="1330.876" y="-283" font-family="Times,serif" font-size="10.00" fill="#000000">: NUMBER</text>
<polygon fill="none" stroke="#000000" points="1302,-252 1302,-274 1407,-274 1407,-252 1302,-252"/>
<text text-anchor="start" x="1306.6025" y="-260" font-family="Times,serif" font-size="10.00" fill="#000000">resourceType: STRING</text>
<polygon fill="none" stroke="#000000" points="1302,-230 1302,-252 1407,-252 1407,-230 1302,-230"/>
<text text-anchor="start" x="1307" y="-238" font-family="Times,serif" font-size="10.00" fill="#000000">resourceId: STRING</text>
<polygon fill="none" stroke="#000000" points="1302,-208 1302,-230 1407,-230 1407,-208 1302,-208"/>
<text text-anchor="start" x="1307" y="-216" font-family="Times,serif" font-size="10.00" fill="#000000">createdAt: DATE</text>
<polygon fill="none" stroke="#000000" points="1302,-186 1302,-208 1407,-208 1407,-186 1302,-186"/>
<text text-anchor="start" x="1307" y="-194" font-family="Times,serif" font-size="10.00" fill="#000000">updatedAt: DATE</text>
</g>
<!-- Role&#45;&gt;UserRole -->
<g id="edge2" class="edge">
<title>Role&#45;&gt;UserRole</title>
<path fill="none" stroke="#0000ff" d="M1166.5124,-335.6085C1203.7495,-323.3724 1251.8441,-307.5685 1289.9985,-295.0309"/>
<polygon fill="#0000ff" stroke="#0000ff" points="1166.428,-335.6362 1153.3419,-334.2523 1160.7278,-337.5093 1155.0277,-339.3824 1155.0277,-339.3824 1155.0277,-339.3824 1160.7278,-337.5093 1156.7135,-344.5125 1166.428,-335.6362 1166.428,-335.6362"/>
<polygon fill="#0000ff" stroke="#0000ff" points="1302.8086,-295.2425 1290.0971,-294.9986 1300.1862,-287.2623 1302.8086,-295.2425"/>
</g>
<!-- Permission -->
<g id="node2" class="node">
<title>Permission</title>
<polygon fill="#add8e6" stroke="transparent" points="1060.5,-611 1060.5,-633 1155.5,-633 1155.5,-611 1060.5,-611"/>
<polygon fill="none" stroke="#000000" points="1060.5,-611 1060.5,-633 1155.5,-633 1155.5,-611 1060.5,-611"/>
<text text-anchor="start" x="1085.779" y="-620" font-family="Times,serif" font-weight="bold" font-size="10.00" fill="#000000">Permission</text>
<polygon fill="none" stroke="#000000" points="1060.5,-589 1060.5,-611 1155.5,-611 1155.5,-589 1060.5,-589"/>
<text text-anchor="start" x="1065.5" y="-598" font-family="Times,serif" text-decoration="underline" font-size="10.00" fill="#000000">id</text>
<text text-anchor="start" x="1073.279" y="-598" font-family="Times,serif" font-size="10.00" fill="#000000">: NUMBER</text>
<polygon fill="none" stroke="#000000" points="1060.5,-567 1060.5,-589 1155.5,-589 1155.5,-567 1060.5,-567"/>
<text text-anchor="start" x="1065.5" y="-575" font-family="Times,serif" font-size="10.00" fill="#000000">name: STRING</text>
<polygon fill="none" stroke="#000000" points="1060.5,-545 1060.5,-567 1155.5,-567 1155.5,-545 1060.5,-545"/>
<text text-anchor="start" x="1065.5" y="-553" font-family="Times,serif" font-size="10.00" fill="#000000">resource: STRING</text>
<polygon fill="none" stroke="#000000" points="1060.5,-523 1060.5,-545 1155.5,-545 1155.5,-523 1060.5,-523"/>
<text text-anchor="start" x="1065.5" y="-531" font-family="Times,serif" font-size="10.00" fill="#000000">action: STRING</text>
<polygon fill="none" stroke="#000000" points="1060.5,-501 1060.5,-523 1155.5,-523 1155.5,-501 1060.5,-501"/>
<text text-anchor="start" x="1065.092" y="-509" font-family="Times,serif" font-size="10.00" fill="#000000">description: STRING</text>
<polygon fill="none" stroke="#000000" points="1060.5,-479 1060.5,-501 1155.5,-501 1155.5,-479 1060.5,-479"/>
<text text-anchor="start" x="1065.5" y="-487" font-family="Times,serif" font-size="10.00" fill="#000000">createdAt: DATE</text>
<polygon fill="none" stroke="#000000" points="1060.5,-457 1060.5,-479 1155.5,-479 1155.5,-457 1060.5,-457"/>
<text text-anchor="start" x="1065.5" y="-465" font-family="Times,serif" font-size="10.00" fill="#000000">updatedAt: DATE</text>
</g>
<!-- Permission&#45;&gt;RolePermission -->
<g id="edge3" class="edge">
<title>Permission&#45;&gt;RolePermission</title>
<path fill="none" stroke="#0000ff" d="M1166.0168,-519.1244C1202.4921,-502.9954 1249.5289,-482.1961 1287.4264,-465.4382"/>
<polygon fill="#0000ff" stroke="#0000ff" points="1166.0026,-519.1306 1152.8438,-519.045 1160.5151,-521.5572 1155.0277,-523.9837 1155.0277,-523.9837 1155.0277,-523.9837 1160.5151,-521.5572 1157.2116,-528.9224 1166.0026,-519.1306 1166.0026,-519.1306"/>
<polygon fill="#0000ff" stroke="#0000ff" points="1287.8975,-465.23 1301.0563,-465.3156 1293.385,-462.8034 1298.8724,-460.3769 1298.8724,-460.3769 1298.8724,-460.3769 1293.385,-462.8034 1296.6885,-455.4382 1287.8975,-465.23 1287.8975,-465.23"/>
</g>
<!-- User -->
<g id="node4" class="node">
<title>User</title>
<polygon fill="#add8e6" stroke="transparent" points="1063.5,-231 1063.5,-253 1152.5,-253 1152.5,-231 1063.5,-231"/>
<polygon fill="none" stroke="#000000" points="1063.5,-231 1063.5,-253 1152.5,-253 1152.5,-231 1063.5,-231"/>
<text text-anchor="start" x="1098.562" y="-240" font-family="Times,serif" font-weight="bold" font-size="10.00" fill="#000000">User</text>
<polygon fill="none" stroke="#000000" points="1063.5,-209 1063.5,-231 1152.5,-231 1152.5,-209 1063.5,-209"/>
<text text-anchor="start" x="1068.5" y="-218" font-family="Times,serif" text-decoration="underline" font-size="10.00" fill="#000000">id</text>
<text text-anchor="start" x="1076.279" y="-218" font-family="Times,serif" font-size="10.00" fill="#000000">: UUID</text>
<polygon fill="none" stroke="#000000" points="1063.5,-187 1063.5,-209 1152.5,-209 1152.5,-187 1063.5,-187"/>
<text text-anchor="start" x="1068.5" y="-195" font-family="Times,serif" font-size="10.00" fill="#000000">googleId: STRING</text>
<polygon fill="none" stroke="#000000" points="1063.5,-165 1063.5,-187 1152.5,-187 1152.5,-165 1063.5,-165"/>
<text text-anchor="start" x="1068.1515" y="-173" font-family="Times,serif" font-size="10.00" fill="#000000">username: STRING</text>
<polygon fill="none" stroke="#000000" points="1063.5,-143 1063.5,-165 1152.5,-165 1152.5,-143 1063.5,-143"/>
<text text-anchor="start" x="1068.5" y="-151" font-family="Times,serif" font-size="10.00" fill="#000000">createdAt: DATE</text>
<polygon fill="none" stroke="#000000" points="1063.5,-121 1063.5,-143 1152.5,-143 1152.5,-121 1063.5,-121"/>
<text text-anchor="start" x="1068.5" y="-129" font-family="Times,serif" font-size="10.00" fill="#000000">updatedAt: DATE</text>
</g>
<!-- User&#45;&gt;UserRole -->
<g id="edge4" class="edge">
<title>User&#45;&gt;UserRole</title>
<path fill="none" stroke="#0000ff" d="M1163.6425,-206.815C1201.1298,-220.0458 1250.5329,-237.4822 1289.6152,-251.2759"/>
<polygon fill="#0000ff" stroke="#0000ff" points="1163.4552,-206.749 1153.9365,-197.6629 1157.7972,-204.752 1152.1393,-202.755 1152.1393,-202.755 1152.1393,-202.755 1157.7972,-204.752 1150.342,-207.8472 1163.4552,-206.749 1163.4552,-206.749"/>
<polygon fill="#0000ff" stroke="#0000ff" points="1299.7288,-259.2994 1289.8108,-251.3449 1302.5245,-251.3783 1299.7288,-259.2994"/>
</g>
<!-- Image -->
<g id="node6" class="node">
<title>Image</title>
<polygon fill="#add8e6" stroke="transparent" points="267.5,-586 267.5,-608 371.5,-608 371.5,-586 267.5,-586"/>
<polygon fill="none" stroke="#000000" points="267.5,-586 267.5,-608 371.5,-608 371.5,-586 267.5,-586"/>
<text text-anchor="start" x="307.007" y="-595" font-family="Times,serif" font-weight="bold" font-size="10.00" fill="#000000">Image</text>
<polygon fill="none" stroke="#000000" points="267.5,-564 267.5,-586 371.5,-586 371.5,-564 267.5,-564"/>
<text text-anchor="start" x="272.5" y="-573" font-family="Times,serif" text-decoration="underline" font-size="10.00" fill="#000000">id</text>
<text text-anchor="start" x="280.279" y="-573" font-family="Times,serif" font-size="10.00" fill="#000000">: UUID</text>
<polygon fill="none" stroke="#000000" points="267.5,-542 267.5,-564 371.5,-564 371.5,-542 267.5,-542"/>
<text text-anchor="start" x="272.4275" y="-550" font-family="Times,serif" font-size="10.00" fill="#000000">displayName: STRING</text>
<polygon fill="none" stroke="#000000" points="267.5,-520 267.5,-542 371.5,-542 371.5,-520 267.5,-520"/>
<text text-anchor="start" x="272.5" y="-528" font-family="Times,serif" font-size="10.00" fill="#000000">storagePath: STRING</text>
<polygon fill="none" stroke="#000000" points="267.5,-498 267.5,-520 371.5,-520 371.5,-498 267.5,-498"/>
<text text-anchor="start" x="272.5" y="-506" font-family="Times,serif" font-size="10.00" fill="#000000">contentType: STRING</text>
<polygon fill="none" stroke="#000000" points="267.5,-476 267.5,-498 371.5,-498 371.5,-476 267.5,-476"/>
<text text-anchor="start" x="272.5" y="-484" font-family="Times,serif" font-size="10.00" fill="#000000">fileSize: NUMBER</text>
<polygon fill="none" stroke="#000000" points="267.5,-454 267.5,-476 371.5,-476 371.5,-454 267.5,-454"/>
<text text-anchor="start" x="272.5" y="-463" font-family="Times,serif" font-style="italic" text-decoration="underline" font-size="10.00" fill="#000000">uploaderUserId</text>
<text text-anchor="start" x="334.691" y="-463" font-family="Times,serif" font-size="10.00" fill="#000000">: UUID</text>
<polygon fill="none" stroke="#000000" points="267.5,-432 267.5,-454 371.5,-454 371.5,-432 267.5,-432"/>
<text text-anchor="start" x="272.5" y="-440" font-family="Times,serif" font-size="10.00" fill="#000000">createdAt: DATE</text>
<polygon fill="none" stroke="#000000" points="267.5,-410 267.5,-432 371.5,-432 371.5,-410 267.5,-410"/>
<text text-anchor="start" x="272.5" y="-418" font-family="Times,serif" font-size="10.00" fill="#000000">updatedAt: DATE</text>
</g>
<!-- PrototypeGroup -->
<g id="node7" class="node">
<title>PrototypeGroup</title>
<polygon fill="#add8e6" stroke="transparent" points="833.5,-165 833.5,-187 916.5,-187 916.5,-165 833.5,-165"/>
<polygon fill="none" stroke="#000000" points="833.5,-165 833.5,-187 916.5,-187 916.5,-165 833.5,-165"/>
<text text-anchor="start" x="842.7835" y="-174" font-family="Times,serif" font-weight="bold" font-size="10.00" fill="#000000">PrototypeGroup</text>
<polygon fill="none" stroke="#000000" points="833.5,-143 833.5,-165 916.5,-165 916.5,-143 833.5,-143"/>
<text text-anchor="start" x="838.5" y="-152" font-family="Times,serif" text-decoration="underline" font-size="10.00" fill="#000000">id</text>
<text text-anchor="start" x="846.279" y="-152" font-family="Times,serif" font-size="10.00" fill="#000000">: UUID</text>
<polygon fill="none" stroke="#000000" points="833.5,-121 833.5,-143 916.5,-143 916.5,-121 833.5,-121"/>
<text text-anchor="start" x="838.5" y="-130" font-family="Times,serif" font-style="italic" text-decoration="underline" font-size="10.00" fill="#000000">userId</text>
<text text-anchor="start" x="863.486" y="-130" font-family="Times,serif" font-size="10.00" fill="#000000">: UUID</text>
<polygon fill="none" stroke="#000000" points="833.5,-99 833.5,-121 916.5,-121 916.5,-99 833.5,-99"/>
<text text-anchor="start" x="838.5" y="-107" font-family="Times,serif" font-size="10.00" fill="#000000">createdAt: DATE</text>
<polygon fill="none" stroke="#000000" points="833.5,-77 833.5,-99 916.5,-99 916.5,-77 833.5,-77"/>
<text text-anchor="start" x="838.205" y="-85" font-family="Times,serif" font-size="10.00" fill="#000000">updatedAt: DATE</text>
</g>
<!-- PrototypeGroup&#45;&gt;User -->
<g id="edge5" class="edge">
<title>PrototypeGroup&#45;&gt;User</title>
<path fill="none" stroke="#0000ff" d="M928.0264,-144.635C964.7883,-153.3127 1013.5104,-164.8136 1050.9128,-173.6425"/>
<polygon fill="#0000ff" stroke="#0000ff" points="917.1207,-137.7452 927.8348,-144.5898 915.1908,-145.9206 917.1207,-137.7452"/>
<polygon fill="#0000ff" stroke="#0000ff" points="1050.9501,-173.6512 1061.3885,-181.6637 1056.7896,-175.0297 1062.6291,-176.4082 1062.6291,-176.4082 1062.6291,-176.4082 1056.7896,-175.0297 1063.8698,-171.1526 1050.9501,-173.6512 1050.9501,-173.6512"/>
</g>
<!-- Prototype -->
<g id="node8" class="node">
<title>Prototype</title>
<polygon fill="#add8e6" stroke="transparent" points="544.5,-187 544.5,-209 689.5,-209 689.5,-187 544.5,-187"/>
<polygon fill="none" stroke="#000000" points="544.5,-187 544.5,-209 689.5,-209 689.5,-187 544.5,-187"/>
<text text-anchor="start" x="597.5575" y="-196" font-family="Times,serif" font-weight="bold" font-size="10.00" fill="#000000">Prototype</text>
<polygon fill="none" stroke="#000000" points="544.5,-165 544.5,-187 689.5,-187 689.5,-165 544.5,-165"/>
<text text-anchor="start" x="549.5" y="-174" font-family="Times,serif" text-decoration="underline" font-size="10.00" fill="#000000">id</text>
<text text-anchor="start" x="557.279" y="-174" font-family="Times,serif" font-size="10.00" fill="#000000">: UUID</text>
<polygon fill="none" stroke="#000000" points="544.5,-143 544.5,-165 689.5,-165 689.5,-143 544.5,-143"/>
<text text-anchor="start" x="549.5" y="-152" font-family="Times,serif" font-style="italic" text-decoration="underline" font-size="10.00" fill="#000000">prototypeGroupId</text>
<text text-anchor="start" x="621.703" y="-152" font-family="Times,serif" font-size="10.00" fill="#000000">: UUID</text>
<polygon fill="none" stroke="#000000" points="544.5,-121 544.5,-143 689.5,-143 689.5,-121 544.5,-121"/>
<text text-anchor="start" x="549.5" y="-129" font-family="Times,serif" font-size="10.00" fill="#000000">name: STRING</text>
<polygon fill="none" stroke="#000000" points="544.5,-99 544.5,-121 689.5,-121 689.5,-99 544.5,-99"/>
<text text-anchor="start" x="549.5" y="-107" font-family="Times,serif" font-size="10.00" fill="#000000">type: ENUM</text>
<polygon fill="none" stroke="#000000" points="544.5,-77 544.5,-99 689.5,-99 689.5,-77 544.5,-77"/>
<text text-anchor="start" x="549.5" y="-85" font-family="Times,serif" font-size="10.00" fill="#000000">versionNumber: NUMBER</text>
<polygon fill="none" stroke="#000000" points="544.5,-55 544.5,-77 689.5,-77 689.5,-55 544.5,-55"/>
<text text-anchor="start" x="549.385" y="-64" font-family="Times,serif" font-style="italic" text-decoration="underline" font-size="10.00" fill="#000000">sourceVersionPrototypeId</text>
<text text-anchor="start" x="654.35" y="-64" font-family="Times,serif" font-size="10.00" fill="#000000">: UUID</text>
<polygon fill="none" stroke="#000000" points="544.5,-33 544.5,-55 689.5,-55 689.5,-33 544.5,-33"/>
<text text-anchor="start" x="549.5" y="-41" font-family="Times,serif" font-size="10.00" fill="#000000">createdAt: DATE</text>
<polygon fill="none" stroke="#000000" points="544.5,-11 544.5,-33 689.5,-33 689.5,-11 544.5,-11"/>
<text text-anchor="start" x="549.5" y="-19" font-family="Times,serif" font-size="10.00" fill="#000000">updatedAt: DATE</text>
</g>
<!-- Prototype&#45;&gt;PrototypeGroup -->
<g id="edge6" class="edge">
<title>Prototype&#45;&gt;PrototypeGroup</title>
<path fill="none" stroke="#0000ff" d="M701.2523,-117.2269C740.4906,-120.5728 785.9435,-124.4487 820.4457,-127.3907"/>
<polygon fill="#0000ff" stroke="#0000ff" points="689.4108,-112.002 701.0106,-117.2064 688.6971,-120.3716 689.4108,-112.002"/>
<polygon fill="#0000ff" stroke="#0000ff" points="820.6732,-127.41 832.171,-133.8101 826.6515,-127.9199 832.6298,-128.4297 832.6298,-128.4297 832.6298,-128.4297 826.6515,-127.9199 833.0886,-123.0492 820.6732,-127.41 820.6732,-127.41"/>
</g>
<!-- Part -->
<g id="node9" class="node">
<title>Part</title>
<polygon fill="#add8e6" stroke="transparent" points="239.5,-352 239.5,-374 400.5,-374 400.5,-352 239.5,-352"/>
<polygon fill="none" stroke="#000000" points="239.5,-352 239.5,-374 400.5,-374 400.5,-352 239.5,-352"/>
<text text-anchor="start" x="311.947" y="-361" font-family="Times,serif" font-weight="bold" font-size="10.00" fill="#000000">Part</text>
<polygon fill="none" stroke="#000000" points="239.5,-330 239.5,-352 400.5,-352 400.5,-330 239.5,-330"/>
<text text-anchor="start" x="244.5" y="-339" font-family="Times,serif" text-decoration="underline" font-size="10.00" fill="#000000">id</text>
<text text-anchor="start" x="252.279" y="-339" font-family="Times,serif" font-size="10.00" fill="#000000">: NUMBER</text>
<polygon fill="none" stroke="#000000" points="239.5,-308 239.5,-330 400.5,-330 400.5,-308 239.5,-308"/>
<text text-anchor="start" x="244.5" y="-316" font-family="Times,serif" font-size="10.00" fill="#000000">type: ENUM</text>
<polygon fill="none" stroke="#000000" points="239.5,-286 239.5,-308 400.5,-308 400.5,-286 239.5,-286"/>
<text text-anchor="start" x="244.5" y="-295" font-family="Times,serif" font-style="italic" text-decoration="underline" font-size="10.00" fill="#000000">prototypeId</text>
<text text-anchor="start" x="291.155" y="-295" font-family="Times,serif" font-size="10.00" fill="#000000">: UUID</text>
<polygon fill="none" stroke="#000000" points="239.5,-264 239.5,-286 400.5,-286 400.5,-264 239.5,-264"/>
<text text-anchor="start" x="244.5" y="-273" font-family="Times,serif" font-style="italic" text-decoration="underline" font-size="10.00" fill="#000000">parentId</text>
<text text-anchor="start" x="277.815" y="-273" font-family="Times,serif" font-size="10.00" fill="#000000">: NUMBER</text>
<polygon fill="none" stroke="#000000" points="239.5,-242 239.5,-264 400.5,-264 400.5,-242 239.5,-242"/>
<text text-anchor="start" x="244.5" y="-250" font-family="Times,serif" font-size="10.00" fill="#000000">position: JSON</text>
<polygon fill="none" stroke="#000000" points="239.5,-220 239.5,-242 400.5,-242 400.5,-220 239.5,-220"/>
<text text-anchor="start" x="244.5" y="-228" font-family="Times,serif" font-size="10.00" fill="#000000">width: NUMBER</text>
<polygon fill="none" stroke="#000000" points="239.5,-198 239.5,-220 400.5,-220 400.5,-198 239.5,-198"/>
<text text-anchor="start" x="244.5" y="-206" font-family="Times,serif" font-size="10.00" fill="#000000">height: NUMBER</text>
<polygon fill="none" stroke="#000000" points="239.5,-176 239.5,-198 400.5,-198 400.5,-176 239.5,-176"/>
<text text-anchor="start" x="244.5" y="-184" font-family="Times,serif" font-size="10.00" fill="#000000">order: NUMBER</text>
<polygon fill="none" stroke="#000000" points="239.5,-154 239.5,-176 400.5,-176 400.5,-154 239.5,-154"/>
<text text-anchor="start" x="244.5" y="-162" font-family="Times,serif" font-size="10.00" fill="#000000">configurableTypeAsChild: ARRAY</text>
<polygon fill="none" stroke="#000000" points="239.5,-132 239.5,-154 400.5,-154 400.5,-132 239.5,-132"/>
<text text-anchor="start" x="244.5" y="-141" font-family="Times,serif" font-style="italic" text-decoration="underline" font-size="10.00" fill="#000000">originalPartId</text>
<text text-anchor="start" x="300.04" y="-141" font-family="Times,serif" font-size="10.00" fill="#000000">: NUMBER</text>
<polygon fill="none" stroke="#000000" points="239.5,-110 239.5,-132 400.5,-132 400.5,-110 239.5,-110"/>
<text text-anchor="start" x="244.5" y="-118" font-family="Times,serif" font-size="10.00" fill="#000000">isReversible: BOOLEAN</text>
<polygon fill="none" stroke="#000000" points="239.5,-88 239.5,-110 400.5,-110 400.5,-88 239.5,-88"/>
<text text-anchor="start" x="244.5" y="-96" font-family="Times,serif" font-size="10.00" fill="#000000">isFlipped: BOOLEAN</text>
<polygon fill="none" stroke="#000000" points="239.5,-66 239.5,-88 400.5,-88 400.5,-66 239.5,-66"/>
<text text-anchor="start" x="244.5" y="-75" font-family="Times,serif" font-style="italic" text-decoration="underline" font-size="10.00" fill="#000000">ownerId</text>
<text text-anchor="start" x="277.816" y="-75" font-family="Times,serif" font-size="10.00" fill="#000000">: UUID</text>
<polygon fill="none" stroke="#000000" points="239.5,-44 239.5,-66 400.5,-66 400.5,-44 239.5,-44"/>
<text text-anchor="start" x="244.0615" y="-52" font-family="Times,serif" font-size="10.00" fill="#000000">canReverseCardOnDeck: BOOLEAN</text>
<polygon fill="none" stroke="#000000" points="239.5,-22 239.5,-44 400.5,-44 400.5,-22 239.5,-22"/>
<text text-anchor="start" x="244.5" y="-30" font-family="Times,serif" font-size="10.00" fill="#000000">createdAt: DATE</text>
<polygon fill="none" stroke="#000000" points="239.5,0 239.5,-22 400.5,-22 400.5,0 239.5,0"/>
<text text-anchor="start" x="244.5" y="-8" font-family="Times,serif" font-size="10.00" fill="#000000">updatedAt: DATE</text>
</g>
<!-- Part&#45;&gt;User -->
<g id="edge8" class="edge">
<title>Part&#45;&gt;User</title>
<path fill="none" stroke="#0000ff" d="M412.0683,-207.2794C452.3782,-215.1256 500.3049,-223.1378 544,-227 729.2224,-243.372 949.1642,-213.5547 1050.8084,-196.9835"/>
<polygon fill="#0000ff" stroke="#0000ff" points="400.9061,-200.7896 411.8628,-207.2388 399.2758,-209.0299 400.9061,-200.7896"/>
<polygon fill="#0000ff" stroke="#0000ff" points="1051.0593,-196.9421 1063.7798,-200.3111 1056.9789,-195.9628 1062.8984,-194.9835 1062.8984,-194.9835 1062.8984,-194.9835 1056.9789,-195.9628 1062.017,-189.6559 1051.0593,-196.9421 1051.0593,-196.9421"/>
</g>
<!-- Part&#45;&gt;Prototype -->
<g id="edge7" class="edge">
<title>Part&#45;&gt;Prototype</title>
<path fill="none" stroke="#0000ff" d="M412.0407,-163.008C450.3687,-153.0711 494.5221,-141.6239 531.9672,-131.9159"/>
<polygon fill="#0000ff" stroke="#0000ff" points="399.2102,-161.9955 411.8802,-163.0495 401.3183,-170.1267 399.2102,-161.9955"/>
<polygon fill="#0000ff" stroke="#0000ff" points="532.2571,-131.8408 545.2283,-134.0564 538.0651,-130.335 543.8731,-128.8292 543.8731,-128.8292 543.8731,-128.8292 538.0651,-130.335 542.5179,-123.602 532.2571,-131.8408 532.2571,-131.8408"/>
</g>
<!-- PartProperty -->
<g id="node10" class="node">
<title>PartProperty</title>
<polygon fill="#add8e6" stroke="transparent" points=".5,-436 .5,-458 95.5,-458 95.5,-436 .5,-436"/>
<polygon fill="none" stroke="#000000" points=".5,-436 .5,-458 95.5,-458 95.5,-436 .5,-436"/>
<text text-anchor="start" x="22.7295" y="-445" font-family="Times,serif" font-weight="bold" font-size="10.00" fill="#000000">PartProperty</text>
<polygon fill="none" stroke="#000000" points=".5,-414 .5,-436 95.5,-436 95.5,-414 .5,-414"/>
<text text-anchor="start" x="5.5" y="-423" font-family="Times,serif" text-decoration="underline" font-size="10.00" fill="#000000">partId</text>
<text text-anchor="start" x="29.376" y="-423" font-family="Times,serif" font-size="10.00" fill="#000000">: NUMBER</text>
<polygon fill="none" stroke="#000000" points=".5,-392 .5,-414 95.5,-414 95.5,-392 .5,-392"/>
<text text-anchor="start" x="5.5" y="-401" font-family="Times,serif" text-decoration="underline" font-size="10.00" fill="#000000">side</text>
<text text-anchor="start" x="21.607" y="-401" font-family="Times,serif" font-size="10.00" fill="#000000">: ENUM</text>
<polygon fill="none" stroke="#000000" points=".5,-370 .5,-392 95.5,-392 95.5,-370 .5,-370"/>
<text text-anchor="start" x="5.5" y="-378" font-family="Times,serif" font-size="10.00" fill="#000000">name: STRING</text>
<polygon fill="none" stroke="#000000" points=".5,-348 .5,-370 95.5,-370 95.5,-348 .5,-348"/>
<text text-anchor="start" x="5.092" y="-356" font-family="Times,serif" font-size="10.00" fill="#000000">description: STRING</text>
<polygon fill="none" stroke="#000000" points=".5,-326 .5,-348 95.5,-348 95.5,-326 .5,-326"/>
<text text-anchor="start" x="5.5" y="-334" font-family="Times,serif" font-size="10.00" fill="#000000">color: STRING</text>
<polygon fill="none" stroke="#000000" points=".5,-304 .5,-326 95.5,-326 95.5,-304 .5,-304"/>
<text text-anchor="start" x="5.5" y="-312" font-family="Times,serif" font-size="10.00" fill="#000000">textColor: STRING</text>
<polygon fill="none" stroke="#000000" points=".5,-282 .5,-304 95.5,-304 95.5,-282 .5,-282"/>
<text text-anchor="start" x="5.5" y="-291" font-family="Times,serif" font-style="italic" text-decoration="underline" font-size="10.00" fill="#000000">imageId</text>
<text text-anchor="start" x="38.265" y="-291" font-family="Times,serif" font-size="10.00" fill="#000000">: UUID</text>
<polygon fill="none" stroke="#000000" points=".5,-260 .5,-282 95.5,-282 95.5,-260 .5,-260"/>
<text text-anchor="start" x="5.5" y="-268" font-family="Times,serif" font-size="10.00" fill="#000000">createdAt: DATE</text>
<polygon fill="none" stroke="#000000" points=".5,-238 .5,-260 95.5,-260 95.5,-238 .5,-238"/>
<text text-anchor="start" x="5.5" y="-246" font-family="Times,serif" font-size="10.00" fill="#000000">updatedAt: DATE</text>
</g>
<!-- PartProperty&#45;&gt;Image -->
<g id="edge10" class="edge">
<title>PartProperty&#45;&gt;Image</title>
<path fill="none" stroke="#0000ff" d="M105.7141,-382.4576C150.1801,-408.7776 211.3596,-444.9904 256.8817,-471.9355"/>
<polygon fill="#0000ff" stroke="#0000ff" points="97.3294,-372.614 105.5166,-382.3408 93.0507,-379.8426 97.3294,-372.614"/>
<polygon fill="#0000ff" stroke="#0000ff" points="256.8926,-471.9419 264.4686,-482.7013 262.0559,-474.9981 267.2192,-478.0544 267.2192,-478.0544 267.2192,-478.0544 262.0559,-474.9981 269.9698,-473.4074 256.8926,-471.9419 256.8926,-471.9419"/>
</g>
<!-- PartProperty&#45;&gt;Part -->
<g id="edge9" class="edge">
<title>PartProperty&#45;&gt;Part</title>
<path fill="none" stroke="#0000ff" d="M105.7753,-313.5062C141.4558,-292.3865 187.8807,-264.907 228.3426,-240.9572"/>
<polygon fill="#0000ff" stroke="#0000ff" points="93.0507,-316.1574 105.5166,-313.6592 97.3294,-323.386 93.0507,-316.1574"/>
<polygon fill="#0000ff" stroke="#0000ff" points="228.4359,-240.902 241.5131,-239.4365 233.5992,-237.8457 238.7625,-234.7895 238.7625,-234.7895 238.7625,-234.7895 233.5992,-237.8457 236.0119,-230.1425 228.4359,-240.902 228.4359,-240.902"/>
</g>
</g>
</svg>
