<?xml version="1.0" encoding="UTF-8" standalone="no"?>
<!DOCTYPE svg PUBLIC "-//W3C//DTD SVG 1.1//EN"
 "http://www.w3.org/Graphics/SVG/1.1/DTD/svg11.dtd">
<!-- Generated by graphviz version 2.40.1 (20161225.0304)
 -->
<!-- Title: models_diagram Pages: 1 -->
<svg width="1209pt" height="804pt"
 viewBox="0.00 0.00 1209.00 804.00" xmlns="http://www.w3.org/2000/svg" xmlns:xlink="http://www.w3.org/1999/xlink">
<g id="graph0" class="graph" transform="scale(1 1) rotate(0) translate(36 768)">
<title>models_diagram</title>
<polygon fill="#ffffff" stroke="transparent" points="-36,36 -36,-768 1173,-768 1173,36 -36,36"/>
<!-- User -->
<g id="node1" class="node">
<title>User</title>
<polygon fill="#add8e6" stroke="transparent" points="813.5,-503 813.5,-525 902.5,-525 902.5,-503 813.5,-503"/>
<polygon fill="none" stroke="#000000" points="813.5,-503 813.5,-525 902.5,-525 902.5,-503 813.5,-503"/>
<text text-anchor="start" x="848.562" y="-512" font-family="Times,serif" font-weight="bold" font-size="10.00" fill="#000000">User</text>
<polygon fill="none" stroke="#000000" points="813.5,-481 813.5,-503 902.5,-503 902.5,-481 813.5,-481"/>
<text text-anchor="start" x="818.5" y="-490" font-family="Times,serif" text-decoration="underline" font-size="10.00" fill="#000000">id</text>
<text text-anchor="start" x="826.279" y="-490" font-family="Times,serif" font-size="10.00" fill="#000000">: UUID</text>
<polygon fill="none" stroke="#000000" points="813.5,-459 813.5,-481 902.5,-481 902.5,-459 813.5,-459"/>
<text text-anchor="start" x="818.5" y="-467" font-family="Times,serif" font-size="10.00" fill="#000000">googleId: STRING</text>
<polygon fill="none" stroke="#000000" points="813.5,-437 813.5,-459 902.5,-459 902.5,-437 813.5,-437"/>
<text text-anchor="start" x="818.1515" y="-445" font-family="Times,serif" font-size="10.00" fill="#000000">username: STRING</text>
<polygon fill="none" stroke="#000000" points="813.5,-415 813.5,-437 902.5,-437 902.5,-415 813.5,-415"/>
<text text-anchor="start" x="818.5" y="-423" font-family="Times,serif" font-size="10.00" fill="#000000">createdAt: DATE</text>
<polygon fill="none" stroke="#000000" points="813.5,-393 813.5,-415 902.5,-415 902.5,-393 813.5,-393"/>
<text text-anchor="start" x="818.5" y="-401" font-family="Times,serif" font-size="10.00" fill="#000000">updatedAt: DATE</text>
</g>
<!-- UserAccess -->
<g id="node8" class="node">
<title>UserAccess</title>
<polygon fill="#add8e6" stroke="transparent" points="1046.5,-549 1046.5,-571 1137.5,-571 1137.5,-549 1046.5,-549"/>
<polygon fill="none" stroke="#000000" points="1046.5,-549 1046.5,-571 1137.5,-571 1137.5,-549 1046.5,-549"/>
<text text-anchor="start" x="1068.405" y="-558" font-family="Times,serif" font-weight="bold" font-size="10.00" fill="#000000">UserAccess</text>
<polygon fill="none" stroke="#000000" points="1046.5,-527 1046.5,-549 1137.5,-549 1137.5,-527 1046.5,-527"/>
<text text-anchor="start" x="1051.5" y="-536" font-family="Times,serif" text-decoration="underline" font-size="10.00" fill="#000000">userId</text>
<text text-anchor="start" x="1076.486" y="-536" font-family="Times,serif" font-size="10.00" fill="#000000">: UUID</text>
<polygon fill="none" stroke="#000000" points="1046.5,-505 1046.5,-527 1137.5,-527 1137.5,-505 1046.5,-505"/>
<text text-anchor="start" x="1051.042" y="-514" font-family="Times,serif" text-decoration="underline" font-size="10.00" fill="#000000">accessId</text>
<text text-anchor="start" x="1084.905" y="-514" font-family="Times,serif" font-size="10.00" fill="#000000">: NUMBER</text>
</g>
<!-- User&#45;&gt;UserAccess -->
<g id="edge1" class="edge">
<title>User&#45;&gt;UserAccess</title>
<path fill="none" stroke="#0000ff" d="M913.6306,-477.9501C950.1606,-490.2828 997.6625,-506.3198 1034.3869,-518.7182"/>
<polygon fill="#0000ff" stroke="#0000ff" points="913.4339,-477.8837 903.7917,-468.929 907.7492,-475.9645 902.0644,-474.0452 902.0644,-474.0452 902.0644,-474.0452 907.7492,-475.9645 900.3371,-479.1615 913.4339,-477.8837 913.4339,-477.8837"/>
<polygon fill="#0000ff" stroke="#0000ff" points="1034.5346,-518.768 1044.1768,-527.7228 1040.2193,-520.6873 1045.9041,-522.6065 1045.9041,-522.6065 1045.9041,-522.6065 1040.2193,-520.6873 1047.6314,-517.4902 1034.5346,-518.768 1034.5346,-518.768"/>
</g>
<!-- UserPlayer -->
<g id="node9" class="node">
<title>UserPlayer</title>
<polygon fill="#add8e6" stroke="transparent" points="1046.5,-391 1046.5,-413 1137.5,-413 1137.5,-391 1046.5,-391"/>
<polygon fill="none" stroke="#000000" points="1046.5,-391 1046.5,-413 1137.5,-413 1137.5,-391 1046.5,-391"/>
<text text-anchor="start" x="1069.7895" y="-400" font-family="Times,serif" font-weight="bold" font-size="10.00" fill="#000000">UserPlayer</text>
<polygon fill="none" stroke="#000000" points="1046.5,-369 1046.5,-391 1137.5,-391 1137.5,-369 1046.5,-369"/>
<text text-anchor="start" x="1051.5" y="-378" font-family="Times,serif" text-decoration="underline" font-size="10.00" fill="#000000">userId</text>
<text text-anchor="start" x="1076.486" y="-378" font-family="Times,serif" font-size="10.00" fill="#000000">: UUID</text>
<polygon fill="none" stroke="#000000" points="1046.5,-347 1046.5,-369 1137.5,-369 1137.5,-347 1046.5,-347"/>
<text text-anchor="start" x="1051.316" y="-356" font-family="Times,serif" text-decoration="underline" font-size="10.00" fill="#000000">playerId</text>
<text text-anchor="start" x="1084.631" y="-356" font-family="Times,serif" font-size="10.00" fill="#000000">: NUMBER</text>
</g>
<!-- User&#45;&gt;UserPlayer -->
<g id="edge2" class="edge">
<title>User&#45;&gt;UserPlayer</title>
<path fill="none" stroke="#0000ff" d="M913.6306,-440.0499C950.1606,-427.7172 997.6625,-411.6802 1034.3869,-399.2818"/>
<polygon fill="#0000ff" stroke="#0000ff" points="913.4339,-440.1163 900.3371,-438.8385 907.7492,-442.0355 902.0644,-443.9548 902.0644,-443.9548 902.0644,-443.9548 907.7492,-442.0355 903.7917,-449.071 913.4339,-440.1163 913.4339,-440.1163"/>
<polygon fill="#0000ff" stroke="#0000ff" points="1034.5346,-399.232 1047.6314,-400.5098 1040.2193,-397.3127 1045.9041,-395.3935 1045.9041,-395.3935 1045.9041,-395.3935 1040.2193,-397.3127 1044.1768,-390.2772 1034.5346,-399.232 1034.5346,-399.232"/>
</g>
<!-- Prototype -->
<g id="node2" class="node">
<title>Prototype</title>
<polygon fill="#add8e6" stroke="transparent" points="555,-558 555,-580 669,-580 669,-558 555,-558"/>
<polygon fill="none" stroke="#000000" points="555,-558 555,-580 669,-580 669,-558 555,-558"/>
<text text-anchor="start" x="592.5575" y="-567" font-family="Times,serif" font-weight="bold" font-size="10.00" fill="#000000">Prototype</text>
<polygon fill="none" stroke="#000000" points="555,-536 555,-558 669,-558 669,-536 555,-536"/>
<text text-anchor="start" x="560" y="-545" font-family="Times,serif" text-decoration="underline" font-size="10.00" fill="#000000">id</text>
<text text-anchor="start" x="567.779" y="-545" font-family="Times,serif" font-size="10.00" fill="#000000">: UUID</text>
<polygon fill="none" stroke="#000000" points="555,-514 555,-536 669,-536 669,-514 555,-514"/>
<text text-anchor="start" x="560" y="-523" font-family="Times,serif" font-style="italic" text-decoration="underline" font-size="10.00" fill="#000000">userId</text>
<text text-anchor="start" x="584.986" y="-523" font-family="Times,serif" font-size="10.00" fill="#000000">: UUID</text>
<polygon fill="none" stroke="#000000" points="555,-492 555,-514 669,-514 669,-492 555,-492"/>
<text text-anchor="start" x="560" y="-500" font-family="Times,serif" font-size="10.00" fill="#000000">name: STRING</text>
<polygon fill="none" stroke="#000000" points="555,-470 555,-492 669,-492 669,-470 555,-470"/>
<text text-anchor="start" x="560" y="-478" font-family="Times,serif" font-size="10.00" fill="#000000">type: ENUM</text>
<polygon fill="none" stroke="#000000" points="555,-448 555,-470 669,-470 669,-448 555,-448"/>
<text text-anchor="start" x="559.9335" y="-457" font-family="Times,serif" font-style="italic" text-decoration="underline" font-size="10.00" fill="#000000">masterPrototypeId</text>
<text text-anchor="start" x="633.8015" y="-457" font-family="Times,serif" font-size="10.00" fill="#000000">: UUID</text>
<polygon fill="none" stroke="#000000" points="555,-426 555,-448 669,-448 669,-426 555,-426"/>
<text text-anchor="start" x="560" y="-434" font-family="Times,serif" font-size="10.00" fill="#000000">groupId: UUID</text>
<polygon fill="none" stroke="#000000" points="555,-404 555,-426 669,-426 669,-404 555,-404"/>
<text text-anchor="start" x="560" y="-412" font-family="Times,serif" font-size="10.00" fill="#000000">minPlayers: NUMBER</text>
<polygon fill="none" stroke="#000000" points="555,-382 555,-404 669,-404 669,-382 555,-382"/>
<text text-anchor="start" x="560" y="-390" font-family="Times,serif" font-size="10.00" fill="#000000">maxPlayers: NUMBER</text>
<polygon fill="none" stroke="#000000" points="555,-360 555,-382 669,-382 669,-360 555,-360"/>
<text text-anchor="start" x="560" y="-368" font-family="Times,serif" font-size="10.00" fill="#000000">createdAt: DATE</text>
<polygon fill="none" stroke="#000000" points="555,-338 555,-360 669,-360 669,-338 555,-338"/>
<text text-anchor="start" x="560" y="-346" font-family="Times,serif" font-size="10.00" fill="#000000">updatedAt: DATE</text>
</g>
<!-- Prototype&#45;&gt;User -->
<g id="edge5" class="edge">
<title>Prototype&#45;&gt;User</title>
<path fill="none" stroke="#0000ff" d="M681.4047,-459C719.1202,-459 765.1771,-459 800.7285,-459"/>
<polygon fill="#0000ff" stroke="#0000ff" points="669.249,-454.8 681.249,-459.0001 669.249,-463.2 669.249,-454.8"/>
<polygon fill="#0000ff" stroke="#0000ff" points="800.8344,-459.0001 812.8344,-464.4 806.8344,-459 812.8344,-459 812.8344,-459 812.8344,-459 806.8344,-459 812.8343,-453.6 800.8344,-459.0001 800.8344,-459.0001"/>
</g>
<!-- PrototypeGroup -->
<g id="node3" class="node">
<title>PrototypeGroup</title>
<polygon fill="#add8e6" stroke="transparent" points="311.5,-583 311.5,-605 397.5,-605 397.5,-583 311.5,-583"/>
<polygon fill="none" stroke="#000000" points="311.5,-583 311.5,-605 397.5,-605 397.5,-583 311.5,-583"/>
<text text-anchor="start" x="322.2835" y="-592" font-family="Times,serif" font-weight="bold" font-size="10.00" fill="#000000">PrototypeGroup</text>
<polygon fill="none" stroke="#000000" points="311.5,-561 311.5,-583 397.5,-583 397.5,-561 311.5,-561"/>
<text text-anchor="start" x="316.5" y="-570" font-family="Times,serif" text-decoration="underline" font-size="10.00" fill="#000000">id</text>
<text text-anchor="start" x="324.279" y="-570" font-family="Times,serif" font-size="10.00" fill="#000000">: UUID</text>
<polygon fill="none" stroke="#000000" points="311.5,-539 311.5,-561 397.5,-561 397.5,-539 311.5,-539"/>
<text text-anchor="start" x="316.04" y="-548" font-family="Times,serif" font-style="italic" text-decoration="underline" font-size="10.00" fill="#000000">prototypeId</text>
<text text-anchor="start" x="362.695" y="-548" font-family="Times,serif" font-size="10.00" fill="#000000">: UUID</text>
</g>
<!-- PrototypeGroup&#45;&gt;Prototype -->
<g id="edge6" class="edge">
<title>PrototypeGroup&#45;&gt;Prototype</title>
<path fill="none" stroke="#0000ff" d="M408.6546,-548.2351C447.9676,-530.9831 501.4458,-507.5151 543.6927,-488.9756"/>
<polygon fill="#0000ff" stroke="#0000ff" points="395.9119,-549.2404 408.5882,-548.2641 399.2875,-556.9323 395.9119,-549.2404"/>
<polygon fill="#0000ff" stroke="#0000ff" points="543.7427,-488.9537 556.9012,-489.0764 549.237,-486.5426 554.7312,-484.1315 554.7312,-484.1315 554.7312,-484.1315 549.237,-486.5426 552.5613,-479.1867 543.7427,-488.9537 543.7427,-488.9537"/>
</g>
<!-- Access -->
<g id="node4" class="node">
<title>Access</title>
<polygon fill="#add8e6" stroke="transparent" points="21,-710 21,-732 133,-732 133,-710 21,-710"/>
<polygon fill="none" stroke="#000000" points="21,-710 21,-732 133,-732 133,-710 21,-710"/>
<text text-anchor="start" x="62.843" y="-719" font-family="Times,serif" font-weight="bold" font-size="10.00" fill="#000000">Access</text>
<polygon fill="none" stroke="#000000" points="21,-688 21,-710 133,-710 133,-688 21,-688"/>
<text text-anchor="start" x="26" y="-697" font-family="Times,serif" text-decoration="underline" font-size="10.00" fill="#000000">id</text>
<text text-anchor="start" x="33.779" y="-697" font-family="Times,serif" font-size="10.00" fill="#000000">: NUMBER</text>
<polygon fill="none" stroke="#000000" points="21,-666 21,-688 133,-688 133,-666 21,-666"/>
<text text-anchor="start" x="25.766" y="-675" font-family="Times,serif" font-style="italic" text-decoration="underline" font-size="10.00" fill="#000000">prototypeGroupId</text>
<text text-anchor="start" x="97.969" y="-675" font-family="Times,serif" font-size="10.00" fill="#000000">: UUID</text>
<polygon fill="none" stroke="#000000" points="21,-644 21,-666 133,-666 133,-644 21,-644"/>
<text text-anchor="start" x="26" y="-652" font-family="Times,serif" font-size="10.00" fill="#000000">name: STRING</text>
</g>
<!-- Access&#45;&gt;PrototypeGroup -->
<g id="edge7" class="edge">
<title>Access&#45;&gt;PrototypeGroup</title>
<path fill="none" stroke="#0000ff" d="M144.2706,-659.8797C192.0305,-639.9152 255.3348,-613.4529 299.9547,-594.8009"/>
<polygon fill="#0000ff" stroke="#0000ff" points="131.5364,-660.6506 144.2279,-659.8975 134.7761,-668.4007 131.5364,-660.6506"/>
<polygon fill="#0000ff" stroke="#0000ff" points="300.0881,-594.7452 313.2424,-595.0993 305.6239,-592.4311 311.1597,-590.117 311.1597,-590.117 311.1597,-590.117 305.6239,-592.4311 309.077,-585.1348 300.0881,-594.7452 300.0881,-594.7452"/>
</g>
<!-- Access&#45;&gt;UserAccess -->
<g id="edge3" class="edge">
<title>Access&#45;&gt;UserAccess</title>
<path fill="none" stroke="#0000ff" d="M145.2751,-677.9051C333.7384,-650.0397 858.8197,-572.4032 1033.875,-546.5202"/>
<polygon fill="#0000ff" stroke="#0000ff" points="145.2238,-677.9126 132.563,-674.326 139.2883,-678.7902 133.3529,-679.6679 133.3529,-679.6679 133.3529,-679.6679 139.2883,-678.7902 134.1427,-685.0098 145.2238,-677.9126 145.2238,-677.9126"/>
<polygon fill="#0000ff" stroke="#0000ff" points="1033.9937,-546.5027 1046.6545,-550.0894 1039.9292,-545.6251 1045.8646,-544.7475 1045.8646,-544.7475 1045.8646,-544.7475 1039.9292,-545.6251 1045.0748,-539.4055 1033.9937,-546.5027 1033.9937,-546.5027"/>
</g>
<!-- PrototypeVersion -->
<g id="node5" class="node">
<title>PrototypeVersion</title>
<polygon fill="#add8e6" stroke="transparent" points="298.5,-454 298.5,-476 411.5,-476 411.5,-454 298.5,-454"/>
<polygon fill="none" stroke="#000000" points="298.5,-454 298.5,-476 411.5,-476 411.5,-454 298.5,-454"/>
<text text-anchor="start" x="319.73" y="-463" font-family="Times,serif" font-weight="bold" font-size="10.00" fill="#000000">PrototypeVersion</text>
<polygon fill="none" stroke="#000000" points="298.5,-432 298.5,-454 411.5,-454 411.5,-432 298.5,-432"/>
<text text-anchor="start" x="303.5" y="-441" font-family="Times,serif" text-decoration="underline" font-size="10.00" fill="#000000">id</text>
<text text-anchor="start" x="311.279" y="-441" font-family="Times,serif" font-size="10.00" fill="#000000">: UUID</text>
<polygon fill="none" stroke="#000000" points="298.5,-410 298.5,-432 411.5,-432 411.5,-410 298.5,-410"/>
<text text-anchor="start" x="303.5" y="-419" font-family="Times,serif" font-style="italic" text-decoration="underline" font-size="10.00" fill="#000000">prototypeId</text>
<text text-anchor="start" x="350.155" y="-419" font-family="Times,serif" font-size="10.00" fill="#000000">: UUID</text>
<polygon fill="none" stroke="#000000" points="298.5,-388 298.5,-410 411.5,-410 411.5,-388 298.5,-388"/>
<text text-anchor="start" x="303.2075" y="-396" font-family="Times,serif" font-size="10.00" fill="#000000">versionNumber: STRING</text>
<polygon fill="none" stroke="#000000" points="298.5,-366 298.5,-388 411.5,-388 411.5,-366 298.5,-366"/>
<text text-anchor="start" x="303.5" y="-374" font-family="Times,serif" font-size="10.00" fill="#000000">description: STRING</text>
<polygon fill="none" stroke="#000000" points="298.5,-344 298.5,-366 411.5,-366 411.5,-344 298.5,-344"/>
<text text-anchor="start" x="303.5" y="-352" font-family="Times,serif" font-size="10.00" fill="#000000">createdAt: DATE</text>
<polygon fill="none" stroke="#000000" points="298.5,-322 298.5,-344 411.5,-344 411.5,-322 298.5,-322"/>
<text text-anchor="start" x="303.5" y="-330" font-family="Times,serif" font-size="10.00" fill="#000000">updatedAt: DATE</text>
</g>
<!-- PrototypeVersion&#45;&gt;Prototype -->
<g id="edge8" class="edge">
<title>PrototypeVersion&#45;&gt;Prototype</title>
<path fill="none" stroke="#0000ff" d="M422.8574,-414.9279C459.9744,-423.5766 505.7494,-434.2426 542.9702,-442.9154"/>
<polygon fill="#0000ff" stroke="#0000ff" points="411.9626,-408.0768 422.6964,-414.8905 410.0563,-416.2577 411.9626,-408.0768"/>
<polygon fill="#0000ff" stroke="#0000ff" points="543.0456,-442.9329 553.507,-450.9152 548.889,-444.2945 554.7325,-445.6561 554.7325,-445.6561 554.7325,-445.6561 548.889,-444.2945 555.958,-440.397 543.0456,-442.9329 543.0456,-442.9329"/>
</g>
<!-- Part -->
<g id="node6" class="node">
<title>Part</title>
<polygon fill="#add8e6" stroke="transparent" points="0,-586 0,-608 154,-608 154,-586 0,-586"/>
<polygon fill="none" stroke="#000000" points="0,-586 0,-608 154,-608 154,-586 0,-586"/>
<text text-anchor="start" x="68.947" y="-595" font-family="Times,serif" font-weight="bold" font-size="10.00" fill="#000000">Part</text>
<polygon fill="none" stroke="#000000" points="0,-564 0,-586 154,-586 154,-564 0,-564"/>
<text text-anchor="start" x="5" y="-573" font-family="Times,serif" text-decoration="underline" font-size="10.00" fill="#000000">id</text>
<text text-anchor="start" x="12.779" y="-573" font-family="Times,serif" font-size="10.00" fill="#000000">: NUMBER</text>
<polygon fill="none" stroke="#000000" points="0,-542 0,-564 154,-564 154,-542 0,-542"/>
<text text-anchor="start" x="5" y="-550" font-family="Times,serif" font-size="10.00" fill="#000000">type: STRING</text>
<polygon fill="none" stroke="#000000" points="0,-520 0,-542 154,-542 154,-520 0,-520"/>
<text text-anchor="start" x="5" y="-529" font-family="Times,serif" font-style="italic" text-decoration="underline" font-size="10.00" fill="#000000">prototypeVersionId</text>
<text text-anchor="start" x="83.31" y="-529" font-family="Times,serif" font-size="10.00" fill="#000000">: UUID</text>
<polygon fill="none" stroke="#000000" points="0,-498 0,-520 154,-520 154,-498 0,-498"/>
<text text-anchor="start" x="5" y="-506" font-family="Times,serif" font-size="10.00" fill="#000000">parentId: NUMBER</text>
<polygon fill="none" stroke="#000000" points="0,-476 0,-498 154,-498 154,-476 0,-476"/>
<text text-anchor="start" x="5" y="-484" font-family="Times,serif" font-size="10.00" fill="#000000">name: STRING</text>
<polygon fill="none" stroke="#000000" points="0,-454 0,-476 154,-476 154,-454 0,-454"/>
<text text-anchor="start" x="5" y="-462" font-family="Times,serif" font-size="10.00" fill="#000000">description: STRING</text>
<polygon fill="none" stroke="#000000" points="0,-432 0,-454 154,-454 154,-432 0,-432"/>
<text text-anchor="start" x="5" y="-440" font-family="Times,serif" font-size="10.00" fill="#000000">color: STRING</text>
<polygon fill="none" stroke="#000000" points="0,-410 0,-432 154,-432 154,-410 0,-410"/>
<text text-anchor="start" x="5" y="-418" font-family="Times,serif" font-size="10.00" fill="#000000">position: JSON</text>
<polygon fill="none" stroke="#000000" points="0,-388 0,-410 154,-410 154,-388 0,-388"/>
<text text-anchor="start" x="5" y="-396" font-family="Times,serif" font-size="10.00" fill="#000000">width: NUMBER</text>
<polygon fill="none" stroke="#000000" points="0,-366 0,-388 154,-388 154,-366 0,-366"/>
<text text-anchor="start" x="5" y="-374" font-family="Times,serif" font-size="10.00" fill="#000000">height: NUMBER</text>
<polygon fill="none" stroke="#000000" points="0,-344 0,-366 154,-366 154,-344 0,-344"/>
<text text-anchor="start" x="5" y="-352" font-family="Times,serif" font-size="10.00" fill="#000000">order: NUMBER</text>
<polygon fill="none" stroke="#000000" points="0,-322 0,-344 154,-344 154,-322 0,-322"/>
<text text-anchor="start" x="4.655" y="-330" font-family="Times,serif" font-size="10.00" fill="#000000">configurableTypeAsChild: ARRAY</text>
<polygon fill="none" stroke="#000000" points="0,-300 0,-322 154,-322 154,-300 0,-300"/>
<text text-anchor="start" x="5" y="-308" font-family="Times,serif" font-size="10.00" fill="#000000">isReversible: BOOLEAN</text>
<polygon fill="none" stroke="#000000" points="0,-278 0,-300 154,-300 154,-278 0,-278"/>
<text text-anchor="start" x="5" y="-286" font-family="Times,serif" font-size="10.00" fill="#000000">isFlipped: BOOLEAN</text>
<polygon fill="none" stroke="#000000" points="0,-256 0,-278 154,-278 154,-256 0,-256"/>
<text text-anchor="start" x="5" y="-264" font-family="Times,serif" font-size="10.00" fill="#000000">ownerId: NUMBER</text>
<polygon fill="none" stroke="#000000" points="0,-234 0,-256 154,-256 154,-234 0,-234"/>
<text text-anchor="start" x="5" y="-242" font-family="Times,serif" font-size="10.00" fill="#000000">originalPartId: NUMBER</text>
<polygon fill="none" stroke="#000000" points="0,-212 0,-234 154,-234 154,-212 0,-212"/>
<text text-anchor="start" x="5" y="-220" font-family="Times,serif" font-size="10.00" fill="#000000">createdAt: DATE</text>
<polygon fill="none" stroke="#000000" points="0,-190 0,-212 154,-212 154,-190 0,-190"/>
<text text-anchor="start" x="5" y="-198" font-family="Times,serif" font-size="10.00" fill="#000000">updatedAt: DATE</text>
</g>
<!-- Part&#45;&gt;PrototypeVersion -->
<g id="edge9" class="edge">
<title>Part&#45;&gt;PrototypeVersion</title>
<path fill="none" stroke="#0000ff" d="M166.547,-399C205.1299,-399 249.5442,-399 285.5074,-399"/>
<polygon fill="#0000ff" stroke="#0000ff" points="154.2993,-394.8 166.2992,-399.0001 154.2992,-403.2 154.2993,-394.8"/>
<polygon fill="#0000ff" stroke="#0000ff" points="285.8522,-399.0001 297.8523,-404.4 291.8522,-399 297.8522,-399 297.8522,-399 297.8522,-399 291.8522,-399 297.8522,-393.6 285.8522,-399.0001 285.8522,-399.0001"/>
</g>
<!-- Player -->
<g id="node7" class="node">
<title>Player</title>
<polygon fill="#add8e6" stroke="transparent" points="18,-132 18,-154 136,-154 136,-132 18,-132"/>
<polygon fill="none" stroke="#000000" points="18,-132 18,-154 136,-154 136,-132 18,-132"/>
<text text-anchor="start" x="64.2275" y="-141" font-family="Times,serif" font-weight="bold" font-size="10.00" fill="#000000">Player</text>
<polygon fill="none" stroke="#000000" points="18,-110 18,-132 136,-132 136,-110 18,-110"/>
<text text-anchor="start" x="23" y="-119" font-family="Times,serif" text-decoration="underline" font-size="10.00" fill="#000000">id</text>
<text text-anchor="start" x="30.779" y="-119" font-family="Times,serif" font-size="10.00" fill="#000000">: NUMBER</text>
<polygon fill="none" stroke="#000000" points="18,-88 18,-110 136,-110 136,-88 18,-88"/>
<text text-anchor="start" x="22.7125" y="-97" font-family="Times,serif" font-style="italic" text-decoration="underline" font-size="10.00" fill="#000000">prototypeVersionId</text>
<text text-anchor="start" x="101.0225" y="-97" font-family="Times,serif" font-size="10.00" fill="#000000">: UUID</text>
<polygon fill="none" stroke="#000000" points="18,-66 18,-88 136,-88 136,-66 18,-66"/>
<text text-anchor="start" x="23" y="-74" font-family="Times,serif" font-size="10.00" fill="#000000">playerName: STRING</text>
<polygon fill="none" stroke="#000000" points="18,-44 18,-66 136,-66 136,-44 18,-44"/>
<text text-anchor="start" x="23" y="-52" font-family="Times,serif" font-size="10.00" fill="#000000">order: NUMBER</text>
<polygon fill="none" stroke="#000000" points="18,-22 18,-44 136,-44 136,-22 18,-22"/>
<text text-anchor="start" x="23" y="-30" font-family="Times,serif" font-size="10.00" fill="#000000">createdAt: DATE</text>
<polygon fill="none" stroke="#000000" points="18,0 18,-22 136,-22 136,0 18,0"/>
<text text-anchor="start" x="23" y="-8" font-family="Times,serif" font-size="10.00" fill="#000000">updatedAt: DATE</text>
</g>
<!-- Player&#45;&gt;PrototypeVersion -->
<g id="edge10" class="edge">
<title>Player&#45;&gt;PrototypeVersion</title>
<path fill="none" stroke="#0000ff" d="M144.1889,-154.9633C188.4311,-206.3002 246.0387,-273.1458 289.7727,-323.8931"/>
<polygon fill="#0000ff" stroke="#0000ff" points="139.3719,-142.9403 144.0243,-154.7723 133.0088,-148.424 139.3719,-142.9403"/>
<polygon fill="#0000ff" stroke="#0000ff" points="289.9371,-324.0838 293.6805,-336.6992 293.8541,-328.6289 297.7711,-333.174 297.7711,-333.174 297.7711,-333.174 293.8541,-328.6289 301.8616,-329.6487 289.9371,-324.0838 289.9371,-324.0838"/>
</g>
<!-- Player&#45;&gt;UserPlayer -->
<g id="edge4" class="edge">
<title>Player&#45;&gt;UserPlayer</title>
<path fill="none" stroke="#0000ff" d="M147.8263,-98.1536C338.5928,-155.1297 860.48,-311.0014 1034.3139,-362.9203"/>
<polygon fill="#0000ff" stroke="#0000ff" points="147.7991,-98.1456 137.8464,-89.5372 142.05,-96.4285 136.301,-94.7114 136.301,-94.7114 136.301,-94.7114 142.05,-96.4285 134.7556,-99.8855 147.7991,-98.1456 147.7991,-98.1456"/>
<polygon fill="#0000ff" stroke="#0000ff" points="1034.48,-362.9698 1044.4328,-371.5782 1040.2291,-364.6869 1045.9782,-366.404 1045.9782,-366.404 1045.9782,-366.404 1040.2291,-364.6869 1047.5236,-361.2299 1034.48,-362.9698 1034.48,-362.9698"/>
</g>
</g>
</svg>
