<?xml version="1.0" encoding="UTF-8" standalone="no"?>
<!DOCTYPE svg PUBLIC "-//W3C//DTD SVG 1.1//EN"
 "http://www.w3.org/Graphics/SVG/1.1/DTD/svg11.dtd">
<!-- Generated by graphviz version 2.40.1 (20161225.0304)
 -->
<!-- Title: models_diagram Pages: 1 -->
<svg width="1455pt" height="782pt"
 viewBox="0.00 0.00 1455.00 782.00" xmlns="http://www.w3.org/2000/svg" xmlns:xlink="http://www.w3.org/1999/xlink">
<g id="graph0" class="graph" transform="scale(1 1) rotate(0) translate(36 746)">
<title>models_diagram</title>
<polygon fill="#ffffff" stroke="transparent" points="-36,36 -36,-746 1419,-746 1419,36 -36,36"/>
<!-- User -->
<g id="node1" class="node">
<title>User</title>
<polygon fill="#add8e6" stroke="transparent" points="1059.5,-484 1059.5,-506 1148.5,-506 1148.5,-484 1059.5,-484"/>
<polygon fill="none" stroke="#000000" points="1059.5,-484 1059.5,-506 1148.5,-506 1148.5,-484 1059.5,-484"/>
<text text-anchor="start" x="1094.562" y="-493" font-family="Times,serif" font-weight="bold" font-size="10.00" fill="#000000">User</text>
<polygon fill="none" stroke="#000000" points="1059.5,-462 1059.5,-484 1148.5,-484 1148.5,-462 1059.5,-462"/>
<text text-anchor="start" x="1064.5" y="-471" font-family="Times,serif" text-decoration="underline" font-size="10.00" fill="#000000">id</text>
<text text-anchor="start" x="1072.279" y="-471" font-family="Times,serif" font-size="10.00" fill="#000000">: UUID</text>
<polygon fill="none" stroke="#000000" points="1059.5,-440 1059.5,-462 1148.5,-462 1148.5,-440 1059.5,-440"/>
<text text-anchor="start" x="1064.5" y="-448" font-family="Times,serif" font-size="10.00" fill="#000000">googleId: STRING</text>
<polygon fill="none" stroke="#000000" points="1059.5,-418 1059.5,-440 1148.5,-440 1148.5,-418 1059.5,-418"/>
<text text-anchor="start" x="1064.1515" y="-426" font-family="Times,serif" font-size="10.00" fill="#000000">username: STRING</text>
<polygon fill="none" stroke="#000000" points="1059.5,-396 1059.5,-418 1148.5,-418 1148.5,-396 1059.5,-396"/>
<text text-anchor="start" x="1064.5" y="-404" font-family="Times,serif" font-size="10.00" fill="#000000">createdAt: DATE</text>
<polygon fill="none" stroke="#000000" points="1059.5,-374 1059.5,-396 1148.5,-396 1148.5,-374 1059.5,-374"/>
<text text-anchor="start" x="1064.5" y="-382" font-family="Times,serif" font-size="10.00" fill="#000000">updatedAt: DATE</text>
</g>
<!-- UserAccess -->
<g id="node9" class="node">
<title>UserAccess</title>
<polygon fill="#add8e6" stroke="transparent" points="1292.5,-559 1292.5,-581 1383.5,-581 1383.5,-559 1292.5,-559"/>
<polygon fill="none" stroke="#000000" points="1292.5,-559 1292.5,-581 1383.5,-581 1383.5,-559 1292.5,-559"/>
<text text-anchor="start" x="1314.405" y="-568" font-family="Times,serif" font-weight="bold" font-size="10.00" fill="#000000">UserAccess</text>
<polygon fill="none" stroke="#000000" points="1292.5,-537 1292.5,-559 1383.5,-559 1383.5,-537 1292.5,-537"/>
<text text-anchor="start" x="1297.5" y="-546" font-family="Times,serif" text-decoration="underline" font-size="10.00" fill="#000000">userId</text>
<text text-anchor="start" x="1322.486" y="-546" font-family="Times,serif" font-size="10.00" fill="#000000">: UUID</text>
<polygon fill="none" stroke="#000000" points="1292.5,-515 1292.5,-537 1383.5,-537 1383.5,-515 1292.5,-515"/>
<text text-anchor="start" x="1297.042" y="-524" font-family="Times,serif" text-decoration="underline" font-size="10.00" fill="#000000">accessId</text>
<text text-anchor="start" x="1330.905" y="-524" font-family="Times,serif" font-size="10.00" fill="#000000">: NUMBER</text>
</g>
<!-- User&#45;&gt;UserAccess -->
<g id="edge1" class="edge">
<title>User&#45;&gt;UserAccess</title>
<path fill="none" stroke="#0000ff" d="M1159.1101,-465.6662C1195.8499,-482.623 1243.8573,-504.7803 1280.8142,-521.8373"/>
<polygon fill="#0000ff" stroke="#0000ff" points="1158.9599,-465.5969 1150.3273,-455.6652 1153.5122,-463.0826 1148.0644,-460.5682 1148.0644,-460.5682 1148.0644,-460.5682 1153.5122,-463.0826 1145.8015,-465.4712 1158.9599,-465.5969 1158.9599,-465.5969"/>
<polygon fill="#0000ff" stroke="#0000ff" points="1281.0086,-521.927 1289.6412,-531.8587 1286.4564,-524.4414 1291.9041,-526.9557 1291.9041,-526.9557 1291.9041,-526.9557 1286.4564,-524.4414 1294.1671,-522.0528 1281.0086,-521.927 1281.0086,-521.927"/>
</g>
<!-- Prototype -->
<g id="node2" class="node">
<title>Prototype</title>
<polygon fill="#add8e6" stroke="transparent" points="801,-539 801,-561 915,-561 915,-539 801,-539"/>
<polygon fill="none" stroke="#000000" points="801,-539 801,-561 915,-561 915,-539 801,-539"/>
<text text-anchor="start" x="838.5575" y="-548" font-family="Times,serif" font-weight="bold" font-size="10.00" fill="#000000">Prototype</text>
<polygon fill="none" stroke="#000000" points="801,-517 801,-539 915,-539 915,-517 801,-517"/>
<text text-anchor="start" x="806" y="-526" font-family="Times,serif" text-decoration="underline" font-size="10.00" fill="#000000">id</text>
<text text-anchor="start" x="813.779" y="-526" font-family="Times,serif" font-size="10.00" fill="#000000">: UUID</text>
<polygon fill="none" stroke="#000000" points="801,-495 801,-517 915,-517 915,-495 801,-495"/>
<text text-anchor="start" x="806" y="-504" font-family="Times,serif" font-style="italic" text-decoration="underline" font-size="10.00" fill="#000000">userId</text>
<text text-anchor="start" x="830.986" y="-504" font-family="Times,serif" font-size="10.00" fill="#000000">: UUID</text>
<polygon fill="none" stroke="#000000" points="801,-473 801,-495 915,-495 915,-473 801,-473"/>
<text text-anchor="start" x="806" y="-481" font-family="Times,serif" font-size="10.00" fill="#000000">name: STRING</text>
<polygon fill="none" stroke="#000000" points="801,-451 801,-473 915,-473 915,-451 801,-451"/>
<text text-anchor="start" x="806" y="-459" font-family="Times,serif" font-size="10.00" fill="#000000">type: ENUM</text>
<polygon fill="none" stroke="#000000" points="801,-429 801,-451 915,-451 915,-429 801,-429"/>
<text text-anchor="start" x="805.9335" y="-438" font-family="Times,serif" font-style="italic" text-decoration="underline" font-size="10.00" fill="#000000">masterPrototypeId</text>
<text text-anchor="start" x="879.8015" y="-438" font-family="Times,serif" font-size="10.00" fill="#000000">: UUID</text>
<polygon fill="none" stroke="#000000" points="801,-407 801,-429 915,-429 915,-407 801,-407"/>
<text text-anchor="start" x="806" y="-415" font-family="Times,serif" font-size="10.00" fill="#000000">groupId: UUID</text>
<polygon fill="none" stroke="#000000" points="801,-385 801,-407 915,-407 915,-385 801,-385"/>
<text text-anchor="start" x="806" y="-393" font-family="Times,serif" font-size="10.00" fill="#000000">minPlayers: NUMBER</text>
<polygon fill="none" stroke="#000000" points="801,-363 801,-385 915,-385 915,-363 801,-363"/>
<text text-anchor="start" x="806" y="-371" font-family="Times,serif" font-size="10.00" fill="#000000">maxPlayers: NUMBER</text>
<polygon fill="none" stroke="#000000" points="801,-341 801,-363 915,-363 915,-341 801,-341"/>
<text text-anchor="start" x="806" y="-349" font-family="Times,serif" font-size="10.00" fill="#000000">createdAt: DATE</text>
<polygon fill="none" stroke="#000000" points="801,-319 801,-341 915,-341 915,-319 801,-319"/>
<text text-anchor="start" x="806" y="-327" font-family="Times,serif" font-size="10.00" fill="#000000">updatedAt: DATE</text>
</g>
<!-- Prototype&#45;&gt;User -->
<g id="edge3" class="edge">
<title>Prototype&#45;&gt;User</title>
<path fill="none" stroke="#0000ff" d="M927.4047,-440C965.1202,-440 1011.1771,-440 1046.7285,-440"/>
<polygon fill="#0000ff" stroke="#0000ff" points="915.249,-435.8 927.249,-440.0001 915.249,-444.2 915.249,-435.8"/>
<polygon fill="#0000ff" stroke="#0000ff" points="1046.8344,-440.0001 1058.8344,-445.4 1052.8344,-440 1058.8344,-440 1058.8344,-440 1058.8344,-440 1052.8344,-440 1058.8343,-434.6 1046.8344,-440.0001 1046.8344,-440.0001"/>
</g>
<!-- PrototypeGroup -->
<g id="node3" class="node">
<title>PrototypeGroup</title>
<polygon fill="#add8e6" stroke="transparent" points="557.5,-572 557.5,-594 643.5,-594 643.5,-572 557.5,-572"/>
<polygon fill="none" stroke="#000000" points="557.5,-572 557.5,-594 643.5,-594 643.5,-572 557.5,-572"/>
<text text-anchor="start" x="568.2835" y="-581" font-family="Times,serif" font-weight="bold" font-size="10.00" fill="#000000">PrototypeGroup</text>
<polygon fill="none" stroke="#000000" points="557.5,-550 557.5,-572 643.5,-572 643.5,-550 557.5,-550"/>
<text text-anchor="start" x="562.5" y="-559" font-family="Times,serif" text-decoration="underline" font-size="10.00" fill="#000000">id</text>
<text text-anchor="start" x="570.279" y="-559" font-family="Times,serif" font-size="10.00" fill="#000000">: UUID</text>
<polygon fill="none" stroke="#000000" points="557.5,-528 557.5,-550 643.5,-550 643.5,-528 557.5,-528"/>
<text text-anchor="start" x="562.04" y="-537" font-family="Times,serif" text-decoration="underline" font-size="10.00" fill="#000000">prototypeId</text>
<text text-anchor="start" x="608.695" y="-537" font-family="Times,serif" font-size="10.00" fill="#000000">: UUID</text>
</g>
<!-- PrototypeGroup&#45;&gt;Prototype -->
<g id="edge4" class="edge">
<title>PrototypeGroup&#45;&gt;Prototype</title>
<path fill="none" stroke="#0000ff" d="M654.6546,-535.5526C693.9676,-517.0793 747.4458,-491.9498 789.6927,-472.0978"/>
<polygon fill="#0000ff" stroke="#0000ff" points="641.8135,-536.9461 654.4604,-535.6438 645.3859,-544.5486 641.8135,-536.9461"/>
<polygon fill="#0000ff" stroke="#0000ff" points="789.8705,-472.0143 803.0278,-471.7981 795.3009,-469.4625 800.7312,-466.9108 800.7312,-466.9108 800.7312,-466.9108 795.3009,-469.4625 798.4347,-462.0234 789.8705,-472.0143 789.8705,-472.0143"/>
</g>
<!-- Access -->
<g id="node4" class="node">
<title>Access</title>
<polygon fill="#add8e6" stroke="transparent" points="263.5,-688 263.5,-710 375.5,-710 375.5,-688 263.5,-688"/>
<polygon fill="none" stroke="#000000" points="263.5,-688 263.5,-710 375.5,-710 375.5,-688 263.5,-688"/>
<text text-anchor="start" x="305.343" y="-697" font-family="Times,serif" font-weight="bold" font-size="10.00" fill="#000000">Access</text>
<polygon fill="none" stroke="#000000" points="263.5,-666 263.5,-688 375.5,-688 375.5,-666 263.5,-666"/>
<text text-anchor="start" x="268.5" y="-675" font-family="Times,serif" text-decoration="underline" font-size="10.00" fill="#000000">id</text>
<text text-anchor="start" x="276.279" y="-675" font-family="Times,serif" font-size="10.00" fill="#000000">: NUMBER</text>
<polygon fill="none" stroke="#000000" points="263.5,-644 263.5,-666 375.5,-666 375.5,-644 263.5,-644"/>
<text text-anchor="start" x="268.266" y="-652" font-family="Times,serif" font-size="10.00" fill="#000000">prototypeGroupId: UUID</text>
<polygon fill="none" stroke="#000000" points="263.5,-622 263.5,-644 375.5,-644 375.5,-622 263.5,-622"/>
<text text-anchor="start" x="268.5" y="-630" font-family="Times,serif" font-size="10.00" fill="#000000">name: STRING</text>
</g>
<!-- Access&#45;&gt;PrototypeGroup -->
<g id="edge5" class="edge">
<title>Access&#45;&gt;PrototypeGroup</title>
<path fill="none" stroke="#0000ff" d="M387.0043,-640.776C435.6563,-622.5964 500.4761,-598.3755 545.8816,-581.409"/>
<polygon fill="#0000ff" stroke="#0000ff" points="374.219,-641.0697 386.9301,-640.8037 377.1593,-648.9384 374.219,-641.0697"/>
<polygon fill="#0000ff" stroke="#0000ff" points="546.0335,-581.3523 559.1645,-582.2103 551.6539,-579.2521 557.2743,-577.1519 557.2743,-577.1519 557.2743,-577.1519 551.6539,-579.2521 555.3842,-572.0935 546.0335,-581.3523 546.0335,-581.3523"/>
</g>
<!-- Access&#45;&gt;UserAccess -->
<g id="edge2" class="edge">
<title>Access&#45;&gt;UserAccess</title>
<path fill="none" stroke="#0000ff" d="M387.6279,-658.1031C576.5005,-636.2102 1104.3924,-575.0203 1279.9229,-554.674"/>
<polygon fill="#0000ff" stroke="#0000ff" points="387.6023,-658.1059 375.0603,-654.1236 381.6423,-658.7968 375.6822,-659.4877 375.6822,-659.4877 375.6822,-659.4877 381.6423,-658.7968 376.304,-664.8518 387.6023,-658.1059 387.6023,-658.1059"/>
<polygon fill="#0000ff" stroke="#0000ff" points="1280.0225,-554.6625 1292.5645,-558.6448 1285.9826,-553.9716 1291.9427,-553.2807 1291.9427,-553.2807 1291.9427,-553.2807 1285.9826,-553.9716 1291.3209,-547.9166 1280.0225,-554.6625 1280.0225,-554.6625"/>
</g>
<!-- PrototypeVersion -->
<g id="node5" class="node">
<title>PrototypeVersion</title>
<polygon fill="#add8e6" stroke="transparent" points="544.5,-454 544.5,-476 657.5,-476 657.5,-454 544.5,-454"/>
<polygon fill="none" stroke="#000000" points="544.5,-454 544.5,-476 657.5,-476 657.5,-454 544.5,-454"/>
<text text-anchor="start" x="565.73" y="-463" font-family="Times,serif" font-weight="bold" font-size="10.00" fill="#000000">PrototypeVersion</text>
<polygon fill="none" stroke="#000000" points="544.5,-432 544.5,-454 657.5,-454 657.5,-432 544.5,-432"/>
<text text-anchor="start" x="549.5" y="-441" font-family="Times,serif" text-decoration="underline" font-size="10.00" fill="#000000">id</text>
<text text-anchor="start" x="557.279" y="-441" font-family="Times,serif" font-size="10.00" fill="#000000">: UUID</text>
<polygon fill="none" stroke="#000000" points="544.5,-410 544.5,-432 657.5,-432 657.5,-410 544.5,-410"/>
<text text-anchor="start" x="549.5" y="-419" font-family="Times,serif" font-style="italic" text-decoration="underline" font-size="10.00" fill="#000000">prototypeId</text>
<text text-anchor="start" x="596.155" y="-419" font-family="Times,serif" font-size="10.00" fill="#000000">: UUID</text>
<polygon fill="none" stroke="#000000" points="544.5,-388 544.5,-410 657.5,-410 657.5,-388 544.5,-388"/>
<text text-anchor="start" x="549.2075" y="-396" font-family="Times,serif" font-size="10.00" fill="#000000">versionNumber: STRING</text>
<polygon fill="none" stroke="#000000" points="544.5,-366 544.5,-388 657.5,-388 657.5,-366 544.5,-366"/>
<text text-anchor="start" x="549.5" y="-374" font-family="Times,serif" font-size="10.00" fill="#000000">description: STRING</text>
<polygon fill="none" stroke="#000000" points="544.5,-344 544.5,-366 657.5,-366 657.5,-344 544.5,-344"/>
<text text-anchor="start" x="549.5" y="-352" font-family="Times,serif" font-size="10.00" fill="#000000">createdAt: DATE</text>
<polygon fill="none" stroke="#000000" points="544.5,-322 544.5,-344 657.5,-344 657.5,-322 544.5,-322"/>
<text text-anchor="start" x="549.5" y="-330" font-family="Times,serif" font-size="10.00" fill="#000000">updatedAt: DATE</text>
</g>
<!-- PrototypeVersion&#45;&gt;Prototype -->
<g id="edge6" class="edge">
<title>PrototypeVersion&#45;&gt;Prototype</title>
<path fill="none" stroke="#0000ff" d="M669.1224,-409.9263C706.0402,-415.8045 751.464,-423.037 788.5134,-428.9361"/>
<polygon fill="#0000ff" stroke="#0000ff" points="657.6699,-403.8499 668.8602,-409.8846 656.349,-412.1454 657.6699,-403.8499"/>
<polygon fill="#0000ff" stroke="#0000ff" points="788.8818,-428.9947 799.8834,-436.2145 794.8071,-429.9382 800.7325,-430.8817 800.7325,-430.8817 800.7325,-430.8817 794.8071,-429.9382 801.5816,-425.5489 788.8818,-428.9947 788.8818,-428.9947"/>
</g>
<!-- Part -->
<g id="node6" class="node">
<title>Part</title>
<polygon fill="#add8e6" stroke="transparent" points="239.5,-564 239.5,-586 400.5,-586 400.5,-564 239.5,-564"/>
<polygon fill="none" stroke="#000000" points="239.5,-564 239.5,-586 400.5,-586 400.5,-564 239.5,-564"/>
<text text-anchor="start" x="311.947" y="-573" font-family="Times,serif" font-weight="bold" font-size="10.00" fill="#000000">Part</text>
<polygon fill="none" stroke="#000000" points="239.5,-542 239.5,-564 400.5,-564 400.5,-542 239.5,-542"/>
<text text-anchor="start" x="244.5" y="-551" font-family="Times,serif" text-decoration="underline" font-size="10.00" fill="#000000">id</text>
<text text-anchor="start" x="252.279" y="-551" font-family="Times,serif" font-size="10.00" fill="#000000">: NUMBER</text>
<polygon fill="none" stroke="#000000" points="239.5,-520 239.5,-542 400.5,-542 400.5,-520 239.5,-520"/>
<text text-anchor="start" x="244.5" y="-528" font-family="Times,serif" font-size="10.00" fill="#000000">type: ENUM</text>
<polygon fill="none" stroke="#000000" points="239.5,-498 239.5,-520 400.5,-520 400.5,-498 239.5,-498"/>
<text text-anchor="start" x="244.5" y="-507" font-family="Times,serif" font-style="italic" text-decoration="underline" font-size="10.00" fill="#000000">prototypeVersionId</text>
<text text-anchor="start" x="322.81" y="-507" font-family="Times,serif" font-size="10.00" fill="#000000">: UUID</text>
<polygon fill="none" stroke="#000000" points="239.5,-476 239.5,-498 400.5,-498 400.5,-476 239.5,-476"/>
<text text-anchor="start" x="244.5" y="-484" font-family="Times,serif" font-size="10.00" fill="#000000">parentId: NUMBER</text>
<polygon fill="none" stroke="#000000" points="239.5,-454 239.5,-476 400.5,-476 400.5,-454 239.5,-454"/>
<text text-anchor="start" x="244.5" y="-462" font-family="Times,serif" font-size="10.00" fill="#000000">position: JSON</text>
<polygon fill="none" stroke="#000000" points="239.5,-432 239.5,-454 400.5,-454 400.5,-432 239.5,-432"/>
<text text-anchor="start" x="244.5" y="-440" font-family="Times,serif" font-size="10.00" fill="#000000">width: NUMBER</text>
<polygon fill="none" stroke="#000000" points="239.5,-410 239.5,-432 400.5,-432 400.5,-410 239.5,-410"/>
<text text-anchor="start" x="244.5" y="-418" font-family="Times,serif" font-size="10.00" fill="#000000">height: NUMBER</text>
<polygon fill="none" stroke="#000000" points="239.5,-388 239.5,-410 400.5,-410 400.5,-388 239.5,-388"/>
<text text-anchor="start" x="244.5" y="-396" font-family="Times,serif" font-size="10.00" fill="#000000">order: NUMBER</text>
<polygon fill="none" stroke="#000000" points="239.5,-366 239.5,-388 400.5,-388 400.5,-366 239.5,-366"/>
<text text-anchor="start" x="244.5" y="-374" font-family="Times,serif" font-size="10.00" fill="#000000">configurableTypeAsChild: ARRAY</text>
<polygon fill="none" stroke="#000000" points="239.5,-344 239.5,-366 400.5,-366 400.5,-344 239.5,-344"/>
<text text-anchor="start" x="244.5" y="-352" font-family="Times,serif" font-size="10.00" fill="#000000">originalPartId: NUMBER</text>
<polygon fill="none" stroke="#000000" points="239.5,-322 239.5,-344 400.5,-344 400.5,-322 239.5,-322"/>
<text text-anchor="start" x="244.5" y="-330" font-family="Times,serif" font-size="10.00" fill="#000000">isReversible: BOOLEAN</text>
<polygon fill="none" stroke="#000000" points="239.5,-300 239.5,-322 400.5,-322 400.5,-300 239.5,-300"/>
<text text-anchor="start" x="244.5" y="-308" font-family="Times,serif" font-size="10.00" fill="#000000">isFlipped: BOOLEAN</text>
<polygon fill="none" stroke="#000000" points="239.5,-278 239.5,-300 400.5,-300 400.5,-278 239.5,-278"/>
<text text-anchor="start" x="244.5" y="-286" font-family="Times,serif" font-size="10.00" fill="#000000">ownerId: NUMBER</text>
<polygon fill="none" stroke="#000000" points="239.5,-256 239.5,-278 400.5,-278 400.5,-256 239.5,-256"/>
<text text-anchor="start" x="244.0615" y="-264" font-family="Times,serif" font-size="10.00" fill="#000000">canReverseCardOnDeck: BOOLEAN</text>
<polygon fill="none" stroke="#000000" points="239.5,-234 239.5,-256 400.5,-256 400.5,-234 239.5,-234"/>
<text text-anchor="start" x="244.5" y="-242" font-family="Times,serif" font-size="10.00" fill="#000000">createdAt: DATE</text>
<polygon fill="none" stroke="#000000" points="239.5,-212 239.5,-234 400.5,-234 400.5,-212 239.5,-212"/>
<text text-anchor="start" x="244.5" y="-220" font-family="Times,serif" font-size="10.00" fill="#000000">updatedAt: DATE</text>
</g>
<!-- Part&#45;&gt;PrototypeVersion -->
<g id="edge7" class="edge">
<title>Part&#45;&gt;PrototypeVersion</title>
<path fill="none" stroke="#0000ff" d="M412.0726,-399C450.9224,-399 495.3268,-399 531.2681,-399"/>
<polygon fill="#0000ff" stroke="#0000ff" points="400.0234,-394.8 412.0233,-399.0001 400.0233,-403.2 400.0234,-394.8"/>
<polygon fill="#0000ff" stroke="#0000ff" points="531.6051,-399.0001 543.6051,-404.4 537.6051,-399 543.6051,-399 543.6051,-399 543.6051,-399 537.6051,-399 543.605,-393.6 531.6051,-399.0001 531.6051,-399.0001"/>
</g>
<!-- PartProperty -->
<g id="node7" class="node">
<title>PartProperty</title>
<polygon fill="#add8e6" stroke="transparent" points=".5,-487 .5,-509 95.5,-509 95.5,-487 .5,-487"/>
<polygon fill="none" stroke="#000000" points=".5,-487 .5,-509 95.5,-509 95.5,-487 .5,-487"/>
<text text-anchor="start" x="22.7295" y="-496" font-family="Times,serif" font-weight="bold" font-size="10.00" fill="#000000">PartProperty</text>
<polygon fill="none" stroke="#000000" points=".5,-465 .5,-487 95.5,-487 95.5,-465 .5,-465"/>
<text text-anchor="start" x="5.5" y="-474" font-family="Times,serif" text-decoration="underline" font-size="10.00" fill="#000000">partId</text>
<text text-anchor="start" x="29.376" y="-474" font-family="Times,serif" font-size="10.00" fill="#000000">: NUMBER</text>
<polygon fill="none" stroke="#000000" points=".5,-443 .5,-465 95.5,-465 95.5,-443 .5,-443"/>
<text text-anchor="start" x="5.5" y="-452" font-family="Times,serif" text-decoration="underline" font-size="10.00" fill="#000000">side</text>
<text text-anchor="start" x="21.607" y="-452" font-family="Times,serif" font-size="10.00" fill="#000000">: ENUM</text>
<polygon fill="none" stroke="#000000" points=".5,-421 .5,-443 95.5,-443 95.5,-421 .5,-421"/>
<text text-anchor="start" x="5.5" y="-429" font-family="Times,serif" font-size="10.00" fill="#000000">name: STRING</text>
<polygon fill="none" stroke="#000000" points=".5,-399 .5,-421 95.5,-421 95.5,-399 .5,-399"/>
<text text-anchor="start" x="5.092" y="-407" font-family="Times,serif" font-size="10.00" fill="#000000">description: STRING</text>
<polygon fill="none" stroke="#000000" points=".5,-377 .5,-399 95.5,-399 95.5,-377 .5,-377"/>
<text text-anchor="start" x="5.5" y="-385" font-family="Times,serif" font-size="10.00" fill="#000000">color: STRING</text>
<polygon fill="none" stroke="#000000" points=".5,-355 .5,-377 95.5,-377 95.5,-355 .5,-355"/>
<text text-anchor="start" x="5.5" y="-363" font-family="Times,serif" font-size="10.00" fill="#000000">textColor: STRING</text>
<polygon fill="none" stroke="#000000" points=".5,-333 .5,-355 95.5,-355 95.5,-333 .5,-333"/>
<text text-anchor="start" x="5.5" y="-341" font-family="Times,serif" font-size="10.00" fill="#000000">image: STRING</text>
<polygon fill="none" stroke="#000000" points=".5,-311 .5,-333 95.5,-333 95.5,-311 .5,-311"/>
<text text-anchor="start" x="5.5" y="-319" font-family="Times,serif" font-size="10.00" fill="#000000">createdAt: DATE</text>
<polygon fill="none" stroke="#000000" points=".5,-289 .5,-311 95.5,-311 95.5,-289 .5,-289"/>
<text text-anchor="start" x="5.5" y="-297" font-family="Times,serif" font-size="10.00" fill="#000000">updatedAt: DATE</text>
</g>
<!-- PartProperty&#45;&gt;Part -->
<g id="edge8" class="edge">
<title>PartProperty&#45;&gt;Part</title>
<path fill="none" stroke="#0000ff" d="M107.2733,-399C142.2609,-399 187.1901,-399 226.6939,-399"/>
<polygon fill="#0000ff" stroke="#0000ff" points="95.1901,-394.8 107.19,-399.0001 95.19,-403.2 95.1901,-394.8"/>
<polygon fill="#0000ff" stroke="#0000ff" points="226.7625,-399.0001 238.7625,-404.4 232.7625,-399 238.7625,-399 238.7625,-399 238.7625,-399 232.7625,-399 238.7624,-393.6 226.7625,-399.0001 226.7625,-399.0001"/>
</g>
<!-- Player -->
<g id="node8" class="node">
<title>Player</title>
<polygon fill="#add8e6" stroke="transparent" points="258.5,-154 258.5,-176 381.5,-176 381.5,-154 258.5,-154"/>
<polygon fill="none" stroke="#000000" points="258.5,-154 258.5,-176 381.5,-176 381.5,-154 258.5,-154"/>
<text text-anchor="start" x="307.2275" y="-163" font-family="Times,serif" font-weight="bold" font-size="10.00" fill="#000000">Player</text>
<polygon fill="none" stroke="#000000" points="258.5,-132 258.5,-154 381.5,-154 381.5,-132 258.5,-132"/>
<text text-anchor="start" x="263.5" y="-141" font-family="Times,serif" text-decoration="underline" font-size="10.00" fill="#000000">id</text>
<text text-anchor="start" x="271.279" y="-141" font-family="Times,serif" font-size="10.00" fill="#000000">: NUMBER</text>
<polygon fill="none" stroke="#000000" points="258.5,-110 258.5,-132 381.5,-132 381.5,-110 258.5,-110"/>
<text text-anchor="start" x="263.5" y="-119" font-family="Times,serif" font-style="italic" text-decoration="underline" font-size="10.00" fill="#000000">prototypeVersionId</text>
<text text-anchor="start" x="341.81" y="-119" font-family="Times,serif" font-size="10.00" fill="#000000">: UUID</text>
<polygon fill="none" stroke="#000000" points="258.5,-88 258.5,-110 381.5,-110 381.5,-88 258.5,-88"/>
<text text-anchor="start" x="263.5" y="-97" font-family="Times,serif" font-style="italic" text-decoration="underline" font-size="10.00" fill="#000000">userId</text>
<text text-anchor="start" x="288.486" y="-97" font-family="Times,serif" font-size="10.00" fill="#000000">: UUID</text>
<polygon fill="none" stroke="#000000" points="258.5,-66 258.5,-88 381.5,-88 381.5,-66 258.5,-66"/>
<text text-anchor="start" x="263.5" y="-74" font-family="Times,serif" font-size="10.00" fill="#000000">playerName: STRING</text>
<polygon fill="none" stroke="#000000" points="258.5,-44 258.5,-66 381.5,-66 381.5,-44 258.5,-44"/>
<text text-anchor="start" x="263.484" y="-52" font-family="Times,serif" font-size="10.00" fill="#000000">originalPlayerId: NUMBER</text>
<polygon fill="none" stroke="#000000" points="258.5,-22 258.5,-44 381.5,-44 381.5,-22 258.5,-22"/>
<text text-anchor="start" x="263.5" y="-30" font-family="Times,serif" font-size="10.00" fill="#000000">createdAt: DATE</text>
<polygon fill="none" stroke="#000000" points="258.5,0 258.5,-22 381.5,-22 381.5,0 258.5,0"/>
<text text-anchor="start" x="263.5" y="-8" font-family="Times,serif" font-size="10.00" fill="#000000">updatedAt: DATE</text>
</g>
<!-- Player&#45;&gt;User -->
<g id="edge10" class="edge">
<title>Player&#45;&gt;User</title>
<path fill="none" stroke="#0000ff" d="M392.9336,-106.7794C508.2963,-137.9042 737.167,-206.2726 915,-301 963.4267,-326.7957 1013.1753,-364.018 1049.3968,-393.4533"/>
<polygon fill="#0000ff" stroke="#0000ff" points="382.2061,-99.5583 392.7111,-106.7198 380.033,-107.6724 382.2061,-99.5583"/>
<polygon fill="#0000ff" stroke="#0000ff" points="1049.4947,-393.5335 1055.3478,-405.3192 1054.1336,-397.3389 1058.7726,-401.1442 1058.7726,-401.1442 1058.7726,-401.1442 1054.1336,-397.3389 1062.1974,-396.9691 1049.4947,-393.5335 1049.4947,-393.5335"/>
</g>
<!-- Player&#45;&gt;PrototypeVersion -->
<g id="edge9" class="edge">
<title>Player&#45;&gt;PrototypeVersion</title>
<path fill="none" stroke="#0000ff" d="M389.2918,-165.2429C434.1071,-214.8427 491.9042,-278.8103 535.7054,-327.2878"/>
<polygon fill="#0000ff" stroke="#0000ff" points="384.283,-153.4345 389.2116,-165.1541 378.0503,-159.066 384.283,-153.4345"/>
<polygon fill="#0000ff" stroke="#0000ff" points="535.9476,-327.5559 539.9859,-340.08 539.9701,-332.0078 543.9926,-336.4598 543.9926,-336.4598 543.9926,-336.4598 539.9701,-332.0078 547.9993,-332.8395 535.9476,-327.5559 535.9476,-327.5559"/>
</g>
</g>
</svg>
