<?xml version="1.0" encoding="UTF-8" standalone="no"?>
<!DOCTYPE svg PUBLIC "-//W3C//DTD SVG 1.1//EN"
 "http://www.w3.org/Graphics/SVG/1.1/DTD/svg11.dtd">
<!-- Generated by graphviz version 2.40.1 (20161225.0304)
 -->
<!-- Title: models_diagram Pages: 1 -->
<svg width="846pt" height="598pt"
 viewBox="0.00 0.00 846.29 597.79" xmlns="http://www.w3.org/2000/svg" xmlns:xlink="http://www.w3.org/1999/xlink">
<g id="graph0" class="graph" transform="scale(1 1) rotate(0) translate(36 561.7859)">
<title>models_diagram</title>
<polygon fill="#ffffff" stroke="transparent" points="-36,36 -36,-561.7859 810.2859,-561.7859 810.2859,36 -36,36"/>
<!-- User -->
<g id="node1" class="node">
<title>User</title>
<polygon fill="#add8e6" stroke="transparent" points=".5,-328.893 .5,-350.893 89.5,-350.893 89.5,-328.893 .5,-328.893"/>
<polygon fill="none" stroke="#000000" points=".5,-328.893 .5,-350.893 89.5,-350.893 89.5,-328.893 .5,-328.893"/>
<text text-anchor="start" x="35.562" y="-337.893" font-family="Times,serif" font-weight="bold" font-size="10.00" fill="#000000">User</text>
<polygon fill="none" stroke="#000000" points=".5,-306.893 .5,-328.893 89.5,-328.893 89.5,-306.893 .5,-306.893"/>
<text text-anchor="start" x="5.5" y="-315.893" font-family="Times,serif" text-decoration="underline" font-size="10.00" fill="#000000">id</text>
<text text-anchor="start" x="13.279" y="-315.893" font-family="Times,serif" font-size="10.00" fill="#000000">: NUMBER</text>
<polygon fill="none" stroke="#000000" points=".5,-284.893 .5,-306.893 89.5,-306.893 89.5,-284.893 .5,-284.893"/>
<text text-anchor="start" x="5.5" y="-292.893" font-family="Times,serif" font-size="10.00" fill="#000000">googleId: STRING</text>
<polygon fill="none" stroke="#000000" points=".5,-262.893 .5,-284.893 89.5,-284.893 89.5,-262.893 .5,-262.893"/>
<text text-anchor="start" x="5.1515" y="-270.893" font-family="Times,serif" font-size="10.00" fill="#000000">username: STRING</text>
<polygon fill="none" stroke="#000000" points=".5,-240.893 .5,-262.893 89.5,-262.893 89.5,-240.893 .5,-240.893"/>
<text text-anchor="start" x="5.5" y="-248.893" font-family="Times,serif" font-size="10.00" fill="#000000">createdAt: DATE</text>
<polygon fill="none" stroke="#000000" points=".5,-218.893 .5,-240.893 89.5,-240.893 89.5,-218.893 .5,-218.893"/>
<text text-anchor="start" x="5.5" y="-226.893" font-family="Times,serif" font-size="10.00" fill="#000000">updatedAt: DATE</text>
</g>
<!-- Access -->
<g id="node3" class="node">
<title>Access</title>
<polygon fill="#add8e6" stroke="transparent" points="178.393,-503.7859 178.393,-525.7859 282.393,-525.7859 282.393,-503.7859 178.393,-503.7859"/>
<polygon fill="none" stroke="#000000" points="178.393,-503.7859 178.393,-525.7859 282.393,-525.7859 282.393,-503.7859 178.393,-503.7859"/>
<text text-anchor="start" x="216.236" y="-512.7859" font-family="Times,serif" font-weight="bold" font-size="10.00" fill="#000000">Access</text>
<polygon fill="none" stroke="#000000" points="178.393,-481.7859 178.393,-503.7859 282.393,-503.7859 282.393,-481.7859 178.393,-481.7859"/>
<text text-anchor="start" x="183.393" y="-490.7859" font-family="Times,serif" text-decoration="underline" font-size="10.00" fill="#000000">userId</text>
<text text-anchor="start" x="208.379" y="-490.7859" font-family="Times,serif" font-size="10.00" fill="#000000">: NUMBER</text>
<polygon fill="none" stroke="#000000" points="178.393,-459.7859 178.393,-481.7859 282.393,-481.7859 282.393,-459.7859 178.393,-459.7859"/>
<text text-anchor="start" x="183.039" y="-468.7859" font-family="Times,serif" text-decoration="underline" font-size="10.00" fill="#000000">prototypeId</text>
<text text-anchor="start" x="229.694" y="-468.7859" font-family="Times,serif" font-size="10.00" fill="#000000">: NUMBER</text>
<polygon fill="none" stroke="#000000" points="178.393,-437.7859 178.393,-459.7859 282.393,-459.7859 282.393,-437.7859 178.393,-437.7859"/>
<text text-anchor="start" x="183.393" y="-445.7859" font-family="Times,serif" font-size="10.00" fill="#000000">createdAt: DATE</text>
<polygon fill="none" stroke="#000000" points="178.393,-415.7859 178.393,-437.7859 282.393,-437.7859 282.393,-415.7859 178.393,-415.7859"/>
<text text-anchor="start" x="183.393" y="-423.7859" font-family="Times,serif" font-size="10.00" fill="#000000">updatedAt: DATE</text>
</g>
<!-- User&#45;&gt;Access -->
<g id="edge1" class="edge">
<title>User&#45;&gt;Access</title>
<path fill="none" stroke="#0000ff" d="M97.756,-338.149C120.1864,-360.5794 146.4139,-386.8069 169.5977,-409.9906"/>
<polygon fill="#0000ff" stroke="#0000ff" points="97.5113,-337.9043 92.8444,-325.6006 93.2687,-333.6616 89.026,-329.419 89.026,-329.419 89.026,-329.419 93.2687,-333.6616 85.2076,-333.2374 97.5113,-337.9043 97.5113,-337.9043"/>
<polygon fill="#0000ff" stroke="#0000ff" points="169.8345,-410.2274 174.5014,-422.5311 174.0771,-414.4701 178.3198,-418.7128 178.3198,-418.7128 178.3198,-418.7128 174.0771,-414.4701 182.1382,-414.8944 169.8345,-410.2274 169.8345,-410.2274"/>
</g>
<!-- Prototype -->
<g id="node2" class="node">
<title>Prototype</title>
<polygon fill="#add8e6" stroke="transparent" points="365.2859,-372.893 365.2859,-394.893 467.2859,-394.893 467.2859,-372.893 365.2859,-372.893"/>
<polygon fill="none" stroke="#000000" points="365.2859,-372.893 365.2859,-394.893 467.2859,-394.893 467.2859,-372.893 365.2859,-372.893"/>
<text text-anchor="start" x="396.8434" y="-381.893" font-family="Times,serif" font-weight="bold" font-size="10.00" fill="#000000">Prototype</text>
<polygon fill="none" stroke="#000000" points="365.2859,-350.893 365.2859,-372.893 467.2859,-372.893 467.2859,-350.893 365.2859,-350.893"/>
<text text-anchor="start" x="370.2859" y="-359.893" font-family="Times,serif" text-decoration="underline" font-size="10.00" fill="#000000">id</text>
<text text-anchor="start" x="378.0649" y="-359.893" font-family="Times,serif" font-size="10.00" fill="#000000">: NUMBER</text>
<polygon fill="none" stroke="#000000" points="365.2859,-328.893 365.2859,-350.893 467.2859,-350.893 467.2859,-328.893 365.2859,-328.893"/>
<text text-anchor="start" x="370.2859" y="-337.893" font-family="Times,serif" font-style="italic" text-decoration="underline" font-size="10.00" fill="#000000">userId</text>
<text text-anchor="start" x="395.2719" y="-337.893" font-family="Times,serif" font-size="10.00" fill="#000000">: NUMBER</text>
<polygon fill="none" stroke="#000000" points="365.2859,-306.893 365.2859,-328.893 467.2859,-328.893 467.2859,-306.893 365.2859,-306.893"/>
<text text-anchor="start" x="370.2859" y="-314.893" font-family="Times,serif" font-size="10.00" fill="#000000">groupId: NUMBER</text>
<polygon fill="none" stroke="#000000" points="365.2859,-284.893 365.2859,-306.893 467.2859,-306.893 467.2859,-284.893 365.2859,-284.893"/>
<text text-anchor="start" x="370.2859" y="-292.893" font-family="Times,serif" font-size="10.00" fill="#000000">name: STRING</text>
<polygon fill="none" stroke="#000000" points="365.2859,-262.893 365.2859,-284.893 467.2859,-284.893 467.2859,-262.893 365.2859,-262.893"/>
<text text-anchor="start" x="370.2859" y="-270.893" font-family="Times,serif" font-size="10.00" fill="#000000">isEdit: BOOLEAN</text>
<polygon fill="none" stroke="#000000" points="365.2859,-240.893 365.2859,-262.893 467.2859,-262.893 467.2859,-240.893 365.2859,-240.893"/>
<text text-anchor="start" x="370.0489" y="-248.893" font-family="Times,serif" font-size="10.00" fill="#000000">isPreview: BOOLEAN</text>
<polygon fill="none" stroke="#000000" points="365.2859,-218.893 365.2859,-240.893 467.2859,-240.893 467.2859,-218.893 365.2859,-218.893"/>
<text text-anchor="start" x="370.2859" y="-226.893" font-family="Times,serif" font-size="10.00" fill="#000000">isPublic: BOOLEAN</text>
<polygon fill="none" stroke="#000000" points="365.2859,-196.893 365.2859,-218.893 467.2859,-218.893 467.2859,-196.893 365.2859,-196.893"/>
<text text-anchor="start" x="370.2859" y="-204.893" font-family="Times,serif" font-size="10.00" fill="#000000">createdAt: DATE</text>
<polygon fill="none" stroke="#000000" points="365.2859,-174.893 365.2859,-196.893 467.2859,-196.893 467.2859,-174.893 365.2859,-174.893"/>
<text text-anchor="start" x="370.2859" y="-182.893" font-family="Times,serif" font-size="10.00" fill="#000000">updatedAt: DATE</text>
</g>
<!-- Prototype&#45;&gt;User -->
<g id="edge3" class="edge">
<title>Prototype&#45;&gt;User</title>
<path fill="none" stroke="#0000ff" d="M352.917,-284.893C282.2967,-284.893 169.1406,-284.893 101.2987,-284.893"/>
<polygon fill="#0000ff" stroke="#0000ff" points="364.9811,-289.093 352.981,-284.8931 364.981,-280.693 364.9811,-289.093"/>
<polygon fill="#0000ff" stroke="#0000ff" points="101.179,-284.8931 89.179,-279.493 95.179,-284.893 89.179,-284.893 89.179,-284.893 89.179,-284.893 95.179,-284.893 89.1789,-290.293 101.179,-284.8931 101.179,-284.8931"/>
</g>
<!-- Prototype&#45;&gt;Access -->
<g id="edge2" class="edge">
<title>Prototype&#45;&gt;Access</title>
<path fill="none" stroke="#0000ff" d="M356.3918,-344.7871C335.4694,-365.7096 311.9779,-389.201 290.998,-410.1809"/>
<polygon fill="#0000ff" stroke="#0000ff" points="356.5125,-344.6664 368.8162,-339.9995 360.7551,-340.4238 364.9978,-336.1811 364.9978,-336.1811 364.9978,-336.1811 360.7551,-340.4238 361.1794,-332.3627 356.5125,-344.6664 356.5125,-344.6664"/>
<polygon fill="#0000ff" stroke="#0000ff" points="290.9679,-410.211 278.6642,-414.8779 286.7253,-414.4537 282.4826,-418.6963 282.4826,-418.6963 282.4826,-418.6963 286.7253,-414.4537 286.301,-422.5147 290.9679,-410.211 290.9679,-410.211"/>
</g>
<!-- Part -->
<g id="node4" class="node">
<title>Part</title>
<polygon fill="#add8e6" stroke="transparent" points="620.2859,-471.893 620.2859,-493.893 774.2859,-493.893 774.2859,-471.893 620.2859,-471.893"/>
<polygon fill="none" stroke="#000000" points="620.2859,-471.893 620.2859,-493.893 774.2859,-493.893 774.2859,-471.893 620.2859,-471.893"/>
<text text-anchor="start" x="689.2329" y="-480.893" font-family="Times,serif" font-weight="bold" font-size="10.00" fill="#000000">Part</text>
<polygon fill="none" stroke="#000000" points="620.2859,-449.893 620.2859,-471.893 774.2859,-471.893 774.2859,-449.893 620.2859,-449.893"/>
<text text-anchor="start" x="625.2859" y="-458.893" font-family="Times,serif" text-decoration="underline" font-size="10.00" fill="#000000">id</text>
<text text-anchor="start" x="633.0649" y="-458.893" font-family="Times,serif" font-size="10.00" fill="#000000">: NUMBER</text>
<polygon fill="none" stroke="#000000" points="620.2859,-427.893 620.2859,-449.893 774.2859,-449.893 774.2859,-427.893 620.2859,-427.893"/>
<text text-anchor="start" x="625.2859" y="-435.893" font-family="Times,serif" font-size="10.00" fill="#000000">type: STRING</text>
<polygon fill="none" stroke="#000000" points="620.2859,-405.893 620.2859,-427.893 774.2859,-427.893 774.2859,-405.893 620.2859,-405.893"/>
<text text-anchor="start" x="625.2859" y="-414.893" font-family="Times,serif" font-style="italic" text-decoration="underline" font-size="10.00" fill="#000000">prototypeId</text>
<text text-anchor="start" x="671.9409" y="-414.893" font-family="Times,serif" font-size="10.00" fill="#000000">: NUMBER</text>
<polygon fill="none" stroke="#000000" points="620.2859,-383.893 620.2859,-405.893 774.2859,-405.893 774.2859,-383.893 620.2859,-383.893"/>
<text text-anchor="start" x="625.2859" y="-391.893" font-family="Times,serif" font-size="10.00" fill="#000000">parentId: NUMBER</text>
<polygon fill="none" stroke="#000000" points="620.2859,-361.893 620.2859,-383.893 774.2859,-383.893 774.2859,-361.893 620.2859,-361.893"/>
<text text-anchor="start" x="625.2859" y="-369.893" font-family="Times,serif" font-size="10.00" fill="#000000">name: STRING</text>
<polygon fill="none" stroke="#000000" points="620.2859,-339.893 620.2859,-361.893 774.2859,-361.893 774.2859,-339.893 620.2859,-339.893"/>
<text text-anchor="start" x="625.2859" y="-347.893" font-family="Times,serif" font-size="10.00" fill="#000000">description: STRING</text>
<polygon fill="none" stroke="#000000" points="620.2859,-317.893 620.2859,-339.893 774.2859,-339.893 774.2859,-317.893 620.2859,-317.893"/>
<text text-anchor="start" x="625.2859" y="-325.893" font-family="Times,serif" font-size="10.00" fill="#000000">color: STRING</text>
<polygon fill="none" stroke="#000000" points="620.2859,-295.893 620.2859,-317.893 774.2859,-317.893 774.2859,-295.893 620.2859,-295.893"/>
<text text-anchor="start" x="625.2859" y="-303.893" font-family="Times,serif" font-size="10.00" fill="#000000">position: JSON</text>
<polygon fill="none" stroke="#000000" points="620.2859,-273.893 620.2859,-295.893 774.2859,-295.893 774.2859,-273.893 620.2859,-273.893"/>
<text text-anchor="start" x="625.2859" y="-281.893" font-family="Times,serif" font-size="10.00" fill="#000000">width: NUMBER</text>
<polygon fill="none" stroke="#000000" points="620.2859,-251.893 620.2859,-273.893 774.2859,-273.893 774.2859,-251.893 620.2859,-251.893"/>
<text text-anchor="start" x="625.2859" y="-259.893" font-family="Times,serif" font-size="10.00" fill="#000000">height: NUMBER</text>
<polygon fill="none" stroke="#000000" points="620.2859,-229.893 620.2859,-251.893 774.2859,-251.893 774.2859,-229.893 620.2859,-229.893"/>
<text text-anchor="start" x="625.2859" y="-237.893" font-family="Times,serif" font-size="10.00" fill="#000000">order: NUMBER</text>
<polygon fill="none" stroke="#000000" points="620.2859,-207.893 620.2859,-229.893 774.2859,-229.893 774.2859,-207.893 620.2859,-207.893"/>
<text text-anchor="start" x="624.9409" y="-215.893" font-family="Times,serif" font-size="10.00" fill="#000000">configurableTypeAsChild: ARRAY</text>
<polygon fill="none" stroke="#000000" points="620.2859,-185.893 620.2859,-207.893 774.2859,-207.893 774.2859,-185.893 620.2859,-185.893"/>
<text text-anchor="start" x="625.2859" y="-193.893" font-family="Times,serif" font-size="10.00" fill="#000000">isReversible: BOOLEAN</text>
<polygon fill="none" stroke="#000000" points="620.2859,-163.893 620.2859,-185.893 774.2859,-185.893 774.2859,-163.893 620.2859,-163.893"/>
<text text-anchor="start" x="625.2859" y="-171.893" font-family="Times,serif" font-size="10.00" fill="#000000">isFlipped: BOOLEAN</text>
<polygon fill="none" stroke="#000000" points="620.2859,-141.893 620.2859,-163.893 774.2859,-163.893 774.2859,-141.893 620.2859,-141.893"/>
<text text-anchor="start" x="625.2859" y="-149.893" font-family="Times,serif" font-size="10.00" fill="#000000">ownerId: NUMBER</text>
<polygon fill="none" stroke="#000000" points="620.2859,-119.893 620.2859,-141.893 774.2859,-141.893 774.2859,-119.893 620.2859,-119.893"/>
<text text-anchor="start" x="625.2859" y="-127.893" font-family="Times,serif" font-size="10.00" fill="#000000">originalPartId: NUMBER</text>
<polygon fill="none" stroke="#000000" points="620.2859,-97.893 620.2859,-119.893 774.2859,-119.893 774.2859,-97.893 620.2859,-97.893"/>
<text text-anchor="start" x="625.2859" y="-105.893" font-family="Times,serif" font-size="10.00" fill="#000000">createdAt: DATE</text>
<polygon fill="none" stroke="#000000" points="620.2859,-75.893 620.2859,-97.893 774.2859,-97.893 774.2859,-75.893 620.2859,-75.893"/>
<text text-anchor="start" x="625.2859" y="-83.893" font-family="Times,serif" font-size="10.00" fill="#000000">updatedAt: DATE</text>
</g>
<!-- Part&#45;&gt;Prototype -->
<g id="edge4" class="edge">
<title>Part&#45;&gt;Prototype</title>
<path fill="none" stroke="#0000ff" d="M607.934,-284.893C566.314,-284.893 517.7593,-284.893 479.9366,-284.893"/>
<polygon fill="#0000ff" stroke="#0000ff" points="620.1298,-289.093 608.1298,-284.8931 620.1298,-280.693 620.1298,-289.093"/>
<polygon fill="#0000ff" stroke="#0000ff" points="479.5468,-284.8931 467.5468,-279.493 473.5468,-284.893 467.5468,-284.893 467.5468,-284.893 467.5468,-284.893 473.5468,-284.893 467.5467,-290.293 479.5468,-284.8931 479.5468,-284.8931"/>
</g>
<!-- Player -->
<g id="node5" class="node">
<title>Player</title>
<polygon fill="#add8e6" stroke="transparent" points="169.393,-176 169.393,-198 292.393,-198 292.393,-176 169.393,-176"/>
<polygon fill="none" stroke="#000000" points="169.393,-176 169.393,-198 292.393,-198 292.393,-176 169.393,-176"/>
<text text-anchor="start" x="218.1205" y="-185" font-family="Times,serif" font-weight="bold" font-size="10.00" fill="#000000">Player</text>
<polygon fill="none" stroke="#000000" points="169.393,-154 169.393,-176 292.393,-176 292.393,-154 169.393,-154"/>
<text text-anchor="start" x="174.393" y="-163" font-family="Times,serif" text-decoration="underline" font-size="10.00" fill="#000000">id</text>
<text text-anchor="start" x="182.172" y="-163" font-family="Times,serif" font-size="10.00" fill="#000000">: NUMBER</text>
<polygon fill="none" stroke="#000000" points="169.393,-132 169.393,-154 292.393,-154 292.393,-132 169.393,-132"/>
<text text-anchor="start" x="174.393" y="-140" font-family="Times,serif" font-size="10.00" fill="#000000">name: STRING</text>
<polygon fill="none" stroke="#000000" points="169.393,-110 169.393,-132 292.393,-132 292.393,-110 169.393,-110"/>
<text text-anchor="start" x="174.393" y="-119" font-family="Times,serif" font-style="italic" text-decoration="underline" font-size="10.00" fill="#000000">prototypeId</text>
<text text-anchor="start" x="221.048" y="-119" font-family="Times,serif" font-size="10.00" fill="#000000">: NUMBER</text>
<polygon fill="none" stroke="#000000" points="169.393,-88 169.393,-110 292.393,-110 292.393,-88 169.393,-88"/>
<text text-anchor="start" x="174.393" y="-97" font-family="Times,serif" font-style="italic" text-decoration="underline" font-size="10.00" fill="#000000">userId</text>
<text text-anchor="start" x="199.379" y="-97" font-family="Times,serif" font-size="10.00" fill="#000000">: NUMBER</text>
<polygon fill="none" stroke="#000000" points="169.393,-66 169.393,-88 292.393,-88 292.393,-66 169.393,-66"/>
<text text-anchor="start" x="174.393" y="-74" font-family="Times,serif" font-size="10.00" fill="#000000">order: NUMBER</text>
<polygon fill="none" stroke="#000000" points="169.393,-44 169.393,-66 292.393,-66 292.393,-44 169.393,-44"/>
<text text-anchor="start" x="174.377" y="-52" font-family="Times,serif" font-size="10.00" fill="#000000">originalPlayerId: NUMBER</text>
<polygon fill="none" stroke="#000000" points="169.393,-22 169.393,-44 292.393,-44 292.393,-22 169.393,-22"/>
<text text-anchor="start" x="174.393" y="-30" font-family="Times,serif" font-size="10.00" fill="#000000">createdAt: DATE</text>
<polygon fill="none" stroke="#000000" points="169.393,0 169.393,-22 292.393,-22 292.393,0 169.393,0"/>
<text text-anchor="start" x="174.393" y="-8" font-family="Times,serif" font-size="10.00" fill="#000000">updatedAt: DATE</text>
</g>
<!-- Player&#45;&gt;User -->
<g id="edge5" class="edge">
<title>Player&#45;&gt;User</title>
<path fill="none" stroke="#0000ff" d="M160.1003,-169.2927C139.4834,-189.9095 117.283,-212.11 97.9022,-231.4908"/>
<polygon fill="#0000ff" stroke="#0000ff" points="171.7214,-163.6113 160.2662,-169.1268 165.7817,-157.6716 171.7214,-163.6113"/>
<polygon fill="#0000ff" stroke="#0000ff" points="97.697,-231.696 85.3933,-236.3629 93.4544,-235.9386 89.2117,-240.1813 89.2117,-240.1813 89.2117,-240.1813 93.4544,-235.9386 93.0301,-243.9997 97.697,-231.696 97.697,-231.696"/>
</g>
<!-- Player&#45;&gt;Prototype -->
<g id="edge6" class="edge">
<title>Player&#45;&gt;Prototype</title>
<path fill="none" stroke="#0000ff" d="M300.7569,-169.3639C319.1193,-187.7263 338.7334,-207.3404 356.49,-225.097"/>
<polygon fill="#0000ff" stroke="#0000ff" points="295.0043,-157.6716 300.5197,-169.1268 289.0646,-163.6113 295.0043,-157.6716"/>
<polygon fill="#0000ff" stroke="#0000ff" points="356.5587,-225.1657 361.2256,-237.4694 360.8013,-229.4083 365.044,-233.651 365.044,-233.651 365.044,-233.651 360.8013,-229.4083 368.8624,-229.8326 356.5587,-225.1657 356.5587,-225.1657"/>
</g>
</g>
</svg>
