<?xml version="1.0" encoding="UTF-8" standalone="no"?>
<!DOCTYPE svg PUBLIC "-//W3C//DTD SVG 1.1//EN"
 "http://www.w3.org/Graphics/SVG/1.1/DTD/svg11.dtd">
<!-- Generated by graphviz version 2.40.1 (20161225.0304)
 -->
<!-- Title: models_diagram Pages: 1 -->
<svg width="1216pt" height="892pt"
 viewBox="0.00 0.00 1216.00 892.00" xmlns="http://www.w3.org/2000/svg" xmlns:xlink="http://www.w3.org/1999/xlink">
<g id="graph0" class="graph" transform="scale(1 1) rotate(0) translate(36 856)">
<title>models_diagram</title>
<polygon fill="#ffffff" stroke="transparent" points="-36,36 -36,-856 1180,-856 1180,36 -36,36"/>
<!-- User -->
<g id="node1" class="node">
<title>User</title>
<polygon fill="#add8e6" stroke="transparent" points="820.5,-560 820.5,-582 909.5,-582 909.5,-560 820.5,-560"/>
<polygon fill="none" stroke="#000000" points="820.5,-560 820.5,-582 909.5,-582 909.5,-560 820.5,-560"/>
<text text-anchor="start" x="855.562" y="-569" font-family="Times,serif" font-weight="bold" font-size="10.00" fill="#000000">User</text>
<polygon fill="none" stroke="#000000" points="820.5,-538 820.5,-560 909.5,-560 909.5,-538 820.5,-538"/>
<text text-anchor="start" x="825.5" y="-547" font-family="Times,serif" text-decoration="underline" font-size="10.00" fill="#000000">id</text>
<text text-anchor="start" x="833.279" y="-547" font-family="Times,serif" font-size="10.00" fill="#000000">: UUID</text>
<polygon fill="none" stroke="#000000" points="820.5,-516 820.5,-538 909.5,-538 909.5,-516 820.5,-516"/>
<text text-anchor="start" x="825.5" y="-524" font-family="Times,serif" font-size="10.00" fill="#000000">googleId: STRING</text>
<polygon fill="none" stroke="#000000" points="820.5,-494 820.5,-516 909.5,-516 909.5,-494 820.5,-494"/>
<text text-anchor="start" x="825.1515" y="-502" font-family="Times,serif" font-size="10.00" fill="#000000">username: STRING</text>
<polygon fill="none" stroke="#000000" points="820.5,-472 820.5,-494 909.5,-494 909.5,-472 820.5,-472"/>
<text text-anchor="start" x="825.5" y="-480" font-family="Times,serif" font-size="10.00" fill="#000000">createdAt: DATE</text>
<polygon fill="none" stroke="#000000" points="820.5,-450 820.5,-472 909.5,-472 909.5,-450 820.5,-450"/>
<text text-anchor="start" x="825.5" y="-458" font-family="Times,serif" font-size="10.00" fill="#000000">updatedAt: DATE</text>
</g>
<!-- UserAccess -->
<g id="node8" class="node">
<title>UserAccess</title>
<polygon fill="#add8e6" stroke="transparent" points="1053.5,-646 1053.5,-668 1144.5,-668 1144.5,-646 1053.5,-646"/>
<polygon fill="none" stroke="#000000" points="1053.5,-646 1053.5,-668 1144.5,-668 1144.5,-646 1053.5,-646"/>
<text text-anchor="start" x="1075.405" y="-655" font-family="Times,serif" font-weight="bold" font-size="10.00" fill="#000000">UserAccess</text>
<polygon fill="none" stroke="#000000" points="1053.5,-624 1053.5,-646 1144.5,-646 1144.5,-624 1053.5,-624"/>
<text text-anchor="start" x="1058.5" y="-633" font-family="Times,serif" text-decoration="underline" font-size="10.00" fill="#000000">userId</text>
<text text-anchor="start" x="1083.486" y="-633" font-family="Times,serif" font-size="10.00" fill="#000000">: UUID</text>
<polygon fill="none" stroke="#000000" points="1053.5,-602 1053.5,-624 1144.5,-624 1144.5,-602 1053.5,-602"/>
<text text-anchor="start" x="1058.042" y="-611" font-family="Times,serif" text-decoration="underline" font-size="10.00" fill="#000000">accessId</text>
<text text-anchor="start" x="1091.905" y="-611" font-family="Times,serif" font-size="10.00" fill="#000000">: NUMBER</text>
</g>
<!-- User&#45;&gt;UserAccess -->
<g id="edge1" class="edge">
<title>User&#45;&gt;UserAccess</title>
<path fill="none" stroke="#0000ff" d="M919.8505,-544.1483C956.6153,-562.845 1004.7489,-587.3232 1041.7897,-606.1601"/>
<polygon fill="#0000ff" stroke="#0000ff" points="919.7607,-544.1027 911.5122,-533.8497 914.4126,-541.3829 909.0644,-538.6631 909.0644,-538.6631 909.0644,-538.6631 914.4126,-541.3829 906.6166,-543.4764 919.7607,-544.1027 919.7607,-544.1027"/>
<polygon fill="#0000ff" stroke="#0000ff" points="1042.2078,-606.3727 1050.4563,-616.6257 1047.556,-609.0925 1052.9041,-611.8124 1052.9041,-611.8124 1052.9041,-611.8124 1047.556,-609.0925 1055.352,-606.999 1042.2078,-606.3727 1042.2078,-606.3727"/>
</g>
<!-- Prototype -->
<g id="node2" class="node">
<title>Prototype</title>
<polygon fill="#add8e6" stroke="transparent" points="562,-615 562,-637 676,-637 676,-615 562,-615"/>
<polygon fill="none" stroke="#000000" points="562,-615 562,-637 676,-637 676,-615 562,-615"/>
<text text-anchor="start" x="599.5575" y="-624" font-family="Times,serif" font-weight="bold" font-size="10.00" fill="#000000">Prototype</text>
<polygon fill="none" stroke="#000000" points="562,-593 562,-615 676,-615 676,-593 562,-593"/>
<text text-anchor="start" x="567" y="-602" font-family="Times,serif" text-decoration="underline" font-size="10.00" fill="#000000">id</text>
<text text-anchor="start" x="574.779" y="-602" font-family="Times,serif" font-size="10.00" fill="#000000">: UUID</text>
<polygon fill="none" stroke="#000000" points="562,-571 562,-593 676,-593 676,-571 562,-571"/>
<text text-anchor="start" x="567" y="-580" font-family="Times,serif" font-style="italic" text-decoration="underline" font-size="10.00" fill="#000000">userId</text>
<text text-anchor="start" x="591.986" y="-580" font-family="Times,serif" font-size="10.00" fill="#000000">: UUID</text>
<polygon fill="none" stroke="#000000" points="562,-549 562,-571 676,-571 676,-549 562,-549"/>
<text text-anchor="start" x="567" y="-557" font-family="Times,serif" font-size="10.00" fill="#000000">name: STRING</text>
<polygon fill="none" stroke="#000000" points="562,-527 562,-549 676,-549 676,-527 562,-527"/>
<text text-anchor="start" x="567" y="-535" font-family="Times,serif" font-size="10.00" fill="#000000">type: ENUM</text>
<polygon fill="none" stroke="#000000" points="562,-505 562,-527 676,-527 676,-505 562,-505"/>
<text text-anchor="start" x="566.9335" y="-514" font-family="Times,serif" font-style="italic" text-decoration="underline" font-size="10.00" fill="#000000">masterPrototypeId</text>
<text text-anchor="start" x="640.8015" y="-514" font-family="Times,serif" font-size="10.00" fill="#000000">: UUID</text>
<polygon fill="none" stroke="#000000" points="562,-483 562,-505 676,-505 676,-483 562,-483"/>
<text text-anchor="start" x="567" y="-491" font-family="Times,serif" font-size="10.00" fill="#000000">groupId: UUID</text>
<polygon fill="none" stroke="#000000" points="562,-461 562,-483 676,-483 676,-461 562,-461"/>
<text text-anchor="start" x="567" y="-469" font-family="Times,serif" font-size="10.00" fill="#000000">minPlayers: NUMBER</text>
<polygon fill="none" stroke="#000000" points="562,-439 562,-461 676,-461 676,-439 562,-439"/>
<text text-anchor="start" x="567" y="-447" font-family="Times,serif" font-size="10.00" fill="#000000">maxPlayers: NUMBER</text>
<polygon fill="none" stroke="#000000" points="562,-417 562,-439 676,-439 676,-417 562,-417"/>
<text text-anchor="start" x="567" y="-425" font-family="Times,serif" font-size="10.00" fill="#000000">createdAt: DATE</text>
<polygon fill="none" stroke="#000000" points="562,-395 562,-417 676,-417 676,-395 562,-395"/>
<text text-anchor="start" x="567" y="-403" font-family="Times,serif" font-size="10.00" fill="#000000">updatedAt: DATE</text>
</g>
<!-- Prototype&#45;&gt;User -->
<g id="edge3" class="edge">
<title>Prototype&#45;&gt;User</title>
<path fill="none" stroke="#0000ff" d="M688.4047,-516C726.1202,-516 772.1771,-516 807.7285,-516"/>
<polygon fill="#0000ff" stroke="#0000ff" points="676.249,-511.8 688.249,-516.0001 676.249,-520.2 676.249,-511.8"/>
<polygon fill="#0000ff" stroke="#0000ff" points="807.8344,-516.0001 819.8344,-521.4 813.8344,-516 819.8344,-516 819.8344,-516 819.8344,-516 813.8344,-516 819.8343,-510.6 807.8344,-516.0001 807.8344,-516.0001"/>
</g>
<!-- PrototypeGroup -->
<g id="node3" class="node">
<title>PrototypeGroup</title>
<polygon fill="#add8e6" stroke="transparent" points="318.5,-655 318.5,-677 404.5,-677 404.5,-655 318.5,-655"/>
<polygon fill="none" stroke="#000000" points="318.5,-655 318.5,-677 404.5,-677 404.5,-655 318.5,-655"/>
<text text-anchor="start" x="329.2835" y="-664" font-family="Times,serif" font-weight="bold" font-size="10.00" fill="#000000">PrototypeGroup</text>
<polygon fill="none" stroke="#000000" points="318.5,-633 318.5,-655 404.5,-655 404.5,-633 318.5,-633"/>
<text text-anchor="start" x="323.5" y="-642" font-family="Times,serif" text-decoration="underline" font-size="10.00" fill="#000000">id</text>
<text text-anchor="start" x="331.279" y="-642" font-family="Times,serif" font-size="10.00" fill="#000000">: UUID</text>
<polygon fill="none" stroke="#000000" points="318.5,-611 318.5,-633 404.5,-633 404.5,-611 318.5,-611"/>
<text text-anchor="start" x="323.04" y="-620" font-family="Times,serif" text-decoration="underline" font-size="10.00" fill="#000000">prototypeId</text>
<text text-anchor="start" x="369.695" y="-620" font-family="Times,serif" font-size="10.00" fill="#000000">: UUID</text>
</g>
<!-- PrototypeGroup&#45;&gt;Prototype -->
<g id="edge4" class="edge">
<title>PrototypeGroup&#45;&gt;Prototype</title>
<path fill="none" stroke="#0000ff" d="M415.3815,-617.2162C454.7959,-597.6238 508.5557,-570.9005 550.9387,-549.8324"/>
<polygon fill="#0000ff" stroke="#0000ff" points="402.7302,-618.8147 415.3453,-617.2341 406.4693,-626.3366 402.7302,-618.8147"/>
<polygon fill="#0000ff" stroke="#0000ff" points="550.9856,-549.8091 564.135,-549.3031 556.3584,-547.1384 561.7312,-544.4676 561.7312,-544.4676 561.7312,-544.4676 556.3584,-547.1384 559.3275,-539.632 550.9856,-549.8091 550.9856,-549.8091"/>
</g>
<!-- Access -->
<g id="node4" class="node">
<title>Access</title>
<polygon fill="#add8e6" stroke="transparent" points="24.5,-798 24.5,-820 136.5,-820 136.5,-798 24.5,-798"/>
<polygon fill="none" stroke="#000000" points="24.5,-798 24.5,-820 136.5,-820 136.5,-798 24.5,-798"/>
<text text-anchor="start" x="66.343" y="-807" font-family="Times,serif" font-weight="bold" font-size="10.00" fill="#000000">Access</text>
<polygon fill="none" stroke="#000000" points="24.5,-776 24.5,-798 136.5,-798 136.5,-776 24.5,-776"/>
<text text-anchor="start" x="29.5" y="-785" font-family="Times,serif" text-decoration="underline" font-size="10.00" fill="#000000">id</text>
<text text-anchor="start" x="37.279" y="-785" font-family="Times,serif" font-size="10.00" fill="#000000">: NUMBER</text>
<polygon fill="none" stroke="#000000" points="24.5,-754 24.5,-776 136.5,-776 136.5,-754 24.5,-754"/>
<text text-anchor="start" x="29.266" y="-762" font-family="Times,serif" font-size="10.00" fill="#000000">prototypeGroupId: UUID</text>
<polygon fill="none" stroke="#000000" points="24.5,-732 24.5,-754 136.5,-754 136.5,-732 24.5,-732"/>
<text text-anchor="start" x="29.5" y="-740" font-family="Times,serif" font-size="10.00" fill="#000000">name: STRING</text>
</g>
<!-- Access&#45;&gt;PrototypeGroup -->
<g id="edge5" class="edge">
<title>Access&#45;&gt;PrototypeGroup</title>
<path fill="none" stroke="#0000ff" d="M147.672,-744.4459C196.4553,-721.5299 261.6251,-690.9163 307.1464,-669.5327"/>
<polygon fill="#0000ff" stroke="#0000ff" points="134.9034,-745.8036 147.5505,-744.5029 138.4749,-753.4065 134.9034,-745.8036"/>
<polygon fill="#0000ff" stroke="#0000ff" points="307.413,-669.4075 320.5703,-669.1929 312.8437,-666.8564 318.2743,-664.3053 318.2743,-664.3053 318.2743,-664.3053 312.8437,-666.8564 315.9784,-659.4177 307.413,-669.4075 307.413,-669.4075"/>
</g>
<!-- Access&#45;&gt;UserAccess -->
<g id="edge2" class="edge">
<title>Access&#45;&gt;UserAccess</title>
<path fill="none" stroke="#0000ff" d="M148.6279,-766.5638C337.5005,-740.4037 865.3924,-667.287 1040.9229,-642.9748"/>
<polygon fill="#0000ff" stroke="#0000ff" points="148.5687,-766.5719 135.9413,-762.8694 142.6254,-767.3952 136.6822,-768.2184 136.6822,-768.2184 136.6822,-768.2184 142.6254,-767.3952 137.4231,-773.5673 148.5687,-766.5719 148.5687,-766.5719"/>
<polygon fill="#0000ff" stroke="#0000ff" points="1041.0562,-642.9565 1053.6836,-646.6589 1046.9994,-642.1332 1052.9427,-641.31 1052.9427,-641.31 1052.9427,-641.31 1046.9994,-642.1332 1052.2018,-635.9611 1041.0562,-642.9565 1041.0562,-642.9565"/>
</g>
<!-- PrototypeVersion -->
<g id="node5" class="node">
<title>PrototypeVersion</title>
<polygon fill="#add8e6" stroke="transparent" points="305.5,-509 305.5,-531 418.5,-531 418.5,-509 305.5,-509"/>
<polygon fill="none" stroke="#000000" points="305.5,-509 305.5,-531 418.5,-531 418.5,-509 305.5,-509"/>
<text text-anchor="start" x="326.73" y="-518" font-family="Times,serif" font-weight="bold" font-size="10.00" fill="#000000">PrototypeVersion</text>
<polygon fill="none" stroke="#000000" points="305.5,-487 305.5,-509 418.5,-509 418.5,-487 305.5,-487"/>
<text text-anchor="start" x="310.5" y="-496" font-family="Times,serif" text-decoration="underline" font-size="10.00" fill="#000000">id</text>
<text text-anchor="start" x="318.279" y="-496" font-family="Times,serif" font-size="10.00" fill="#000000">: UUID</text>
<polygon fill="none" stroke="#000000" points="305.5,-465 305.5,-487 418.5,-487 418.5,-465 305.5,-465"/>
<text text-anchor="start" x="310.5" y="-474" font-family="Times,serif" font-style="italic" text-decoration="underline" font-size="10.00" fill="#000000">prototypeId</text>
<text text-anchor="start" x="357.155" y="-474" font-family="Times,serif" font-size="10.00" fill="#000000">: UUID</text>
<polygon fill="none" stroke="#000000" points="305.5,-443 305.5,-465 418.5,-465 418.5,-443 305.5,-443"/>
<text text-anchor="start" x="310.2075" y="-451" font-family="Times,serif" font-size="10.00" fill="#000000">versionNumber: STRING</text>
<polygon fill="none" stroke="#000000" points="305.5,-421 305.5,-443 418.5,-443 418.5,-421 305.5,-421"/>
<text text-anchor="start" x="310.5" y="-429" font-family="Times,serif" font-size="10.00" fill="#000000">description: STRING</text>
<polygon fill="none" stroke="#000000" points="305.5,-399 305.5,-421 418.5,-421 418.5,-399 305.5,-399"/>
<text text-anchor="start" x="310.5" y="-407" font-family="Times,serif" font-size="10.00" fill="#000000">createdAt: DATE</text>
<polygon fill="none" stroke="#000000" points="305.5,-377 305.5,-399 418.5,-399 418.5,-377 305.5,-377"/>
<text text-anchor="start" x="310.5" y="-385" font-family="Times,serif" font-size="10.00" fill="#000000">updatedAt: DATE</text>
</g>
<!-- PrototypeVersion&#45;&gt;Prototype -->
<g id="edge6" class="edge">
<title>PrototypeVersion&#45;&gt;Prototype</title>
<path fill="none" stroke="#0000ff" d="M429.8574,-470.4589C466.9744,-479.3958 512.7494,-490.4173 549.9702,-499.3792"/>
<polygon fill="#0000ff" stroke="#0000ff" points="418.9927,-463.5229 429.6761,-470.4153 417.0263,-471.6895 418.9927,-463.5229"/>
<polygon fill="#0000ff" stroke="#0000ff" points="550.0659,-499.4022 560.4684,-507.4613 555.8992,-500.8068 561.7325,-502.2113 561.7325,-502.2113 561.7325,-502.2113 555.8992,-500.8068 562.9966,-496.9614 550.0659,-499.4022 550.0659,-499.4022"/>
</g>
<!-- Part -->
<g id="node6" class="node">
<title>Part</title>
<polygon fill="#add8e6" stroke="transparent" points=".5,-674 .5,-696 161.5,-696 161.5,-674 .5,-674"/>
<polygon fill="none" stroke="#000000" points=".5,-674 .5,-696 161.5,-696 161.5,-674 .5,-674"/>
<text text-anchor="start" x="72.947" y="-683" font-family="Times,serif" font-weight="bold" font-size="10.00" fill="#000000">Part</text>
<polygon fill="none" stroke="#000000" points=".5,-652 .5,-674 161.5,-674 161.5,-652 .5,-652"/>
<text text-anchor="start" x="5.5" y="-661" font-family="Times,serif" text-decoration="underline" font-size="10.00" fill="#000000">id</text>
<text text-anchor="start" x="13.279" y="-661" font-family="Times,serif" font-size="10.00" fill="#000000">: NUMBER</text>
<polygon fill="none" stroke="#000000" points=".5,-630 .5,-652 161.5,-652 161.5,-630 .5,-630"/>
<text text-anchor="start" x="5.5" y="-638" font-family="Times,serif" font-size="10.00" fill="#000000">type: STRING</text>
<polygon fill="none" stroke="#000000" points=".5,-608 .5,-630 161.5,-630 161.5,-608 .5,-608"/>
<text text-anchor="start" x="5.5" y="-617" font-family="Times,serif" font-style="italic" text-decoration="underline" font-size="10.00" fill="#000000">prototypeVersionId</text>
<text text-anchor="start" x="83.81" y="-617" font-family="Times,serif" font-size="10.00" fill="#000000">: UUID</text>
<polygon fill="none" stroke="#000000" points=".5,-586 .5,-608 161.5,-608 161.5,-586 .5,-586"/>
<text text-anchor="start" x="5.5" y="-594" font-family="Times,serif" font-size="10.00" fill="#000000">parentId: NUMBER</text>
<polygon fill="none" stroke="#000000" points=".5,-564 .5,-586 161.5,-586 161.5,-564 .5,-564"/>
<text text-anchor="start" x="5.5" y="-572" font-family="Times,serif" font-size="10.00" fill="#000000">name: STRING</text>
<polygon fill="none" stroke="#000000" points=".5,-542 .5,-564 161.5,-564 161.5,-542 .5,-542"/>
<text text-anchor="start" x="5.5" y="-550" font-family="Times,serif" font-size="10.00" fill="#000000">description: STRING</text>
<polygon fill="none" stroke="#000000" points=".5,-520 .5,-542 161.5,-542 161.5,-520 .5,-520"/>
<text text-anchor="start" x="5.5" y="-528" font-family="Times,serif" font-size="10.00" fill="#000000">color: STRING</text>
<polygon fill="none" stroke="#000000" points=".5,-498 .5,-520 161.5,-520 161.5,-498 .5,-498"/>
<text text-anchor="start" x="5.5" y="-506" font-family="Times,serif" font-size="10.00" fill="#000000">titleColor: STRING</text>
<polygon fill="none" stroke="#000000" points=".5,-476 .5,-498 161.5,-498 161.5,-476 .5,-476"/>
<text text-anchor="start" x="5.5" y="-484" font-family="Times,serif" font-size="10.00" fill="#000000">playerNameColor: STRING</text>
<polygon fill="none" stroke="#000000" points=".5,-454 .5,-476 161.5,-476 161.5,-454 .5,-454"/>
<text text-anchor="start" x="5.5" y="-462" font-family="Times,serif" font-size="10.00" fill="#000000">position: JSON</text>
<polygon fill="none" stroke="#000000" points=".5,-432 .5,-454 161.5,-454 161.5,-432 .5,-432"/>
<text text-anchor="start" x="5.5" y="-440" font-family="Times,serif" font-size="10.00" fill="#000000">width: NUMBER</text>
<polygon fill="none" stroke="#000000" points=".5,-410 .5,-432 161.5,-432 161.5,-410 .5,-410"/>
<text text-anchor="start" x="5.5" y="-418" font-family="Times,serif" font-size="10.00" fill="#000000">height: NUMBER</text>
<polygon fill="none" stroke="#000000" points=".5,-388 .5,-410 161.5,-410 161.5,-388 .5,-388"/>
<text text-anchor="start" x="5.5" y="-396" font-family="Times,serif" font-size="10.00" fill="#000000">order: NUMBER</text>
<polygon fill="none" stroke="#000000" points=".5,-366 .5,-388 161.5,-388 161.5,-366 .5,-366"/>
<text text-anchor="start" x="5.5" y="-374" font-family="Times,serif" font-size="10.00" fill="#000000">configurableTypeAsChild: ARRAY</text>
<polygon fill="none" stroke="#000000" points=".5,-344 .5,-366 161.5,-366 161.5,-344 .5,-344"/>
<text text-anchor="start" x="5.5" y="-352" font-family="Times,serif" font-size="10.00" fill="#000000">originalPartId: NUMBER</text>
<polygon fill="none" stroke="#000000" points=".5,-322 .5,-344 161.5,-344 161.5,-322 .5,-322"/>
<text text-anchor="start" x="5.5" y="-330" font-family="Times,serif" font-size="10.00" fill="#000000">isReversible: BOOLEAN</text>
<polygon fill="none" stroke="#000000" points=".5,-300 .5,-322 161.5,-322 161.5,-300 .5,-300"/>
<text text-anchor="start" x="5.5" y="-308" font-family="Times,serif" font-size="10.00" fill="#000000">isFlipped: BOOLEAN</text>
<polygon fill="none" stroke="#000000" points=".5,-278 .5,-300 161.5,-300 161.5,-278 .5,-278"/>
<text text-anchor="start" x="5.5" y="-286" font-family="Times,serif" font-size="10.00" fill="#000000">ownerId: NUMBER</text>
<polygon fill="none" stroke="#000000" points=".5,-256 .5,-278 161.5,-278 161.5,-256 .5,-256"/>
<text text-anchor="start" x="5.0615" y="-264" font-family="Times,serif" font-size="10.00" fill="#000000">canReverseCardOnDeck: BOOLEAN</text>
<polygon fill="none" stroke="#000000" points=".5,-234 .5,-256 161.5,-256 161.5,-234 .5,-234"/>
<text text-anchor="start" x="5.5" y="-242" font-family="Times,serif" font-size="10.00" fill="#000000">createdAt: DATE</text>
<polygon fill="none" stroke="#000000" points=".5,-212 .5,-234 161.5,-234 161.5,-212 .5,-212"/>
<text text-anchor="start" x="5.5" y="-220" font-family="Times,serif" font-size="10.00" fill="#000000">updatedAt: DATE</text>
</g>
<!-- Part&#45;&gt;PrototypeVersion -->
<g id="edge7" class="edge">
<title>Part&#45;&gt;PrototypeVersion</title>
<path fill="none" stroke="#0000ff" d="M173.0726,-454C211.9224,-454 256.3268,-454 292.2681,-454"/>
<polygon fill="#0000ff" stroke="#0000ff" points="161.0234,-449.8 173.0233,-454.0001 161.0233,-458.2 161.0234,-449.8"/>
<polygon fill="#0000ff" stroke="#0000ff" points="292.6051,-454.0001 304.6051,-459.4 298.6051,-454 304.6051,-454 304.6051,-454 304.6051,-454 298.6051,-454 304.605,-448.6 292.6051,-454.0001 292.6051,-454.0001"/>
</g>
<!-- Player -->
<g id="node7" class="node">
<title>Player</title>
<polygon fill="#add8e6" stroke="transparent" points="19.5,-154 19.5,-176 142.5,-176 142.5,-154 19.5,-154"/>
<polygon fill="none" stroke="#000000" points="19.5,-154 19.5,-176 142.5,-176 142.5,-154 19.5,-154"/>
<text text-anchor="start" x="68.2275" y="-163" font-family="Times,serif" font-weight="bold" font-size="10.00" fill="#000000">Player</text>
<polygon fill="none" stroke="#000000" points="19.5,-132 19.5,-154 142.5,-154 142.5,-132 19.5,-132"/>
<text text-anchor="start" x="24.5" y="-141" font-family="Times,serif" text-decoration="underline" font-size="10.00" fill="#000000">id</text>
<text text-anchor="start" x="32.279" y="-141" font-family="Times,serif" font-size="10.00" fill="#000000">: NUMBER</text>
<polygon fill="none" stroke="#000000" points="19.5,-110 19.5,-132 142.5,-132 142.5,-110 19.5,-110"/>
<text text-anchor="start" x="24.5" y="-119" font-family="Times,serif" font-style="italic" text-decoration="underline" font-size="10.00" fill="#000000">prototypeVersionId</text>
<text text-anchor="start" x="102.81" y="-119" font-family="Times,serif" font-size="10.00" fill="#000000">: UUID</text>
<polygon fill="none" stroke="#000000" points="19.5,-88 19.5,-110 142.5,-110 142.5,-88 19.5,-88"/>
<text text-anchor="start" x="24.5" y="-97" font-family="Times,serif" font-style="italic" text-decoration="underline" font-size="10.00" fill="#000000">userId</text>
<text text-anchor="start" x="49.486" y="-97" font-family="Times,serif" font-size="10.00" fill="#000000">: UUID</text>
<polygon fill="none" stroke="#000000" points="19.5,-66 19.5,-88 142.5,-88 142.5,-66 19.5,-66"/>
<text text-anchor="start" x="24.5" y="-74" font-family="Times,serif" font-size="10.00" fill="#000000">playerName: STRING</text>
<polygon fill="none" stroke="#000000" points="19.5,-44 19.5,-66 142.5,-66 142.5,-44 19.5,-44"/>
<text text-anchor="start" x="24.484" y="-52" font-family="Times,serif" font-size="10.00" fill="#000000">originalPlayerId: NUMBER</text>
<polygon fill="none" stroke="#000000" points="19.5,-22 19.5,-44 142.5,-44 142.5,-22 19.5,-22"/>
<text text-anchor="start" x="24.5" y="-30" font-family="Times,serif" font-size="10.00" fill="#000000">createdAt: DATE</text>
<polygon fill="none" stroke="#000000" points="19.5,0 19.5,-22 142.5,-22 142.5,0 19.5,0"/>
<text text-anchor="start" x="24.5" y="-8" font-family="Times,serif" font-size="10.00" fill="#000000">updatedAt: DATE</text>
</g>
<!-- Player&#45;&gt;User -->
<g id="edge9" class="edge">
<title>Player&#45;&gt;User</title>
<path fill="none" stroke="#0000ff" d="M153.4017,-118.2048C267.9359,-166.7906 495.5741,-267.961 676,-377 723.2787,-405.5725 773.4655,-442.9665 810.158,-471.7716"/>
<polygon fill="#0000ff" stroke="#0000ff" points="143.6437,-109.5185 153.0604,-118.0606 140.3721,-117.2553 143.6437,-109.5185"/>
<polygon fill="#0000ff" stroke="#0000ff" points="810.2424,-471.8383 816.3128,-483.5135 814.951,-475.557 819.6597,-479.2757 819.6597,-479.2757 819.6597,-479.2757 814.951,-475.557 823.0065,-475.0379 810.2424,-471.8383 810.2424,-471.8383"/>
</g>
<!-- Player&#45;&gt;PrototypeVersion -->
<g id="edge8" class="edge">
<title>Player&#45;&gt;PrototypeVersion</title>
<path fill="none" stroke="#0000ff" d="M149.7012,-178.1339C194.8664,-236.9612 253.4059,-313.2084 297.4918,-370.6299"/>
<polygon fill="#0000ff" stroke="#0000ff" points="145.498,-165.7625 149.4744,-177.8385 138.8352,-170.878 145.498,-165.7625"/>
<polygon fill="#0000ff" stroke="#0000ff" points="297.6848,-370.8813 300.7094,-383.6881 301.3387,-375.6405 304.9926,-380.3996 304.9926,-380.3996 304.9926,-380.3996 301.3387,-375.6405 309.2758,-377.1111 297.6848,-370.8813 297.6848,-370.8813"/>
</g>
</g>
</svg>
