<?xml version="1.0" encoding="UTF-8" standalone="no"?>
<!DOCTYPE svg PUBLIC "-//W3C//DTD SVG 1.1//EN"
 "http://www.w3.org/Graphics/SVG/1.1/DTD/svg11.dtd">
<!-- Generated by graphviz version 2.40.1 (20161225.0304)
 -->
<!-- Title: models_diagram Pages: 1 -->
<svg width="1216pt" height="870pt"
 viewBox="0.00 0.00 1216.00 870.00" xmlns="http://www.w3.org/2000/svg" xmlns:xlink="http://www.w3.org/1999/xlink">
<g id="graph0" class="graph" transform="scale(1 1) rotate(0) translate(36 834)">
<title>models_diagram</title>
<polygon fill="#ffffff" stroke="transparent" points="-36,36 -36,-834 1180,-834 1180,36 -36,36"/>
<!-- User -->
<g id="node1" class="node">
<title>User</title>
<polygon fill="#add8e6" stroke="transparent" points="820.5,-545 820.5,-567 909.5,-567 909.5,-545 820.5,-545"/>
<polygon fill="none" stroke="#000000" points="820.5,-545 820.5,-567 909.5,-567 909.5,-545 820.5,-545"/>
<text text-anchor="start" x="855.562" y="-554" font-family="Times,serif" font-weight="bold" font-size="10.00" fill="#000000">User</text>
<polygon fill="none" stroke="#000000" points="820.5,-523 820.5,-545 909.5,-545 909.5,-523 820.5,-523"/>
<text text-anchor="start" x="825.5" y="-532" font-family="Times,serif" text-decoration="underline" font-size="10.00" fill="#000000">id</text>
<text text-anchor="start" x="833.279" y="-532" font-family="Times,serif" font-size="10.00" fill="#000000">: UUID</text>
<polygon fill="none" stroke="#000000" points="820.5,-501 820.5,-523 909.5,-523 909.5,-501 820.5,-501"/>
<text text-anchor="start" x="825.5" y="-509" font-family="Times,serif" font-size="10.00" fill="#000000">googleId: STRING</text>
<polygon fill="none" stroke="#000000" points="820.5,-479 820.5,-501 909.5,-501 909.5,-479 820.5,-479"/>
<text text-anchor="start" x="825.1515" y="-487" font-family="Times,serif" font-size="10.00" fill="#000000">username: STRING</text>
<polygon fill="none" stroke="#000000" points="820.5,-457 820.5,-479 909.5,-479 909.5,-457 820.5,-457"/>
<text text-anchor="start" x="825.5" y="-465" font-family="Times,serif" font-size="10.00" fill="#000000">createdAt: DATE</text>
<polygon fill="none" stroke="#000000" points="820.5,-435 820.5,-457 909.5,-457 909.5,-435 820.5,-435"/>
<text text-anchor="start" x="825.5" y="-443" font-family="Times,serif" font-size="10.00" fill="#000000">updatedAt: DATE</text>
</g>
<!-- UserAccess -->
<g id="node8" class="node">
<title>UserAccess</title>
<polygon fill="#add8e6" stroke="transparent" points="1053.5,-628 1053.5,-650 1144.5,-650 1144.5,-628 1053.5,-628"/>
<polygon fill="none" stroke="#000000" points="1053.5,-628 1053.5,-650 1144.5,-650 1144.5,-628 1053.5,-628"/>
<text text-anchor="start" x="1075.405" y="-637" font-family="Times,serif" font-weight="bold" font-size="10.00" fill="#000000">UserAccess</text>
<polygon fill="none" stroke="#000000" points="1053.5,-606 1053.5,-628 1144.5,-628 1144.5,-606 1053.5,-606"/>
<text text-anchor="start" x="1058.5" y="-615" font-family="Times,serif" text-decoration="underline" font-size="10.00" fill="#000000">userId</text>
<text text-anchor="start" x="1083.486" y="-615" font-family="Times,serif" font-size="10.00" fill="#000000">: UUID</text>
<polygon fill="none" stroke="#000000" points="1053.5,-584 1053.5,-606 1144.5,-606 1144.5,-584 1053.5,-584"/>
<text text-anchor="start" x="1058.042" y="-593" font-family="Times,serif" text-decoration="underline" font-size="10.00" fill="#000000">accessId</text>
<text text-anchor="start" x="1091.905" y="-593" font-family="Times,serif" font-size="10.00" fill="#000000">: NUMBER</text>
</g>
<!-- User&#45;&gt;UserAccess -->
<g id="edge1" class="edge">
<title>User&#45;&gt;UserAccess</title>
<path fill="none" stroke="#0000ff" d="M919.8505,-528.4387C956.6153,-546.664 1004.7489,-570.5251 1041.7897,-588.8872"/>
<polygon fill="#0000ff" stroke="#0000ff" points="919.8159,-528.4216 911.4628,-518.2536 914.4401,-525.7567 909.0644,-523.0918 909.0644,-523.0918 909.0644,-523.0918 914.4401,-525.7567 906.666,-527.9299 919.8159,-528.4216 919.8159,-528.4216"/>
<polygon fill="#0000ff" stroke="#0000ff" points="1042.1527,-589.0671 1050.5057,-599.2351 1047.5284,-591.732 1052.9041,-594.3969 1052.9041,-594.3969 1052.9041,-594.3969 1047.5284,-591.732 1055.3025,-589.5588 1042.1527,-589.0671 1042.1527,-589.0671"/>
</g>
<!-- Prototype -->
<g id="node2" class="node">
<title>Prototype</title>
<polygon fill="#add8e6" stroke="transparent" points="562,-600 562,-622 676,-622 676,-600 562,-600"/>
<polygon fill="none" stroke="#000000" points="562,-600 562,-622 676,-622 676,-600 562,-600"/>
<text text-anchor="start" x="599.5575" y="-609" font-family="Times,serif" font-weight="bold" font-size="10.00" fill="#000000">Prototype</text>
<polygon fill="none" stroke="#000000" points="562,-578 562,-600 676,-600 676,-578 562,-578"/>
<text text-anchor="start" x="567" y="-587" font-family="Times,serif" text-decoration="underline" font-size="10.00" fill="#000000">id</text>
<text text-anchor="start" x="574.779" y="-587" font-family="Times,serif" font-size="10.00" fill="#000000">: UUID</text>
<polygon fill="none" stroke="#000000" points="562,-556 562,-578 676,-578 676,-556 562,-556"/>
<text text-anchor="start" x="567" y="-565" font-family="Times,serif" font-style="italic" text-decoration="underline" font-size="10.00" fill="#000000">userId</text>
<text text-anchor="start" x="591.986" y="-565" font-family="Times,serif" font-size="10.00" fill="#000000">: UUID</text>
<polygon fill="none" stroke="#000000" points="562,-534 562,-556 676,-556 676,-534 562,-534"/>
<text text-anchor="start" x="567" y="-542" font-family="Times,serif" font-size="10.00" fill="#000000">name: STRING</text>
<polygon fill="none" stroke="#000000" points="562,-512 562,-534 676,-534 676,-512 562,-512"/>
<text text-anchor="start" x="567" y="-520" font-family="Times,serif" font-size="10.00" fill="#000000">type: ENUM</text>
<polygon fill="none" stroke="#000000" points="562,-490 562,-512 676,-512 676,-490 562,-490"/>
<text text-anchor="start" x="566.9335" y="-499" font-family="Times,serif" font-style="italic" text-decoration="underline" font-size="10.00" fill="#000000">masterPrototypeId</text>
<text text-anchor="start" x="640.8015" y="-499" font-family="Times,serif" font-size="10.00" fill="#000000">: UUID</text>
<polygon fill="none" stroke="#000000" points="562,-468 562,-490 676,-490 676,-468 562,-468"/>
<text text-anchor="start" x="567" y="-476" font-family="Times,serif" font-size="10.00" fill="#000000">groupId: UUID</text>
<polygon fill="none" stroke="#000000" points="562,-446 562,-468 676,-468 676,-446 562,-446"/>
<text text-anchor="start" x="567" y="-454" font-family="Times,serif" font-size="10.00" fill="#000000">minPlayers: NUMBER</text>
<polygon fill="none" stroke="#000000" points="562,-424 562,-446 676,-446 676,-424 562,-424"/>
<text text-anchor="start" x="567" y="-432" font-family="Times,serif" font-size="10.00" fill="#000000">maxPlayers: NUMBER</text>
<polygon fill="none" stroke="#000000" points="562,-402 562,-424 676,-424 676,-402 562,-402"/>
<text text-anchor="start" x="567" y="-410" font-family="Times,serif" font-size="10.00" fill="#000000">createdAt: DATE</text>
<polygon fill="none" stroke="#000000" points="562,-380 562,-402 676,-402 676,-380 562,-380"/>
<text text-anchor="start" x="567" y="-388" font-family="Times,serif" font-size="10.00" fill="#000000">updatedAt: DATE</text>
</g>
<!-- Prototype&#45;&gt;User -->
<g id="edge3" class="edge">
<title>Prototype&#45;&gt;User</title>
<path fill="none" stroke="#0000ff" d="M688.4047,-501C726.1202,-501 772.1771,-501 807.7285,-501"/>
<polygon fill="#0000ff" stroke="#0000ff" points="676.249,-496.8 688.249,-501.0001 676.249,-505.2 676.249,-496.8"/>
<polygon fill="#0000ff" stroke="#0000ff" points="807.8344,-501.0001 819.8344,-506.4 813.8344,-501 819.8344,-501 819.8344,-501 819.8344,-501 813.8344,-501 819.8343,-495.6 807.8344,-501.0001 807.8344,-501.0001"/>
</g>
<!-- PrototypeGroup -->
<g id="node3" class="node">
<title>PrototypeGroup</title>
<polygon fill="#add8e6" stroke="transparent" points="318.5,-638 318.5,-660 404.5,-660 404.5,-638 318.5,-638"/>
<polygon fill="none" stroke="#000000" points="318.5,-638 318.5,-660 404.5,-660 404.5,-638 318.5,-638"/>
<text text-anchor="start" x="329.2835" y="-647" font-family="Times,serif" font-weight="bold" font-size="10.00" fill="#000000">PrototypeGroup</text>
<polygon fill="none" stroke="#000000" points="318.5,-616 318.5,-638 404.5,-638 404.5,-616 318.5,-616"/>
<text text-anchor="start" x="323.5" y="-625" font-family="Times,serif" text-decoration="underline" font-size="10.00" fill="#000000">id</text>
<text text-anchor="start" x="331.279" y="-625" font-family="Times,serif" font-size="10.00" fill="#000000">: UUID</text>
<polygon fill="none" stroke="#000000" points="318.5,-594 318.5,-616 404.5,-616 404.5,-594 318.5,-594"/>
<text text-anchor="start" x="323.04" y="-603" font-family="Times,serif" text-decoration="underline" font-size="10.00" fill="#000000">prototypeId</text>
<text text-anchor="start" x="369.695" y="-603" font-family="Times,serif" font-size="10.00" fill="#000000">: UUID</text>
</g>
<!-- PrototypeGroup&#45;&gt;Prototype -->
<g id="edge4" class="edge">
<title>PrototypeGroup&#45;&gt;Prototype</title>
<path fill="none" stroke="#0000ff" d="M415.3815,-600.6347C454.7959,-581.3484 508.5557,-555.0426 550.9387,-534.3038"/>
<polygon fill="#0000ff" stroke="#0000ff" points="402.7537,-602.1379 415.3785,-600.6361 406.4457,-609.683 402.7537,-602.1379"/>
<polygon fill="#0000ff" stroke="#0000ff" points="550.9525,-534.2971 564.1047,-533.8732 556.3419,-531.6599 561.7312,-529.0228 561.7312,-529.0228 561.7312,-529.0228 556.3419,-531.6599 559.3578,-524.1723 550.9525,-534.2971 550.9525,-534.2971"/>
</g>
<!-- Access -->
<g id="node4" class="node">
<title>Access</title>
<polygon fill="#add8e6" stroke="transparent" points="24.5,-776 24.5,-798 136.5,-798 136.5,-776 24.5,-776"/>
<polygon fill="none" stroke="#000000" points="24.5,-776 24.5,-798 136.5,-798 136.5,-776 24.5,-776"/>
<text text-anchor="start" x="66.343" y="-785" font-family="Times,serif" font-weight="bold" font-size="10.00" fill="#000000">Access</text>
<polygon fill="none" stroke="#000000" points="24.5,-754 24.5,-776 136.5,-776 136.5,-754 24.5,-754"/>
<text text-anchor="start" x="29.5" y="-763" font-family="Times,serif" text-decoration="underline" font-size="10.00" fill="#000000">id</text>
<text text-anchor="start" x="37.279" y="-763" font-family="Times,serif" font-size="10.00" fill="#000000">: NUMBER</text>
<polygon fill="none" stroke="#000000" points="24.5,-732 24.5,-754 136.5,-754 136.5,-732 24.5,-732"/>
<text text-anchor="start" x="29.266" y="-740" font-family="Times,serif" font-size="10.00" fill="#000000">prototypeGroupId: UUID</text>
<polygon fill="none" stroke="#000000" points="24.5,-710 24.5,-732 136.5,-732 136.5,-710 24.5,-710"/>
<text text-anchor="start" x="29.5" y="-718" font-family="Times,serif" font-size="10.00" fill="#000000">name: STRING</text>
</g>
<!-- Access&#45;&gt;PrototypeGroup -->
<g id="edge5" class="edge">
<title>Access&#45;&gt;PrototypeGroup</title>
<path fill="none" stroke="#0000ff" d="M147.672,-723.6411C196.4553,-701.5932 261.6251,-672.1392 307.1464,-651.5655"/>
<polygon fill="#0000ff" stroke="#0000ff" points="134.9594,-724.7776 147.6242,-723.6627 138.419,-732.4322 134.9594,-724.7776"/>
<polygon fill="#0000ff" stroke="#0000ff" points="307.3393,-651.4784 320.4983,-651.4569 312.8068,-649.0073 318.2743,-646.5362 318.2743,-646.5362 318.2743,-646.5362 312.8068,-649.0073 316.0503,-641.6154 307.3393,-651.4784 307.3393,-651.4784"/>
</g>
<!-- Access&#45;&gt;UserAccess -->
<g id="edge2" class="edge">
<title>Access&#45;&gt;UserAccess</title>
<path fill="none" stroke="#0000ff" d="M148.6279,-744.8315C337.5005,-719.4135 865.3924,-648.3711 1040.9229,-624.7486"/>
<polygon fill="#0000ff" stroke="#0000ff" points="148.5749,-744.8386 135.9619,-741.0874 142.6286,-745.6388 136.6822,-746.4391 136.6822,-746.4391 136.6822,-746.4391 142.6286,-745.6388 137.4024,-751.7909 148.5749,-744.8386 148.5749,-744.8386"/>
<polygon fill="#0000ff" stroke="#0000ff" points="1041.0499,-624.7316 1053.6629,-628.4827 1046.9963,-623.9313 1052.9427,-623.131 1052.9427,-623.131 1052.9427,-623.131 1046.9963,-623.9313 1052.2224,-617.7792 1041.0499,-624.7316 1041.0499,-624.7316"/>
</g>
<!-- PrototypeVersion -->
<g id="node5" class="node">
<title>PrototypeVersion</title>
<polygon fill="#add8e6" stroke="transparent" points="305.5,-498 305.5,-520 418.5,-520 418.5,-498 305.5,-498"/>
<polygon fill="none" stroke="#000000" points="305.5,-498 305.5,-520 418.5,-520 418.5,-498 305.5,-498"/>
<text text-anchor="start" x="326.73" y="-507" font-family="Times,serif" font-weight="bold" font-size="10.00" fill="#000000">PrototypeVersion</text>
<polygon fill="none" stroke="#000000" points="305.5,-476 305.5,-498 418.5,-498 418.5,-476 305.5,-476"/>
<text text-anchor="start" x="310.5" y="-485" font-family="Times,serif" text-decoration="underline" font-size="10.00" fill="#000000">id</text>
<text text-anchor="start" x="318.279" y="-485" font-family="Times,serif" font-size="10.00" fill="#000000">: UUID</text>
<polygon fill="none" stroke="#000000" points="305.5,-454 305.5,-476 418.5,-476 418.5,-454 305.5,-454"/>
<text text-anchor="start" x="310.5" y="-463" font-family="Times,serif" font-style="italic" text-decoration="underline" font-size="10.00" fill="#000000">prototypeId</text>
<text text-anchor="start" x="357.155" y="-463" font-family="Times,serif" font-size="10.00" fill="#000000">: UUID</text>
<polygon fill="none" stroke="#000000" points="305.5,-432 305.5,-454 418.5,-454 418.5,-432 305.5,-432"/>
<text text-anchor="start" x="310.2075" y="-440" font-family="Times,serif" font-size="10.00" fill="#000000">versionNumber: STRING</text>
<polygon fill="none" stroke="#000000" points="305.5,-410 305.5,-432 418.5,-432 418.5,-410 305.5,-410"/>
<text text-anchor="start" x="310.5" y="-418" font-family="Times,serif" font-size="10.00" fill="#000000">description: STRING</text>
<polygon fill="none" stroke="#000000" points="305.5,-388 305.5,-410 418.5,-410 418.5,-388 305.5,-388"/>
<text text-anchor="start" x="310.5" y="-396" font-family="Times,serif" font-size="10.00" fill="#000000">createdAt: DATE</text>
<polygon fill="none" stroke="#000000" points="305.5,-366 305.5,-388 418.5,-388 418.5,-366 305.5,-366"/>
<text text-anchor="start" x="310.5" y="-374" font-family="Times,serif" font-size="10.00" fill="#000000">updatedAt: DATE</text>
</g>
<!-- PrototypeVersion&#45;&gt;Prototype -->
<g id="edge6" class="edge">
<title>PrototypeVersion&#45;&gt;Prototype</title>
<path fill="none" stroke="#0000ff" d="M429.8574,-458.397C466.9744,-466.7573 512.7494,-477.0678 549.9702,-485.4515"/>
<polygon fill="#0000ff" stroke="#0000ff" points="418.9324,-451.631 429.7162,-458.3653 417.0865,-459.8257 418.9324,-451.631"/>
<polygon fill="#0000ff" stroke="#0000ff" points="550.0258,-485.464 560.5459,-493.3689 555.8791,-486.7824 561.7325,-488.1009 561.7325,-488.1009 561.7325,-488.1009 555.8791,-486.7824 562.9191,-482.8329 550.0258,-485.464 550.0258,-485.464"/>
</g>
<!-- Part -->
<g id="node6" class="node">
<title>Part</title>
<polygon fill="#add8e6" stroke="transparent" points=".5,-652 .5,-674 161.5,-674 161.5,-652 .5,-652"/>
<polygon fill="none" stroke="#000000" points=".5,-652 .5,-674 161.5,-674 161.5,-652 .5,-652"/>
<text text-anchor="start" x="72.947" y="-661" font-family="Times,serif" font-weight="bold" font-size="10.00" fill="#000000">Part</text>
<polygon fill="none" stroke="#000000" points=".5,-630 .5,-652 161.5,-652 161.5,-630 .5,-630"/>
<text text-anchor="start" x="5.5" y="-639" font-family="Times,serif" text-decoration="underline" font-size="10.00" fill="#000000">id</text>
<text text-anchor="start" x="13.279" y="-639" font-family="Times,serif" font-size="10.00" fill="#000000">: NUMBER</text>
<polygon fill="none" stroke="#000000" points=".5,-608 .5,-630 161.5,-630 161.5,-608 .5,-608"/>
<text text-anchor="start" x="5.5" y="-616" font-family="Times,serif" font-size="10.00" fill="#000000">type: STRING</text>
<polygon fill="none" stroke="#000000" points=".5,-586 .5,-608 161.5,-608 161.5,-586 .5,-586"/>
<text text-anchor="start" x="5.5" y="-595" font-family="Times,serif" font-style="italic" text-decoration="underline" font-size="10.00" fill="#000000">prototypeVersionId</text>
<text text-anchor="start" x="83.81" y="-595" font-family="Times,serif" font-size="10.00" fill="#000000">: UUID</text>
<polygon fill="none" stroke="#000000" points=".5,-564 .5,-586 161.5,-586 161.5,-564 .5,-564"/>
<text text-anchor="start" x="5.5" y="-572" font-family="Times,serif" font-size="10.00" fill="#000000">parentId: NUMBER</text>
<polygon fill="none" stroke="#000000" points=".5,-542 .5,-564 161.5,-564 161.5,-542 .5,-542"/>
<text text-anchor="start" x="5.5" y="-550" font-family="Times,serif" font-size="10.00" fill="#000000">name: STRING</text>
<polygon fill="none" stroke="#000000" points=".5,-520 .5,-542 161.5,-542 161.5,-520 .5,-520"/>
<text text-anchor="start" x="5.5" y="-528" font-family="Times,serif" font-size="10.00" fill="#000000">description: STRING</text>
<polygon fill="none" stroke="#000000" points=".5,-498 .5,-520 161.5,-520 161.5,-498 .5,-498"/>
<text text-anchor="start" x="5.5" y="-506" font-family="Times,serif" font-size="10.00" fill="#000000">color: STRING</text>
<polygon fill="none" stroke="#000000" points=".5,-476 .5,-498 161.5,-498 161.5,-476 .5,-476"/>
<text text-anchor="start" x="5.5" y="-484" font-family="Times,serif" font-size="10.00" fill="#000000">textColor: STRING</text>
<polygon fill="none" stroke="#000000" points=".5,-454 .5,-476 161.5,-476 161.5,-454 .5,-454"/>
<text text-anchor="start" x="5.5" y="-462" font-family="Times,serif" font-size="10.00" fill="#000000">position: JSON</text>
<polygon fill="none" stroke="#000000" points=".5,-432 .5,-454 161.5,-454 161.5,-432 .5,-432"/>
<text text-anchor="start" x="5.5" y="-440" font-family="Times,serif" font-size="10.00" fill="#000000">width: NUMBER</text>
<polygon fill="none" stroke="#000000" points=".5,-410 .5,-432 161.5,-432 161.5,-410 .5,-410"/>
<text text-anchor="start" x="5.5" y="-418" font-family="Times,serif" font-size="10.00" fill="#000000">height: NUMBER</text>
<polygon fill="none" stroke="#000000" points=".5,-388 .5,-410 161.5,-410 161.5,-388 .5,-388"/>
<text text-anchor="start" x="5.5" y="-396" font-family="Times,serif" font-size="10.00" fill="#000000">order: NUMBER</text>
<polygon fill="none" stroke="#000000" points=".5,-366 .5,-388 161.5,-388 161.5,-366 .5,-366"/>
<text text-anchor="start" x="5.5" y="-374" font-family="Times,serif" font-size="10.00" fill="#000000">configurableTypeAsChild: ARRAY</text>
<polygon fill="none" stroke="#000000" points=".5,-344 .5,-366 161.5,-366 161.5,-344 .5,-344"/>
<text text-anchor="start" x="5.5" y="-352" font-family="Times,serif" font-size="10.00" fill="#000000">originalPartId: NUMBER</text>
<polygon fill="none" stroke="#000000" points=".5,-322 .5,-344 161.5,-344 161.5,-322 .5,-322"/>
<text text-anchor="start" x="5.5" y="-330" font-family="Times,serif" font-size="10.00" fill="#000000">isReversible: BOOLEAN</text>
<polygon fill="none" stroke="#000000" points=".5,-300 .5,-322 161.5,-322 161.5,-300 .5,-300"/>
<text text-anchor="start" x="5.5" y="-308" font-family="Times,serif" font-size="10.00" fill="#000000">isFlipped: BOOLEAN</text>
<polygon fill="none" stroke="#000000" points=".5,-278 .5,-300 161.5,-300 161.5,-278 .5,-278"/>
<text text-anchor="start" x="5.5" y="-286" font-family="Times,serif" font-size="10.00" fill="#000000">ownerId: NUMBER</text>
<polygon fill="none" stroke="#000000" points=".5,-256 .5,-278 161.5,-278 161.5,-256 .5,-256"/>
<text text-anchor="start" x="5.0615" y="-264" font-family="Times,serif" font-size="10.00" fill="#000000">canReverseCardOnDeck: BOOLEAN</text>
<polygon fill="none" stroke="#000000" points=".5,-234 .5,-256 161.5,-256 161.5,-234 .5,-234"/>
<text text-anchor="start" x="5.5" y="-242" font-family="Times,serif" font-size="10.00" fill="#000000">createdAt: DATE</text>
<polygon fill="none" stroke="#000000" points=".5,-212 .5,-234 161.5,-234 161.5,-212 .5,-212"/>
<text text-anchor="start" x="5.5" y="-220" font-family="Times,serif" font-size="10.00" fill="#000000">updatedAt: DATE</text>
</g>
<!-- Part&#45;&gt;PrototypeVersion -->
<g id="edge7" class="edge">
<title>Part&#45;&gt;PrototypeVersion</title>
<path fill="none" stroke="#0000ff" d="M173.0726,-443C211.9224,-443 256.3268,-443 292.2681,-443"/>
<polygon fill="#0000ff" stroke="#0000ff" points="161.0234,-438.8 173.0233,-443.0001 161.0233,-447.2 161.0234,-438.8"/>
<polygon fill="#0000ff" stroke="#0000ff" points="292.6051,-443.0001 304.6051,-448.4 298.6051,-443 304.6051,-443 304.6051,-443 304.6051,-443 298.6051,-443 304.605,-437.6 292.6051,-443.0001 292.6051,-443.0001"/>
</g>
<!-- Player -->
<g id="node7" class="node">
<title>Player</title>
<polygon fill="#add8e6" stroke="transparent" points="19.5,-154 19.5,-176 142.5,-176 142.5,-154 19.5,-154"/>
<polygon fill="none" stroke="#000000" points="19.5,-154 19.5,-176 142.5,-176 142.5,-154 19.5,-154"/>
<text text-anchor="start" x="68.2275" y="-163" font-family="Times,serif" font-weight="bold" font-size="10.00" fill="#000000">Player</text>
<polygon fill="none" stroke="#000000" points="19.5,-132 19.5,-154 142.5,-154 142.5,-132 19.5,-132"/>
<text text-anchor="start" x="24.5" y="-141" font-family="Times,serif" text-decoration="underline" font-size="10.00" fill="#000000">id</text>
<text text-anchor="start" x="32.279" y="-141" font-family="Times,serif" font-size="10.00" fill="#000000">: NUMBER</text>
<polygon fill="none" stroke="#000000" points="19.5,-110 19.5,-132 142.5,-132 142.5,-110 19.5,-110"/>
<text text-anchor="start" x="24.5" y="-119" font-family="Times,serif" font-style="italic" text-decoration="underline" font-size="10.00" fill="#000000">prototypeVersionId</text>
<text text-anchor="start" x="102.81" y="-119" font-family="Times,serif" font-size="10.00" fill="#000000">: UUID</text>
<polygon fill="none" stroke="#000000" points="19.5,-88 19.5,-110 142.5,-110 142.5,-88 19.5,-88"/>
<text text-anchor="start" x="24.5" y="-97" font-family="Times,serif" font-style="italic" text-decoration="underline" font-size="10.00" fill="#000000">userId</text>
<text text-anchor="start" x="49.486" y="-97" font-family="Times,serif" font-size="10.00" fill="#000000">: UUID</text>
<polygon fill="none" stroke="#000000" points="19.5,-66 19.5,-88 142.5,-88 142.5,-66 19.5,-66"/>
<text text-anchor="start" x="24.5" y="-74" font-family="Times,serif" font-size="10.00" fill="#000000">playerName: STRING</text>
<polygon fill="none" stroke="#000000" points="19.5,-44 19.5,-66 142.5,-66 142.5,-44 19.5,-44"/>
<text text-anchor="start" x="24.484" y="-52" font-family="Times,serif" font-size="10.00" fill="#000000">originalPlayerId: NUMBER</text>
<polygon fill="none" stroke="#000000" points="19.5,-22 19.5,-44 142.5,-44 142.5,-22 19.5,-22"/>
<text text-anchor="start" x="24.5" y="-30" font-family="Times,serif" font-size="10.00" fill="#000000">createdAt: DATE</text>
<polygon fill="none" stroke="#000000" points="19.5,0 19.5,-22 142.5,-22 142.5,0 19.5,0"/>
<text text-anchor="start" x="24.5" y="-8" font-family="Times,serif" font-size="10.00" fill="#000000">updatedAt: DATE</text>
</g>
<!-- Player&#45;&gt;User -->
<g id="edge9" class="edge">
<title>Player&#45;&gt;User</title>
<path fill="none" stroke="#0000ff" d="M153.5572,-115.9725C268.3016,-161.1376 496.2193,-255.862 676,-362 723.5703,-390.0843 773.7392,-427.5083 810.3506,-456.4491"/>
<polygon fill="#0000ff" stroke="#0000ff" points="143.6754,-107.5859 153.3137,-115.8771 140.6086,-115.4061 143.6754,-107.5859"/>
<polygon fill="#0000ff" stroke="#0000ff" points="810.4394,-456.5197 816.4669,-468.2172 815.1344,-460.2557 819.8293,-463.9917 819.8293,-463.9917 819.8293,-463.9917 815.1344,-460.2557 823.1917,-459.7663 810.4394,-456.5197 810.4394,-456.5197"/>
</g>
<!-- Player&#45;&gt;PrototypeVersion -->
<g id="edge8" class="edge">
<title>Player&#45;&gt;PrototypeVersion</title>
<path fill="none" stroke="#0000ff" d="M149.7012,-175.425C194.8664,-232.4842 253.4059,-306.4398 297.4918,-362.1356"/>
<polygon fill="#0000ff" stroke="#0000ff" points="145.4598,-163.2995 149.6144,-175.3154 138.8735,-168.513 145.4598,-163.2995"/>
<polygon fill="#0000ff" stroke="#0000ff" points="297.5448,-362.2025 300.7585,-374.9632 301.2687,-366.9071 304.9926,-371.6117 304.9926,-371.6117 304.9926,-371.6117 301.2687,-366.9071 309.2267,-368.2601 297.5448,-362.2025 297.5448,-362.2025"/>
</g>
</g>
</svg>
