<?xml version="1.0" encoding="UTF-8" standalone="no"?>
<!DOCTYPE svg PUBLIC "-//W3C//DTD SVG 1.1//EN"
 "http://www.w3.org/Graphics/SVG/1.1/DTD/svg11.dtd">
<!-- Generated by graphviz version 2.40.1 (20161225.0304)
 -->
<!-- Title: models_diagram Pages: 1 -->
<svg width="1431pt" height="680pt"
 viewBox="0.00 0.00 1431.00 680.00" xmlns="http://www.w3.org/2000/svg" xmlns:xlink="http://www.w3.org/1999/xlink">
<g id="graph0" class="graph" transform="scale(1 1) rotate(0) translate(36 644)">
<title>models_diagram</title>
<polygon fill="#ffffff" stroke="transparent" points="-36,36 -36,-644 1395,-644 1395,36 -36,36"/>
<!-- User -->
<g id="node1" class="node">
<title>User</title>
<polygon fill="#add8e6" stroke="transparent" points="1035.5,-331 1035.5,-353 1124.5,-353 1124.5,-331 1035.5,-331"/>
<polygon fill="none" stroke="#000000" points="1035.5,-331 1035.5,-353 1124.5,-353 1124.5,-331 1035.5,-331"/>
<text text-anchor="start" x="1070.562" y="-340" font-family="Times,serif" font-weight="bold" font-size="10.00" fill="#000000">User</text>
<polygon fill="none" stroke="#000000" points="1035.5,-309 1035.5,-331 1124.5,-331 1124.5,-309 1035.5,-309"/>
<text text-anchor="start" x="1040.5" y="-318" font-family="Times,serif" text-decoration="underline" font-size="10.00" fill="#000000">id</text>
<text text-anchor="start" x="1048.279" y="-318" font-family="Times,serif" font-size="10.00" fill="#000000">: UUID</text>
<polygon fill="none" stroke="#000000" points="1035.5,-287 1035.5,-309 1124.5,-309 1124.5,-287 1035.5,-287"/>
<text text-anchor="start" x="1040.5" y="-295" font-family="Times,serif" font-size="10.00" fill="#000000">googleId: STRING</text>
<polygon fill="none" stroke="#000000" points="1035.5,-265 1035.5,-287 1124.5,-287 1124.5,-265 1035.5,-265"/>
<text text-anchor="start" x="1040.1515" y="-273" font-family="Times,serif" font-size="10.00" fill="#000000">username: STRING</text>
<polygon fill="none" stroke="#000000" points="1035.5,-243 1035.5,-265 1124.5,-265 1124.5,-243 1035.5,-243"/>
<text text-anchor="start" x="1040.5" y="-251" font-family="Times,serif" font-size="10.00" fill="#000000">createdAt: DATE</text>
<polygon fill="none" stroke="#000000" points="1035.5,-221 1035.5,-243 1124.5,-243 1124.5,-221 1035.5,-221"/>
<text text-anchor="start" x="1040.5" y="-229" font-family="Times,serif" font-size="10.00" fill="#000000">updatedAt: DATE</text>
</g>
<!-- UserAccess -->
<g id="node8" class="node">
<title>UserAccess</title>
<polygon fill="#add8e6" stroke="transparent" points="1268.5,-358 1268.5,-380 1359.5,-380 1359.5,-358 1268.5,-358"/>
<polygon fill="none" stroke="#000000" points="1268.5,-358 1268.5,-380 1359.5,-380 1359.5,-358 1268.5,-358"/>
<text text-anchor="start" x="1290.405" y="-367" font-family="Times,serif" font-weight="bold" font-size="10.00" fill="#000000">UserAccess</text>
<polygon fill="none" stroke="#000000" points="1268.5,-336 1268.5,-358 1359.5,-358 1359.5,-336 1268.5,-336"/>
<text text-anchor="start" x="1273.5" y="-345" font-family="Times,serif" text-decoration="underline" font-size="10.00" fill="#000000">userId</text>
<text text-anchor="start" x="1298.486" y="-345" font-family="Times,serif" font-size="10.00" fill="#000000">: UUID</text>
<polygon fill="none" stroke="#000000" points="1268.5,-314 1268.5,-336 1359.5,-336 1359.5,-314 1268.5,-314"/>
<text text-anchor="start" x="1273.042" y="-323" font-family="Times,serif" text-decoration="underline" font-size="10.00" fill="#000000">accessId</text>
<text text-anchor="start" x="1306.905" y="-323" font-family="Times,serif" font-size="10.00" fill="#000000">: NUMBER</text>
</g>
<!-- User&#45;&gt;UserAccess -->
<g id="edge1" class="edge">
<title>User&#45;&gt;UserAccess</title>
<path fill="none" stroke="#0000ff" d="M1135.8915,-301.4593C1172.2369,-310.7787 1219.3619,-322.862 1255.936,-332.24"/>
<polygon fill="#0000ff" stroke="#0000ff" points="1135.6884,-301.4073 1125.4057,-293.196 1129.8764,-299.9171 1124.0644,-298.4268 1124.0644,-298.4268 1124.0644,-298.4268 1129.8764,-299.9171 1122.7231,-303.6576 1135.6884,-301.4073 1135.6884,-301.4073"/>
<polygon fill="#0000ff" stroke="#0000ff" points="1256.2802,-332.3282 1266.5629,-340.5395 1262.0921,-333.8185 1267.9041,-335.3087 1267.9041,-335.3087 1267.9041,-335.3087 1262.0921,-333.8185 1269.2454,-330.078 1256.2802,-332.3282 1256.2802,-332.3282"/>
</g>
<!-- PrototypeGroup -->
<g id="node2" class="node">
<title>PrototypeGroup</title>
<polygon fill="#add8e6" stroke="transparent" points="808.5,-320 808.5,-342 891.5,-342 891.5,-320 808.5,-320"/>
<polygon fill="none" stroke="#000000" points="808.5,-320 808.5,-342 891.5,-342 891.5,-320 808.5,-320"/>
<text text-anchor="start" x="817.7835" y="-329" font-family="Times,serif" font-weight="bold" font-size="10.00" fill="#000000">PrototypeGroup</text>
<polygon fill="none" stroke="#000000" points="808.5,-298 808.5,-320 891.5,-320 891.5,-298 808.5,-298"/>
<text text-anchor="start" x="813.5" y="-307" font-family="Times,serif" text-decoration="underline" font-size="10.00" fill="#000000">id</text>
<text text-anchor="start" x="821.279" y="-307" font-family="Times,serif" font-size="10.00" fill="#000000">: UUID</text>
<polygon fill="none" stroke="#000000" points="808.5,-276 808.5,-298 891.5,-298 891.5,-276 808.5,-276"/>
<text text-anchor="start" x="813.5" y="-285" font-family="Times,serif" font-style="italic" text-decoration="underline" font-size="10.00" fill="#000000">userId</text>
<text text-anchor="start" x="838.486" y="-285" font-family="Times,serif" font-size="10.00" fill="#000000">: UUID</text>
<polygon fill="none" stroke="#000000" points="808.5,-254 808.5,-276 891.5,-276 891.5,-254 808.5,-254"/>
<text text-anchor="start" x="813.5" y="-262" font-family="Times,serif" font-size="10.00" fill="#000000">createdAt: DATE</text>
<polygon fill="none" stroke="#000000" points="808.5,-232 808.5,-254 891.5,-254 891.5,-232 808.5,-232"/>
<text text-anchor="start" x="813.205" y="-240" font-family="Times,serif" font-size="10.00" fill="#000000">updatedAt: DATE</text>
</g>
<!-- PrototypeGroup&#45;&gt;User -->
<g id="edge3" class="edge">
<title>PrototypeGroup&#45;&gt;User</title>
<path fill="none" stroke="#0000ff" d="M903.3218,-287C939.0254,-287 985.8274,-287 1022.2189,-287"/>
<polygon fill="#0000ff" stroke="#0000ff" points="891.1513,-282.8 903.1513,-287.0001 891.1512,-291.2 891.1513,-282.8"/>
<polygon fill="#0000ff" stroke="#0000ff" points="1022.6216,-287.0001 1034.6216,-292.4 1028.6216,-287 1034.6216,-287 1034.6216,-287 1034.6216,-287 1028.6216,-287 1034.6215,-281.6 1022.6216,-287.0001 1022.6216,-287.0001"/>
</g>
<!-- Access -->
<g id="node3" class="node">
<title>Access</title>
<polygon fill="#add8e6" stroke="transparent" points="548,-482 548,-504 660,-504 660,-482 548,-482"/>
<polygon fill="none" stroke="#000000" points="548,-482 548,-504 660,-504 660,-482 548,-482"/>
<text text-anchor="start" x="589.843" y="-491" font-family="Times,serif" font-weight="bold" font-size="10.00" fill="#000000">Access</text>
<polygon fill="none" stroke="#000000" points="548,-460 548,-482 660,-482 660,-460 548,-460"/>
<text text-anchor="start" x="553" y="-469" font-family="Times,serif" text-decoration="underline" font-size="10.00" fill="#000000">id</text>
<text text-anchor="start" x="560.779" y="-469" font-family="Times,serif" font-size="10.00" fill="#000000">: NUMBER</text>
<polygon fill="none" stroke="#000000" points="548,-438 548,-460 660,-460 660,-438 548,-438"/>
<text text-anchor="start" x="552.766" y="-447" font-family="Times,serif" font-style="italic" text-decoration="underline" font-size="10.00" fill="#000000">prototypeGroupId</text>
<text text-anchor="start" x="624.969" y="-447" font-family="Times,serif" font-size="10.00" fill="#000000">: UUID</text>
<polygon fill="none" stroke="#000000" points="548,-416 548,-438 660,-438 660,-416 548,-416"/>
<text text-anchor="start" x="553" y="-424" font-family="Times,serif" font-size="10.00" fill="#000000">name: STRING</text>
</g>
<!-- Access&#45;&gt;PrototypeGroup -->
<g id="edge4" class="edge">
<title>Access&#45;&gt;PrototypeGroup</title>
<path fill="none" stroke="#0000ff" d="M670.0261,-413.4724C710.1244,-385.2158 760.5749,-349.6641 797.7669,-323.4555"/>
<polygon fill="#0000ff" stroke="#0000ff" points="657.5956,-417.0939 669.8241,-413.6148 662.4343,-423.9604 657.5956,-417.0939"/>
<polygon fill="#0000ff" stroke="#0000ff" points="798.0766,-323.2373 810.9963,-320.739 802.9812,-319.7811 807.8858,-316.3249 807.8858,-316.3249 807.8858,-316.3249 802.9812,-319.7811 804.7752,-311.9108 798.0766,-323.2373 798.0766,-323.2373"/>
</g>
<!-- Access&#45;&gt;UserAccess -->
<g id="edge2" class="edge">
<title>Access&#45;&gt;UserAccess</title>
<path fill="none" stroke="#0000ff" d="M672.3452,-449.1149C811.5446,-426.945 1125.7203,-376.9071 1255.6136,-356.2194"/>
<polygon fill="#0000ff" stroke="#0000ff" points="672.117,-449.1511 659.4169,-445.7058 666.1916,-450.0949 660.2663,-451.0386 660.2663,-451.0386 660.2663,-451.0386 666.1916,-450.0949 661.1157,-456.3714 672.117,-449.1511 672.117,-449.1511"/>
<polygon fill="#0000ff" stroke="#0000ff" points="1255.7459,-356.1984 1268.446,-359.6437 1261.6713,-355.2547 1267.5966,-354.3109 1267.5966,-354.3109 1267.5966,-354.3109 1261.6713,-355.2547 1266.7472,-348.9781 1255.7459,-356.1984 1255.7459,-356.1984"/>
</g>
<!-- Image -->
<g id="node4" class="node">
<title>Image</title>
<polygon fill="#add8e6" stroke="transparent" points="267.5,-586 267.5,-608 371.5,-608 371.5,-586 267.5,-586"/>
<polygon fill="none" stroke="#000000" points="267.5,-586 267.5,-608 371.5,-608 371.5,-586 267.5,-586"/>
<text text-anchor="start" x="307.007" y="-595" font-family="Times,serif" font-weight="bold" font-size="10.00" fill="#000000">Image</text>
<polygon fill="none" stroke="#000000" points="267.5,-564 267.5,-586 371.5,-586 371.5,-564 267.5,-564"/>
<text text-anchor="start" x="272.5" y="-573" font-family="Times,serif" text-decoration="underline" font-size="10.00" fill="#000000">id</text>
<text text-anchor="start" x="280.279" y="-573" font-family="Times,serif" font-size="10.00" fill="#000000">: UUID</text>
<polygon fill="none" stroke="#000000" points="267.5,-542 267.5,-564 371.5,-564 371.5,-542 267.5,-542"/>
<text text-anchor="start" x="272.4275" y="-550" font-family="Times,serif" font-size="10.00" fill="#000000">displayName: STRING</text>
<polygon fill="none" stroke="#000000" points="267.5,-520 267.5,-542 371.5,-542 371.5,-520 267.5,-520"/>
<text text-anchor="start" x="272.5" y="-528" font-family="Times,serif" font-size="10.00" fill="#000000">storagePath: STRING</text>
<polygon fill="none" stroke="#000000" points="267.5,-498 267.5,-520 371.5,-520 371.5,-498 267.5,-498"/>
<text text-anchor="start" x="272.5" y="-506" font-family="Times,serif" font-size="10.00" fill="#000000">contentType: STRING</text>
<polygon fill="none" stroke="#000000" points="267.5,-476 267.5,-498 371.5,-498 371.5,-476 267.5,-476"/>
<text text-anchor="start" x="272.5" y="-484" font-family="Times,serif" font-size="10.00" fill="#000000">fileSize: NUMBER</text>
<polygon fill="none" stroke="#000000" points="267.5,-454 267.5,-476 371.5,-476 371.5,-454 267.5,-454"/>
<text text-anchor="start" x="272.5" y="-463" font-family="Times,serif" font-style="italic" text-decoration="underline" font-size="10.00" fill="#000000">uploaderUserId</text>
<text text-anchor="start" x="334.691" y="-463" font-family="Times,serif" font-size="10.00" fill="#000000">: UUID</text>
<polygon fill="none" stroke="#000000" points="267.5,-432 267.5,-454 371.5,-454 371.5,-432 267.5,-432"/>
<text text-anchor="start" x="272.5" y="-440" font-family="Times,serif" font-size="10.00" fill="#000000">createdAt: DATE</text>
<polygon fill="none" stroke="#000000" points="267.5,-410 267.5,-432 371.5,-432 371.5,-410 267.5,-410"/>
<text text-anchor="start" x="272.5" y="-418" font-family="Times,serif" font-size="10.00" fill="#000000">updatedAt: DATE</text>
</g>
<!-- Prototype -->
<g id="node5" class="node">
<title>Prototype</title>
<polygon fill="#add8e6" stroke="transparent" points="544,-358 544,-380 664,-380 664,-358 544,-358"/>
<polygon fill="none" stroke="#000000" points="544,-358 544,-380 664,-380 664,-358 544,-358"/>
<text text-anchor="start" x="584.5575" y="-367" font-family="Times,serif" font-weight="bold" font-size="10.00" fill="#000000">Prototype</text>
<polygon fill="none" stroke="#000000" points="544,-336 544,-358 664,-358 664,-336 544,-336"/>
<text text-anchor="start" x="549" y="-345" font-family="Times,serif" text-decoration="underline" font-size="10.00" fill="#000000">id</text>
<text text-anchor="start" x="556.779" y="-345" font-family="Times,serif" font-size="10.00" fill="#000000">: UUID</text>
<polygon fill="none" stroke="#000000" points="544,-314 544,-336 664,-336 664,-314 544,-314"/>
<text text-anchor="start" x="549" y="-323" font-family="Times,serif" font-style="italic" text-decoration="underline" font-size="10.00" fill="#000000">prototypeGroupId</text>
<text text-anchor="start" x="621.203" y="-323" font-family="Times,serif" font-size="10.00" fill="#000000">: UUID</text>
<polygon fill="none" stroke="#000000" points="544,-292 544,-314 664,-314 664,-292 544,-292"/>
<text text-anchor="start" x="549" y="-300" font-family="Times,serif" font-size="10.00" fill="#000000">name: STRING</text>
<polygon fill="none" stroke="#000000" points="544,-270 544,-292 664,-292 664,-270 544,-270"/>
<text text-anchor="start" x="549" y="-278" font-family="Times,serif" font-size="10.00" fill="#000000">type: ENUM</text>
<polygon fill="none" stroke="#000000" points="544,-248 544,-270 664,-270 664,-248 544,-248"/>
<text text-anchor="start" x="549" y="-256" font-family="Times,serif" font-size="10.00" fill="#000000">minPlayers: NUMBER</text>
<polygon fill="none" stroke="#000000" points="544,-226 544,-248 664,-248 664,-226 544,-226"/>
<text text-anchor="start" x="549" y="-234" font-family="Times,serif" font-size="10.00" fill="#000000">maxPlayers: NUMBER</text>
<polygon fill="none" stroke="#000000" points="544,-204 544,-226 664,-226 664,-204 544,-204"/>
<text text-anchor="start" x="548.8725" y="-212" font-family="Times,serif" font-size="10.00" fill="#000000">versionNumber: NUMBER</text>
<polygon fill="none" stroke="#000000" points="544,-182 544,-204 664,-204 664,-182 544,-182"/>
<text text-anchor="start" x="549" y="-190" font-family="Times,serif" font-size="10.00" fill="#000000">createdAt: DATE</text>
<polygon fill="none" stroke="#000000" points="544,-160 544,-182 664,-182 664,-160 544,-160"/>
<text text-anchor="start" x="549" y="-168" font-family="Times,serif" font-size="10.00" fill="#000000">updatedAt: DATE</text>
</g>
<!-- Prototype&#45;&gt;PrototypeGroup -->
<g id="edge5" class="edge">
<title>Prototype&#45;&gt;PrototypeGroup</title>
<path fill="none" stroke="#0000ff" d="M676.1342,-274.995C714.2747,-277.6361 760.3193,-280.8246 795.3677,-283.2515"/>
<polygon fill="#0000ff" stroke="#0000ff" points="664.3462,-269.9687 676.0274,-274.9877 663.7659,-278.3486 664.3462,-269.9687"/>
<polygon fill="#0000ff" stroke="#0000ff" points="795.7765,-283.2797 807.3747,-289.4959 801.7622,-283.6943 807.7478,-284.1088 807.7478,-284.1088 807.7478,-284.1088 801.7622,-283.6943 808.1209,-278.7217 795.7765,-283.2797 795.7765,-283.2797"/>
</g>
<!-- Part -->
<g id="node6" class="node">
<title>Part</title>
<polygon fill="#add8e6" stroke="transparent" points="239.5,-352 239.5,-374 400.5,-374 400.5,-352 239.5,-352"/>
<polygon fill="none" stroke="#000000" points="239.5,-352 239.5,-374 400.5,-374 400.5,-352 239.5,-352"/>
<text text-anchor="start" x="311.947" y="-361" font-family="Times,serif" font-weight="bold" font-size="10.00" fill="#000000">Part</text>
<polygon fill="none" stroke="#000000" points="239.5,-330 239.5,-352 400.5,-352 400.5,-330 239.5,-330"/>
<text text-anchor="start" x="244.5" y="-339" font-family="Times,serif" text-decoration="underline" font-size="10.00" fill="#000000">id</text>
<text text-anchor="start" x="252.279" y="-339" font-family="Times,serif" font-size="10.00" fill="#000000">: NUMBER</text>
<polygon fill="none" stroke="#000000" points="239.5,-308 239.5,-330 400.5,-330 400.5,-308 239.5,-308"/>
<text text-anchor="start" x="244.5" y="-316" font-family="Times,serif" font-size="10.00" fill="#000000">type: ENUM</text>
<polygon fill="none" stroke="#000000" points="239.5,-286 239.5,-308 400.5,-308 400.5,-286 239.5,-286"/>
<text text-anchor="start" x="244.5" y="-295" font-family="Times,serif" font-style="italic" text-decoration="underline" font-size="10.00" fill="#000000">prototypeId</text>
<text text-anchor="start" x="291.155" y="-295" font-family="Times,serif" font-size="10.00" fill="#000000">: UUID</text>
<polygon fill="none" stroke="#000000" points="239.5,-264 239.5,-286 400.5,-286 400.5,-264 239.5,-264"/>
<text text-anchor="start" x="244.5" y="-272" font-family="Times,serif" font-size="10.00" fill="#000000">parentId: NUMBER</text>
<polygon fill="none" stroke="#000000" points="239.5,-242 239.5,-264 400.5,-264 400.5,-242 239.5,-242"/>
<text text-anchor="start" x="244.5" y="-250" font-family="Times,serif" font-size="10.00" fill="#000000">position: JSON</text>
<polygon fill="none" stroke="#000000" points="239.5,-220 239.5,-242 400.5,-242 400.5,-220 239.5,-220"/>
<text text-anchor="start" x="244.5" y="-228" font-family="Times,serif" font-size="10.00" fill="#000000">width: NUMBER</text>
<polygon fill="none" stroke="#000000" points="239.5,-198 239.5,-220 400.5,-220 400.5,-198 239.5,-198"/>
<text text-anchor="start" x="244.5" y="-206" font-family="Times,serif" font-size="10.00" fill="#000000">height: NUMBER</text>
<polygon fill="none" stroke="#000000" points="239.5,-176 239.5,-198 400.5,-198 400.5,-176 239.5,-176"/>
<text text-anchor="start" x="244.5" y="-184" font-family="Times,serif" font-size="10.00" fill="#000000">order: NUMBER</text>
<polygon fill="none" stroke="#000000" points="239.5,-154 239.5,-176 400.5,-176 400.5,-154 239.5,-154"/>
<text text-anchor="start" x="244.5" y="-162" font-family="Times,serif" font-size="10.00" fill="#000000">configurableTypeAsChild: ARRAY</text>
<polygon fill="none" stroke="#000000" points="239.5,-132 239.5,-154 400.5,-154 400.5,-132 239.5,-132"/>
<text text-anchor="start" x="244.5" y="-140" font-family="Times,serif" font-size="10.00" fill="#000000">originalPartId: NUMBER</text>
<polygon fill="none" stroke="#000000" points="239.5,-110 239.5,-132 400.5,-132 400.5,-110 239.5,-110"/>
<text text-anchor="start" x="244.5" y="-118" font-family="Times,serif" font-size="10.00" fill="#000000">isReversible: BOOLEAN</text>
<polygon fill="none" stroke="#000000" points="239.5,-88 239.5,-110 400.5,-110 400.5,-88 239.5,-88"/>
<text text-anchor="start" x="244.5" y="-96" font-family="Times,serif" font-size="10.00" fill="#000000">isFlipped: BOOLEAN</text>
<polygon fill="none" stroke="#000000" points="239.5,-66 239.5,-88 400.5,-88 400.5,-66 239.5,-66"/>
<text text-anchor="start" x="244.5" y="-75" font-family="Times,serif" font-style="italic" text-decoration="underline" font-size="10.00" fill="#000000">ownerId</text>
<text text-anchor="start" x="277.816" y="-75" font-family="Times,serif" font-size="10.00" fill="#000000">: UUID</text>
<polygon fill="none" stroke="#000000" points="239.5,-44 239.5,-66 400.5,-66 400.5,-44 239.5,-44"/>
<text text-anchor="start" x="244.0615" y="-52" font-family="Times,serif" font-size="10.00" fill="#000000">canReverseCardOnDeck: BOOLEAN</text>
<polygon fill="none" stroke="#000000" points="239.5,-22 239.5,-44 400.5,-44 400.5,-22 239.5,-22"/>
<text text-anchor="start" x="244.5" y="-30" font-family="Times,serif" font-size="10.00" fill="#000000">createdAt: DATE</text>
<polygon fill="none" stroke="#000000" points="239.5,0 239.5,-22 400.5,-22 400.5,0 239.5,0"/>
<text text-anchor="start" x="244.5" y="-8" font-family="Times,serif" font-size="10.00" fill="#000000">updatedAt: DATE</text>
</g>
<!-- Part&#45;&gt;User -->
<g id="edge7" class="edge">
<title>Part&#45;&gt;User</title>
<path fill="none" stroke="#0000ff" d="M412.1867,-164.1357C452.4227,-155.3267 500.2607,-146.3405 544,-142 700.7373,-126.4461 742.421,-161.724 891,-214 936.0018,-229.8334 986.362,-249.4352 1023.7008,-264.3387"/>
<polygon fill="#0000ff" stroke="#0000ff" points="399.3188,-162.6967 411.9447,-164.1895 401.1436,-170.8961 399.3188,-162.6967"/>
<polygon fill="#0000ff" stroke="#0000ff" points="1023.7105,-264.3425 1032.8428,-273.8167 1029.2804,-266.5731 1034.8504,-268.8038 1034.8504,-268.8038 1034.8504,-268.8038 1029.2804,-266.5731 1036.8579,-263.7908 1023.7105,-264.3425 1023.7105,-264.3425"/>
</g>
<!-- Part&#45;&gt;Prototype -->
<g id="edge6" class="edge">
<title>Part&#45;&gt;Prototype</title>
<path fill="none" stroke="#0000ff" d="M411.9787,-213.9797C451.0361,-225.3743 495.8216,-238.4401 532.3115,-249.0856"/>
<polygon fill="#0000ff" stroke="#0000ff" points="401.4416,-206.5305 411.7851,-213.9233 399.089,-214.5944 401.4416,-206.5305"/>
<polygon fill="#0000ff" stroke="#0000ff" points="532.3299,-249.0909 542.3372,-257.6356 538.0897,-250.7713 543.8496,-252.4517 543.8496,-252.4517 543.8496,-252.4517 538.0897,-250.7713 545.362,-247.2678 532.3299,-249.0909 532.3299,-249.0909"/>
</g>
<!-- PartProperty -->
<g id="node7" class="node">
<title>PartProperty</title>
<polygon fill="#add8e6" stroke="transparent" points=".5,-436 .5,-458 95.5,-458 95.5,-436 .5,-436"/>
<polygon fill="none" stroke="#000000" points=".5,-436 .5,-458 95.5,-458 95.5,-436 .5,-436"/>
<text text-anchor="start" x="22.7295" y="-445" font-family="Times,serif" font-weight="bold" font-size="10.00" fill="#000000">PartProperty</text>
<polygon fill="none" stroke="#000000" points=".5,-414 .5,-436 95.5,-436 95.5,-414 .5,-414"/>
<text text-anchor="start" x="5.5" y="-423" font-family="Times,serif" text-decoration="underline" font-size="10.00" fill="#000000">partId</text>
<text text-anchor="start" x="29.376" y="-423" font-family="Times,serif" font-size="10.00" fill="#000000">: NUMBER</text>
<polygon fill="none" stroke="#000000" points=".5,-392 .5,-414 95.5,-414 95.5,-392 .5,-392"/>
<text text-anchor="start" x="5.5" y="-401" font-family="Times,serif" text-decoration="underline" font-size="10.00" fill="#000000">side</text>
<text text-anchor="start" x="21.607" y="-401" font-family="Times,serif" font-size="10.00" fill="#000000">: ENUM</text>
<polygon fill="none" stroke="#000000" points=".5,-370 .5,-392 95.5,-392 95.5,-370 .5,-370"/>
<text text-anchor="start" x="5.5" y="-378" font-family="Times,serif" font-size="10.00" fill="#000000">name: STRING</text>
<polygon fill="none" stroke="#000000" points=".5,-348 .5,-370 95.5,-370 95.5,-348 .5,-348"/>
<text text-anchor="start" x="5.092" y="-356" font-family="Times,serif" font-size="10.00" fill="#000000">description: STRING</text>
<polygon fill="none" stroke="#000000" points=".5,-326 .5,-348 95.5,-348 95.5,-326 .5,-326"/>
<text text-anchor="start" x="5.5" y="-334" font-family="Times,serif" font-size="10.00" fill="#000000">color: STRING</text>
<polygon fill="none" stroke="#000000" points=".5,-304 .5,-326 95.5,-326 95.5,-304 .5,-304"/>
<text text-anchor="start" x="5.5" y="-312" font-family="Times,serif" font-size="10.00" fill="#000000">textColor: STRING</text>
<polygon fill="none" stroke="#000000" points=".5,-282 .5,-304 95.5,-304 95.5,-282 .5,-282"/>
<text text-anchor="start" x="5.5" y="-291" font-family="Times,serif" font-style="italic" text-decoration="underline" font-size="10.00" fill="#000000">imageId</text>
<text text-anchor="start" x="38.265" y="-291" font-family="Times,serif" font-size="10.00" fill="#000000">: UUID</text>
<polygon fill="none" stroke="#000000" points=".5,-260 .5,-282 95.5,-282 95.5,-260 .5,-260"/>
<text text-anchor="start" x="5.5" y="-268" font-family="Times,serif" font-size="10.00" fill="#000000">createdAt: DATE</text>
<polygon fill="none" stroke="#000000" points=".5,-238 .5,-260 95.5,-260 95.5,-238 .5,-238"/>
<text text-anchor="start" x="5.5" y="-246" font-family="Times,serif" font-size="10.00" fill="#000000">updatedAt: DATE</text>
</g>
<!-- PartProperty&#45;&gt;Image -->
<g id="edge9" class="edge">
<title>PartProperty&#45;&gt;Image</title>
<path fill="none" stroke="#0000ff" d="M105.7141,-382.4576C150.1801,-408.7776 211.3596,-444.9904 256.8817,-471.9355"/>
<polygon fill="#0000ff" stroke="#0000ff" points="97.3294,-372.614 105.5166,-382.3408 93.0507,-379.8426 97.3294,-372.614"/>
<polygon fill="#0000ff" stroke="#0000ff" points="256.8926,-471.9419 264.4686,-482.7013 262.0559,-474.9981 267.2192,-478.0544 267.2192,-478.0544 267.2192,-478.0544 262.0559,-474.9981 269.9698,-473.4074 256.8926,-471.9419 256.8926,-471.9419"/>
</g>
<!-- PartProperty&#45;&gt;Part -->
<g id="edge8" class="edge">
<title>PartProperty&#45;&gt;Part</title>
<path fill="none" stroke="#0000ff" d="M105.7753,-313.5062C141.4558,-292.3865 187.8807,-264.907 228.3426,-240.9572"/>
<polygon fill="#0000ff" stroke="#0000ff" points="93.0507,-316.1574 105.5166,-313.6592 97.3294,-323.386 93.0507,-316.1574"/>
<polygon fill="#0000ff" stroke="#0000ff" points="228.4359,-240.902 241.5131,-239.4365 233.5992,-237.8457 238.7625,-234.7895 238.7625,-234.7895 238.7625,-234.7895 233.5992,-237.8457 236.0119,-230.1425 228.4359,-240.902 228.4359,-240.902"/>
</g>
</g>
</svg>
