<?xml version="1.0" encoding="UTF-8" standalone="no"?>
<!DOCTYPE svg PUBLIC "-//W3C//DTD SVG 1.1//EN"
 "http://www.w3.org/Graphics/SVG/1.1/DTD/svg11.dtd">
<!-- Generated by graphviz version 2.40.1 (20161225.0304)
 -->
<!-- Title: models_diagram Pages: 1 -->
<svg width="1456pt" height="706pt"
 viewBox="0.00 0.00 1456.00 706.00" xmlns="http://www.w3.org/2000/svg" xmlns:xlink="http://www.w3.org/1999/xlink">
<g id="graph0" class="graph" transform="scale(1 1) rotate(0) translate(36 670)">
<title>models_diagram</title>
<polygon fill="#ffffff" stroke="transparent" points="-36,36 -36,-670 1420,-670 1420,36 -36,36"/>
<!-- Role -->
<g id="node1" class="node">
<title>Role</title>
<polygon fill="#add8e6" stroke="transparent" points="1035.5,-400 1035.5,-422 1130.5,-422 1130.5,-400 1035.5,-400"/>
<polygon fill="none" stroke="#000000" points="1035.5,-400 1035.5,-422 1130.5,-422 1130.5,-400 1035.5,-400"/>
<text text-anchor="start" x="1073.5565" y="-409" font-family="Times,serif" font-weight="bold" font-size="10.00" fill="#000000">Role</text>
<polygon fill="none" stroke="#000000" points="1035.5,-378 1035.5,-400 1130.5,-400 1130.5,-378 1035.5,-378"/>
<text text-anchor="start" x="1040.5" y="-387" font-family="Times,serif" text-decoration="underline" font-size="10.00" fill="#000000">id</text>
<text text-anchor="start" x="1048.279" y="-387" font-family="Times,serif" font-size="10.00" fill="#000000">: NUMBER</text>
<polygon fill="none" stroke="#000000" points="1035.5,-356 1035.5,-378 1130.5,-378 1130.5,-356 1035.5,-356"/>
<text text-anchor="start" x="1040.5" y="-364" font-family="Times,serif" font-size="10.00" fill="#000000">name: STRING</text>
<polygon fill="none" stroke="#000000" points="1035.5,-334 1035.5,-356 1130.5,-356 1130.5,-334 1035.5,-334"/>
<text text-anchor="start" x="1040.092" y="-342" font-family="Times,serif" font-size="10.00" fill="#000000">description: STRING</text>
<polygon fill="none" stroke="#000000" points="1035.5,-312 1035.5,-334 1130.5,-334 1130.5,-312 1035.5,-312"/>
<text text-anchor="start" x="1040.5" y="-320" font-family="Times,serif" font-size="10.00" fill="#000000">createdAt: DATE</text>
<polygon fill="none" stroke="#000000" points="1035.5,-290 1035.5,-312 1130.5,-312 1130.5,-290 1035.5,-290"/>
<text text-anchor="start" x="1040.5" y="-298" font-family="Times,serif" font-size="10.00" fill="#000000">updatedAt: DATE</text>
</g>
<!-- RolePermission -->
<g id="node3" class="node">
<title>RolePermission</title>
<polygon fill="#add8e6" stroke="transparent" points="1274,-445 1274,-467 1384,-467 1384,-445 1274,-445"/>
<polygon fill="none" stroke="#000000" points="1274,-445 1274,-467 1384,-467 1384,-445 1274,-445"/>
<text text-anchor="start" x="1297.3355" y="-454" font-family="Times,serif" font-weight="bold" font-size="10.00" fill="#000000">RolePermission</text>
<polygon fill="none" stroke="#000000" points="1274,-423 1274,-445 1384,-445 1384,-423 1274,-423"/>
<text text-anchor="start" x="1279" y="-432" font-family="Times,serif" text-decoration="underline" font-size="10.00" fill="#000000">roleId</text>
<text text-anchor="start" x="1302.876" y="-432" font-family="Times,serif" font-size="10.00" fill="#000000">: NUMBER</text>
<polygon fill="none" stroke="#000000" points="1274,-401 1274,-423 1384,-423 1384,-401 1274,-401"/>
<text text-anchor="start" x="1278.8675" y="-410" font-family="Times,serif" text-decoration="underline" font-size="10.00" fill="#000000">permissionId</text>
<text text-anchor="start" x="1331.0795" y="-410" font-family="Times,serif" font-size="10.00" fill="#000000">: NUMBER</text>
</g>
<!-- Role&#45;&gt;RolePermission -->
<g id="edge1" class="edge">
<title>Role&#45;&gt;RolePermission</title>
<path fill="none" stroke="#0000ff" d="M1141.5336,-374.68C1177.7947,-386.1541 1224.346,-400.8843 1261.9883,-412.7955"/>
<polygon fill="#0000ff" stroke="#0000ff" points="1141.4686,-374.6595 1131.6568,-365.8908 1135.7481,-372.8493 1130.0277,-371.0392 1130.0277,-371.0392 1130.0277,-371.0392 1135.7481,-372.8493 1128.3985,-376.1876 1141.4686,-374.6595 1141.4686,-374.6595"/>
<polygon fill="#0000ff" stroke="#0000ff" points="1262.4315,-412.9357 1272.2433,-421.7044 1268.152,-414.7458 1273.8724,-416.556 1273.8724,-416.556 1273.8724,-416.556 1268.152,-414.7458 1275.5015,-411.4076 1262.4315,-412.9357 1262.4315,-412.9357"/>
</g>
<!-- UserRole -->
<g id="node5" class="node">
<title>UserRole</title>
<polygon fill="#add8e6" stroke="transparent" points="1277,-332 1277,-354 1382,-354 1382,-332 1277,-332"/>
<polygon fill="none" stroke="#000000" points="1277,-332 1277,-354 1382,-354 1382,-332 1277,-332"/>
<text text-anchor="start" x="1310.6185" y="-341" font-family="Times,serif" font-weight="bold" font-size="10.00" fill="#000000">UserRole</text>
<polygon fill="none" stroke="#000000" points="1277,-310 1277,-332 1382,-332 1382,-310 1277,-310"/>
<text text-anchor="start" x="1282" y="-319" font-family="Times,serif" text-decoration="underline" font-size="10.00" fill="#000000">userId</text>
<text text-anchor="start" x="1306.986" y="-319" font-family="Times,serif" font-size="10.00" fill="#000000">: UUID</text>
<polygon fill="none" stroke="#000000" points="1277,-288 1277,-310 1382,-310 1382,-288 1277,-288"/>
<text text-anchor="start" x="1282" y="-297" font-family="Times,serif" text-decoration="underline" font-size="10.00" fill="#000000">roleId</text>
<text text-anchor="start" x="1305.876" y="-297" font-family="Times,serif" font-size="10.00" fill="#000000">: NUMBER</text>
<polygon fill="none" stroke="#000000" points="1277,-266 1277,-288 1382,-288 1382,-266 1277,-266"/>
<text text-anchor="start" x="1281.6025" y="-274" font-family="Times,serif" font-size="10.00" fill="#000000">resourceType: STRING</text>
<polygon fill="none" stroke="#000000" points="1277,-244 1277,-266 1382,-266 1382,-244 1277,-244"/>
<text text-anchor="start" x="1282" y="-252" font-family="Times,serif" font-size="10.00" fill="#000000">resourceId: STRING</text>
<polygon fill="none" stroke="#000000" points="1277,-222 1277,-244 1382,-244 1382,-222 1277,-222"/>
<text text-anchor="start" x="1282" y="-230" font-family="Times,serif" font-size="10.00" fill="#000000">createdAt: DATE</text>
<polygon fill="none" stroke="#000000" points="1277,-200 1277,-222 1382,-222 1382,-200 1277,-200"/>
<text text-anchor="start" x="1282" y="-208" font-family="Times,serif" font-size="10.00" fill="#000000">updatedAt: DATE</text>
</g>
<!-- Role&#45;&gt;UserRole -->
<g id="edge2" class="edge">
<title>Role&#45;&gt;UserRole</title>
<path fill="none" stroke="#0000ff" d="M1141.5124,-337.0873C1178.7495,-325.1533 1226.8441,-309.7396 1264.9985,-297.5116"/>
<polygon fill="#0000ff" stroke="#0000ff" points="1141.4552,-337.1056 1128.3796,-335.6256 1135.7414,-338.9368 1130.0277,-340.768 1130.0277,-340.768 1130.0277,-340.768 1135.7414,-338.9368 1131.6758,-345.9104 1141.4552,-337.1056 1141.4552,-337.1056"/>
<polygon fill="#0000ff" stroke="#0000ff" points="1277.7793,-297.826 1265.0699,-297.4888 1275.2156,-289.8268 1277.7793,-297.826"/>
</g>
<!-- Permission -->
<g id="node2" class="node">
<title>Permission</title>
<polygon fill="#add8e6" stroke="transparent" points="1035.5,-612 1035.5,-634 1130.5,-634 1130.5,-612 1035.5,-612"/>
<polygon fill="none" stroke="#000000" points="1035.5,-612 1035.5,-634 1130.5,-634 1130.5,-612 1035.5,-612"/>
<text text-anchor="start" x="1060.779" y="-621" font-family="Times,serif" font-weight="bold" font-size="10.00" fill="#000000">Permission</text>
<polygon fill="none" stroke="#000000" points="1035.5,-590 1035.5,-612 1130.5,-612 1130.5,-590 1035.5,-590"/>
<text text-anchor="start" x="1040.5" y="-599" font-family="Times,serif" text-decoration="underline" font-size="10.00" fill="#000000">id</text>
<text text-anchor="start" x="1048.279" y="-599" font-family="Times,serif" font-size="10.00" fill="#000000">: NUMBER</text>
<polygon fill="none" stroke="#000000" points="1035.5,-568 1035.5,-590 1130.5,-590 1130.5,-568 1035.5,-568"/>
<text text-anchor="start" x="1040.5" y="-576" font-family="Times,serif" font-size="10.00" fill="#000000">name: STRING</text>
<polygon fill="none" stroke="#000000" points="1035.5,-546 1035.5,-568 1130.5,-568 1130.5,-546 1035.5,-546"/>
<text text-anchor="start" x="1040.5" y="-554" font-family="Times,serif" font-size="10.00" fill="#000000">resource: STRING</text>
<polygon fill="none" stroke="#000000" points="1035.5,-524 1035.5,-546 1130.5,-546 1130.5,-524 1035.5,-524"/>
<text text-anchor="start" x="1040.5" y="-532" font-family="Times,serif" font-size="10.00" fill="#000000">action: STRING</text>
<polygon fill="none" stroke="#000000" points="1035.5,-502 1035.5,-524 1130.5,-524 1130.5,-502 1035.5,-502"/>
<text text-anchor="start" x="1040.092" y="-510" font-family="Times,serif" font-size="10.00" fill="#000000">description: STRING</text>
<polygon fill="none" stroke="#000000" points="1035.5,-480 1035.5,-502 1130.5,-502 1130.5,-480 1035.5,-480"/>
<text text-anchor="start" x="1040.5" y="-488" font-family="Times,serif" font-size="10.00" fill="#000000">createdAt: DATE</text>
<polygon fill="none" stroke="#000000" points="1035.5,-458 1035.5,-480 1130.5,-480 1130.5,-458 1035.5,-458"/>
<text text-anchor="start" x="1040.5" y="-466" font-family="Times,serif" font-size="10.00" fill="#000000">updatedAt: DATE</text>
</g>
<!-- Permission&#45;&gt;RolePermission -->
<g id="edge3" class="edge">
<title>Permission&#45;&gt;RolePermission</title>
<path fill="none" stroke="#0000ff" d="M1141.0168,-519.4122C1177.6494,-502.7678 1224.9346,-481.2833 1262.9159,-464.026"/>
<polygon fill="#0000ff" stroke="#0000ff" points="1140.9528,-519.4412 1127.7939,-519.4889 1135.4903,-521.9233 1130.0277,-524.4053 1130.0277,-524.4053 1130.0277,-524.4053 1135.4903,-521.9233 1132.2615,-529.3216 1140.9528,-519.4412 1140.9528,-519.4412"/>
<polygon fill="#0000ff" stroke="#0000ff" points="1262.9472,-464.0119 1276.1062,-463.9642 1268.4098,-461.5298 1273.8724,-459.0478 1273.8724,-459.0478 1273.8724,-459.0478 1268.4098,-461.5298 1271.6386,-454.1315 1262.9472,-464.0119 1262.9472,-464.0119"/>
</g>
<!-- User -->
<g id="node4" class="node">
<title>User</title>
<polygon fill="#add8e6" stroke="transparent" points="1038.5,-232 1038.5,-254 1127.5,-254 1127.5,-232 1038.5,-232"/>
<polygon fill="none" stroke="#000000" points="1038.5,-232 1038.5,-254 1127.5,-254 1127.5,-232 1038.5,-232"/>
<text text-anchor="start" x="1073.562" y="-241" font-family="Times,serif" font-weight="bold" font-size="10.00" fill="#000000">User</text>
<polygon fill="none" stroke="#000000" points="1038.5,-210 1038.5,-232 1127.5,-232 1127.5,-210 1038.5,-210"/>
<text text-anchor="start" x="1043.5" y="-219" font-family="Times,serif" text-decoration="underline" font-size="10.00" fill="#000000">id</text>
<text text-anchor="start" x="1051.279" y="-219" font-family="Times,serif" font-size="10.00" fill="#000000">: UUID</text>
<polygon fill="none" stroke="#000000" points="1038.5,-188 1038.5,-210 1127.5,-210 1127.5,-188 1038.5,-188"/>
<text text-anchor="start" x="1043.5" y="-196" font-family="Times,serif" font-size="10.00" fill="#000000">googleId: STRING</text>
<polygon fill="none" stroke="#000000" points="1038.5,-166 1038.5,-188 1127.5,-188 1127.5,-166 1038.5,-166"/>
<text text-anchor="start" x="1043.1515" y="-174" font-family="Times,serif" font-size="10.00" fill="#000000">username: STRING</text>
<polygon fill="none" stroke="#000000" points="1038.5,-144 1038.5,-166 1127.5,-166 1127.5,-144 1038.5,-144"/>
<text text-anchor="start" x="1043.5" y="-152" font-family="Times,serif" font-size="10.00" fill="#000000">createdAt: DATE</text>
<polygon fill="none" stroke="#000000" points="1038.5,-122 1038.5,-144 1127.5,-144 1127.5,-122 1038.5,-122"/>
<text text-anchor="start" x="1043.5" y="-130" font-family="Times,serif" font-size="10.00" fill="#000000">updatedAt: DATE</text>
</g>
<!-- User&#45;&gt;UserRole -->
<g id="edge4" class="edge">
<title>User&#45;&gt;UserRole</title>
<path fill="none" stroke="#0000ff" d="M1138.6425,-208.2705C1176.1298,-221.8055 1225.5329,-239.6427 1264.6152,-253.7535"/>
<polygon fill="#0000ff" stroke="#0000ff" points="1138.4261,-208.1925 1128.9731,-199.0381 1132.7827,-206.1548 1127.1393,-204.1172 1127.1393,-204.1172 1127.1393,-204.1172 1132.7827,-206.1548 1125.3054,-209.1963 1138.4261,-208.1925 1138.4261,-208.1925"/>
<polygon fill="#0000ff" stroke="#0000ff" points="1274.7003,-261.8602 1264.8398,-253.8346 1277.553,-253.9594 1274.7003,-261.8602"/>
</g>
<!-- Image -->
<g id="node6" class="node">
<title>Image</title>
<polygon fill="#add8e6" stroke="transparent" points="267.5,-586 267.5,-608 371.5,-608 371.5,-586 267.5,-586"/>
<polygon fill="none" stroke="#000000" points="267.5,-586 267.5,-608 371.5,-608 371.5,-586 267.5,-586"/>
<text text-anchor="start" x="307.007" y="-595" font-family="Times,serif" font-weight="bold" font-size="10.00" fill="#000000">Image</text>
<polygon fill="none" stroke="#000000" points="267.5,-564 267.5,-586 371.5,-586 371.5,-564 267.5,-564"/>
<text text-anchor="start" x="272.5" y="-573" font-family="Times,serif" text-decoration="underline" font-size="10.00" fill="#000000">id</text>
<text text-anchor="start" x="280.279" y="-573" font-family="Times,serif" font-size="10.00" fill="#000000">: UUID</text>
<polygon fill="none" stroke="#000000" points="267.5,-542 267.5,-564 371.5,-564 371.5,-542 267.5,-542"/>
<text text-anchor="start" x="272.4275" y="-550" font-family="Times,serif" font-size="10.00" fill="#000000">displayName: STRING</text>
<polygon fill="none" stroke="#000000" points="267.5,-520 267.5,-542 371.5,-542 371.5,-520 267.5,-520"/>
<text text-anchor="start" x="272.5" y="-528" font-family="Times,serif" font-size="10.00" fill="#000000">storagePath: STRING</text>
<polygon fill="none" stroke="#000000" points="267.5,-498 267.5,-520 371.5,-520 371.5,-498 267.5,-498"/>
<text text-anchor="start" x="272.5" y="-506" font-family="Times,serif" font-size="10.00" fill="#000000">contentType: STRING</text>
<polygon fill="none" stroke="#000000" points="267.5,-476 267.5,-498 371.5,-498 371.5,-476 267.5,-476"/>
<text text-anchor="start" x="272.5" y="-484" font-family="Times,serif" font-size="10.00" fill="#000000">fileSize: NUMBER</text>
<polygon fill="none" stroke="#000000" points="267.5,-454 267.5,-476 371.5,-476 371.5,-454 267.5,-454"/>
<text text-anchor="start" x="272.5" y="-463" font-family="Times,serif" font-style="italic" text-decoration="underline" font-size="10.00" fill="#000000">uploaderUserId</text>
<text text-anchor="start" x="334.691" y="-463" font-family="Times,serif" font-size="10.00" fill="#000000">: UUID</text>
<polygon fill="none" stroke="#000000" points="267.5,-432 267.5,-454 371.5,-454 371.5,-432 267.5,-432"/>
<text text-anchor="start" x="272.5" y="-440" font-family="Times,serif" font-size="10.00" fill="#000000">createdAt: DATE</text>
<polygon fill="none" stroke="#000000" points="267.5,-410 267.5,-432 371.5,-432 371.5,-410 267.5,-410"/>
<text text-anchor="start" x="272.5" y="-418" font-family="Times,serif" font-size="10.00" fill="#000000">updatedAt: DATE</text>
</g>
<!-- PrototypeGroup -->
<g id="node7" class="node">
<title>PrototypeGroup</title>
<polygon fill="#add8e6" stroke="transparent" points="808.5,-166 808.5,-188 891.5,-188 891.5,-166 808.5,-166"/>
<polygon fill="none" stroke="#000000" points="808.5,-166 808.5,-188 891.5,-188 891.5,-166 808.5,-166"/>
<text text-anchor="start" x="817.7835" y="-175" font-family="Times,serif" font-weight="bold" font-size="10.00" fill="#000000">PrototypeGroup</text>
<polygon fill="none" stroke="#000000" points="808.5,-144 808.5,-166 891.5,-166 891.5,-144 808.5,-144"/>
<text text-anchor="start" x="813.5" y="-153" font-family="Times,serif" text-decoration="underline" font-size="10.00" fill="#000000">id</text>
<text text-anchor="start" x="821.279" y="-153" font-family="Times,serif" font-size="10.00" fill="#000000">: UUID</text>
<polygon fill="none" stroke="#000000" points="808.5,-122 808.5,-144 891.5,-144 891.5,-122 808.5,-122"/>
<text text-anchor="start" x="813.5" y="-131" font-family="Times,serif" font-style="italic" text-decoration="underline" font-size="10.00" fill="#000000">userId</text>
<text text-anchor="start" x="838.486" y="-131" font-family="Times,serif" font-size="10.00" fill="#000000">: UUID</text>
<polygon fill="none" stroke="#000000" points="808.5,-100 808.5,-122 891.5,-122 891.5,-100 808.5,-100"/>
<text text-anchor="start" x="813.5" y="-108" font-family="Times,serif" font-size="10.00" fill="#000000">createdAt: DATE</text>
<polygon fill="none" stroke="#000000" points="808.5,-78 808.5,-100 891.5,-100 891.5,-78 808.5,-78"/>
<text text-anchor="start" x="813.205" y="-86" font-family="Times,serif" font-size="10.00" fill="#000000">updatedAt: DATE</text>
</g>
<!-- PrototypeGroup&#45;&gt;User -->
<g id="edge5" class="edge">
<title>PrototypeGroup&#45;&gt;User</title>
<path fill="none" stroke="#0000ff" d="M903.0264,-145.635C939.7883,-154.3127 988.5104,-165.8136 1025.9128,-174.6425"/>
<polygon fill="#0000ff" stroke="#0000ff" points="892.1207,-138.7452 902.8348,-145.5898 890.1908,-146.9206 892.1207,-138.7452"/>
<polygon fill="#0000ff" stroke="#0000ff" points="1025.9501,-174.6512 1036.3885,-182.6637 1031.7896,-176.0297 1037.6291,-177.4082 1037.6291,-177.4082 1037.6291,-177.4082 1031.7896,-176.0297 1038.8698,-172.1526 1025.9501,-174.6512 1025.9501,-174.6512"/>
</g>
<!-- Prototype -->
<g id="node8" class="node">
<title>Prototype</title>
<polygon fill="#add8e6" stroke="transparent" points="544,-182 544,-204 664,-204 664,-182 544,-182"/>
<polygon fill="none" stroke="#000000" points="544,-182 544,-204 664,-204 664,-182 544,-182"/>
<text text-anchor="start" x="584.5575" y="-191" font-family="Times,serif" font-weight="bold" font-size="10.00" fill="#000000">Prototype</text>
<polygon fill="none" stroke="#000000" points="544,-160 544,-182 664,-182 664,-160 544,-160"/>
<text text-anchor="start" x="549" y="-169" font-family="Times,serif" text-decoration="underline" font-size="10.00" fill="#000000">id</text>
<text text-anchor="start" x="556.779" y="-169" font-family="Times,serif" font-size="10.00" fill="#000000">: UUID</text>
<polygon fill="none" stroke="#000000" points="544,-138 544,-160 664,-160 664,-138 544,-138"/>
<text text-anchor="start" x="549" y="-147" font-family="Times,serif" font-style="italic" text-decoration="underline" font-size="10.00" fill="#000000">prototypeGroupId</text>
<text text-anchor="start" x="621.203" y="-147" font-family="Times,serif" font-size="10.00" fill="#000000">: UUID</text>
<polygon fill="none" stroke="#000000" points="544,-116 544,-138 664,-138 664,-116 544,-116"/>
<text text-anchor="start" x="549" y="-124" font-family="Times,serif" font-size="10.00" fill="#000000">name: STRING</text>
<polygon fill="none" stroke="#000000" points="544,-94 544,-116 664,-116 664,-94 544,-94"/>
<text text-anchor="start" x="549" y="-102" font-family="Times,serif" font-size="10.00" fill="#000000">type: ENUM</text>
<polygon fill="none" stroke="#000000" points="544,-72 544,-94 664,-94 664,-72 544,-72"/>
<text text-anchor="start" x="548.8725" y="-80" font-family="Times,serif" font-size="10.00" fill="#000000">versionNumber: NUMBER</text>
<polygon fill="none" stroke="#000000" points="544,-50 544,-72 664,-72 664,-50 544,-50"/>
<text text-anchor="start" x="549" y="-58" font-family="Times,serif" font-size="10.00" fill="#000000">createdAt: DATE</text>
<polygon fill="none" stroke="#000000" points="544,-28 544,-50 664,-50 664,-28 544,-28"/>
<text text-anchor="start" x="549" y="-36" font-family="Times,serif" font-size="10.00" fill="#000000">updatedAt: DATE</text>
</g>
<!-- Prototype&#45;&gt;PrototypeGroup -->
<g id="edge6" class="edge">
<title>Prototype&#45;&gt;PrototypeGroup</title>
<path fill="none" stroke="#0000ff" d="M676.1342,-120.995C714.2747,-123.6361 760.3193,-126.8246 795.3677,-129.2515"/>
<polygon fill="#0000ff" stroke="#0000ff" points="664.3462,-115.9687 676.0274,-120.9877 663.7659,-124.3486 664.3462,-115.9687"/>
<polygon fill="#0000ff" stroke="#0000ff" points="795.7765,-129.2797 807.3747,-135.4959 801.7622,-129.6943 807.7478,-130.1088 807.7478,-130.1088 807.7478,-130.1088 801.7622,-129.6943 808.1209,-124.7217 795.7765,-129.2797 795.7765,-129.2797"/>
</g>
<!-- Part -->
<g id="node9" class="node">
<title>Part</title>
<polygon fill="#add8e6" stroke="transparent" points="239.5,-352 239.5,-374 400.5,-374 400.5,-352 239.5,-352"/>
<polygon fill="none" stroke="#000000" points="239.5,-352 239.5,-374 400.5,-374 400.5,-352 239.5,-352"/>
<text text-anchor="start" x="311.947" y="-361" font-family="Times,serif" font-weight="bold" font-size="10.00" fill="#000000">Part</text>
<polygon fill="none" stroke="#000000" points="239.5,-330 239.5,-352 400.5,-352 400.5,-330 239.5,-330"/>
<text text-anchor="start" x="244.5" y="-339" font-family="Times,serif" text-decoration="underline" font-size="10.00" fill="#000000">id</text>
<text text-anchor="start" x="252.279" y="-339" font-family="Times,serif" font-size="10.00" fill="#000000">: NUMBER</text>
<polygon fill="none" stroke="#000000" points="239.5,-308 239.5,-330 400.5,-330 400.5,-308 239.5,-308"/>
<text text-anchor="start" x="244.5" y="-316" font-family="Times,serif" font-size="10.00" fill="#000000">type: ENUM</text>
<polygon fill="none" stroke="#000000" points="239.5,-286 239.5,-308 400.5,-308 400.5,-286 239.5,-286"/>
<text text-anchor="start" x="244.5" y="-295" font-family="Times,serif" font-style="italic" text-decoration="underline" font-size="10.00" fill="#000000">prototypeId</text>
<text text-anchor="start" x="291.155" y="-295" font-family="Times,serif" font-size="10.00" fill="#000000">: UUID</text>
<polygon fill="none" stroke="#000000" points="239.5,-264 239.5,-286 400.5,-286 400.5,-264 239.5,-264"/>
<text text-anchor="start" x="244.5" y="-273" font-family="Times,serif" font-style="italic" text-decoration="underline" font-size="10.00" fill="#000000">parentId</text>
<text text-anchor="start" x="277.815" y="-273" font-family="Times,serif" font-size="10.00" fill="#000000">: NUMBER</text>
<polygon fill="none" stroke="#000000" points="239.5,-242 239.5,-264 400.5,-264 400.5,-242 239.5,-242"/>
<text text-anchor="start" x="244.5" y="-250" font-family="Times,serif" font-size="10.00" fill="#000000">position: JSON</text>
<polygon fill="none" stroke="#000000" points="239.5,-220 239.5,-242 400.5,-242 400.5,-220 239.5,-220"/>
<text text-anchor="start" x="244.5" y="-228" font-family="Times,serif" font-size="10.00" fill="#000000">width: NUMBER</text>
<polygon fill="none" stroke="#000000" points="239.5,-198 239.5,-220 400.5,-220 400.5,-198 239.5,-198"/>
<text text-anchor="start" x="244.5" y="-206" font-family="Times,serif" font-size="10.00" fill="#000000">height: NUMBER</text>
<polygon fill="none" stroke="#000000" points="239.5,-176 239.5,-198 400.5,-198 400.5,-176 239.5,-176"/>
<text text-anchor="start" x="244.5" y="-184" font-family="Times,serif" font-size="10.00" fill="#000000">order: NUMBER</text>
<polygon fill="none" stroke="#000000" points="239.5,-154 239.5,-176 400.5,-176 400.5,-154 239.5,-154"/>
<text text-anchor="start" x="244.5" y="-162" font-family="Times,serif" font-size="10.00" fill="#000000">configurableTypeAsChild: ARRAY</text>
<polygon fill="none" stroke="#000000" points="239.5,-132 239.5,-154 400.5,-154 400.5,-132 239.5,-132"/>
<text text-anchor="start" x="244.5" y="-141" font-family="Times,serif" font-style="italic" text-decoration="underline" font-size="10.00" fill="#000000">originalPartId</text>
<text text-anchor="start" x="300.04" y="-141" font-family="Times,serif" font-size="10.00" fill="#000000">: NUMBER</text>
<polygon fill="none" stroke="#000000" points="239.5,-110 239.5,-132 400.5,-132 400.5,-110 239.5,-110"/>
<text text-anchor="start" x="244.5" y="-118" font-family="Times,serif" font-size="10.00" fill="#000000">isReversible: BOOLEAN</text>
<polygon fill="none" stroke="#000000" points="239.5,-88 239.5,-110 400.5,-110 400.5,-88 239.5,-88"/>
<text text-anchor="start" x="244.5" y="-96" font-family="Times,serif" font-size="10.00" fill="#000000">isFlipped: BOOLEAN</text>
<polygon fill="none" stroke="#000000" points="239.5,-66 239.5,-88 400.5,-88 400.5,-66 239.5,-66"/>
<text text-anchor="start" x="244.5" y="-75" font-family="Times,serif" font-style="italic" text-decoration="underline" font-size="10.00" fill="#000000">ownerId</text>
<text text-anchor="start" x="277.816" y="-75" font-family="Times,serif" font-size="10.00" fill="#000000">: UUID</text>
<polygon fill="none" stroke="#000000" points="239.5,-44 239.5,-66 400.5,-66 400.5,-44 239.5,-44"/>
<text text-anchor="start" x="244.0615" y="-52" font-family="Times,serif" font-size="10.00" fill="#000000">canReverseCardOnDeck: BOOLEAN</text>
<polygon fill="none" stroke="#000000" points="239.5,-22 239.5,-44 400.5,-44 400.5,-22 239.5,-22"/>
<text text-anchor="start" x="244.5" y="-30" font-family="Times,serif" font-size="10.00" fill="#000000">createdAt: DATE</text>
<polygon fill="none" stroke="#000000" points="239.5,0 239.5,-22 400.5,-22 400.5,0 239.5,0"/>
<text text-anchor="start" x="244.5" y="-8" font-family="Times,serif" font-size="10.00" fill="#000000">updatedAt: DATE</text>
</g>
<!-- Part&#45;&gt;User -->
<g id="edge8" class="edge">
<title>Part&#45;&gt;User</title>
<path fill="none" stroke="#0000ff" d="M412.1828,-204.7474C452.5128,-211.6134 500.4236,-218.6236 544,-222 697.9247,-233.9266 737.1332,-218.6522 891,-206 936.15,-202.2874 987.2263,-197.4547 1025.2682,-193.7316"/>
<polygon fill="#0000ff" stroke="#0000ff" points="400.9145,-198.5353 412.0227,-204.7198 399.4823,-206.8123 400.9145,-198.5353"/>
<polygon fill="#0000ff" stroke="#0000ff" points="1025.6998,-193.6893 1038.1707,-197.8889 1031.671,-193.1021 1037.6422,-192.5148 1037.6422,-192.5148 1037.6422,-192.5148 1031.671,-193.1021 1037.1137,-187.1407 1025.6998,-193.6893 1025.6998,-193.6893"/>
</g>
<!-- Part&#45;&gt;Prototype -->
<g id="edge7" class="edge">
<title>Part&#45;&gt;Prototype</title>
<path fill="none" stroke="#0000ff" d="M411.9787,-163.921C450.867,-154.216 495.434,-143.0938 531.8372,-134.009"/>
<polygon fill="#0000ff" stroke="#0000ff" points="399.2483,-162.7691 411.9082,-163.9385 401.2823,-170.9192 399.2483,-162.7691"/>
<polygon fill="#0000ff" stroke="#0000ff" points="532.2067,-133.9168 545.1572,-136.2505 538.0282,-132.464 543.8496,-131.0112 543.8496,-131.0112 543.8496,-131.0112 538.0282,-132.464 542.5421,-125.7719 532.2067,-133.9168 532.2067,-133.9168"/>
</g>
<!-- PartProperty -->
<g id="node10" class="node">
<title>PartProperty</title>
<polygon fill="#add8e6" stroke="transparent" points=".5,-436 .5,-458 95.5,-458 95.5,-436 .5,-436"/>
<polygon fill="none" stroke="#000000" points=".5,-436 .5,-458 95.5,-458 95.5,-436 .5,-436"/>
<text text-anchor="start" x="22.7295" y="-445" font-family="Times,serif" font-weight="bold" font-size="10.00" fill="#000000">PartProperty</text>
<polygon fill="none" stroke="#000000" points=".5,-414 .5,-436 95.5,-436 95.5,-414 .5,-414"/>
<text text-anchor="start" x="5.5" y="-423" font-family="Times,serif" text-decoration="underline" font-size="10.00" fill="#000000">partId</text>
<text text-anchor="start" x="29.376" y="-423" font-family="Times,serif" font-size="10.00" fill="#000000">: NUMBER</text>
<polygon fill="none" stroke="#000000" points=".5,-392 .5,-414 95.5,-414 95.5,-392 .5,-392"/>
<text text-anchor="start" x="5.5" y="-401" font-family="Times,serif" text-decoration="underline" font-size="10.00" fill="#000000">side</text>
<text text-anchor="start" x="21.607" y="-401" font-family="Times,serif" font-size="10.00" fill="#000000">: ENUM</text>
<polygon fill="none" stroke="#000000" points=".5,-370 .5,-392 95.5,-392 95.5,-370 .5,-370"/>
<text text-anchor="start" x="5.5" y="-378" font-family="Times,serif" font-size="10.00" fill="#000000">name: STRING</text>
<polygon fill="none" stroke="#000000" points=".5,-348 .5,-370 95.5,-370 95.5,-348 .5,-348"/>
<text text-anchor="start" x="5.092" y="-356" font-family="Times,serif" font-size="10.00" fill="#000000">description: STRING</text>
<polygon fill="none" stroke="#000000" points=".5,-326 .5,-348 95.5,-348 95.5,-326 .5,-326"/>
<text text-anchor="start" x="5.5" y="-334" font-family="Times,serif" font-size="10.00" fill="#000000">color: STRING</text>
<polygon fill="none" stroke="#000000" points=".5,-304 .5,-326 95.5,-326 95.5,-304 .5,-304"/>
<text text-anchor="start" x="5.5" y="-312" font-family="Times,serif" font-size="10.00" fill="#000000">textColor: STRING</text>
<polygon fill="none" stroke="#000000" points=".5,-282 .5,-304 95.5,-304 95.5,-282 .5,-282"/>
<text text-anchor="start" x="5.5" y="-291" font-family="Times,serif" font-style="italic" text-decoration="underline" font-size="10.00" fill="#000000">imageId</text>
<text text-anchor="start" x="38.265" y="-291" font-family="Times,serif" font-size="10.00" fill="#000000">: UUID</text>
<polygon fill="none" stroke="#000000" points=".5,-260 .5,-282 95.5,-282 95.5,-260 .5,-260"/>
<text text-anchor="start" x="5.5" y="-268" font-family="Times,serif" font-size="10.00" fill="#000000">createdAt: DATE</text>
<polygon fill="none" stroke="#000000" points=".5,-238 .5,-260 95.5,-260 95.5,-238 .5,-238"/>
<text text-anchor="start" x="5.5" y="-246" font-family="Times,serif" font-size="10.00" fill="#000000">updatedAt: DATE</text>
</g>
<!-- PartProperty&#45;&gt;Image -->
<g id="edge10" class="edge">
<title>PartProperty&#45;&gt;Image</title>
<path fill="none" stroke="#0000ff" d="M105.7141,-382.4576C150.1801,-408.7776 211.3596,-444.9904 256.8817,-471.9355"/>
<polygon fill="#0000ff" stroke="#0000ff" points="97.3294,-372.614 105.5166,-382.3408 93.0507,-379.8426 97.3294,-372.614"/>
<polygon fill="#0000ff" stroke="#0000ff" points="256.8926,-471.9419 264.4686,-482.7013 262.0559,-474.9981 267.2192,-478.0544 267.2192,-478.0544 267.2192,-478.0544 262.0559,-474.9981 269.9698,-473.4074 256.8926,-471.9419 256.8926,-471.9419"/>
</g>
<!-- PartProperty&#45;&gt;Part -->
<g id="edge9" class="edge">
<title>PartProperty&#45;&gt;Part</title>
<path fill="none" stroke="#0000ff" d="M105.7753,-313.5062C141.4558,-292.3865 187.8807,-264.907 228.3426,-240.9572"/>
<polygon fill="#0000ff" stroke="#0000ff" points="93.0507,-316.1574 105.5166,-313.6592 97.3294,-323.386 93.0507,-316.1574"/>
<polygon fill="#0000ff" stroke="#0000ff" points="228.4359,-240.902 241.5131,-239.4365 233.5992,-237.8457 238.7625,-234.7895 238.7625,-234.7895 238.7625,-234.7895 233.5992,-237.8457 236.0119,-230.1425 228.4359,-240.902 228.4359,-240.902"/>
</g>
</g>
</svg>
