<?xml version="1.0" encoding="UTF-8" standalone="no"?>
<!DOCTYPE svg PUBLIC "-//W3C//DTD SVG 1.1//EN"
 "http://www.w3.org/Graphics/SVG/1.1/DTD/svg11.dtd">
<!-- Generated by graphviz version 2.40.1 (20161225.0304)
 -->
<!-- Title: models_diagram Pages: 1 -->
<svg width="1216pt" height="826pt"
 viewBox="0.00 0.00 1216.00 826.00" xmlns="http://www.w3.org/2000/svg" xmlns:xlink="http://www.w3.org/1999/xlink">
<g id="graph0" class="graph" transform="scale(1 1) rotate(0) translate(36 790)">
<title>models_diagram</title>
<polygon fill="#ffffff" stroke="transparent" points="-36,36 -36,-790 1180,-790 1180,36 -36,36"/>
<!-- User -->
<g id="node1" class="node">
<title>User</title>
<polygon fill="#add8e6" stroke="transparent" points="820.5,-518 820.5,-540 909.5,-540 909.5,-518 820.5,-518"/>
<polygon fill="none" stroke="#000000" points="820.5,-518 820.5,-540 909.5,-540 909.5,-518 820.5,-518"/>
<text text-anchor="start" x="855.562" y="-527" font-family="Times,serif" font-weight="bold" font-size="10.00" fill="#000000">User</text>
<polygon fill="none" stroke="#000000" points="820.5,-496 820.5,-518 909.5,-518 909.5,-496 820.5,-496"/>
<text text-anchor="start" x="825.5" y="-505" font-family="Times,serif" text-decoration="underline" font-size="10.00" fill="#000000">id</text>
<text text-anchor="start" x="833.279" y="-505" font-family="Times,serif" font-size="10.00" fill="#000000">: UUID</text>
<polygon fill="none" stroke="#000000" points="820.5,-474 820.5,-496 909.5,-496 909.5,-474 820.5,-474"/>
<text text-anchor="start" x="825.5" y="-482" font-family="Times,serif" font-size="10.00" fill="#000000">googleId: STRING</text>
<polygon fill="none" stroke="#000000" points="820.5,-452 820.5,-474 909.5,-474 909.5,-452 820.5,-452"/>
<text text-anchor="start" x="825.1515" y="-460" font-family="Times,serif" font-size="10.00" fill="#000000">username: STRING</text>
<polygon fill="none" stroke="#000000" points="820.5,-430 820.5,-452 909.5,-452 909.5,-430 820.5,-430"/>
<text text-anchor="start" x="825.5" y="-438" font-family="Times,serif" font-size="10.00" fill="#000000">createdAt: DATE</text>
<polygon fill="none" stroke="#000000" points="820.5,-408 820.5,-430 909.5,-430 909.5,-408 820.5,-408"/>
<text text-anchor="start" x="825.5" y="-416" font-family="Times,serif" font-size="10.00" fill="#000000">updatedAt: DATE</text>
</g>
<!-- UserAccess -->
<g id="node8" class="node">
<title>UserAccess</title>
<polygon fill="#add8e6" stroke="transparent" points="1053.5,-565 1053.5,-587 1144.5,-587 1144.5,-565 1053.5,-565"/>
<polygon fill="none" stroke="#000000" points="1053.5,-565 1053.5,-587 1144.5,-587 1144.5,-565 1053.5,-565"/>
<text text-anchor="start" x="1075.405" y="-574" font-family="Times,serif" font-weight="bold" font-size="10.00" fill="#000000">UserAccess</text>
<polygon fill="none" stroke="#000000" points="1053.5,-543 1053.5,-565 1144.5,-565 1144.5,-543 1053.5,-543"/>
<text text-anchor="start" x="1058.5" y="-552" font-family="Times,serif" text-decoration="underline" font-size="10.00" fill="#000000">userId</text>
<text text-anchor="start" x="1083.486" y="-552" font-family="Times,serif" font-size="10.00" fill="#000000">: UUID</text>
<polygon fill="none" stroke="#000000" points="1053.5,-521 1053.5,-543 1144.5,-543 1144.5,-521 1053.5,-521"/>
<text text-anchor="start" x="1058.042" y="-530" font-family="Times,serif" text-decoration="underline" font-size="10.00" fill="#000000">accessId</text>
<text text-anchor="start" x="1091.905" y="-530" font-family="Times,serif" font-size="10.00" fill="#000000">: NUMBER</text>
</g>
<!-- User&#45;&gt;UserAccess -->
<g id="edge1" class="edge">
<title>User&#45;&gt;UserAccess</title>
<path fill="none" stroke="#0000ff" d="M920.6306,-493.19C957.1606,-505.6788 1004.6625,-521.9188 1041.3869,-534.4742"/>
<polygon fill="#0000ff" stroke="#0000ff" points="920.4192,-493.1177 910.8113,-484.1261 914.7418,-491.1767 909.0644,-489.2357 909.0644,-489.2357 909.0644,-489.2357 914.7418,-491.1767 907.3175,-494.3453 920.4192,-493.1177 920.4192,-493.1177"/>
<polygon fill="#0000ff" stroke="#0000ff" points="1041.5494,-534.5296 1051.1572,-543.5213 1047.2267,-536.4706 1052.9041,-538.4117 1052.9041,-538.4117 1052.9041,-538.4117 1047.2267,-536.4706 1054.651,-533.302 1041.5494,-534.5296 1041.5494,-534.5296"/>
</g>
<!-- UserPlayer -->
<g id="node9" class="node">
<title>UserPlayer</title>
<polygon fill="#add8e6" stroke="transparent" points="1053.5,-405 1053.5,-427 1144.5,-427 1144.5,-405 1053.5,-405"/>
<polygon fill="none" stroke="#000000" points="1053.5,-405 1053.5,-427 1144.5,-427 1144.5,-405 1053.5,-405"/>
<text text-anchor="start" x="1076.7895" y="-414" font-family="Times,serif" font-weight="bold" font-size="10.00" fill="#000000">UserPlayer</text>
<polygon fill="none" stroke="#000000" points="1053.5,-383 1053.5,-405 1144.5,-405 1144.5,-383 1053.5,-383"/>
<text text-anchor="start" x="1058.5" y="-392" font-family="Times,serif" text-decoration="underline" font-size="10.00" fill="#000000">userId</text>
<text text-anchor="start" x="1083.486" y="-392" font-family="Times,serif" font-size="10.00" fill="#000000">: UUID</text>
<polygon fill="none" stroke="#000000" points="1053.5,-361 1053.5,-383 1144.5,-383 1144.5,-361 1053.5,-361"/>
<text text-anchor="start" x="1058.316" y="-370" font-family="Times,serif" text-decoration="underline" font-size="10.00" fill="#000000">playerId</text>
<text text-anchor="start" x="1091.631" y="-370" font-family="Times,serif" font-size="10.00" fill="#000000">: NUMBER</text>
</g>
<!-- User&#45;&gt;UserPlayer -->
<g id="edge2" class="edge">
<title>User&#45;&gt;UserPlayer</title>
<path fill="none" stroke="#0000ff" d="M920.6306,-454.81C957.1606,-442.3212 1004.6625,-426.0812 1041.3869,-413.5258"/>
<polygon fill="#0000ff" stroke="#0000ff" points="920.4192,-454.8823 907.3175,-453.6547 914.7418,-456.8233 909.0644,-458.7643 909.0644,-458.7643 909.0644,-458.7643 914.7418,-456.8233 910.8113,-463.8739 920.4192,-454.8823 920.4192,-454.8823"/>
<polygon fill="#0000ff" stroke="#0000ff" points="1041.5494,-413.4704 1054.651,-414.698 1047.2267,-411.5294 1052.9041,-409.5883 1052.9041,-409.5883 1052.9041,-409.5883 1047.2267,-411.5294 1051.1572,-404.4787 1041.5494,-413.4704 1041.5494,-413.4704"/>
</g>
<!-- Prototype -->
<g id="node2" class="node">
<title>Prototype</title>
<polygon fill="#add8e6" stroke="transparent" points="562,-573 562,-595 676,-595 676,-573 562,-573"/>
<polygon fill="none" stroke="#000000" points="562,-573 562,-595 676,-595 676,-573 562,-573"/>
<text text-anchor="start" x="599.5575" y="-582" font-family="Times,serif" font-weight="bold" font-size="10.00" fill="#000000">Prototype</text>
<polygon fill="none" stroke="#000000" points="562,-551 562,-573 676,-573 676,-551 562,-551"/>
<text text-anchor="start" x="567" y="-560" font-family="Times,serif" text-decoration="underline" font-size="10.00" fill="#000000">id</text>
<text text-anchor="start" x="574.779" y="-560" font-family="Times,serif" font-size="10.00" fill="#000000">: UUID</text>
<polygon fill="none" stroke="#000000" points="562,-529 562,-551 676,-551 676,-529 562,-529"/>
<text text-anchor="start" x="567" y="-538" font-family="Times,serif" font-style="italic" text-decoration="underline" font-size="10.00" fill="#000000">userId</text>
<text text-anchor="start" x="591.986" y="-538" font-family="Times,serif" font-size="10.00" fill="#000000">: UUID</text>
<polygon fill="none" stroke="#000000" points="562,-507 562,-529 676,-529 676,-507 562,-507"/>
<text text-anchor="start" x="567" y="-515" font-family="Times,serif" font-size="10.00" fill="#000000">name: STRING</text>
<polygon fill="none" stroke="#000000" points="562,-485 562,-507 676,-507 676,-485 562,-485"/>
<text text-anchor="start" x="567" y="-493" font-family="Times,serif" font-size="10.00" fill="#000000">type: ENUM</text>
<polygon fill="none" stroke="#000000" points="562,-463 562,-485 676,-485 676,-463 562,-463"/>
<text text-anchor="start" x="566.9335" y="-472" font-family="Times,serif" font-style="italic" text-decoration="underline" font-size="10.00" fill="#000000">masterPrototypeId</text>
<text text-anchor="start" x="640.8015" y="-472" font-family="Times,serif" font-size="10.00" fill="#000000">: UUID</text>
<polygon fill="none" stroke="#000000" points="562,-441 562,-463 676,-463 676,-441 562,-441"/>
<text text-anchor="start" x="567" y="-449" font-family="Times,serif" font-size="10.00" fill="#000000">groupId: UUID</text>
<polygon fill="none" stroke="#000000" points="562,-419 562,-441 676,-441 676,-419 562,-419"/>
<text text-anchor="start" x="567" y="-427" font-family="Times,serif" font-size="10.00" fill="#000000">minPlayers: NUMBER</text>
<polygon fill="none" stroke="#000000" points="562,-397 562,-419 676,-419 676,-397 562,-397"/>
<text text-anchor="start" x="567" y="-405" font-family="Times,serif" font-size="10.00" fill="#000000">maxPlayers: NUMBER</text>
<polygon fill="none" stroke="#000000" points="562,-375 562,-397 676,-397 676,-375 562,-375"/>
<text text-anchor="start" x="567" y="-383" font-family="Times,serif" font-size="10.00" fill="#000000">createdAt: DATE</text>
<polygon fill="none" stroke="#000000" points="562,-353 562,-375 676,-375 676,-353 562,-353"/>
<text text-anchor="start" x="567" y="-361" font-family="Times,serif" font-size="10.00" fill="#000000">updatedAt: DATE</text>
</g>
<!-- Prototype&#45;&gt;User -->
<g id="edge5" class="edge">
<title>Prototype&#45;&gt;User</title>
<path fill="none" stroke="#0000ff" d="M688.4047,-474C726.1202,-474 772.1771,-474 807.7285,-474"/>
<polygon fill="#0000ff" stroke="#0000ff" points="676.249,-469.8 688.249,-474.0001 676.249,-478.2 676.249,-469.8"/>
<polygon fill="#0000ff" stroke="#0000ff" points="807.8344,-474.0001 819.8344,-479.4 813.8344,-474 819.8344,-474 819.8344,-474 819.8344,-474 813.8344,-474 819.8343,-468.6 807.8344,-474.0001 807.8344,-474.0001"/>
</g>
<!-- PrototypeGroup -->
<g id="node3" class="node">
<title>PrototypeGroup</title>
<polygon fill="#add8e6" stroke="transparent" points="318.5,-600 318.5,-622 404.5,-622 404.5,-600 318.5,-600"/>
<polygon fill="none" stroke="#000000" points="318.5,-600 318.5,-622 404.5,-622 404.5,-600 318.5,-600"/>
<text text-anchor="start" x="329.2835" y="-609" font-family="Times,serif" font-weight="bold" font-size="10.00" fill="#000000">PrototypeGroup</text>
<polygon fill="none" stroke="#000000" points="318.5,-578 318.5,-600 404.5,-600 404.5,-578 318.5,-578"/>
<text text-anchor="start" x="323.5" y="-587" font-family="Times,serif" text-decoration="underline" font-size="10.00" fill="#000000">id</text>
<text text-anchor="start" x="331.279" y="-587" font-family="Times,serif" font-size="10.00" fill="#000000">: UUID</text>
<polygon fill="none" stroke="#000000" points="318.5,-556 318.5,-578 404.5,-578 404.5,-556 318.5,-556"/>
<text text-anchor="start" x="323.04" y="-565" font-family="Times,serif" text-decoration="underline" font-size="10.00" fill="#000000">prototypeId</text>
<text text-anchor="start" x="369.695" y="-565" font-family="Times,serif" font-size="10.00" fill="#000000">: UUID</text>
</g>
<!-- PrototypeGroup&#45;&gt;Prototype -->
<g id="edge6" class="edge">
<title>PrototypeGroup&#45;&gt;Prototype</title>
<path fill="none" stroke="#0000ff" d="M415.6546,-564.8144C454.9676,-547.2572 508.4458,-523.3737 550.6927,-504.5062"/>
<polygon fill="#0000ff" stroke="#0000ff" points="402.887,-565.9167 415.5567,-564.8581 406.3124,-573.5865 402.887,-565.9167"/>
<polygon fill="#0000ff" stroke="#0000ff" points="550.7743,-504.4698 563.9333,-504.507 556.2528,-502.0231 561.7312,-499.5763 561.7312,-499.5763 561.7312,-499.5763 556.2528,-502.0231 559.5292,-494.6457 550.7743,-504.4698 550.7743,-504.4698"/>
</g>
<!-- Access -->
<g id="node4" class="node">
<title>Access</title>
<polygon fill="#add8e6" stroke="transparent" points="24.5,-732 24.5,-754 136.5,-754 136.5,-732 24.5,-732"/>
<polygon fill="none" stroke="#000000" points="24.5,-732 24.5,-754 136.5,-754 136.5,-732 24.5,-732"/>
<text text-anchor="start" x="66.343" y="-741" font-family="Times,serif" font-weight="bold" font-size="10.00" fill="#000000">Access</text>
<polygon fill="none" stroke="#000000" points="24.5,-710 24.5,-732 136.5,-732 136.5,-710 24.5,-710"/>
<text text-anchor="start" x="29.5" y="-719" font-family="Times,serif" text-decoration="underline" font-size="10.00" fill="#000000">id</text>
<text text-anchor="start" x="37.279" y="-719" font-family="Times,serif" font-size="10.00" fill="#000000">: NUMBER</text>
<polygon fill="none" stroke="#000000" points="24.5,-688 24.5,-710 136.5,-710 136.5,-688 24.5,-688"/>
<text text-anchor="start" x="29.266" y="-696" font-family="Times,serif" font-size="10.00" fill="#000000">prototypeGroupId: UUID</text>
<polygon fill="none" stroke="#000000" points="24.5,-666 24.5,-688 136.5,-688 136.5,-666 24.5,-666"/>
<text text-anchor="start" x="29.5" y="-674" font-family="Times,serif" font-size="10.00" fill="#000000">name: STRING</text>
</g>
<!-- Access&#45;&gt;PrototypeGroup -->
<g id="edge7" class="edge">
<title>Access&#45;&gt;PrototypeGroup</title>
<path fill="none" stroke="#0000ff" d="M148.0043,-680.9323C196.7596,-659.938 261.7515,-631.9522 307.1706,-612.3945"/>
<polygon fill="#0000ff" stroke="#0000ff" points="135.0281,-681.9471 147.7108,-681.0586 138.3503,-689.6622 135.0281,-681.9471"/>
<polygon fill="#0000ff" stroke="#0000ff" points="307.2527,-612.3592 320.41,-612.5729 312.7635,-609.9862 318.2743,-607.6132 318.2743,-607.6132 318.2743,-607.6132 312.7635,-609.9862 316.1386,-602.6535 307.2527,-612.3592 307.2527,-612.3592"/>
</g>
<!-- Access&#45;&gt;UserAccess -->
<g id="edge3" class="edge">
<title>Access&#45;&gt;UserAccess</title>
<path fill="none" stroke="#0000ff" d="M148.6279,-699.56C337.5005,-670.6168 865.3924,-589.7218 1040.9229,-562.8232"/>
<polygon fill="#0000ff" stroke="#0000ff" points="148.5437,-699.5728 135.8642,-696.0529 142.6129,-700.4817 136.6822,-701.3906 136.6822,-701.3906 136.6822,-701.3906 142.6129,-700.4817 137.5002,-706.7282 148.5437,-699.5728 148.5437,-699.5728"/>
<polygon fill="#0000ff" stroke="#0000ff" points="1041.0811,-562.799 1053.7607,-566.319 1047.0119,-561.8902 1052.9427,-560.9813 1052.9427,-560.9813 1052.9427,-560.9813 1047.0119,-561.8902 1052.1247,-555.6436 1041.0811,-562.799 1041.0811,-562.799"/>
</g>
<!-- PrototypeVersion -->
<g id="node5" class="node">
<title>PrototypeVersion</title>
<polygon fill="#add8e6" stroke="transparent" points="305.5,-465 305.5,-487 418.5,-487 418.5,-465 305.5,-465"/>
<polygon fill="none" stroke="#000000" points="305.5,-465 305.5,-487 418.5,-487 418.5,-465 305.5,-465"/>
<text text-anchor="start" x="326.73" y="-474" font-family="Times,serif" font-weight="bold" font-size="10.00" fill="#000000">PrototypeVersion</text>
<polygon fill="none" stroke="#000000" points="305.5,-443 305.5,-465 418.5,-465 418.5,-443 305.5,-443"/>
<text text-anchor="start" x="310.5" y="-452" font-family="Times,serif" text-decoration="underline" font-size="10.00" fill="#000000">id</text>
<text text-anchor="start" x="318.279" y="-452" font-family="Times,serif" font-size="10.00" fill="#000000">: UUID</text>
<polygon fill="none" stroke="#000000" points="305.5,-421 305.5,-443 418.5,-443 418.5,-421 305.5,-421"/>
<text text-anchor="start" x="310.5" y="-430" font-family="Times,serif" font-style="italic" text-decoration="underline" font-size="10.00" fill="#000000">prototypeId</text>
<text text-anchor="start" x="357.155" y="-430" font-family="Times,serif" font-size="10.00" fill="#000000">: UUID</text>
<polygon fill="none" stroke="#000000" points="305.5,-399 305.5,-421 418.5,-421 418.5,-399 305.5,-399"/>
<text text-anchor="start" x="310.2075" y="-407" font-family="Times,serif" font-size="10.00" fill="#000000">versionNumber: STRING</text>
<polygon fill="none" stroke="#000000" points="305.5,-377 305.5,-399 418.5,-399 418.5,-377 305.5,-377"/>
<text text-anchor="start" x="310.5" y="-385" font-family="Times,serif" font-size="10.00" fill="#000000">description: STRING</text>
<polygon fill="none" stroke="#000000" points="305.5,-355 305.5,-377 418.5,-377 418.5,-355 305.5,-355"/>
<text text-anchor="start" x="310.5" y="-363" font-family="Times,serif" font-size="10.00" fill="#000000">createdAt: DATE</text>
<polygon fill="none" stroke="#000000" points="305.5,-333 305.5,-355 418.5,-355 418.5,-333 305.5,-333"/>
<text text-anchor="start" x="310.5" y="-341" font-family="Times,serif" font-size="10.00" fill="#000000">updatedAt: DATE</text>
</g>
<!-- PrototypeVersion&#45;&gt;Prototype -->
<g id="edge8" class="edge">
<title>PrototypeVersion&#45;&gt;Prototype</title>
<path fill="none" stroke="#0000ff" d="M429.8574,-426.9898C466.9744,-436.215 512.7494,-447.5921 549.9702,-456.8431"/>
<polygon fill="#0000ff" stroke="#0000ff" points="419.0226,-419.9691 429.6552,-426.9396 416.9964,-428.1211 419.0226,-419.9691"/>
<polygon fill="#0000ff" stroke="#0000ff" points="550.0868,-456.872 560.43,-465.0071 555.9097,-458.3193 561.7325,-459.7665 561.7325,-459.7665 561.7325,-459.7665 555.9097,-458.3193 563.035,-454.526 550.0868,-456.872 550.0868,-456.872"/>
</g>
<!-- Part -->
<g id="node6" class="node">
<title>Part</title>
<polygon fill="#add8e6" stroke="transparent" points=".5,-608 .5,-630 161.5,-630 161.5,-608 .5,-608"/>
<polygon fill="none" stroke="#000000" points=".5,-608 .5,-630 161.5,-630 161.5,-608 .5,-608"/>
<text text-anchor="start" x="72.947" y="-617" font-family="Times,serif" font-weight="bold" font-size="10.00" fill="#000000">Part</text>
<polygon fill="none" stroke="#000000" points=".5,-586 .5,-608 161.5,-608 161.5,-586 .5,-586"/>
<text text-anchor="start" x="5.5" y="-595" font-family="Times,serif" text-decoration="underline" font-size="10.00" fill="#000000">id</text>
<text text-anchor="start" x="13.279" y="-595" font-family="Times,serif" font-size="10.00" fill="#000000">: NUMBER</text>
<polygon fill="none" stroke="#000000" points=".5,-564 .5,-586 161.5,-586 161.5,-564 .5,-564"/>
<text text-anchor="start" x="5.5" y="-572" font-family="Times,serif" font-size="10.00" fill="#000000">type: STRING</text>
<polygon fill="none" stroke="#000000" points=".5,-542 .5,-564 161.5,-564 161.5,-542 .5,-542"/>
<text text-anchor="start" x="5.5" y="-551" font-family="Times,serif" font-style="italic" text-decoration="underline" font-size="10.00" fill="#000000">prototypeVersionId</text>
<text text-anchor="start" x="83.81" y="-551" font-family="Times,serif" font-size="10.00" fill="#000000">: UUID</text>
<polygon fill="none" stroke="#000000" points=".5,-520 .5,-542 161.5,-542 161.5,-520 .5,-520"/>
<text text-anchor="start" x="5.5" y="-528" font-family="Times,serif" font-size="10.00" fill="#000000">parentId: NUMBER</text>
<polygon fill="none" stroke="#000000" points=".5,-498 .5,-520 161.5,-520 161.5,-498 .5,-498"/>
<text text-anchor="start" x="5.5" y="-506" font-family="Times,serif" font-size="10.00" fill="#000000">name: STRING</text>
<polygon fill="none" stroke="#000000" points=".5,-476 .5,-498 161.5,-498 161.5,-476 .5,-476"/>
<text text-anchor="start" x="5.5" y="-484" font-family="Times,serif" font-size="10.00" fill="#000000">description: STRING</text>
<polygon fill="none" stroke="#000000" points=".5,-454 .5,-476 161.5,-476 161.5,-454 .5,-454"/>
<text text-anchor="start" x="5.5" y="-462" font-family="Times,serif" font-size="10.00" fill="#000000">color: STRING</text>
<polygon fill="none" stroke="#000000" points=".5,-432 .5,-454 161.5,-454 161.5,-432 .5,-432"/>
<text text-anchor="start" x="5.5" y="-440" font-family="Times,serif" font-size="10.00" fill="#000000">position: JSON</text>
<polygon fill="none" stroke="#000000" points=".5,-410 .5,-432 161.5,-432 161.5,-410 .5,-410"/>
<text text-anchor="start" x="5.5" y="-418" font-family="Times,serif" font-size="10.00" fill="#000000">width: NUMBER</text>
<polygon fill="none" stroke="#000000" points=".5,-388 .5,-410 161.5,-410 161.5,-388 .5,-388"/>
<text text-anchor="start" x="5.5" y="-396" font-family="Times,serif" font-size="10.00" fill="#000000">height: NUMBER</text>
<polygon fill="none" stroke="#000000" points=".5,-366 .5,-388 161.5,-388 161.5,-366 .5,-366"/>
<text text-anchor="start" x="5.5" y="-374" font-family="Times,serif" font-size="10.00" fill="#000000">order: NUMBER</text>
<polygon fill="none" stroke="#000000" points=".5,-344 .5,-366 161.5,-366 161.5,-344 .5,-344"/>
<text text-anchor="start" x="5.5" y="-352" font-family="Times,serif" font-size="10.00" fill="#000000">configurableTypeAsChild: ARRAY</text>
<polygon fill="none" stroke="#000000" points=".5,-322 .5,-344 161.5,-344 161.5,-322 .5,-322"/>
<text text-anchor="start" x="5.5" y="-330" font-family="Times,serif" font-size="10.00" fill="#000000">originalPartId: NUMBER</text>
<polygon fill="none" stroke="#000000" points=".5,-300 .5,-322 161.5,-322 161.5,-300 .5,-300"/>
<text text-anchor="start" x="5.5" y="-308" font-family="Times,serif" font-size="10.00" fill="#000000">isReversible: BOOLEAN</text>
<polygon fill="none" stroke="#000000" points=".5,-278 .5,-300 161.5,-300 161.5,-278 .5,-278"/>
<text text-anchor="start" x="5.5" y="-286" font-family="Times,serif" font-size="10.00" fill="#000000">isFlipped: BOOLEAN</text>
<polygon fill="none" stroke="#000000" points=".5,-256 .5,-278 161.5,-278 161.5,-256 .5,-256"/>
<text text-anchor="start" x="5.5" y="-264" font-family="Times,serif" font-size="10.00" fill="#000000">ownerId: NUMBER</text>
<polygon fill="none" stroke="#000000" points=".5,-234 .5,-256 161.5,-256 161.5,-234 .5,-234"/>
<text text-anchor="start" x="5.0615" y="-242" font-family="Times,serif" font-size="10.00" fill="#000000">canReverseCardOnDeck: BOOLEAN</text>
<polygon fill="none" stroke="#000000" points=".5,-212 .5,-234 161.5,-234 161.5,-212 .5,-212"/>
<text text-anchor="start" x="5.5" y="-220" font-family="Times,serif" font-size="10.00" fill="#000000">createdAt: DATE</text>
<polygon fill="none" stroke="#000000" points=".5,-190 .5,-212 161.5,-212 161.5,-190 .5,-190"/>
<text text-anchor="start" x="5.5" y="-198" font-family="Times,serif" font-size="10.00" fill="#000000">updatedAt: DATE</text>
</g>
<!-- Part&#45;&gt;PrototypeVersion -->
<g id="edge9" class="edge">
<title>Part&#45;&gt;PrototypeVersion</title>
<path fill="none" stroke="#0000ff" d="M173.0726,-410C211.9224,-410 256.3268,-410 292.2681,-410"/>
<polygon fill="#0000ff" stroke="#0000ff" points="161.0234,-405.8 173.0233,-410.0001 161.0233,-414.2 161.0234,-405.8"/>
<polygon fill="#0000ff" stroke="#0000ff" points="292.6051,-410.0001 304.6051,-415.4 298.6051,-410 304.6051,-410 304.6051,-410 304.6051,-410 298.6051,-410 304.605,-404.6 292.6051,-410.0001 292.6051,-410.0001"/>
</g>
<!-- Player -->
<g id="node7" class="node">
<title>Player</title>
<polygon fill="#add8e6" stroke="transparent" points="19.5,-132 19.5,-154 142.5,-154 142.5,-132 19.5,-132"/>
<polygon fill="none" stroke="#000000" points="19.5,-132 19.5,-154 142.5,-154 142.5,-132 19.5,-132"/>
<text text-anchor="start" x="68.2275" y="-141" font-family="Times,serif" font-weight="bold" font-size="10.00" fill="#000000">Player</text>
<polygon fill="none" stroke="#000000" points="19.5,-110 19.5,-132 142.5,-132 142.5,-110 19.5,-110"/>
<text text-anchor="start" x="24.5" y="-119" font-family="Times,serif" text-decoration="underline" font-size="10.00" fill="#000000">id</text>
<text text-anchor="start" x="32.279" y="-119" font-family="Times,serif" font-size="10.00" fill="#000000">: NUMBER</text>
<polygon fill="none" stroke="#000000" points="19.5,-88 19.5,-110 142.5,-110 142.5,-88 19.5,-88"/>
<text text-anchor="start" x="24.5" y="-97" font-family="Times,serif" font-style="italic" text-decoration="underline" font-size="10.00" fill="#000000">prototypeVersionId</text>
<text text-anchor="start" x="102.81" y="-97" font-family="Times,serif" font-size="10.00" fill="#000000">: UUID</text>
<polygon fill="none" stroke="#000000" points="19.5,-66 19.5,-88 142.5,-88 142.5,-66 19.5,-66"/>
<text text-anchor="start" x="24.5" y="-74" font-family="Times,serif" font-size="10.00" fill="#000000">playerName: STRING</text>
<polygon fill="none" stroke="#000000" points="19.5,-44 19.5,-66 142.5,-66 142.5,-44 19.5,-44"/>
<text text-anchor="start" x="24.484" y="-52" font-family="Times,serif" font-size="10.00" fill="#000000">originalPlayerId: NUMBER</text>
<polygon fill="none" stroke="#000000" points="19.5,-22 19.5,-44 142.5,-44 142.5,-22 19.5,-22"/>
<text text-anchor="start" x="24.5" y="-30" font-family="Times,serif" font-size="10.00" fill="#000000">createdAt: DATE</text>
<polygon fill="none" stroke="#000000" points="19.5,0 19.5,-22 142.5,-22 142.5,0 19.5,0"/>
<text text-anchor="start" x="24.5" y="-8" font-family="Times,serif" font-size="10.00" fill="#000000">updatedAt: DATE</text>
</g>
<!-- Player&#45;&gt;PrototypeVersion -->
<g id="edge10" class="edge">
<title>Player&#45;&gt;PrototypeVersion</title>
<path fill="none" stroke="#0000ff" d="M149.8391,-158.7984C153.6157,-163.263 157.3551,-167.6859 161,-172 206.5064,-225.8601 257.7236,-286.6597 297.002,-333.3252"/>
<polygon fill="#0000ff" stroke="#0000ff" points="145.2596,-146.8841 149.8047,-158.7577 138.8472,-152.3101 145.2596,-146.8841"/>
<polygon fill="#0000ff" stroke="#0000ff" points="297.2171,-333.5809 300.8128,-346.2392 301.0807,-338.1714 304.9443,-342.762 304.9443,-342.762 304.9443,-342.762 301.0807,-338.1714 309.0758,-339.2847 297.2171,-333.5809 297.2171,-333.5809"/>
</g>
<!-- Player&#45;&gt;UserPlayer -->
<g id="edge4" class="edge">
<title>Player&#45;&gt;UserPlayer</title>
<path fill="none" stroke="#0000ff" d="M153.9627,-99.8759C347.346,-160.0945 867.5389,-322.0799 1041.184,-376.1521"/>
<polygon fill="#0000ff" stroke="#0000ff" points="153.7248,-99.8019 143.873,-91.0783 147.9962,-98.018 142.2675,-96.2341 142.2675,-96.2341 142.2675,-96.2341 147.9962,-98.018 140.6619,-101.3899 153.7248,-99.8019 153.7248,-99.8019"/>
<polygon fill="#0000ff" stroke="#0000ff" points="1041.3801,-376.2131 1051.232,-384.9367 1047.1088,-377.997 1052.8375,-379.7809 1052.8375,-379.7809 1052.8375,-379.7809 1047.1088,-377.997 1054.443,-374.6251 1041.3801,-376.2131 1041.3801,-376.2131"/>
</g>
</g>
</svg>
