<?xml version="1.0" encoding="UTF-8" standalone="no"?>
<!DOCTYPE svg PUBLIC "-//W3C//DTD SVG 1.1//EN"
 "http://www.w3.org/Graphics/SVG/1.1/DTD/svg11.dtd">
<!-- Generated by graphviz version 2.40.1 (20161225.0304)
 -->
<!-- Title: models_diagram Pages: 1 -->
<svg width="1445pt" height="1016pt"
 viewBox="0.00 0.00 1445.00 1016.00" xmlns="http://www.w3.org/2000/svg" xmlns:xlink="http://www.w3.org/1999/xlink">
<g id="graph0" class="graph" transform="scale(1 1) rotate(0) translate(36 980)">
<title>models_diagram</title>
<polygon fill="#ffffff" stroke="transparent" points="-36,36 -36,-980 1409,-980 1409,36 -36,36"/>
<!-- User -->
<g id="node1" class="node">
<title>User</title>
<polygon fill="#add8e6" stroke="transparent" points="1049.5,-561 1049.5,-583 1138.5,-583 1138.5,-561 1049.5,-561"/>
<polygon fill="none" stroke="#000000" points="1049.5,-561 1049.5,-583 1138.5,-583 1138.5,-561 1049.5,-561"/>
<text text-anchor="start" x="1084.562" y="-570" font-family="Times,serif" font-weight="bold" font-size="10.00" fill="#000000">User</text>
<polygon fill="none" stroke="#000000" points="1049.5,-539 1049.5,-561 1138.5,-561 1138.5,-539 1049.5,-539"/>
<text text-anchor="start" x="1054.5" y="-548" font-family="Times,serif" text-decoration="underline" font-size="10.00" fill="#000000">id</text>
<text text-anchor="start" x="1062.279" y="-548" font-family="Times,serif" font-size="10.00" fill="#000000">: UUID</text>
<polygon fill="none" stroke="#000000" points="1049.5,-517 1049.5,-539 1138.5,-539 1138.5,-517 1049.5,-517"/>
<text text-anchor="start" x="1054.5" y="-525" font-family="Times,serif" font-size="10.00" fill="#000000">googleId: STRING</text>
<polygon fill="none" stroke="#000000" points="1049.5,-495 1049.5,-517 1138.5,-517 1138.5,-495 1049.5,-495"/>
<text text-anchor="start" x="1054.1515" y="-503" font-family="Times,serif" font-size="10.00" fill="#000000">username: STRING</text>
<polygon fill="none" stroke="#000000" points="1049.5,-473 1049.5,-495 1138.5,-495 1138.5,-473 1049.5,-473"/>
<text text-anchor="start" x="1054.5" y="-481" font-family="Times,serif" font-size="10.00" fill="#000000">createdAt: DATE</text>
<polygon fill="none" stroke="#000000" points="1049.5,-451 1049.5,-473 1138.5,-473 1138.5,-451 1049.5,-451"/>
<text text-anchor="start" x="1054.5" y="-459" font-family="Times,serif" font-size="10.00" fill="#000000">updatedAt: DATE</text>
</g>
<!-- UserAccess -->
<g id="node10" class="node">
<title>UserAccess</title>
<polygon fill="#add8e6" stroke="transparent" points="1282.5,-669 1282.5,-691 1373.5,-691 1373.5,-669 1282.5,-669"/>
<polygon fill="none" stroke="#000000" points="1282.5,-669 1282.5,-691 1373.5,-691 1373.5,-669 1282.5,-669"/>
<text text-anchor="start" x="1304.405" y="-678" font-family="Times,serif" font-weight="bold" font-size="10.00" fill="#000000">UserAccess</text>
<polygon fill="none" stroke="#000000" points="1282.5,-647 1282.5,-669 1373.5,-669 1373.5,-647 1282.5,-647"/>
<text text-anchor="start" x="1287.5" y="-656" font-family="Times,serif" text-decoration="underline" font-size="10.00" fill="#000000">userId</text>
<text text-anchor="start" x="1312.486" y="-656" font-family="Times,serif" font-size="10.00" fill="#000000">: UUID</text>
<polygon fill="none" stroke="#000000" points="1282.5,-625 1282.5,-647 1373.5,-647 1373.5,-625 1282.5,-625"/>
<text text-anchor="start" x="1287.042" y="-634" font-family="Times,serif" text-decoration="underline" font-size="10.00" fill="#000000">accessId</text>
<text text-anchor="start" x="1320.905" y="-634" font-family="Times,serif" font-size="10.00" fill="#000000">: NUMBER</text>
</g>
<!-- User&#45;&gt;UserAccess -->
<g id="edge1" class="edge">
<title>User&#45;&gt;UserAccess</title>
<path fill="none" stroke="#0000ff" d="M1148.5912,-550.196C1185.5393,-572.4596 1234.0568,-601.6945 1271.2446,-624.1025"/>
<polygon fill="#0000ff" stroke="#0000ff" points="1148.3427,-550.0463 1140.8514,-539.2277 1143.2035,-546.9496 1138.0644,-543.8529 1138.0644,-543.8529 1138.0644,-543.8529 1143.2035,-546.9496 1135.2774,-548.4781 1148.3427,-550.0463 1148.3427,-550.0463"/>
<polygon fill="#0000ff" stroke="#0000ff" points="1271.6258,-624.3322 1279.1171,-635.1508 1276.765,-627.4289 1281.9041,-630.5256 1281.9041,-630.5256 1281.9041,-630.5256 1276.765,-627.4289 1284.6911,-625.9003 1271.6258,-624.3322 1271.6258,-624.3322"/>
</g>
<!-- Prototype -->
<g id="node2" class="node">
<title>Prototype</title>
<polygon fill="#add8e6" stroke="transparent" points="801,-605 801,-627 905,-627 905,-605 801,-605"/>
<polygon fill="none" stroke="#000000" points="801,-605 801,-627 905,-627 905,-605 801,-605"/>
<text text-anchor="start" x="833.5575" y="-614" font-family="Times,serif" font-weight="bold" font-size="10.00" fill="#000000">Prototype</text>
<polygon fill="none" stroke="#000000" points="801,-583 801,-605 905,-605 905,-583 801,-583"/>
<text text-anchor="start" x="806" y="-592" font-family="Times,serif" text-decoration="underline" font-size="10.00" fill="#000000">id</text>
<text text-anchor="start" x="813.779" y="-592" font-family="Times,serif" font-size="10.00" fill="#000000">: UUID</text>
<polygon fill="none" stroke="#000000" points="801,-561 801,-583 905,-583 905,-561 801,-561"/>
<text text-anchor="start" x="806" y="-570" font-family="Times,serif" font-style="italic" text-decoration="underline" font-size="10.00" fill="#000000">userId</text>
<text text-anchor="start" x="830.986" y="-570" font-family="Times,serif" font-size="10.00" fill="#000000">: UUID</text>
<polygon fill="none" stroke="#000000" points="801,-539 801,-561 905,-561 905,-539 801,-539"/>
<text text-anchor="start" x="806" y="-547" font-family="Times,serif" font-size="10.00" fill="#000000">name: STRING</text>
<polygon fill="none" stroke="#000000" points="801,-517 801,-539 905,-539 905,-517 801,-517"/>
<text text-anchor="start" x="806" y="-525" font-family="Times,serif" font-size="10.00" fill="#000000">type: ENUM</text>
<polygon fill="none" stroke="#000000" points="801,-495 801,-517 905,-517 905,-495 801,-495"/>
<text text-anchor="start" x="806" y="-503" font-family="Times,serif" font-size="10.00" fill="#000000">groupId: UUID</text>
<polygon fill="none" stroke="#000000" points="801,-473 801,-495 905,-495 905,-473 801,-473"/>
<text text-anchor="start" x="806" y="-481" font-family="Times,serif" font-size="10.00" fill="#000000">minPlayers: NUMBER</text>
<polygon fill="none" stroke="#000000" points="801,-451 801,-473 905,-473 905,-451 801,-451"/>
<text text-anchor="start" x="805.6475" y="-459" font-family="Times,serif" font-size="10.00" fill="#000000">maxPlayers: NUMBER</text>
<polygon fill="none" stroke="#000000" points="801,-429 801,-451 905,-451 905,-429 801,-429"/>
<text text-anchor="start" x="806" y="-437" font-family="Times,serif" font-size="10.00" fill="#000000">createdAt: DATE</text>
<polygon fill="none" stroke="#000000" points="801,-407 801,-429 905,-429 905,-407 801,-407"/>
<text text-anchor="start" x="806" y="-415" font-family="Times,serif" font-size="10.00" fill="#000000">updatedAt: DATE</text>
</g>
<!-- Prototype&#45;&gt;User -->
<g id="edge3" class="edge">
<title>Prototype&#45;&gt;User</title>
<path fill="none" stroke="#0000ff" d="M917.3849,-517C954.4897,-517 1000.7188,-517 1036.5019,-517"/>
<polygon fill="#0000ff" stroke="#0000ff" points="905.185,-512.8 917.1849,-517.0001 905.1849,-521.2 905.185,-512.8"/>
<polygon fill="#0000ff" stroke="#0000ff" points="1036.6911,-517.0001 1048.6912,-522.4 1042.6911,-517 1048.6911,-517 1048.6911,-517 1048.6911,-517 1042.6911,-517 1048.6911,-511.6 1036.6911,-517.0001 1036.6911,-517.0001"/>
</g>
<!-- PrototypeGroup -->
<g id="node3" class="node">
<title>PrototypeGroup</title>
<polygon fill="#add8e6" stroke="transparent" points="557.5,-684 557.5,-706 643.5,-706 643.5,-684 557.5,-684"/>
<polygon fill="none" stroke="#000000" points="557.5,-684 557.5,-706 643.5,-706 643.5,-684 557.5,-684"/>
<text text-anchor="start" x="568.2835" y="-693" font-family="Times,serif" font-weight="bold" font-size="10.00" fill="#000000">PrototypeGroup</text>
<polygon fill="none" stroke="#000000" points="557.5,-662 557.5,-684 643.5,-684 643.5,-662 557.5,-662"/>
<text text-anchor="start" x="562.5" y="-671" font-family="Times,serif" text-decoration="underline" font-size="10.00" fill="#000000">id</text>
<text text-anchor="start" x="570.279" y="-671" font-family="Times,serif" font-size="10.00" fill="#000000">: UUID</text>
<polygon fill="none" stroke="#000000" points="557.5,-640 557.5,-662 643.5,-662 643.5,-640 557.5,-640"/>
<text text-anchor="start" x="562.04" y="-649" font-family="Times,serif" text-decoration="underline" font-size="10.00" fill="#000000">prototypeId</text>
<text text-anchor="start" x="608.695" y="-649" font-family="Times,serif" font-size="10.00" fill="#000000">: UUID</text>
</g>
<!-- PrototypeGroup&#45;&gt;Prototype -->
<g id="edge4" class="edge">
<title>PrototypeGroup&#45;&gt;Prototype</title>
<path fill="none" stroke="#0000ff" d="M653.9586,-639.9721C693.8845,-615.305 748.5628,-581.5236 790.509,-555.6083"/>
<polygon fill="#0000ff" stroke="#0000ff" points="641.4119,-642.7868 653.8282,-640.0526 645.8269,-649.933 641.4119,-642.7868"/>
<polygon fill="#0000ff" stroke="#0000ff" points="790.6734,-555.5067 803.7205,-553.7935 795.7778,-552.3531 800.8822,-549.1995 800.8822,-549.1995 800.8822,-549.1995 795.7778,-552.3531 798.044,-544.6055 790.6734,-555.5067 790.6734,-555.5067"/>
</g>
<!-- Access -->
<g id="node4" class="node">
<title>Access</title>
<polygon fill="#add8e6" stroke="transparent" points="263.5,-922 263.5,-944 375.5,-944 375.5,-922 263.5,-922"/>
<polygon fill="none" stroke="#000000" points="263.5,-922 263.5,-944 375.5,-944 375.5,-922 263.5,-922"/>
<text text-anchor="start" x="305.343" y="-931" font-family="Times,serif" font-weight="bold" font-size="10.00" fill="#000000">Access</text>
<polygon fill="none" stroke="#000000" points="263.5,-900 263.5,-922 375.5,-922 375.5,-900 263.5,-900"/>
<text text-anchor="start" x="268.5" y="-909" font-family="Times,serif" text-decoration="underline" font-size="10.00" fill="#000000">id</text>
<text text-anchor="start" x="276.279" y="-909" font-family="Times,serif" font-size="10.00" fill="#000000">: NUMBER</text>
<polygon fill="none" stroke="#000000" points="263.5,-878 263.5,-900 375.5,-900 375.5,-878 263.5,-878"/>
<text text-anchor="start" x="268.266" y="-886" font-family="Times,serif" font-size="10.00" fill="#000000">prototypeGroupId: UUID</text>
<polygon fill="none" stroke="#000000" points="263.5,-856 263.5,-878 375.5,-878 375.5,-856 263.5,-856"/>
<text text-anchor="start" x="268.5" y="-864" font-family="Times,serif" font-size="10.00" fill="#000000">name: STRING</text>
</g>
<!-- Access&#45;&gt;PrototypeGroup -->
<g id="edge5" class="edge">
<title>Access&#45;&gt;PrototypeGroup</title>
<path fill="none" stroke="#0000ff" d="M385.2136,-849.668C390.232,-845.7389 395.2066,-841.8166 400,-838 452.239,-796.406 511.1517,-747.7048 551.5258,-714.0464"/>
<polygon fill="#0000ff" stroke="#0000ff" points="372.9626,-853.8939 385.0087,-849.8278 378.1275,-860.5184 372.9626,-853.8939"/>
<polygon fill="#0000ff" stroke="#0000ff" points="551.652,-713.9411 564.3254,-710.3989 556.2588,-710.097 560.8656,-706.2528 560.8656,-706.2528 560.8656,-706.2528 556.2588,-710.097 557.4059,-702.1067 551.652,-713.9411 551.652,-713.9411"/>
</g>
<!-- Access&#45;&gt;UserAccess -->
<g id="edge2" class="edge">
<title>Access&#45;&gt;UserAccess</title>
<path fill="none" stroke="#0000ff" d="M387.7177,-883.6223C575.2104,-838.6092 1095.94,-713.5928 1269.9998,-671.8046"/>
<polygon fill="#0000ff" stroke="#0000ff" points="387.5228,-883.6691 374.5937,-881.2197 381.6886,-885.0698 375.8544,-886.4705 375.8544,-886.4705 375.8544,-886.4705 381.6886,-885.0698 377.115,-891.7213 387.5228,-883.6691 387.5228,-883.6691"/>
<polygon fill="#0000ff" stroke="#0000ff" points="1270.2552,-671.7434 1283.1843,-674.1927 1276.0894,-670.3427 1281.9237,-668.9419 1281.9237,-668.9419 1281.9237,-668.9419 1276.0894,-670.3427 1280.663,-663.6911 1270.2552,-671.7434 1270.2552,-671.7434"/>
</g>
<!-- Image -->
<g id="node5" class="node">
<title>Image</title>
<polygon fill="#add8e6" stroke="transparent" points="267.5,-798 267.5,-820 371.5,-820 371.5,-798 267.5,-798"/>
<polygon fill="none" stroke="#000000" points="267.5,-798 267.5,-820 371.5,-820 371.5,-798 267.5,-798"/>
<text text-anchor="start" x="307.007" y="-807" font-family="Times,serif" font-weight="bold" font-size="10.00" fill="#000000">Image</text>
<polygon fill="none" stroke="#000000" points="267.5,-776 267.5,-798 371.5,-798 371.5,-776 267.5,-776"/>
<text text-anchor="start" x="272.5" y="-785" font-family="Times,serif" text-decoration="underline" font-size="10.00" fill="#000000">id</text>
<text text-anchor="start" x="280.279" y="-785" font-family="Times,serif" font-size="10.00" fill="#000000">: UUID</text>
<polygon fill="none" stroke="#000000" points="267.5,-754 267.5,-776 371.5,-776 371.5,-754 267.5,-754"/>
<text text-anchor="start" x="272.4275" y="-762" font-family="Times,serif" font-size="10.00" fill="#000000">displayName: STRING</text>
<polygon fill="none" stroke="#000000" points="267.5,-732 267.5,-754 371.5,-754 371.5,-732 267.5,-732"/>
<text text-anchor="start" x="272.5" y="-740" font-family="Times,serif" font-size="10.00" fill="#000000">storagePath: STRING</text>
<polygon fill="none" stroke="#000000" points="267.5,-710 267.5,-732 371.5,-732 371.5,-710 267.5,-710"/>
<text text-anchor="start" x="272.5" y="-718" font-family="Times,serif" font-size="10.00" fill="#000000">contentType: STRING</text>
<polygon fill="none" stroke="#000000" points="267.5,-688 267.5,-710 371.5,-710 371.5,-688 267.5,-688"/>
<text text-anchor="start" x="272.5" y="-696" font-family="Times,serif" font-size="10.00" fill="#000000">fileSize: NUMBER</text>
<polygon fill="none" stroke="#000000" points="267.5,-666 267.5,-688 371.5,-688 371.5,-666 267.5,-666"/>
<text text-anchor="start" x="272.5" y="-675" font-family="Times,serif" font-style="italic" text-decoration="underline" font-size="10.00" fill="#000000">uploaderUserId</text>
<text text-anchor="start" x="334.691" y="-675" font-family="Times,serif" font-size="10.00" fill="#000000">: UUID</text>
<polygon fill="none" stroke="#000000" points="267.5,-644 267.5,-666 371.5,-666 371.5,-644 267.5,-644"/>
<text text-anchor="start" x="272.5" y="-652" font-family="Times,serif" font-size="10.00" fill="#000000">createdAt: DATE</text>
<polygon fill="none" stroke="#000000" points="267.5,-622 267.5,-644 371.5,-644 371.5,-622 267.5,-622"/>
<text text-anchor="start" x="272.5" y="-630" font-family="Times,serif" font-size="10.00" fill="#000000">updatedAt: DATE</text>
</g>
<!-- PrototypeVersion -->
<g id="node6" class="node">
<title>PrototypeVersion</title>
<polygon fill="#add8e6" stroke="transparent" points="544.5,-443 544.5,-465 657.5,-465 657.5,-443 544.5,-443"/>
<polygon fill="none" stroke="#000000" points="544.5,-443 544.5,-465 657.5,-465 657.5,-443 544.5,-443"/>
<text text-anchor="start" x="565.73" y="-452" font-family="Times,serif" font-weight="bold" font-size="10.00" fill="#000000">PrototypeVersion</text>
<polygon fill="none" stroke="#000000" points="544.5,-421 544.5,-443 657.5,-443 657.5,-421 544.5,-421"/>
<text text-anchor="start" x="549.5" y="-430" font-family="Times,serif" text-decoration="underline" font-size="10.00" fill="#000000">id</text>
<text text-anchor="start" x="557.279" y="-430" font-family="Times,serif" font-size="10.00" fill="#000000">: UUID</text>
<polygon fill="none" stroke="#000000" points="544.5,-399 544.5,-421 657.5,-421 657.5,-399 544.5,-399"/>
<text text-anchor="start" x="549.5" y="-408" font-family="Times,serif" font-style="italic" text-decoration="underline" font-size="10.00" fill="#000000">prototypeId</text>
<text text-anchor="start" x="596.155" y="-408" font-family="Times,serif" font-size="10.00" fill="#000000">: UUID</text>
<polygon fill="none" stroke="#000000" points="544.5,-377 544.5,-399 657.5,-399 657.5,-377 544.5,-377"/>
<text text-anchor="start" x="549.2075" y="-385" font-family="Times,serif" font-size="10.00" fill="#000000">versionNumber: STRING</text>
<polygon fill="none" stroke="#000000" points="544.5,-355 544.5,-377 657.5,-377 657.5,-355 544.5,-355"/>
<text text-anchor="start" x="549.5" y="-363" font-family="Times,serif" font-size="10.00" fill="#000000">createdAt: DATE</text>
<polygon fill="none" stroke="#000000" points="544.5,-333 544.5,-355 657.5,-355 657.5,-333 544.5,-333"/>
<text text-anchor="start" x="549.5" y="-341" font-family="Times,serif" font-size="10.00" fill="#000000">updatedAt: DATE</text>
</g>
<!-- PrototypeVersion&#45;&gt;Prototype -->
<g id="edge6" class="edge">
<title>PrototypeVersion&#45;&gt;Prototype</title>
<path fill="none" stroke="#0000ff" d="M668.0563,-430.5709C705.8199,-448.2188 752.5955,-470.0783 789.6564,-487.3978"/>
<polygon fill="#0000ff" stroke="#0000ff" points="658.9441,-421.6765 668.0374,-430.5621 655.3877,-429.2865 658.9441,-421.6765"/>
<polygon fill="#0000ff" stroke="#0000ff" points="789.954,-487.5369 798.5392,-497.5096 795.3897,-490.0771 800.8254,-492.6174 800.8254,-492.6174 800.8254,-492.6174 795.3897,-490.0771 803.1117,-487.7253 789.954,-487.5369 789.954,-487.5369"/>
</g>
<!-- Part -->
<g id="node7" class="node">
<title>Part</title>
<polygon fill="#add8e6" stroke="transparent" points="239.5,-564 239.5,-586 400.5,-586 400.5,-564 239.5,-564"/>
<polygon fill="none" stroke="#000000" points="239.5,-564 239.5,-586 400.5,-586 400.5,-564 239.5,-564"/>
<text text-anchor="start" x="311.947" y="-573" font-family="Times,serif" font-weight="bold" font-size="10.00" fill="#000000">Part</text>
<polygon fill="none" stroke="#000000" points="239.5,-542 239.5,-564 400.5,-564 400.5,-542 239.5,-542"/>
<text text-anchor="start" x="244.5" y="-551" font-family="Times,serif" text-decoration="underline" font-size="10.00" fill="#000000">id</text>
<text text-anchor="start" x="252.279" y="-551" font-family="Times,serif" font-size="10.00" fill="#000000">: NUMBER</text>
<polygon fill="none" stroke="#000000" points="239.5,-520 239.5,-542 400.5,-542 400.5,-520 239.5,-520"/>
<text text-anchor="start" x="244.5" y="-528" font-family="Times,serif" font-size="10.00" fill="#000000">type: ENUM</text>
<polygon fill="none" stroke="#000000" points="239.5,-498 239.5,-520 400.5,-520 400.5,-498 239.5,-498"/>
<text text-anchor="start" x="244.5" y="-507" font-family="Times,serif" font-style="italic" text-decoration="underline" font-size="10.00" fill="#000000">prototypeVersionId</text>
<text text-anchor="start" x="322.81" y="-507" font-family="Times,serif" font-size="10.00" fill="#000000">: UUID</text>
<polygon fill="none" stroke="#000000" points="239.5,-476 239.5,-498 400.5,-498 400.5,-476 239.5,-476"/>
<text text-anchor="start" x="244.5" y="-484" font-family="Times,serif" font-size="10.00" fill="#000000">parentId: NUMBER</text>
<polygon fill="none" stroke="#000000" points="239.5,-454 239.5,-476 400.5,-476 400.5,-454 239.5,-454"/>
<text text-anchor="start" x="244.5" y="-462" font-family="Times,serif" font-size="10.00" fill="#000000">position: JSON</text>
<polygon fill="none" stroke="#000000" points="239.5,-432 239.5,-454 400.5,-454 400.5,-432 239.5,-432"/>
<text text-anchor="start" x="244.5" y="-440" font-family="Times,serif" font-size="10.00" fill="#000000">width: NUMBER</text>
<polygon fill="none" stroke="#000000" points="239.5,-410 239.5,-432 400.5,-432 400.5,-410 239.5,-410"/>
<text text-anchor="start" x="244.5" y="-418" font-family="Times,serif" font-size="10.00" fill="#000000">height: NUMBER</text>
<polygon fill="none" stroke="#000000" points="239.5,-388 239.5,-410 400.5,-410 400.5,-388 239.5,-388"/>
<text text-anchor="start" x="244.5" y="-396" font-family="Times,serif" font-size="10.00" fill="#000000">order: NUMBER</text>
<polygon fill="none" stroke="#000000" points="239.5,-366 239.5,-388 400.5,-388 400.5,-366 239.5,-366"/>
<text text-anchor="start" x="244.5" y="-374" font-family="Times,serif" font-size="10.00" fill="#000000">configurableTypeAsChild: ARRAY</text>
<polygon fill="none" stroke="#000000" points="239.5,-344 239.5,-366 400.5,-366 400.5,-344 239.5,-344"/>
<text text-anchor="start" x="244.5" y="-352" font-family="Times,serif" font-size="10.00" fill="#000000">originalPartId: NUMBER</text>
<polygon fill="none" stroke="#000000" points="239.5,-322 239.5,-344 400.5,-344 400.5,-322 239.5,-322"/>
<text text-anchor="start" x="244.5" y="-330" font-family="Times,serif" font-size="10.00" fill="#000000">isReversible: BOOLEAN</text>
<polygon fill="none" stroke="#000000" points="239.5,-300 239.5,-322 400.5,-322 400.5,-300 239.5,-300"/>
<text text-anchor="start" x="244.5" y="-308" font-family="Times,serif" font-size="10.00" fill="#000000">isFlipped: BOOLEAN</text>
<polygon fill="none" stroke="#000000" points="239.5,-278 239.5,-300 400.5,-300 400.5,-278 239.5,-278"/>
<text text-anchor="start" x="244.5" y="-286" font-family="Times,serif" font-size="10.00" fill="#000000">ownerId: NUMBER</text>
<polygon fill="none" stroke="#000000" points="239.5,-256 239.5,-278 400.5,-278 400.5,-256 239.5,-256"/>
<text text-anchor="start" x="244.0615" y="-264" font-family="Times,serif" font-size="10.00" fill="#000000">canReverseCardOnDeck: BOOLEAN</text>
<polygon fill="none" stroke="#000000" points="239.5,-234 239.5,-256 400.5,-256 400.5,-234 239.5,-234"/>
<text text-anchor="start" x="244.5" y="-242" font-family="Times,serif" font-size="10.00" fill="#000000">createdAt: DATE</text>
<polygon fill="none" stroke="#000000" points="239.5,-212 239.5,-234 400.5,-234 400.5,-212 239.5,-212"/>
<text text-anchor="start" x="244.5" y="-220" font-family="Times,serif" font-size="10.00" fill="#000000">updatedAt: DATE</text>
</g>
<!-- Part&#45;&gt;PrototypeVersion -->
<g id="edge7" class="edge">
<title>Part&#45;&gt;PrototypeVersion</title>
<path fill="none" stroke="#0000ff" d="M412.0726,-399C450.9224,-399 495.3268,-399 531.2681,-399"/>
<polygon fill="#0000ff" stroke="#0000ff" points="400.0234,-394.8 412.0233,-399.0001 400.0233,-403.2 400.0234,-394.8"/>
<polygon fill="#0000ff" stroke="#0000ff" points="531.6051,-399.0001 543.6051,-404.4 537.6051,-399 543.6051,-399 543.6051,-399 543.6051,-399 537.6051,-399 543.605,-393.6 531.6051,-399.0001 531.6051,-399.0001"/>
</g>
<!-- PartProperty -->
<g id="node8" class="node">
<title>PartProperty</title>
<polygon fill="#add8e6" stroke="transparent" points=".5,-648 .5,-670 95.5,-670 95.5,-648 .5,-648"/>
<polygon fill="none" stroke="#000000" points=".5,-648 .5,-670 95.5,-670 95.5,-648 .5,-648"/>
<text text-anchor="start" x="22.7295" y="-657" font-family="Times,serif" font-weight="bold" font-size="10.00" fill="#000000">PartProperty</text>
<polygon fill="none" stroke="#000000" points=".5,-626 .5,-648 95.5,-648 95.5,-626 .5,-626"/>
<text text-anchor="start" x="5.5" y="-635" font-family="Times,serif" text-decoration="underline" font-size="10.00" fill="#000000">partId</text>
<text text-anchor="start" x="29.376" y="-635" font-family="Times,serif" font-size="10.00" fill="#000000">: NUMBER</text>
<polygon fill="none" stroke="#000000" points=".5,-604 .5,-626 95.5,-626 95.5,-604 .5,-604"/>
<text text-anchor="start" x="5.5" y="-613" font-family="Times,serif" text-decoration="underline" font-size="10.00" fill="#000000">side</text>
<text text-anchor="start" x="21.607" y="-613" font-family="Times,serif" font-size="10.00" fill="#000000">: ENUM</text>
<polygon fill="none" stroke="#000000" points=".5,-582 .5,-604 95.5,-604 95.5,-582 .5,-582"/>
<text text-anchor="start" x="5.5" y="-590" font-family="Times,serif" font-size="10.00" fill="#000000">name: STRING</text>
<polygon fill="none" stroke="#000000" points=".5,-560 .5,-582 95.5,-582 95.5,-560 .5,-560"/>
<text text-anchor="start" x="5.092" y="-568" font-family="Times,serif" font-size="10.00" fill="#000000">description: STRING</text>
<polygon fill="none" stroke="#000000" points=".5,-538 .5,-560 95.5,-560 95.5,-538 .5,-538"/>
<text text-anchor="start" x="5.5" y="-546" font-family="Times,serif" font-size="10.00" fill="#000000">color: STRING</text>
<polygon fill="none" stroke="#000000" points=".5,-516 .5,-538 95.5,-538 95.5,-516 .5,-516"/>
<text text-anchor="start" x="5.5" y="-524" font-family="Times,serif" font-size="10.00" fill="#000000">textColor: STRING</text>
<polygon fill="none" stroke="#000000" points=".5,-494 .5,-516 95.5,-516 95.5,-494 .5,-494"/>
<text text-anchor="start" x="5.5" y="-503" font-family="Times,serif" font-style="italic" text-decoration="underline" font-size="10.00" fill="#000000">imageId</text>
<text text-anchor="start" x="38.265" y="-503" font-family="Times,serif" font-size="10.00" fill="#000000">: UUID</text>
<polygon fill="none" stroke="#000000" points=".5,-472 .5,-494 95.5,-494 95.5,-472 .5,-472"/>
<text text-anchor="start" x="5.5" y="-480" font-family="Times,serif" font-size="10.00" fill="#000000">createdAt: DATE</text>
<polygon fill="none" stroke="#000000" points=".5,-450 .5,-472 95.5,-472 95.5,-450 .5,-450"/>
<text text-anchor="start" x="5.5" y="-458" font-family="Times,serif" font-size="10.00" fill="#000000">updatedAt: DATE</text>
</g>
<!-- PartProperty&#45;&gt;Image -->
<g id="edge9" class="edge">
<title>PartProperty&#45;&gt;Image</title>
<path fill="none" stroke="#0000ff" d="M105.7141,-594.4576C150.1801,-620.7776 211.3596,-656.9904 256.8817,-683.9355"/>
<polygon fill="#0000ff" stroke="#0000ff" points="97.3294,-584.614 105.5166,-594.3408 93.0507,-591.8426 97.3294,-584.614"/>
<polygon fill="#0000ff" stroke="#0000ff" points="256.8926,-683.9419 264.4686,-694.7013 262.0559,-686.9981 267.2192,-690.0544 267.2192,-690.0544 267.2192,-690.0544 262.0559,-686.9981 269.9698,-685.4074 256.8926,-683.9419 256.8926,-683.9419"/>
</g>
<!-- PartProperty&#45;&gt;Part -->
<g id="edge8" class="edge">
<title>PartProperty&#45;&gt;Part</title>
<path fill="none" stroke="#0000ff" d="M105.7753,-525.5062C141.4558,-504.3865 187.8807,-476.907 228.3426,-452.9572"/>
<polygon fill="#0000ff" stroke="#0000ff" points="93.0507,-528.1574 105.5166,-525.6592 97.3294,-535.386 93.0507,-528.1574"/>
<polygon fill="#0000ff" stroke="#0000ff" points="228.4359,-452.902 241.5131,-451.4365 233.5992,-449.8457 238.7625,-446.7895 238.7625,-446.7895 238.7625,-446.7895 233.5992,-449.8457 236.0119,-442.1425 228.4359,-452.902 228.4359,-452.902"/>
</g>
<!-- Player -->
<g id="node9" class="node">
<title>Player</title>
<polygon fill="#add8e6" stroke="transparent" points="258.5,-154 258.5,-176 381.5,-176 381.5,-154 258.5,-154"/>
<polygon fill="none" stroke="#000000" points="258.5,-154 258.5,-176 381.5,-176 381.5,-154 258.5,-154"/>
<text text-anchor="start" x="307.2275" y="-163" font-family="Times,serif" font-weight="bold" font-size="10.00" fill="#000000">Player</text>
<polygon fill="none" stroke="#000000" points="258.5,-132 258.5,-154 381.5,-154 381.5,-132 258.5,-132"/>
<text text-anchor="start" x="263.5" y="-141" font-family="Times,serif" text-decoration="underline" font-size="10.00" fill="#000000">id</text>
<text text-anchor="start" x="271.279" y="-141" font-family="Times,serif" font-size="10.00" fill="#000000">: NUMBER</text>
<polygon fill="none" stroke="#000000" points="258.5,-110 258.5,-132 381.5,-132 381.5,-110 258.5,-110"/>
<text text-anchor="start" x="263.5" y="-119" font-family="Times,serif" font-style="italic" text-decoration="underline" font-size="10.00" fill="#000000">prototypeVersionId</text>
<text text-anchor="start" x="341.81" y="-119" font-family="Times,serif" font-size="10.00" fill="#000000">: UUID</text>
<polygon fill="none" stroke="#000000" points="258.5,-88 258.5,-110 381.5,-110 381.5,-88 258.5,-88"/>
<text text-anchor="start" x="263.5" y="-97" font-family="Times,serif" font-style="italic" text-decoration="underline" font-size="10.00" fill="#000000">userId</text>
<text text-anchor="start" x="288.486" y="-97" font-family="Times,serif" font-size="10.00" fill="#000000">: UUID</text>
<polygon fill="none" stroke="#000000" points="258.5,-66 258.5,-88 381.5,-88 381.5,-66 258.5,-66"/>
<text text-anchor="start" x="263.5" y="-74" font-family="Times,serif" font-size="10.00" fill="#000000">playerName: STRING</text>
<polygon fill="none" stroke="#000000" points="258.5,-44 258.5,-66 381.5,-66 381.5,-44 258.5,-44"/>
<text text-anchor="start" x="263.484" y="-52" font-family="Times,serif" font-size="10.00" fill="#000000">originalPlayerId: NUMBER</text>
<polygon fill="none" stroke="#000000" points="258.5,-22 258.5,-44 381.5,-44 381.5,-22 258.5,-22"/>
<text text-anchor="start" x="263.5" y="-30" font-family="Times,serif" font-size="10.00" fill="#000000">createdAt: DATE</text>
<polygon fill="none" stroke="#000000" points="258.5,0 258.5,-22 381.5,-22 381.5,0 258.5,0"/>
<text text-anchor="start" x="263.5" y="-8" font-family="Times,serif" font-size="10.00" fill="#000000">updatedAt: DATE</text>
</g>
<!-- Player&#45;&gt;User -->
<g id="edge11" class="edge">
<title>Player&#45;&gt;User</title>
<path fill="none" stroke="#0000ff" d="M392.2519,-121.8736C504.4858,-174.9105 725.648,-282.5392 905,-389 951.3284,-416.4999 1001.7148,-450.968 1038.7287,-477.2065"/>
<polygon fill="#0000ff" stroke="#0000ff" points="382.8716,-112.8059 391.9335,-121.7234 379.2884,-120.4033 382.8716,-112.8059"/>
<polygon fill="#0000ff" stroke="#0000ff" points="1039.0238,-477.4165 1045.6676,-488.7753 1043.9116,-480.8964 1048.7995,-484.3762 1048.7995,-484.3762 1048.7995,-484.3762 1043.9116,-480.8964 1051.9313,-479.9772 1039.0238,-477.4165 1039.0238,-477.4165"/>
</g>
<!-- Player&#45;&gt;PrototypeVersion -->
<g id="edge10" class="edge">
<title>Player&#45;&gt;PrototypeVersion</title>
<path fill="none" stroke="#0000ff" d="M389.2918,-165.2429C434.1071,-214.8427 491.9042,-278.8103 535.7054,-327.2878"/>
<polygon fill="#0000ff" stroke="#0000ff" points="384.283,-153.4345 389.2116,-165.1541 378.0503,-159.066 384.283,-153.4345"/>
<polygon fill="#0000ff" stroke="#0000ff" points="535.9476,-327.5559 539.9859,-340.08 539.9701,-332.0078 543.9926,-336.4598 543.9926,-336.4598 543.9926,-336.4598 539.9701,-332.0078 547.9993,-332.8395 535.9476,-327.5559 535.9476,-327.5559"/>
</g>
</g>
</svg>
