<?xml version="1.0" encoding="UTF-8" standalone="no"?>
<!DOCTYPE svg PUBLIC "-//W3C//DTD SVG 1.1//EN"
 "http://www.w3.org/Graphics/SVG/1.1/DTD/svg11.dtd">
<!-- Generated by graphviz version 2.40.1 (20161225.0304)
 -->
<!-- Title: models_diagram Pages: 1 -->
<svg width="1211pt" height="1224pt"
 viewBox="0.00 0.00 1211.00 1224.00" xmlns="http://www.w3.org/2000/svg" xmlns:xlink="http://www.w3.org/1999/xlink">
<g id="graph0" class="graph" transform="scale(1 1) rotate(0) translate(36 1188)">
<title>models_diagram</title>
<polygon fill="#ffffff" stroke="transparent" points="-36,36 -36,-1188 1175,-1188 1175,36 -36,36"/>
<!-- Image -->
<g id="node1" class="node">
<title>Image</title>
<polygon fill="#add8e6" stroke="transparent" points="282.5,-586 282.5,-608 386.5,-608 386.5,-586 282.5,-586"/>
<polygon fill="none" stroke="#000000" points="282.5,-586 282.5,-608 386.5,-608 386.5,-586 282.5,-586"/>
<text text-anchor="start" x="322.007" y="-595" font-family="Times,serif" font-weight="bold" font-size="10.00" fill="#000000">Image</text>
<polygon fill="none" stroke="#000000" points="282.5,-564 282.5,-586 386.5,-586 386.5,-564 282.5,-564"/>
<text text-anchor="start" x="287.5" y="-573" font-family="Times,serif" text-decoration="underline" font-size="10.00" fill="#000000">id</text>
<text text-anchor="start" x="295.279" y="-573" font-family="Times,serif" font-size="10.00" fill="#000000">: UUID</text>
<polygon fill="none" stroke="#000000" points="282.5,-542 282.5,-564 386.5,-564 386.5,-542 282.5,-542"/>
<text text-anchor="start" x="287.4275" y="-550" font-family="Times,serif" font-size="10.00" fill="#000000">displayName: STRING</text>
<polygon fill="none" stroke="#000000" points="282.5,-520 282.5,-542 386.5,-542 386.5,-520 282.5,-520"/>
<text text-anchor="start" x="287.5" y="-528" font-family="Times,serif" font-size="10.00" fill="#000000">storagePath: STRING</text>
<polygon fill="none" stroke="#000000" points="282.5,-498 282.5,-520 386.5,-520 386.5,-498 282.5,-498"/>
<text text-anchor="start" x="287.5" y="-506" font-family="Times,serif" font-size="10.00" fill="#000000">contentType: STRING</text>
<polygon fill="none" stroke="#000000" points="282.5,-476 282.5,-498 386.5,-498 386.5,-476 282.5,-476"/>
<text text-anchor="start" x="287.5" y="-484" font-family="Times,serif" font-size="10.00" fill="#000000">fileSize: NUMBER</text>
<polygon fill="none" stroke="#000000" points="282.5,-454 282.5,-476 386.5,-476 386.5,-454 282.5,-454"/>
<text text-anchor="start" x="287.5" y="-463" font-family="Times,serif" font-style="italic" text-decoration="underline" font-size="10.00" fill="#000000">uploaderUserId</text>
<text text-anchor="start" x="349.691" y="-463" font-family="Times,serif" font-size="10.00" fill="#000000">: UUID</text>
<polygon fill="none" stroke="#000000" points="282.5,-432 282.5,-454 386.5,-454 386.5,-432 282.5,-432"/>
<text text-anchor="start" x="287.5" y="-440" font-family="Times,serif" font-size="10.00" fill="#000000">createdAt: DATE</text>
<polygon fill="none" stroke="#000000" points="282.5,-410 282.5,-432 386.5,-432 386.5,-410 282.5,-410"/>
<text text-anchor="start" x="287.5" y="-418" font-family="Times,serif" font-size="10.00" fill="#000000">updatedAt: DATE</text>
</g>
<!-- User -->
<g id="node2" class="node">
<title>User</title>
<polygon fill="#add8e6" stroke="transparent" points="1050.5,-232 1050.5,-254 1139.5,-254 1139.5,-232 1050.5,-232"/>
<polygon fill="none" stroke="#000000" points="1050.5,-232 1050.5,-254 1139.5,-254 1139.5,-232 1050.5,-232"/>
<text text-anchor="start" x="1085.562" y="-241" font-family="Times,serif" font-weight="bold" font-size="10.00" fill="#000000">User</text>
<polygon fill="none" stroke="#000000" points="1050.5,-210 1050.5,-232 1139.5,-232 1139.5,-210 1050.5,-210"/>
<text text-anchor="start" x="1055.5" y="-219" font-family="Times,serif" text-decoration="underline" font-size="10.00" fill="#000000">id</text>
<text text-anchor="start" x="1063.279" y="-219" font-family="Times,serif" font-size="10.00" fill="#000000">: UUID</text>
<polygon fill="none" stroke="#000000" points="1050.5,-188 1050.5,-210 1139.5,-210 1139.5,-188 1050.5,-188"/>
<text text-anchor="start" x="1055.5" y="-196" font-family="Times,serif" font-size="10.00" fill="#000000">googleId: STRING</text>
<polygon fill="none" stroke="#000000" points="1050.5,-166 1050.5,-188 1139.5,-188 1139.5,-166 1050.5,-166"/>
<text text-anchor="start" x="1055.1515" y="-174" font-family="Times,serif" font-size="10.00" fill="#000000">username: STRING</text>
<polygon fill="none" stroke="#000000" points="1050.5,-144 1050.5,-166 1139.5,-166 1139.5,-144 1050.5,-144"/>
<text text-anchor="start" x="1055.5" y="-152" font-family="Times,serif" font-size="10.00" fill="#000000">createdAt: DATE</text>
<polygon fill="none" stroke="#000000" points="1050.5,-122 1050.5,-144 1139.5,-144 1139.5,-122 1050.5,-122"/>
<text text-anchor="start" x="1055.5" y="-130" font-family="Times,serif" font-size="10.00" fill="#000000">updatedAt: DATE</text>
</g>
<!-- PrototypeGroup -->
<g id="node3" class="node">
<title>PrototypeGroup</title>
<polygon fill="#add8e6" stroke="transparent" points="823.5,-166 823.5,-188 906.5,-188 906.5,-166 823.5,-166"/>
<polygon fill="none" stroke="#000000" points="823.5,-166 823.5,-188 906.5,-188 906.5,-166 823.5,-166"/>
<text text-anchor="start" x="832.7835" y="-175" font-family="Times,serif" font-weight="bold" font-size="10.00" fill="#000000">PrototypeGroup</text>
<polygon fill="none" stroke="#000000" points="823.5,-144 823.5,-166 906.5,-166 906.5,-144 823.5,-144"/>
<text text-anchor="start" x="828.5" y="-153" font-family="Times,serif" text-decoration="underline" font-size="10.00" fill="#000000">id</text>
<text text-anchor="start" x="836.279" y="-153" font-family="Times,serif" font-size="10.00" fill="#000000">: UUID</text>
<polygon fill="none" stroke="#000000" points="823.5,-122 823.5,-144 906.5,-144 906.5,-122 823.5,-122"/>
<text text-anchor="start" x="828.5" y="-131" font-family="Times,serif" font-style="italic" text-decoration="underline" font-size="10.00" fill="#000000">userId</text>
<text text-anchor="start" x="853.486" y="-131" font-family="Times,serif" font-size="10.00" fill="#000000">: UUID</text>
<polygon fill="none" stroke="#000000" points="823.5,-100 823.5,-122 906.5,-122 906.5,-100 823.5,-100"/>
<text text-anchor="start" x="828.5" y="-108" font-family="Times,serif" font-size="10.00" fill="#000000">createdAt: DATE</text>
<polygon fill="none" stroke="#000000" points="823.5,-78 823.5,-100 906.5,-100 906.5,-78 823.5,-78"/>
<text text-anchor="start" x="828.205" y="-86" font-family="Times,serif" font-size="10.00" fill="#000000">updatedAt: DATE</text>
</g>
<!-- PrototypeGroup&#45;&gt;User -->
<g id="edge1" class="edge">
<title>PrototypeGroup&#45;&gt;User</title>
<path fill="none" stroke="#0000ff" d="M918.0634,-145.8086C953.9463,-154.3893 1001.1257,-165.6714 1037.6683,-174.4098"/>
<polygon fill="#0000ff" stroke="#0000ff" points="907.1281,-138.8753 917.8222,-145.751 905.1744,-147.0449 907.1281,-138.8753"/>
<polygon fill="#0000ff" stroke="#0000ff" points="1037.9506,-174.4772 1048.3656,-182.5201 1043.7861,-175.8727 1049.6216,-177.2682 1049.6216,-177.2682 1049.6216,-177.2682 1043.7861,-175.8727 1050.8775,-172.0163 1037.9506,-174.4772 1037.9506,-174.4772"/>
</g>
<!-- Prototype -->
<g id="node4" class="node">
<title>Prototype</title>
<polygon fill="#add8e6" stroke="transparent" points="559,-182 559,-204 679,-204 679,-182 559,-182"/>
<polygon fill="none" stroke="#000000" points="559,-182 559,-204 679,-204 679,-182 559,-182"/>
<text text-anchor="start" x="599.5575" y="-191" font-family="Times,serif" font-weight="bold" font-size="10.00" fill="#000000">Prototype</text>
<polygon fill="none" stroke="#000000" points="559,-160 559,-182 679,-182 679,-160 559,-160"/>
<text text-anchor="start" x="564" y="-169" font-family="Times,serif" text-decoration="underline" font-size="10.00" fill="#000000">id</text>
<text text-anchor="start" x="571.779" y="-169" font-family="Times,serif" font-size="10.00" fill="#000000">: UUID</text>
<polygon fill="none" stroke="#000000" points="559,-138 559,-160 679,-160 679,-138 559,-138"/>
<text text-anchor="start" x="564" y="-147" font-family="Times,serif" font-style="italic" text-decoration="underline" font-size="10.00" fill="#000000">prototypeGroupId</text>
<text text-anchor="start" x="636.203" y="-147" font-family="Times,serif" font-size="10.00" fill="#000000">: UUID</text>
<polygon fill="none" stroke="#000000" points="559,-116 559,-138 679,-138 679,-116 559,-116"/>
<text text-anchor="start" x="564" y="-124" font-family="Times,serif" font-size="10.00" fill="#000000">name: STRING</text>
<polygon fill="none" stroke="#000000" points="559,-94 559,-116 679,-116 679,-94 559,-94"/>
<text text-anchor="start" x="564" y="-102" font-family="Times,serif" font-size="10.00" fill="#000000">type: ENUM</text>
<polygon fill="none" stroke="#000000" points="559,-72 559,-94 679,-94 679,-72 559,-72"/>
<text text-anchor="start" x="563.8725" y="-80" font-family="Times,serif" font-size="10.00" fill="#000000">versionNumber: NUMBER</text>
<polygon fill="none" stroke="#000000" points="559,-50 559,-72 679,-72 679,-50 559,-50"/>
<text text-anchor="start" x="564" y="-58" font-family="Times,serif" font-size="10.00" fill="#000000">createdAt: DATE</text>
<polygon fill="none" stroke="#000000" points="559,-28 559,-50 679,-50 679,-28 559,-28"/>
<text text-anchor="start" x="564" y="-36" font-family="Times,serif" font-size="10.00" fill="#000000">updatedAt: DATE</text>
</g>
<!-- Prototype&#45;&gt;PrototypeGroup -->
<g id="edge2" class="edge">
<title>Prototype&#45;&gt;PrototypeGroup</title>
<path fill="none" stroke="#0000ff" d="M691.1342,-120.995C729.2747,-123.6361 775.3193,-126.8246 810.3677,-129.2515"/>
<polygon fill="#0000ff" stroke="#0000ff" points="679.3462,-115.9687 691.0274,-120.9877 678.7659,-124.3486 679.3462,-115.9687"/>
<polygon fill="#0000ff" stroke="#0000ff" points="810.7765,-129.2797 822.3747,-135.4959 816.7622,-129.6943 822.7478,-130.1088 822.7478,-130.1088 822.7478,-130.1088 816.7622,-129.6943 823.1209,-124.7217 810.7765,-129.2797 810.7765,-129.2797"/>
</g>
<!-- Part -->
<g id="node5" class="node">
<title>Part</title>
<polygon fill="#add8e6" stroke="transparent" points="254.5,-352 254.5,-374 415.5,-374 415.5,-352 254.5,-352"/>
<polygon fill="none" stroke="#000000" points="254.5,-352 254.5,-374 415.5,-374 415.5,-352 254.5,-352"/>
<text text-anchor="start" x="326.947" y="-361" font-family="Times,serif" font-weight="bold" font-size="10.00" fill="#000000">Part</text>
<polygon fill="none" stroke="#000000" points="254.5,-330 254.5,-352 415.5,-352 415.5,-330 254.5,-330"/>
<text text-anchor="start" x="259.5" y="-339" font-family="Times,serif" text-decoration="underline" font-size="10.00" fill="#000000">id</text>
<text text-anchor="start" x="267.279" y="-339" font-family="Times,serif" font-size="10.00" fill="#000000">: NUMBER</text>
<polygon fill="none" stroke="#000000" points="254.5,-308 254.5,-330 415.5,-330 415.5,-308 254.5,-308"/>
<text text-anchor="start" x="259.5" y="-316" font-family="Times,serif" font-size="10.00" fill="#000000">type: ENUM</text>
<polygon fill="none" stroke="#000000" points="254.5,-286 254.5,-308 415.5,-308 415.5,-286 254.5,-286"/>
<text text-anchor="start" x="259.5" y="-295" font-family="Times,serif" font-style="italic" text-decoration="underline" font-size="10.00" fill="#000000">prototypeId</text>
<text text-anchor="start" x="306.155" y="-295" font-family="Times,serif" font-size="10.00" fill="#000000">: UUID</text>
<polygon fill="none" stroke="#000000" points="254.5,-264 254.5,-286 415.5,-286 415.5,-264 254.5,-264"/>
<text text-anchor="start" x="259.5" y="-273" font-family="Times,serif" font-style="italic" text-decoration="underline" font-size="10.00" fill="#000000">parentId</text>
<text text-anchor="start" x="292.815" y="-273" font-family="Times,serif" font-size="10.00" fill="#000000">: NUMBER</text>
<polygon fill="none" stroke="#000000" points="254.5,-242 254.5,-264 415.5,-264 415.5,-242 254.5,-242"/>
<text text-anchor="start" x="259.5" y="-250" font-family="Times,serif" font-size="10.00" fill="#000000">position: JSON</text>
<polygon fill="none" stroke="#000000" points="254.5,-220 254.5,-242 415.5,-242 415.5,-220 254.5,-220"/>
<text text-anchor="start" x="259.5" y="-228" font-family="Times,serif" font-size="10.00" fill="#000000">width: NUMBER</text>
<polygon fill="none" stroke="#000000" points="254.5,-198 254.5,-220 415.5,-220 415.5,-198 254.5,-198"/>
<text text-anchor="start" x="259.5" y="-206" font-family="Times,serif" font-size="10.00" fill="#000000">height: NUMBER</text>
<polygon fill="none" stroke="#000000" points="254.5,-176 254.5,-198 415.5,-198 415.5,-176 254.5,-176"/>
<text text-anchor="start" x="259.5" y="-184" font-family="Times,serif" font-size="10.00" fill="#000000">order: NUMBER</text>
<polygon fill="none" stroke="#000000" points="254.5,-154 254.5,-176 415.5,-176 415.5,-154 254.5,-154"/>
<text text-anchor="start" x="259.5" y="-162" font-family="Times,serif" font-size="10.00" fill="#000000">configurableTypeAsChild: ARRAY</text>
<polygon fill="none" stroke="#000000" points="254.5,-132 254.5,-154 415.5,-154 415.5,-132 254.5,-132"/>
<text text-anchor="start" x="259.5" y="-141" font-family="Times,serif" font-style="italic" text-decoration="underline" font-size="10.00" fill="#000000">originalPartId</text>
<text text-anchor="start" x="315.04" y="-141" font-family="Times,serif" font-size="10.00" fill="#000000">: NUMBER</text>
<polygon fill="none" stroke="#000000" points="254.5,-110 254.5,-132 415.5,-132 415.5,-110 254.5,-110"/>
<text text-anchor="start" x="259.5" y="-118" font-family="Times,serif" font-size="10.00" fill="#000000">isReversible: BOOLEAN</text>
<polygon fill="none" stroke="#000000" points="254.5,-88 254.5,-110 415.5,-110 415.5,-88 254.5,-88"/>
<text text-anchor="start" x="259.5" y="-96" font-family="Times,serif" font-size="10.00" fill="#000000">isFlipped: BOOLEAN</text>
<polygon fill="none" stroke="#000000" points="254.5,-66 254.5,-88 415.5,-88 415.5,-66 254.5,-66"/>
<text text-anchor="start" x="259.5" y="-75" font-family="Times,serif" font-style="italic" text-decoration="underline" font-size="10.00" fill="#000000">ownerId</text>
<text text-anchor="start" x="292.816" y="-75" font-family="Times,serif" font-size="10.00" fill="#000000">: UUID</text>
<polygon fill="none" stroke="#000000" points="254.5,-44 254.5,-66 415.5,-66 415.5,-44 254.5,-44"/>
<text text-anchor="start" x="259.0615" y="-52" font-family="Times,serif" font-size="10.00" fill="#000000">canReverseCardOnDeck: BOOLEAN</text>
<polygon fill="none" stroke="#000000" points="254.5,-22 254.5,-44 415.5,-44 415.5,-22 254.5,-22"/>
<text text-anchor="start" x="259.5" y="-30" font-family="Times,serif" font-size="10.00" fill="#000000">createdAt: DATE</text>
<polygon fill="none" stroke="#000000" points="254.5,0 254.5,-22 415.5,-22 415.5,0 254.5,0"/>
<text text-anchor="start" x="259.5" y="-8" font-family="Times,serif" font-size="10.00" fill="#000000">updatedAt: DATE</text>
</g>
<!-- Part&#45;&gt;User -->
<g id="edge4" class="edge">
<title>Part&#45;&gt;User</title>
<path fill="none" stroke="#0000ff" d="M427.1828,-204.7474C467.5128,-211.6134 515.4236,-218.6236 559,-222 712.9247,-233.9266 752.1427,-218.7663 906,-206 950.2991,-202.3243 1000.3893,-197.5099 1037.7947,-193.7851"/>
<polygon fill="#0000ff" stroke="#0000ff" points="415.9145,-198.5353 427.0227,-204.7198 414.4823,-206.8123 415.9145,-198.5353"/>
<polygon fill="#0000ff" stroke="#0000ff" points="1038.0267,-193.762 1050.5048,-197.9401 1043.9969,-193.1644 1049.967,-192.5669 1049.967,-192.5669 1049.967,-192.5669 1043.9969,-193.1644 1049.4293,-187.1938 1038.0267,-193.762 1038.0267,-193.762"/>
</g>
<!-- Part&#45;&gt;Prototype -->
<g id="edge3" class="edge">
<title>Part&#45;&gt;Prototype</title>
<path fill="none" stroke="#0000ff" d="M426.9787,-163.921C465.867,-154.216 510.434,-143.0938 546.8372,-134.009"/>
<polygon fill="#0000ff" stroke="#0000ff" points="414.2483,-162.7691 426.9082,-163.9385 416.2823,-170.9192 414.2483,-162.7691"/>
<polygon fill="#0000ff" stroke="#0000ff" points="547.2067,-133.9168 560.1572,-136.2505 553.0282,-132.464 558.8496,-131.0112 558.8496,-131.0112 558.8496,-131.0112 553.0282,-132.464 557.5421,-125.7719 547.2067,-133.9168 547.2067,-133.9168"/>
</g>
<!-- PartProperty -->
<g id="node6" class="node">
<title>PartProperty</title>
<polygon fill="#add8e6" stroke="transparent" points="8,-436 8,-458 103,-458 103,-436 8,-436"/>
<polygon fill="none" stroke="#000000" points="8,-436 8,-458 103,-458 103,-436 8,-436"/>
<text text-anchor="start" x="30.2295" y="-445" font-family="Times,serif" font-weight="bold" font-size="10.00" fill="#000000">PartProperty</text>
<polygon fill="none" stroke="#000000" points="8,-414 8,-436 103,-436 103,-414 8,-414"/>
<text text-anchor="start" x="13" y="-423" font-family="Times,serif" text-decoration="underline" font-size="10.00" fill="#000000">partId</text>
<text text-anchor="start" x="36.876" y="-423" font-family="Times,serif" font-size="10.00" fill="#000000">: NUMBER</text>
<polygon fill="none" stroke="#000000" points="8,-392 8,-414 103,-414 103,-392 8,-392"/>
<text text-anchor="start" x="13" y="-401" font-family="Times,serif" text-decoration="underline" font-size="10.00" fill="#000000">side</text>
<text text-anchor="start" x="29.107" y="-401" font-family="Times,serif" font-size="10.00" fill="#000000">: ENUM</text>
<polygon fill="none" stroke="#000000" points="8,-370 8,-392 103,-392 103,-370 8,-370"/>
<text text-anchor="start" x="13" y="-378" font-family="Times,serif" font-size="10.00" fill="#000000">name: STRING</text>
<polygon fill="none" stroke="#000000" points="8,-348 8,-370 103,-370 103,-348 8,-348"/>
<text text-anchor="start" x="12.592" y="-356" font-family="Times,serif" font-size="10.00" fill="#000000">description: STRING</text>
<polygon fill="none" stroke="#000000" points="8,-326 8,-348 103,-348 103,-326 8,-326"/>
<text text-anchor="start" x="13" y="-334" font-family="Times,serif" font-size="10.00" fill="#000000">color: STRING</text>
<polygon fill="none" stroke="#000000" points="8,-304 8,-326 103,-326 103,-304 8,-304"/>
<text text-anchor="start" x="13" y="-312" font-family="Times,serif" font-size="10.00" fill="#000000">textColor: STRING</text>
<polygon fill="none" stroke="#000000" points="8,-282 8,-304 103,-304 103,-282 8,-282"/>
<text text-anchor="start" x="13" y="-291" font-family="Times,serif" font-style="italic" text-decoration="underline" font-size="10.00" fill="#000000">imageId</text>
<text text-anchor="start" x="45.765" y="-291" font-family="Times,serif" font-size="10.00" fill="#000000">: UUID</text>
<polygon fill="none" stroke="#000000" points="8,-260 8,-282 103,-282 103,-260 8,-260"/>
<text text-anchor="start" x="13" y="-268" font-family="Times,serif" font-size="10.00" fill="#000000">createdAt: DATE</text>
<polygon fill="none" stroke="#000000" points="8,-238 8,-260 103,-260 103,-238 8,-238"/>
<text text-anchor="start" x="13" y="-246" font-family="Times,serif" font-size="10.00" fill="#000000">updatedAt: DATE</text>
</g>
<!-- PartProperty&#45;&gt;Image -->
<g id="edge6" class="edge">
<title>PartProperty&#45;&gt;Image</title>
<path fill="none" stroke="#0000ff" d="M113.3395,-381.6052C159.6677,-408.2916 224.3229,-445.5348 271.7623,-472.8613"/>
<polygon fill="#0000ff" stroke="#0000ff" points="104.8266,-371.8546 113.1284,-381.4837 100.6338,-379.1333 104.8266,-371.8546"/>
<polygon fill="#0000ff" stroke="#0000ff" points="271.8169,-472.8927 279.5197,-483.5616 277.016,-475.8875 282.2151,-478.8824 282.2151,-478.8824 282.2151,-478.8824 277.016,-475.8875 284.9105,-474.2032 271.8169,-472.8927 271.8169,-472.8927"/>
</g>
<!-- PartProperty&#45;&gt;Part -->
<g id="edge5" class="edge">
<title>PartProperty&#45;&gt;Part</title>
<path fill="none" stroke="#0000ff" d="M113.2916,-314.4224C150.9164,-292.7494 200.6438,-264.105 243.4195,-239.465"/>
<polygon fill="#0000ff" stroke="#0000ff" points="100.6338,-316.8667 113.1284,-314.5163 104.8266,-324.1454 100.6338,-316.8667"/>
<polygon fill="#0000ff" stroke="#0000ff" points="243.4496,-239.4477 256.5432,-238.1372 248.6487,-236.4528 253.8479,-233.4579 253.8479,-233.4579 253.8479,-233.4579 248.6487,-236.4528 251.1525,-228.7787 243.4496,-239.4477 243.4496,-239.4477"/>
</g>
<!-- Permission -->
<g id="node7" class="node">
<title>Permission</title>
<polygon fill="#add8e6" stroke="transparent" points="8,-648 8,-670 103,-670 103,-648 8,-648"/>
<polygon fill="none" stroke="#000000" points="8,-648 8,-670 103,-670 103,-648 8,-648"/>
<text text-anchor="start" x="33.279" y="-657" font-family="Times,serif" font-weight="bold" font-size="10.00" fill="#000000">Permission</text>
<polygon fill="none" stroke="#000000" points="8,-626 8,-648 103,-648 103,-626 8,-626"/>
<text text-anchor="start" x="13" y="-635" font-family="Times,serif" text-decoration="underline" font-size="10.00" fill="#000000">id</text>
<text text-anchor="start" x="20.779" y="-635" font-family="Times,serif" font-size="10.00" fill="#000000">: NUMBER</text>
<polygon fill="none" stroke="#000000" points="8,-604 8,-626 103,-626 103,-604 8,-604"/>
<text text-anchor="start" x="13" y="-612" font-family="Times,serif" font-size="10.00" fill="#000000">name: STRING</text>
<polygon fill="none" stroke="#000000" points="8,-582 8,-604 103,-604 103,-582 8,-582"/>
<text text-anchor="start" x="13" y="-590" font-family="Times,serif" font-size="10.00" fill="#000000">resource: STRING</text>
<polygon fill="none" stroke="#000000" points="8,-560 8,-582 103,-582 103,-560 8,-560"/>
<text text-anchor="start" x="13" y="-568" font-family="Times,serif" font-size="10.00" fill="#000000">action: STRING</text>
<polygon fill="none" stroke="#000000" points="8,-538 8,-560 103,-560 103,-538 8,-538"/>
<text text-anchor="start" x="12.592" y="-546" font-family="Times,serif" font-size="10.00" fill="#000000">description: STRING</text>
<polygon fill="none" stroke="#000000" points="8,-516 8,-538 103,-538 103,-516 8,-516"/>
<text text-anchor="start" x="13" y="-524" font-family="Times,serif" font-size="10.00" fill="#000000">createdAt: DATE</text>
<polygon fill="none" stroke="#000000" points="8,-494 8,-516 103,-516 103,-494 8,-494"/>
<text text-anchor="start" x="13" y="-502" font-family="Times,serif" font-size="10.00" fill="#000000">updatedAt: DATE</text>
</g>
<!-- Role -->
<g id="node8" class="node">
<title>Role</title>
<polygon fill="#add8e6" stroke="transparent" points="8,-816 8,-838 103,-838 103,-816 8,-816"/>
<polygon fill="none" stroke="#000000" points="8,-816 8,-838 103,-838 103,-816 8,-816"/>
<text text-anchor="start" x="46.0565" y="-825" font-family="Times,serif" font-weight="bold" font-size="10.00" fill="#000000">Role</text>
<polygon fill="none" stroke="#000000" points="8,-794 8,-816 103,-816 103,-794 8,-794"/>
<text text-anchor="start" x="13" y="-803" font-family="Times,serif" text-decoration="underline" font-size="10.00" fill="#000000">id</text>
<text text-anchor="start" x="20.779" y="-803" font-family="Times,serif" font-size="10.00" fill="#000000">: NUMBER</text>
<polygon fill="none" stroke="#000000" points="8,-772 8,-794 103,-794 103,-772 8,-772"/>
<text text-anchor="start" x="13" y="-780" font-family="Times,serif" font-size="10.00" fill="#000000">name: STRING</text>
<polygon fill="none" stroke="#000000" points="8,-750 8,-772 103,-772 103,-750 8,-750"/>
<text text-anchor="start" x="12.592" y="-758" font-family="Times,serif" font-size="10.00" fill="#000000">description: STRING</text>
<polygon fill="none" stroke="#000000" points="8,-728 8,-750 103,-750 103,-728 8,-728"/>
<text text-anchor="start" x="13" y="-736" font-family="Times,serif" font-size="10.00" fill="#000000">createdAt: DATE</text>
<polygon fill="none" stroke="#000000" points="8,-706 8,-728 103,-728 103,-706 8,-706"/>
<text text-anchor="start" x="13" y="-714" font-family="Times,serif" font-size="10.00" fill="#000000">updatedAt: DATE</text>
</g>
<!-- RolePermission -->
<g id="node9" class="node">
<title>RolePermission</title>
<polygon fill="#add8e6" stroke="transparent" points="0,-918 0,-940 110,-940 110,-918 0,-918"/>
<polygon fill="none" stroke="#000000" points="0,-918 0,-940 110,-940 110,-918 0,-918"/>
<text text-anchor="start" x="23.3355" y="-927" font-family="Times,serif" font-weight="bold" font-size="10.00" fill="#000000">RolePermission</text>
<polygon fill="none" stroke="#000000" points="0,-896 0,-918 110,-918 110,-896 0,-896"/>
<text text-anchor="start" x="5" y="-905" font-family="Times,serif" text-decoration="underline" font-size="10.00" fill="#000000">roleId</text>
<text text-anchor="start" x="28.876" y="-905" font-family="Times,serif" font-size="10.00" fill="#000000">: NUMBER</text>
<polygon fill="none" stroke="#000000" points="0,-874 0,-896 110,-896 110,-874 0,-874"/>
<text text-anchor="start" x="4.8675" y="-883" font-family="Times,serif" text-decoration="underline" font-size="10.00" fill="#000000">permissionId</text>
<text text-anchor="start" x="57.0795" y="-883" font-family="Times,serif" font-size="10.00" fill="#000000">: NUMBER</text>
</g>
<!-- UserRole -->
<g id="node10" class="node">
<title>UserRole</title>
<polygon fill="#add8e6" stroke="transparent" points="3,-1130 3,-1152 108,-1152 108,-1130 3,-1130"/>
<polygon fill="none" stroke="#000000" points="3,-1130 3,-1152 108,-1152 108,-1130 3,-1130"/>
<text text-anchor="start" x="36.6185" y="-1139" font-family="Times,serif" font-weight="bold" font-size="10.00" fill="#000000">UserRole</text>
<polygon fill="none" stroke="#000000" points="3,-1108 3,-1130 108,-1130 108,-1108 3,-1108"/>
<text text-anchor="start" x="8" y="-1117" font-family="Times,serif" text-decoration="underline" font-size="10.00" fill="#000000">id</text>
<text text-anchor="start" x="15.779" y="-1117" font-family="Times,serif" font-size="10.00" fill="#000000">: NUMBER</text>
<polygon fill="none" stroke="#000000" points="3,-1086 3,-1108 108,-1108 108,-1086 3,-1086"/>
<text text-anchor="start" x="8" y="-1095" font-family="Times,serif" font-style="italic" text-decoration="underline" font-size="10.00" fill="#000000">userId</text>
<text text-anchor="start" x="32.986" y="-1095" font-family="Times,serif" font-size="10.00" fill="#000000">: UUID</text>
<polygon fill="none" stroke="#000000" points="3,-1064 3,-1086 108,-1086 108,-1064 3,-1064"/>
<text text-anchor="start" x="8" y="-1073" font-family="Times,serif" font-style="italic" text-decoration="underline" font-size="10.00" fill="#000000">roleId</text>
<text text-anchor="start" x="31.876" y="-1073" font-family="Times,serif" font-size="10.00" fill="#000000">: NUMBER</text>
<polygon fill="none" stroke="#000000" points="3,-1042 3,-1064 108,-1064 108,-1042 3,-1042"/>
<text text-anchor="start" x="7.6025" y="-1050" font-family="Times,serif" font-size="10.00" fill="#000000">resourceType: STRING</text>
<polygon fill="none" stroke="#000000" points="3,-1020 3,-1042 108,-1042 108,-1020 3,-1020"/>
<text text-anchor="start" x="8" y="-1028" font-family="Times,serif" font-size="10.00" fill="#000000">resourceId: STRING</text>
<polygon fill="none" stroke="#000000" points="3,-998 3,-1020 108,-1020 108,-998 3,-998"/>
<text text-anchor="start" x="8" y="-1006" font-family="Times,serif" font-size="10.00" fill="#000000">createdAt: DATE</text>
<polygon fill="none" stroke="#000000" points="3,-976 3,-998 108,-998 108,-976 3,-976"/>
<text text-anchor="start" x="8" y="-984" font-family="Times,serif" font-size="10.00" fill="#000000">updatedAt: DATE</text>
</g>
</g>
</svg>
