<?xml version="1.0" encoding="UTF-8" standalone="no"?>
<!DOCTYPE svg PUBLIC "-//W3C//DTD SVG 1.1//EN"
 "http://www.w3.org/Graphics/SVG/1.1/DTD/svg11.dtd">
<!-- Generated by graphviz version 2.40.1 (20161225.0304)
 -->
<!-- Title: models_diagram Pages: 1 -->
<svg width="1235pt" height="680pt"
 viewBox="0.00 0.00 1235.00 680.00" xmlns="http://www.w3.org/2000/svg" xmlns:xlink="http://www.w3.org/1999/xlink">
<g id="graph0" class="graph" transform="scale(1 1) rotate(0) translate(36 644)">
<title>models_diagram</title>
<polygon fill="#ffffff" stroke="transparent" points="-36,36 -36,-644 1199,-644 1199,36 -36,36"/>
<!-- User -->
<g id="node1" class="node">
<title>User</title>
<polygon fill="#add8e6" stroke="transparent" points="813.5,-275 813.5,-297 902.5,-297 902.5,-275 813.5,-275"/>
<polygon fill="none" stroke="#000000" points="813.5,-275 813.5,-297 902.5,-297 902.5,-275 813.5,-275"/>
<text text-anchor="start" x="848.562" y="-284" font-family="Times,serif" font-weight="bold" font-size="10.00" fill="#000000">User</text>
<polygon fill="none" stroke="#000000" points="813.5,-253 813.5,-275 902.5,-275 902.5,-253 813.5,-253"/>
<text text-anchor="start" x="818.5" y="-262" font-family="Times,serif" text-decoration="underline" font-size="10.00" fill="#000000">id</text>
<text text-anchor="start" x="826.279" y="-262" font-family="Times,serif" font-size="10.00" fill="#000000">: UUID</text>
<polygon fill="none" stroke="#000000" points="813.5,-231 813.5,-253 902.5,-253 902.5,-231 813.5,-231"/>
<text text-anchor="start" x="818.5" y="-239" font-family="Times,serif" font-size="10.00" fill="#000000">googleId: STRING</text>
<polygon fill="none" stroke="#000000" points="813.5,-209 813.5,-231 902.5,-231 902.5,-209 813.5,-209"/>
<text text-anchor="start" x="818.1515" y="-217" font-family="Times,serif" font-size="10.00" fill="#000000">username: STRING</text>
<polygon fill="none" stroke="#000000" points="813.5,-187 813.5,-209 902.5,-209 902.5,-187 813.5,-187"/>
<text text-anchor="start" x="818.5" y="-195" font-family="Times,serif" font-size="10.00" fill="#000000">createdAt: DATE</text>
<polygon fill="none" stroke="#000000" points="813.5,-165 813.5,-187 902.5,-187 902.5,-165 813.5,-165"/>
<text text-anchor="start" x="818.5" y="-173" font-family="Times,serif" font-size="10.00" fill="#000000">updatedAt: DATE</text>
</g>
<!-- UserAccess -->
<g id="node8" class="node">
<title>UserAccess</title>
<polygon fill="#add8e6" stroke="transparent" points="1046.5,-306 1046.5,-328 1163.5,-328 1163.5,-306 1046.5,-306"/>
<polygon fill="none" stroke="#000000" points="1046.5,-306 1046.5,-328 1163.5,-328 1163.5,-306 1046.5,-306"/>
<text text-anchor="start" x="1081.405" y="-315" font-family="Times,serif" font-weight="bold" font-size="10.00" fill="#000000">UserAccess</text>
<polygon fill="none" stroke="#000000" points="1046.5,-284 1046.5,-306 1163.5,-306 1163.5,-284 1046.5,-284"/>
<text text-anchor="start" x="1051.5" y="-293" font-family="Times,serif" text-decoration="underline" font-size="10.00" fill="#000000">userId</text>
<text text-anchor="start" x="1076.486" y="-293" font-family="Times,serif" font-size="10.00" fill="#000000">: UUID</text>
<polygon fill="none" stroke="#000000" points="1046.5,-262 1046.5,-284 1163.5,-284 1163.5,-262 1046.5,-262"/>
<text text-anchor="start" x="1051.268" y="-271" font-family="Times,serif" text-decoration="underline" font-size="10.00" fill="#000000">accessGroupId</text>
<text text-anchor="start" x="1110.679" y="-271" font-family="Times,serif" font-size="10.00" fill="#000000">: NUMBER</text>
</g>
<!-- User&#45;&gt;UserAccess -->
<g id="edge1" class="edge">
<title>User&#45;&gt;UserAccess</title>
<path fill="none" stroke="#0000ff" d="M914.0046,-245.6409C949.5393,-254.8482 995.6853,-266.8051 1033.6588,-276.6444"/>
<polygon fill="#0000ff" stroke="#0000ff" points="913.8462,-245.5999 903.5843,-237.3625 908.038,-244.0949 902.2298,-242.5899 902.2298,-242.5899 902.2298,-242.5899 908.038,-244.0949 900.8753,-247.8173 913.8462,-245.5999 913.8462,-245.5999"/>
<polygon fill="#0000ff" stroke="#0000ff" points="1034.0605,-276.7484 1044.3224,-284.9858 1039.8687,-278.2534 1045.6769,-279.7584 1045.6769,-279.7584 1045.6769,-279.7584 1039.8687,-278.2534 1047.0314,-274.531 1034.0605,-276.7484 1034.0605,-276.7484"/>
</g>
<!-- UserPlayer -->
<g id="node9" class="node">
<title>UserPlayer</title>
<polygon fill="#add8e6" stroke="transparent" points="1059.5,-178 1059.5,-200 1150.5,-200 1150.5,-178 1059.5,-178"/>
<polygon fill="none" stroke="#000000" points="1059.5,-178 1059.5,-200 1150.5,-200 1150.5,-178 1059.5,-178"/>
<text text-anchor="start" x="1082.7895" y="-187" font-family="Times,serif" font-weight="bold" font-size="10.00" fill="#000000">UserPlayer</text>
<polygon fill="none" stroke="#000000" points="1059.5,-156 1059.5,-178 1150.5,-178 1150.5,-156 1059.5,-156"/>
<text text-anchor="start" x="1064.5" y="-165" font-family="Times,serif" text-decoration="underline" font-size="10.00" fill="#000000">userId</text>
<text text-anchor="start" x="1089.486" y="-165" font-family="Times,serif" font-size="10.00" fill="#000000">: UUID</text>
<polygon fill="none" stroke="#000000" points="1059.5,-134 1059.5,-156 1150.5,-156 1150.5,-134 1059.5,-134"/>
<text text-anchor="start" x="1064.316" y="-143" font-family="Times,serif" text-decoration="underline" font-size="10.00" fill="#000000">playerId</text>
<text text-anchor="start" x="1097.631" y="-143" font-family="Times,serif" font-size="10.00" fill="#000000">: NUMBER</text>
</g>
<!-- User&#45;&gt;UserPlayer -->
<g id="edge2" class="edge">
<title>User&#45;&gt;UserPlayer</title>
<path fill="none" stroke="#0000ff" d="M913.8681,-216.3945C953.741,-206.0631 1007.0253,-192.2566 1047.1221,-181.8671"/>
<polygon fill="#0000ff" stroke="#0000ff" points="913.8462,-216.4001 900.8753,-214.1827 908.038,-217.9051 902.2298,-219.4101 902.2298,-219.4101 902.2298,-219.4101 908.038,-217.9051 903.5843,-224.6375 913.8462,-216.4001 913.8462,-216.4001"/>
<polygon fill="#0000ff" stroke="#0000ff" points="1047.2325,-181.8386 1060.2034,-184.056 1053.0407,-180.3336 1058.8489,-178.8286 1058.8489,-178.8286 1058.8489,-178.8286 1053.0407,-180.3336 1057.4944,-173.6013 1047.2325,-181.8386 1047.2325,-181.8386"/>
</g>
<!-- Prototype -->
<g id="node2" class="node">
<title>Prototype</title>
<polygon fill="#add8e6" stroke="transparent" points="555,-352 555,-374 669,-374 669,-352 555,-352"/>
<polygon fill="none" stroke="#000000" points="555,-352 555,-374 669,-374 669,-352 555,-352"/>
<text text-anchor="start" x="592.5575" y="-361" font-family="Times,serif" font-weight="bold" font-size="10.00" fill="#000000">Prototype</text>
<polygon fill="none" stroke="#000000" points="555,-330 555,-352 669,-352 669,-330 555,-330"/>
<text text-anchor="start" x="560" y="-339" font-family="Times,serif" text-decoration="underline" font-size="10.00" fill="#000000">id</text>
<text text-anchor="start" x="567.779" y="-339" font-family="Times,serif" font-size="10.00" fill="#000000">: UUID</text>
<polygon fill="none" stroke="#000000" points="555,-308 555,-330 669,-330 669,-308 555,-308"/>
<text text-anchor="start" x="560" y="-317" font-family="Times,serif" font-style="italic" text-decoration="underline" font-size="10.00" fill="#000000">userId</text>
<text text-anchor="start" x="584.986" y="-317" font-family="Times,serif" font-size="10.00" fill="#000000">: UUID</text>
<polygon fill="none" stroke="#000000" points="555,-286 555,-308 669,-308 669,-286 555,-286"/>
<text text-anchor="start" x="560" y="-294" font-family="Times,serif" font-size="10.00" fill="#000000">name: STRING</text>
<polygon fill="none" stroke="#000000" points="555,-264 555,-286 669,-286 669,-264 555,-264"/>
<text text-anchor="start" x="560" y="-272" font-family="Times,serif" font-size="10.00" fill="#000000">type: ENUM</text>
<polygon fill="none" stroke="#000000" points="555,-242 555,-264 669,-264 669,-242 555,-242"/>
<text text-anchor="start" x="559.9335" y="-251" font-family="Times,serif" font-style="italic" text-decoration="underline" font-size="10.00" fill="#000000">masterPrototypeId</text>
<text text-anchor="start" x="633.8015" y="-251" font-family="Times,serif" font-size="10.00" fill="#000000">: UUID</text>
<polygon fill="none" stroke="#000000" points="555,-220 555,-242 669,-242 669,-220 555,-220"/>
<text text-anchor="start" x="560" y="-229" font-family="Times,serif" font-style="italic" text-decoration="underline" font-size="10.00" fill="#000000">groupId</text>
<text text-anchor="start" x="591.658" y="-229" font-family="Times,serif" font-size="10.00" fill="#000000">: UUID</text>
<polygon fill="none" stroke="#000000" points="555,-198 555,-220 669,-220 669,-198 555,-198"/>
<text text-anchor="start" x="560" y="-206" font-family="Times,serif" font-size="10.00" fill="#000000">minPlayers: NUMBER</text>
<polygon fill="none" stroke="#000000" points="555,-176 555,-198 669,-198 669,-176 555,-176"/>
<text text-anchor="start" x="560" y="-184" font-family="Times,serif" font-size="10.00" fill="#000000">maxPlayers: NUMBER</text>
<polygon fill="none" stroke="#000000" points="555,-154 555,-176 669,-176 669,-154 555,-154"/>
<text text-anchor="start" x="560" y="-162" font-family="Times,serif" font-size="10.00" fill="#000000">createdAt: DATE</text>
<polygon fill="none" stroke="#000000" points="555,-132 555,-154 669,-154 669,-132 555,-132"/>
<text text-anchor="start" x="560" y="-140" font-family="Times,serif" font-size="10.00" fill="#000000">updatedAt: DATE</text>
</g>
<!-- Prototype&#45;&gt;User -->
<g id="edge5" class="edge">
<title>Prototype&#45;&gt;User</title>
<path fill="none" stroke="#0000ff" d="M681.4047,-246.7804C719.1202,-243.4006 765.1771,-239.2733 800.7285,-236.0875"/>
<polygon fill="#0000ff" stroke="#0000ff" points="668.8741,-243.6865 681.2011,-246.7986 669.6239,-252.053 668.8741,-243.6865"/>
<polygon fill="#0000ff" stroke="#0000ff" points="800.8823,-236.0738 813.3164,-240.3811 806.8583,-235.5382 812.8344,-235.0026 812.8344,-235.0026 812.8344,-235.0026 806.8583,-235.5382 812.3523,-229.6242 800.8823,-236.0738 800.8823,-236.0738"/>
</g>
<!-- PrototypeGroup -->
<g id="node3" class="node">
<title>PrototypeGroup</title>
<polygon fill="#add8e6" stroke="transparent" points="814.5,-377 814.5,-399 900.5,-399 900.5,-377 814.5,-377"/>
<polygon fill="none" stroke="#000000" points="814.5,-377 814.5,-399 900.5,-399 900.5,-377 814.5,-377"/>
<text text-anchor="start" x="825.2835" y="-386" font-family="Times,serif" font-weight="bold" font-size="10.00" fill="#000000">PrototypeGroup</text>
<polygon fill="none" stroke="#000000" points="814.5,-355 814.5,-377 900.5,-377 900.5,-355 814.5,-355"/>
<text text-anchor="start" x="819.5" y="-364" font-family="Times,serif" text-decoration="underline" font-size="10.00" fill="#000000">id</text>
<text text-anchor="start" x="827.279" y="-364" font-family="Times,serif" font-size="10.00" fill="#000000">: UUID</text>
<polygon fill="none" stroke="#000000" points="814.5,-333 814.5,-355 900.5,-355 900.5,-333 814.5,-333"/>
<text text-anchor="start" x="819.04" y="-342" font-family="Times,serif" font-style="italic" text-decoration="underline" font-size="10.00" fill="#000000">prototypeId</text>
<text text-anchor="start" x="865.695" y="-342" font-family="Times,serif" font-size="10.00" fill="#000000">: UUID</text>
</g>
<!-- Prototype&#45;&gt;PrototypeGroup -->
<g id="edge6" class="edge">
<title>Prototype&#45;&gt;PrototypeGroup</title>
<path fill="none" stroke="#0000ff" d="M680.1946,-284.3889C718.9584,-302.2313 766.8347,-324.2681 803.0629,-340.9434"/>
<polygon fill="#0000ff" stroke="#0000ff" points="680.1497,-284.3684 671.5069,-274.4455 674.6994,-281.8596 669.249,-279.3509 669.249,-279.3509 669.249,-279.3509 674.6994,-281.8596 666.9911,-284.2562 680.1497,-284.3684 680.1497,-284.3684"/>
<polygon fill="#0000ff" stroke="#0000ff" points="812.6336,-349.9722 803.489,-341.1395 816.1459,-342.3417 812.6336,-349.9722"/>
</g>
<!-- Access -->
<g id="node4" class="node">
<title>Access</title>
<polygon fill="#add8e6" stroke="transparent" points="556,-476 556,-498 668,-498 668,-476 556,-476"/>
<polygon fill="none" stroke="#000000" points="556,-476 556,-498 668,-498 668,-476 556,-476"/>
<text text-anchor="start" x="597.843" y="-485" font-family="Times,serif" font-weight="bold" font-size="10.00" fill="#000000">Access</text>
<polygon fill="none" stroke="#000000" points="556,-454 556,-476 668,-476 668,-454 556,-454"/>
<text text-anchor="start" x="561" y="-463" font-family="Times,serif" text-decoration="underline" font-size="10.00" fill="#000000">id</text>
<text text-anchor="start" x="568.779" y="-463" font-family="Times,serif" font-size="10.00" fill="#000000">: NUMBER</text>
<polygon fill="none" stroke="#000000" points="556,-432 556,-454 668,-454 668,-432 556,-432"/>
<text text-anchor="start" x="560.766" y="-441" font-family="Times,serif" font-style="italic" text-decoration="underline" font-size="10.00" fill="#000000">prototypeGroupId</text>
<text text-anchor="start" x="632.969" y="-441" font-family="Times,serif" font-size="10.00" fill="#000000">: UUID</text>
<polygon fill="none" stroke="#000000" points="556,-410 556,-432 668,-432 668,-410 556,-410"/>
<text text-anchor="start" x="561" y="-418" font-family="Times,serif" font-size="10.00" fill="#000000">name: STRING</text>
</g>
<!-- Access&#45;&gt;PrototypeGroup -->
<g id="edge7" class="edge">
<title>Access&#45;&gt;PrototypeGroup</title>
<path fill="none" stroke="#0000ff" d="M679.5435,-429.7889C718.383,-415.8668 766.537,-398.6059 802.9556,-385.5516"/>
<polygon fill="#0000ff" stroke="#0000ff" points="666.5977,-429.9677 679.3112,-429.8721 669.4322,-437.875 666.5977,-429.9677"/>
<polygon fill="#0000ff" stroke="#0000ff" points="803.0446,-385.5197 816.163,-386.5538 808.6927,-383.4951 814.3408,-381.4705 814.3408,-381.4705 814.3408,-381.4705 808.6927,-383.4951 812.5187,-376.3872 803.0446,-385.5197 803.0446,-385.5197"/>
</g>
<!-- Access&#45;&gt;UserAccess -->
<g id="edge3" class="edge">
<title>Access&#45;&gt;UserAccess</title>
<path fill="none" stroke="#0000ff" d="M680.4094,-453.1935C740.3515,-450.6457 829.0453,-442.3617 902,-417 956.7433,-397.9693 1012.7063,-362.8138 1051.8874,-335.1124"/>
<polygon fill="#0000ff" stroke="#0000ff" points="680.0625,-453.2064 667.8693,-448.258 674.0666,-453.4303 668.0708,-453.6542 668.0708,-453.6542 668.0708,-453.6542 674.0666,-453.4303 668.2723,-459.0504 680.0625,-453.2064 680.0625,-453.2064"/>
<polygon fill="#0000ff" stroke="#0000ff" points="1051.9713,-335.0523 1064.8711,-332.4529 1056.8487,-331.5578 1061.726,-328.0633 1061.726,-328.0633 1061.726,-328.0633 1056.8487,-331.5578 1058.581,-323.6737 1051.9713,-335.0523 1051.9713,-335.0523"/>
</g>
<!-- PrototypeVersion -->
<g id="node5" class="node">
<title>PrototypeVersion</title>
<polygon fill="#add8e6" stroke="transparent" points="298.5,-308 298.5,-330 411.5,-330 411.5,-308 298.5,-308"/>
<polygon fill="none" stroke="#000000" points="298.5,-308 298.5,-330 411.5,-330 411.5,-308 298.5,-308"/>
<text text-anchor="start" x="319.73" y="-317" font-family="Times,serif" font-weight="bold" font-size="10.00" fill="#000000">PrototypeVersion</text>
<polygon fill="none" stroke="#000000" points="298.5,-286 298.5,-308 411.5,-308 411.5,-286 298.5,-286"/>
<text text-anchor="start" x="303.5" y="-295" font-family="Times,serif" text-decoration="underline" font-size="10.00" fill="#000000">id</text>
<text text-anchor="start" x="311.279" y="-295" font-family="Times,serif" font-size="10.00" fill="#000000">: UUID</text>
<polygon fill="none" stroke="#000000" points="298.5,-264 298.5,-286 411.5,-286 411.5,-264 298.5,-264"/>
<text text-anchor="start" x="303.5" y="-273" font-family="Times,serif" font-style="italic" text-decoration="underline" font-size="10.00" fill="#000000">prototypeId</text>
<text text-anchor="start" x="350.155" y="-273" font-family="Times,serif" font-size="10.00" fill="#000000">: UUID</text>
<polygon fill="none" stroke="#000000" points="298.5,-242 298.5,-264 411.5,-264 411.5,-242 298.5,-242"/>
<text text-anchor="start" x="303.2075" y="-250" font-family="Times,serif" font-size="10.00" fill="#000000">versionNumber: STRING</text>
<polygon fill="none" stroke="#000000" points="298.5,-220 298.5,-242 411.5,-242 411.5,-220 298.5,-220"/>
<text text-anchor="start" x="303.5" y="-228" font-family="Times,serif" font-size="10.00" fill="#000000">description: STRING</text>
<polygon fill="none" stroke="#000000" points="298.5,-198 298.5,-220 411.5,-220 411.5,-198 298.5,-198"/>
<text text-anchor="start" x="303.5" y="-206" font-family="Times,serif" font-size="10.00" fill="#000000">createdAt: DATE</text>
<polygon fill="none" stroke="#000000" points="298.5,-176 298.5,-198 411.5,-198 411.5,-176 298.5,-176"/>
<text text-anchor="start" x="303.5" y="-184" font-family="Times,serif" font-size="10.00" fill="#000000">updatedAt: DATE</text>
</g>
<!-- PrototypeVersion&#45;&gt;Prototype -->
<g id="edge8" class="edge">
<title>PrototypeVersion&#45;&gt;Prototype</title>
<path fill="none" stroke="#0000ff" d="M423.1224,-253C460.0402,-253 505.464,-253 542.5134,-253"/>
<polygon fill="#0000ff" stroke="#0000ff" points="411.0095,-248.8 423.0095,-253.0001 411.0094,-257.2 411.0095,-248.8"/>
<polygon fill="#0000ff" stroke="#0000ff" points="542.7325,-253.0001 554.7325,-258.4 548.7325,-253 554.7325,-253 554.7325,-253 554.7325,-253 548.7325,-253 554.7325,-247.6 542.7325,-253.0001 542.7325,-253.0001"/>
</g>
<!-- Part -->
<g id="node6" class="node">
<title>Part</title>
<polygon fill="#add8e6" stroke="transparent" points="0,-586 0,-608 154,-608 154,-586 0,-586"/>
<polygon fill="none" stroke="#000000" points="0,-586 0,-608 154,-608 154,-586 0,-586"/>
<text text-anchor="start" x="68.947" y="-595" font-family="Times,serif" font-weight="bold" font-size="10.00" fill="#000000">Part</text>
<polygon fill="none" stroke="#000000" points="0,-564 0,-586 154,-586 154,-564 0,-564"/>
<text text-anchor="start" x="5" y="-573" font-family="Times,serif" text-decoration="underline" font-size="10.00" fill="#000000">id</text>
<text text-anchor="start" x="12.779" y="-573" font-family="Times,serif" font-size="10.00" fill="#000000">: NUMBER</text>
<polygon fill="none" stroke="#000000" points="0,-542 0,-564 154,-564 154,-542 0,-542"/>
<text text-anchor="start" x="5" y="-550" font-family="Times,serif" font-size="10.00" fill="#000000">type: STRING</text>
<polygon fill="none" stroke="#000000" points="0,-520 0,-542 154,-542 154,-520 0,-520"/>
<text text-anchor="start" x="5" y="-529" font-family="Times,serif" font-style="italic" text-decoration="underline" font-size="10.00" fill="#000000">prototypeVersionId</text>
<text text-anchor="start" x="83.31" y="-529" font-family="Times,serif" font-size="10.00" fill="#000000">: UUID</text>
<polygon fill="none" stroke="#000000" points="0,-498 0,-520 154,-520 154,-498 0,-498"/>
<text text-anchor="start" x="5" y="-506" font-family="Times,serif" font-size="10.00" fill="#000000">parentId: NUMBER</text>
<polygon fill="none" stroke="#000000" points="0,-476 0,-498 154,-498 154,-476 0,-476"/>
<text text-anchor="start" x="5" y="-484" font-family="Times,serif" font-size="10.00" fill="#000000">name: STRING</text>
<polygon fill="none" stroke="#000000" points="0,-454 0,-476 154,-476 154,-454 0,-454"/>
<text text-anchor="start" x="5" y="-462" font-family="Times,serif" font-size="10.00" fill="#000000">description: STRING</text>
<polygon fill="none" stroke="#000000" points="0,-432 0,-454 154,-454 154,-432 0,-432"/>
<text text-anchor="start" x="5" y="-440" font-family="Times,serif" font-size="10.00" fill="#000000">color: STRING</text>
<polygon fill="none" stroke="#000000" points="0,-410 0,-432 154,-432 154,-410 0,-410"/>
<text text-anchor="start" x="5" y="-418" font-family="Times,serif" font-size="10.00" fill="#000000">position: JSON</text>
<polygon fill="none" stroke="#000000" points="0,-388 0,-410 154,-410 154,-388 0,-388"/>
<text text-anchor="start" x="5" y="-396" font-family="Times,serif" font-size="10.00" fill="#000000">width: NUMBER</text>
<polygon fill="none" stroke="#000000" points="0,-366 0,-388 154,-388 154,-366 0,-366"/>
<text text-anchor="start" x="5" y="-374" font-family="Times,serif" font-size="10.00" fill="#000000">height: NUMBER</text>
<polygon fill="none" stroke="#000000" points="0,-344 0,-366 154,-366 154,-344 0,-344"/>
<text text-anchor="start" x="5" y="-352" font-family="Times,serif" font-size="10.00" fill="#000000">order: NUMBER</text>
<polygon fill="none" stroke="#000000" points="0,-322 0,-344 154,-344 154,-322 0,-322"/>
<text text-anchor="start" x="4.655" y="-330" font-family="Times,serif" font-size="10.00" fill="#000000">configurableTypeAsChild: ARRAY</text>
<polygon fill="none" stroke="#000000" points="0,-300 0,-322 154,-322 154,-300 0,-300"/>
<text text-anchor="start" x="5" y="-308" font-family="Times,serif" font-size="10.00" fill="#000000">isReversible: BOOLEAN</text>
<polygon fill="none" stroke="#000000" points="0,-278 0,-300 154,-300 154,-278 0,-278"/>
<text text-anchor="start" x="5" y="-286" font-family="Times,serif" font-size="10.00" fill="#000000">isFlipped: BOOLEAN</text>
<polygon fill="none" stroke="#000000" points="0,-256 0,-278 154,-278 154,-256 0,-256"/>
<text text-anchor="start" x="5" y="-264" font-family="Times,serif" font-size="10.00" fill="#000000">ownerId: NUMBER</text>
<polygon fill="none" stroke="#000000" points="0,-234 0,-256 154,-256 154,-234 0,-234"/>
<text text-anchor="start" x="5" y="-242" font-family="Times,serif" font-size="10.00" fill="#000000">originalPartId: NUMBER</text>
<polygon fill="none" stroke="#000000" points="0,-212 0,-234 154,-234 154,-212 0,-212"/>
<text text-anchor="start" x="5" y="-220" font-family="Times,serif" font-size="10.00" fill="#000000">createdAt: DATE</text>
<polygon fill="none" stroke="#000000" points="0,-190 0,-212 154,-212 154,-190 0,-190"/>
<text text-anchor="start" x="5" y="-198" font-family="Times,serif" font-size="10.00" fill="#000000">updatedAt: DATE</text>
</g>
<!-- Part&#45;&gt;PrototypeVersion -->
<g id="edge9" class="edge">
<title>Part&#45;&gt;PrototypeVersion</title>
<path fill="none" stroke="#0000ff" d="M165.1641,-352.6146C204.526,-331.9052 250.181,-307.8849 286.7961,-288.6208"/>
<polygon fill="#0000ff" stroke="#0000ff" points="152.3436,-354.6139 164.9191,-352.7434 156.2548,-362.0478 152.3436,-354.6139"/>
<polygon fill="#0000ff" stroke="#0000ff" points="287.2324,-288.3913 300.3666,-287.5828 292.5423,-285.5976 297.8522,-282.8039 297.8522,-282.8039 297.8522,-282.8039 292.5423,-285.5976 295.3379,-278.0249 287.2324,-288.3913 287.2324,-288.3913"/>
</g>
<!-- Player -->
<g id="node7" class="node">
<title>Player</title>
<polygon fill="#add8e6" stroke="transparent" points="18,-132 18,-154 136,-154 136,-132 18,-132"/>
<polygon fill="none" stroke="#000000" points="18,-132 18,-154 136,-154 136,-132 18,-132"/>
<text text-anchor="start" x="64.2275" y="-141" font-family="Times,serif" font-weight="bold" font-size="10.00" fill="#000000">Player</text>
<polygon fill="none" stroke="#000000" points="18,-110 18,-132 136,-132 136,-110 18,-110"/>
<text text-anchor="start" x="23" y="-119" font-family="Times,serif" text-decoration="underline" font-size="10.00" fill="#000000">id</text>
<text text-anchor="start" x="30.779" y="-119" font-family="Times,serif" font-size="10.00" fill="#000000">: NUMBER</text>
<polygon fill="none" stroke="#000000" points="18,-88 18,-110 136,-110 136,-88 18,-88"/>
<text text-anchor="start" x="22.7125" y="-97" font-family="Times,serif" font-style="italic" text-decoration="underline" font-size="10.00" fill="#000000">prototypeVersionId</text>
<text text-anchor="start" x="101.0225" y="-97" font-family="Times,serif" font-size="10.00" fill="#000000">: UUID</text>
<polygon fill="none" stroke="#000000" points="18,-66 18,-88 136,-88 136,-66 18,-66"/>
<text text-anchor="start" x="23" y="-74" font-family="Times,serif" font-size="10.00" fill="#000000">playerName: STRING</text>
<polygon fill="none" stroke="#000000" points="18,-44 18,-66 136,-66 136,-44 18,-44"/>
<text text-anchor="start" x="23" y="-52" font-family="Times,serif" font-size="10.00" fill="#000000">order: NUMBER</text>
<polygon fill="none" stroke="#000000" points="18,-22 18,-44 136,-44 136,-22 18,-22"/>
<text text-anchor="start" x="23" y="-30" font-family="Times,serif" font-size="10.00" fill="#000000">createdAt: DATE</text>
<polygon fill="none" stroke="#000000" points="18,0 18,-22 136,-22 136,0 18,0"/>
<text text-anchor="start" x="23" y="-8" font-family="Times,serif" font-size="10.00" fill="#000000">updatedAt: DATE</text>
</g>
<!-- Player&#45;&gt;PrototypeVersion -->
<g id="edge10" class="edge">
<title>Player&#45;&gt;PrototypeVersion</title>
<path fill="none" stroke="#0000ff" d="M146.5315,-121.0992C189.6748,-148.4622 244.8216,-183.4382 287.486,-210.4974"/>
<polygon fill="#0000ff" stroke="#0000ff" points="138.4399,-110.9937 146.3241,-120.9677 133.9408,-118.0873 138.4399,-110.9937"/>
<polygon fill="#0000ff" stroke="#0000ff" points="287.6373,-210.5934 294.8788,-221.5807 292.7042,-213.807 297.7711,-217.0206 297.7711,-217.0206 297.7711,-217.0206 292.7042,-213.807 300.6633,-212.4604 287.6373,-210.5934 287.6373,-210.5934"/>
</g>
<!-- Player&#45;&gt;UserPlayer -->
<g id="edge4" class="edge">
<title>Player&#45;&gt;UserPlayer</title>
<path fill="none" stroke="#0000ff" d="M148.3764,-80.1065C259.7212,-85.258 481.4514,-96.7418 669,-114 804.7656,-126.4931 963.5956,-147.4282 1046.8555,-158.8912"/>
<polygon fill="#0000ff" stroke="#0000ff" points="148.3147,-80.1038 136.5748,-74.1596 142.321,-79.8289 136.3273,-79.5539 136.3273,-79.5539 136.3273,-79.5539 142.321,-79.8289 136.0799,-84.9482 148.3147,-80.1038 148.3147,-80.1038"/>
<polygon fill="#0000ff" stroke="#0000ff" points="1046.9364,-158.9023 1058.084,-165.8946 1052.8799,-159.7239 1058.8234,-160.5454 1058.8234,-160.5454 1058.8234,-160.5454 1052.8799,-159.7239 1059.5628,-155.1963 1046.9364,-158.9023 1046.9364,-158.9023"/>
</g>
</g>
</svg>
