<?xml version="1.0" encoding="UTF-8" standalone="no"?>
<!DOCTYPE svg PUBLIC "-//W3C//DTD SVG 1.1//EN"
 "http://www.w3.org/Graphics/SVG/1.1/DTD/svg11.dtd">
<!-- Generated by graphviz version 2.40.1 (20161225.0304)
 -->
<!-- Title: models_diagram Pages: 1 -->
<svg width="1431pt" height="680pt"
 viewBox="0.00 0.00 1431.00 680.00" xmlns="http://www.w3.org/2000/svg" xmlns:xlink="http://www.w3.org/1999/xlink">
<g id="graph0" class="graph" transform="scale(1 1) rotate(0) translate(36 644)">
<title>models_diagram</title>
<polygon fill="#ffffff" stroke="transparent" points="-36,36 -36,-644 1395,-644 1395,36 -36,36"/>
<!-- User -->
<g id="node1" class="node">
<title>User</title>
<polygon fill="#add8e6" stroke="transparent" points="1035.5,-315 1035.5,-337 1124.5,-337 1124.5,-315 1035.5,-315"/>
<polygon fill="none" stroke="#000000" points="1035.5,-315 1035.5,-337 1124.5,-337 1124.5,-315 1035.5,-315"/>
<text text-anchor="start" x="1070.562" y="-324" font-family="Times,serif" font-weight="bold" font-size="10.00" fill="#000000">User</text>
<polygon fill="none" stroke="#000000" points="1035.5,-293 1035.5,-315 1124.5,-315 1124.5,-293 1035.5,-293"/>
<text text-anchor="start" x="1040.5" y="-302" font-family="Times,serif" text-decoration="underline" font-size="10.00" fill="#000000">id</text>
<text text-anchor="start" x="1048.279" y="-302" font-family="Times,serif" font-size="10.00" fill="#000000">: UUID</text>
<polygon fill="none" stroke="#000000" points="1035.5,-271 1035.5,-293 1124.5,-293 1124.5,-271 1035.5,-271"/>
<text text-anchor="start" x="1040.5" y="-279" font-family="Times,serif" font-size="10.00" fill="#000000">googleId: STRING</text>
<polygon fill="none" stroke="#000000" points="1035.5,-249 1035.5,-271 1124.5,-271 1124.5,-249 1035.5,-249"/>
<text text-anchor="start" x="1040.1515" y="-257" font-family="Times,serif" font-size="10.00" fill="#000000">username: STRING</text>
<polygon fill="none" stroke="#000000" points="1035.5,-227 1035.5,-249 1124.5,-249 1124.5,-227 1035.5,-227"/>
<text text-anchor="start" x="1040.5" y="-235" font-family="Times,serif" font-size="10.00" fill="#000000">createdAt: DATE</text>
<polygon fill="none" stroke="#000000" points="1035.5,-205 1035.5,-227 1124.5,-227 1124.5,-205 1035.5,-205"/>
<text text-anchor="start" x="1040.5" y="-213" font-family="Times,serif" font-size="10.00" fill="#000000">updatedAt: DATE</text>
</g>
<!-- UserAccess -->
<g id="node8" class="node">
<title>UserAccess</title>
<polygon fill="#add8e6" stroke="transparent" points="1268.5,-342 1268.5,-364 1359.5,-364 1359.5,-342 1268.5,-342"/>
<polygon fill="none" stroke="#000000" points="1268.5,-342 1268.5,-364 1359.5,-364 1359.5,-342 1268.5,-342"/>
<text text-anchor="start" x="1290.405" y="-351" font-family="Times,serif" font-weight="bold" font-size="10.00" fill="#000000">UserAccess</text>
<polygon fill="none" stroke="#000000" points="1268.5,-320 1268.5,-342 1359.5,-342 1359.5,-320 1268.5,-320"/>
<text text-anchor="start" x="1273.5" y="-329" font-family="Times,serif" text-decoration="underline" font-size="10.00" fill="#000000">userId</text>
<text text-anchor="start" x="1298.486" y="-329" font-family="Times,serif" font-size="10.00" fill="#000000">: UUID</text>
<polygon fill="none" stroke="#000000" points="1268.5,-298 1268.5,-320 1359.5,-320 1359.5,-298 1268.5,-298"/>
<text text-anchor="start" x="1273.042" y="-307" font-family="Times,serif" text-decoration="underline" font-size="10.00" fill="#000000">accessId</text>
<text text-anchor="start" x="1306.905" y="-307" font-family="Times,serif" font-size="10.00" fill="#000000">: NUMBER</text>
</g>
<!-- User&#45;&gt;UserAccess -->
<g id="edge1" class="edge">
<title>User&#45;&gt;UserAccess</title>
<path fill="none" stroke="#0000ff" d="M1135.8915,-285.4593C1172.2369,-294.7787 1219.3619,-306.862 1255.936,-316.24"/>
<polygon fill="#0000ff" stroke="#0000ff" points="1135.6884,-285.4073 1125.4057,-277.196 1129.8764,-283.9171 1124.0644,-282.4268 1124.0644,-282.4268 1124.0644,-282.4268 1129.8764,-283.9171 1122.7231,-287.6576 1135.6884,-285.4073 1135.6884,-285.4073"/>
<polygon fill="#0000ff" stroke="#0000ff" points="1256.2802,-316.3282 1266.5629,-324.5395 1262.0921,-317.8185 1267.9041,-319.3087 1267.9041,-319.3087 1267.9041,-319.3087 1262.0921,-317.8185 1269.2454,-314.078 1256.2802,-316.3282 1256.2802,-316.3282"/>
</g>
<!-- PrototypeGroup -->
<g id="node2" class="node">
<title>PrototypeGroup</title>
<polygon fill="#add8e6" stroke="transparent" points="808.5,-304 808.5,-326 891.5,-326 891.5,-304 808.5,-304"/>
<polygon fill="none" stroke="#000000" points="808.5,-304 808.5,-326 891.5,-326 891.5,-304 808.5,-304"/>
<text text-anchor="start" x="817.7835" y="-313" font-family="Times,serif" font-weight="bold" font-size="10.00" fill="#000000">PrototypeGroup</text>
<polygon fill="none" stroke="#000000" points="808.5,-282 808.5,-304 891.5,-304 891.5,-282 808.5,-282"/>
<text text-anchor="start" x="813.5" y="-291" font-family="Times,serif" text-decoration="underline" font-size="10.00" fill="#000000">id</text>
<text text-anchor="start" x="821.279" y="-291" font-family="Times,serif" font-size="10.00" fill="#000000">: UUID</text>
<polygon fill="none" stroke="#000000" points="808.5,-260 808.5,-282 891.5,-282 891.5,-260 808.5,-260"/>
<text text-anchor="start" x="813.5" y="-269" font-family="Times,serif" font-style="italic" text-decoration="underline" font-size="10.00" fill="#000000">userId</text>
<text text-anchor="start" x="838.486" y="-269" font-family="Times,serif" font-size="10.00" fill="#000000">: UUID</text>
<polygon fill="none" stroke="#000000" points="808.5,-238 808.5,-260 891.5,-260 891.5,-238 808.5,-238"/>
<text text-anchor="start" x="813.5" y="-246" font-family="Times,serif" font-size="10.00" fill="#000000">createdAt: DATE</text>
<polygon fill="none" stroke="#000000" points="808.5,-216 808.5,-238 891.5,-238 891.5,-216 808.5,-216"/>
<text text-anchor="start" x="813.205" y="-224" font-family="Times,serif" font-size="10.00" fill="#000000">updatedAt: DATE</text>
</g>
<!-- PrototypeGroup&#45;&gt;User -->
<g id="edge3" class="edge">
<title>PrototypeGroup&#45;&gt;User</title>
<path fill="none" stroke="#0000ff" d="M903.3218,-271C939.0254,-271 985.8274,-271 1022.2189,-271"/>
<polygon fill="#0000ff" stroke="#0000ff" points="891.1513,-266.8 903.1513,-271.0001 891.1512,-275.2 891.1513,-266.8"/>
<polygon fill="#0000ff" stroke="#0000ff" points="1022.6216,-271.0001 1034.6216,-276.4 1028.6216,-271 1034.6216,-271 1034.6216,-271 1034.6216,-271 1028.6216,-271 1034.6215,-265.6 1022.6216,-271.0001 1022.6216,-271.0001"/>
</g>
<!-- Access -->
<g id="node3" class="node">
<title>Access</title>
<polygon fill="#add8e6" stroke="transparent" points="548,-449 548,-471 660,-471 660,-449 548,-449"/>
<polygon fill="none" stroke="#000000" points="548,-449 548,-471 660,-471 660,-449 548,-449"/>
<text text-anchor="start" x="589.843" y="-458" font-family="Times,serif" font-weight="bold" font-size="10.00" fill="#000000">Access</text>
<polygon fill="none" stroke="#000000" points="548,-427 548,-449 660,-449 660,-427 548,-427"/>
<text text-anchor="start" x="553" y="-436" font-family="Times,serif" text-decoration="underline" font-size="10.00" fill="#000000">id</text>
<text text-anchor="start" x="560.779" y="-436" font-family="Times,serif" font-size="10.00" fill="#000000">: NUMBER</text>
<polygon fill="none" stroke="#000000" points="548,-405 548,-427 660,-427 660,-405 548,-405"/>
<text text-anchor="start" x="552.766" y="-414" font-family="Times,serif" font-style="italic" text-decoration="underline" font-size="10.00" fill="#000000">prototypeGroupId</text>
<text text-anchor="start" x="624.969" y="-414" font-family="Times,serif" font-size="10.00" fill="#000000">: UUID</text>
<polygon fill="none" stroke="#000000" points="548,-383 548,-405 660,-405 660,-383 548,-383"/>
<text text-anchor="start" x="553" y="-391" font-family="Times,serif" font-size="10.00" fill="#000000">name: STRING</text>
</g>
<!-- Access&#45;&gt;PrototypeGroup -->
<g id="edge4" class="edge">
<title>Access&#45;&gt;PrototypeGroup</title>
<path fill="none" stroke="#0000ff" d="M670.3033,-384.8684C710.1935,-359.5206 760.2507,-327.7124 797.3125,-304.1619"/>
<polygon fill="#0000ff" stroke="#0000ff" points="657.7624,-387.8611 670.1431,-384.9701 662.2675,-394.9509 657.7624,-387.8611"/>
<polygon fill="#0000ff" stroke="#0000ff" points="797.7576,-303.8791 810.7819,-302.001 802.8217,-300.6612 807.8858,-297.4433 807.8858,-297.4433 807.8858,-297.4433 802.8217,-300.6612 804.9896,-292.8856 797.7576,-303.8791 797.7576,-303.8791"/>
</g>
<!-- Access&#45;&gt;UserAccess -->
<g id="edge2" class="edge">
<title>Access&#45;&gt;UserAccess</title>
<path fill="none" stroke="#0000ff" d="M672.3452,-417.7524C811.5446,-398.9179 1125.7203,-356.4078 1255.6136,-338.8324"/>
<polygon fill="#0000ff" stroke="#0000ff" points="672.158,-417.7777 659.5422,-414.0356 666.2121,-418.5822 660.2663,-419.3868 660.2663,-419.3868 660.2663,-419.3868 666.2121,-418.5822 660.9904,-424.738 672.158,-417.7777 672.158,-417.7777"/>
<polygon fill="#0000ff" stroke="#0000ff" points="1255.7049,-338.8201 1268.3207,-342.5623 1261.6508,-338.0156 1267.5966,-337.211 1267.5966,-337.211 1267.5966,-337.211 1261.6508,-338.0156 1266.8725,-331.8598 1255.7049,-338.8201 1255.7049,-338.8201"/>
</g>
<!-- Image -->
<g id="node4" class="node">
<title>Image</title>
<polygon fill="#add8e6" stroke="transparent" points="267.5,-586 267.5,-608 371.5,-608 371.5,-586 267.5,-586"/>
<polygon fill="none" stroke="#000000" points="267.5,-586 267.5,-608 371.5,-608 371.5,-586 267.5,-586"/>
<text text-anchor="start" x="307.007" y="-595" font-family="Times,serif" font-weight="bold" font-size="10.00" fill="#000000">Image</text>
<polygon fill="none" stroke="#000000" points="267.5,-564 267.5,-586 371.5,-586 371.5,-564 267.5,-564"/>
<text text-anchor="start" x="272.5" y="-573" font-family="Times,serif" text-decoration="underline" font-size="10.00" fill="#000000">id</text>
<text text-anchor="start" x="280.279" y="-573" font-family="Times,serif" font-size="10.00" fill="#000000">: UUID</text>
<polygon fill="none" stroke="#000000" points="267.5,-542 267.5,-564 371.5,-564 371.5,-542 267.5,-542"/>
<text text-anchor="start" x="272.4275" y="-550" font-family="Times,serif" font-size="10.00" fill="#000000">displayName: STRING</text>
<polygon fill="none" stroke="#000000" points="267.5,-520 267.5,-542 371.5,-542 371.5,-520 267.5,-520"/>
<text text-anchor="start" x="272.5" y="-528" font-family="Times,serif" font-size="10.00" fill="#000000">storagePath: STRING</text>
<polygon fill="none" stroke="#000000" points="267.5,-498 267.5,-520 371.5,-520 371.5,-498 267.5,-498"/>
<text text-anchor="start" x="272.5" y="-506" font-family="Times,serif" font-size="10.00" fill="#000000">contentType: STRING</text>
<polygon fill="none" stroke="#000000" points="267.5,-476 267.5,-498 371.5,-498 371.5,-476 267.5,-476"/>
<text text-anchor="start" x="272.5" y="-484" font-family="Times,serif" font-size="10.00" fill="#000000">fileSize: NUMBER</text>
<polygon fill="none" stroke="#000000" points="267.5,-454 267.5,-476 371.5,-476 371.5,-454 267.5,-454"/>
<text text-anchor="start" x="272.5" y="-463" font-family="Times,serif" font-style="italic" text-decoration="underline" font-size="10.00" fill="#000000">uploaderUserId</text>
<text text-anchor="start" x="334.691" y="-463" font-family="Times,serif" font-size="10.00" fill="#000000">: UUID</text>
<polygon fill="none" stroke="#000000" points="267.5,-432 267.5,-454 371.5,-454 371.5,-432 267.5,-432"/>
<text text-anchor="start" x="272.5" y="-440" font-family="Times,serif" font-size="10.00" fill="#000000">createdAt: DATE</text>
<polygon fill="none" stroke="#000000" points="267.5,-410 267.5,-432 371.5,-432 371.5,-410 267.5,-410"/>
<text text-anchor="start" x="272.5" y="-418" font-family="Times,serif" font-size="10.00" fill="#000000">updatedAt: DATE</text>
</g>
<!-- Prototype -->
<g id="node5" class="node">
<title>Prototype</title>
<polygon fill="#add8e6" stroke="transparent" points="544,-325 544,-347 664,-347 664,-325 544,-325"/>
<polygon fill="none" stroke="#000000" points="544,-325 544,-347 664,-347 664,-325 544,-325"/>
<text text-anchor="start" x="584.5575" y="-334" font-family="Times,serif" font-weight="bold" font-size="10.00" fill="#000000">Prototype</text>
<polygon fill="none" stroke="#000000" points="544,-303 544,-325 664,-325 664,-303 544,-303"/>
<text text-anchor="start" x="549" y="-312" font-family="Times,serif" text-decoration="underline" font-size="10.00" fill="#000000">id</text>
<text text-anchor="start" x="556.779" y="-312" font-family="Times,serif" font-size="10.00" fill="#000000">: UUID</text>
<polygon fill="none" stroke="#000000" points="544,-281 544,-303 664,-303 664,-281 544,-281"/>
<text text-anchor="start" x="549" y="-290" font-family="Times,serif" font-style="italic" text-decoration="underline" font-size="10.00" fill="#000000">prototypeGroupId</text>
<text text-anchor="start" x="621.203" y="-290" font-family="Times,serif" font-size="10.00" fill="#000000">: UUID</text>
<polygon fill="none" stroke="#000000" points="544,-259 544,-281 664,-281 664,-259 544,-259"/>
<text text-anchor="start" x="549" y="-267" font-family="Times,serif" font-size="10.00" fill="#000000">name: STRING</text>
<polygon fill="none" stroke="#000000" points="544,-237 544,-259 664,-259 664,-237 544,-237"/>
<text text-anchor="start" x="549" y="-245" font-family="Times,serif" font-size="10.00" fill="#000000">type: ENUM</text>
<polygon fill="none" stroke="#000000" points="544,-215 544,-237 664,-237 664,-215 544,-215"/>
<text text-anchor="start" x="548.8725" y="-223" font-family="Times,serif" font-size="10.00" fill="#000000">versionNumber: NUMBER</text>
<polygon fill="none" stroke="#000000" points="544,-193 544,-215 664,-215 664,-193 544,-193"/>
<text text-anchor="start" x="549" y="-201" font-family="Times,serif" font-size="10.00" fill="#000000">createdAt: DATE</text>
<polygon fill="none" stroke="#000000" points="544,-171 544,-193 664,-193 664,-171 544,-171"/>
<text text-anchor="start" x="549" y="-179" font-family="Times,serif" font-size="10.00" fill="#000000">updatedAt: DATE</text>
</g>
<!-- Prototype&#45;&gt;PrototypeGroup -->
<g id="edge5" class="edge">
<title>Prototype&#45;&gt;PrototypeGroup</title>
<path fill="none" stroke="#0000ff" d="M676.1342,-262.5259C714.2747,-264.3902 760.3193,-266.6409 795.3677,-268.354"/>
<polygon fill="#0000ff" stroke="#0000ff" points="664.2611,-257.7405 676.0417,-262.5215 663.851,-266.1305 664.2611,-257.7405"/>
<polygon fill="#0000ff" stroke="#0000ff" points="795.7621,-268.3732 807.4841,-274.3527 801.755,-268.6662 807.7478,-268.9592 807.7478,-268.9592 807.7478,-268.9592 801.755,-268.6662 808.0115,-263.5656 795.7621,-268.3732 795.7621,-268.3732"/>
</g>
<!-- Part -->
<g id="node6" class="node">
<title>Part</title>
<polygon fill="#add8e6" stroke="transparent" points="239.5,-352 239.5,-374 400.5,-374 400.5,-352 239.5,-352"/>
<polygon fill="none" stroke="#000000" points="239.5,-352 239.5,-374 400.5,-374 400.5,-352 239.5,-352"/>
<text text-anchor="start" x="311.947" y="-361" font-family="Times,serif" font-weight="bold" font-size="10.00" fill="#000000">Part</text>
<polygon fill="none" stroke="#000000" points="239.5,-330 239.5,-352 400.5,-352 400.5,-330 239.5,-330"/>
<text text-anchor="start" x="244.5" y="-339" font-family="Times,serif" text-decoration="underline" font-size="10.00" fill="#000000">id</text>
<text text-anchor="start" x="252.279" y="-339" font-family="Times,serif" font-size="10.00" fill="#000000">: NUMBER</text>
<polygon fill="none" stroke="#000000" points="239.5,-308 239.5,-330 400.5,-330 400.5,-308 239.5,-308"/>
<text text-anchor="start" x="244.5" y="-316" font-family="Times,serif" font-size="10.00" fill="#000000">type: ENUM</text>
<polygon fill="none" stroke="#000000" points="239.5,-286 239.5,-308 400.5,-308 400.5,-286 239.5,-286"/>
<text text-anchor="start" x="244.5" y="-295" font-family="Times,serif" font-style="italic" text-decoration="underline" font-size="10.00" fill="#000000">prototypeId</text>
<text text-anchor="start" x="291.155" y="-295" font-family="Times,serif" font-size="10.00" fill="#000000">: UUID</text>
<polygon fill="none" stroke="#000000" points="239.5,-264 239.5,-286 400.5,-286 400.5,-264 239.5,-264"/>
<text text-anchor="start" x="244.5" y="-272" font-family="Times,serif" font-size="10.00" fill="#000000">parentId: NUMBER</text>
<polygon fill="none" stroke="#000000" points="239.5,-242 239.5,-264 400.5,-264 400.5,-242 239.5,-242"/>
<text text-anchor="start" x="244.5" y="-250" font-family="Times,serif" font-size="10.00" fill="#000000">position: JSON</text>
<polygon fill="none" stroke="#000000" points="239.5,-220 239.5,-242 400.5,-242 400.5,-220 239.5,-220"/>
<text text-anchor="start" x="244.5" y="-228" font-family="Times,serif" font-size="10.00" fill="#000000">width: NUMBER</text>
<polygon fill="none" stroke="#000000" points="239.5,-198 239.5,-220 400.5,-220 400.5,-198 239.5,-198"/>
<text text-anchor="start" x="244.5" y="-206" font-family="Times,serif" font-size="10.00" fill="#000000">height: NUMBER</text>
<polygon fill="none" stroke="#000000" points="239.5,-176 239.5,-198 400.5,-198 400.5,-176 239.5,-176"/>
<text text-anchor="start" x="244.5" y="-184" font-family="Times,serif" font-size="10.00" fill="#000000">order: NUMBER</text>
<polygon fill="none" stroke="#000000" points="239.5,-154 239.5,-176 400.5,-176 400.5,-154 239.5,-154"/>
<text text-anchor="start" x="244.5" y="-162" font-family="Times,serif" font-size="10.00" fill="#000000">configurableTypeAsChild: ARRAY</text>
<polygon fill="none" stroke="#000000" points="239.5,-132 239.5,-154 400.5,-154 400.5,-132 239.5,-132"/>
<text text-anchor="start" x="244.5" y="-140" font-family="Times,serif" font-size="10.00" fill="#000000">originalPartId: NUMBER</text>
<polygon fill="none" stroke="#000000" points="239.5,-110 239.5,-132 400.5,-132 400.5,-110 239.5,-110"/>
<text text-anchor="start" x="244.5" y="-118" font-family="Times,serif" font-size="10.00" fill="#000000">isReversible: BOOLEAN</text>
<polygon fill="none" stroke="#000000" points="239.5,-88 239.5,-110 400.5,-110 400.5,-88 239.5,-88"/>
<text text-anchor="start" x="244.5" y="-96" font-family="Times,serif" font-size="10.00" fill="#000000">isFlipped: BOOLEAN</text>
<polygon fill="none" stroke="#000000" points="239.5,-66 239.5,-88 400.5,-88 400.5,-66 239.5,-66"/>
<text text-anchor="start" x="244.5" y="-75" font-family="Times,serif" font-style="italic" text-decoration="underline" font-size="10.00" fill="#000000">ownerId</text>
<text text-anchor="start" x="277.816" y="-75" font-family="Times,serif" font-size="10.00" fill="#000000">: UUID</text>
<polygon fill="none" stroke="#000000" points="239.5,-44 239.5,-66 400.5,-66 400.5,-44 239.5,-44"/>
<text text-anchor="start" x="244.0615" y="-52" font-family="Times,serif" font-size="10.00" fill="#000000">canReverseCardOnDeck: BOOLEAN</text>
<polygon fill="none" stroke="#000000" points="239.5,-22 239.5,-44 400.5,-44 400.5,-22 239.5,-22"/>
<text text-anchor="start" x="244.5" y="-30" font-family="Times,serif" font-size="10.00" fill="#000000">createdAt: DATE</text>
<polygon fill="none" stroke="#000000" points="239.5,0 239.5,-22 400.5,-22 400.5,0 239.5,0"/>
<text text-anchor="start" x="244.5" y="-8" font-family="Times,serif" font-size="10.00" fill="#000000">updatedAt: DATE</text>
</g>
<!-- Part&#45;&gt;User -->
<g id="edge7" class="edge">
<title>Part&#45;&gt;User</title>
<path fill="none" stroke="#0000ff" d="M412.204,-169.7592C452.5377,-163.0893 500.4455,-156.2794 544,-153 699.0747,-141.3237 741.6546,-154.6357 891,-198 936.661,-211.2582 986.7882,-230.9296 1023.8651,-246.5125"/>
<polygon fill="#0000ff" stroke="#0000ff" points="399.522,-167.6317 412.0522,-169.7846 400.9143,-175.9155 399.522,-167.6317"/>
<polygon fill="#0000ff" stroke="#0000ff" points="1023.8854,-246.5211 1032.8252,-256.1772 1029.4094,-248.8634 1034.9333,-251.2057 1034.9333,-251.2057 1034.9333,-251.2057 1029.4094,-248.8634 1037.0414,-246.2342 1023.8854,-246.5211 1023.8854,-246.5211"/>
</g>
<!-- Part&#45;&gt;Prototype -->
<g id="edge6" class="edge">
<title>Part&#45;&gt;Prototype</title>
<path fill="none" stroke="#0000ff" d="M411.9787,-210.4041C450.867,-220.2458 495.434,-231.5246 531.8372,-240.7374"/>
<polygon fill="#0000ff" stroke="#0000ff" points="401.2957,-203.3681 411.8985,-210.3839 399.2348,-211.5114 401.2957,-203.3681"/>
<polygon fill="#0000ff" stroke="#0000ff" points="532.2164,-240.8332 542.5248,-249.0124 538.033,-242.3053 543.8496,-243.7774 543.8496,-243.7774 543.8496,-243.7774 538.033,-242.3053 545.1745,-238.5425 532.2164,-240.8332 532.2164,-240.8332"/>
</g>
<!-- PartProperty -->
<g id="node7" class="node">
<title>PartProperty</title>
<polygon fill="#add8e6" stroke="transparent" points=".5,-436 .5,-458 95.5,-458 95.5,-436 .5,-436"/>
<polygon fill="none" stroke="#000000" points=".5,-436 .5,-458 95.5,-458 95.5,-436 .5,-436"/>
<text text-anchor="start" x="22.7295" y="-445" font-family="Times,serif" font-weight="bold" font-size="10.00" fill="#000000">PartProperty</text>
<polygon fill="none" stroke="#000000" points=".5,-414 .5,-436 95.5,-436 95.5,-414 .5,-414"/>
<text text-anchor="start" x="5.5" y="-423" font-family="Times,serif" text-decoration="underline" font-size="10.00" fill="#000000">partId</text>
<text text-anchor="start" x="29.376" y="-423" font-family="Times,serif" font-size="10.00" fill="#000000">: NUMBER</text>
<polygon fill="none" stroke="#000000" points=".5,-392 .5,-414 95.5,-414 95.5,-392 .5,-392"/>
<text text-anchor="start" x="5.5" y="-401" font-family="Times,serif" text-decoration="underline" font-size="10.00" fill="#000000">side</text>
<text text-anchor="start" x="21.607" y="-401" font-family="Times,serif" font-size="10.00" fill="#000000">: ENUM</text>
<polygon fill="none" stroke="#000000" points=".5,-370 .5,-392 95.5,-392 95.5,-370 .5,-370"/>
<text text-anchor="start" x="5.5" y="-378" font-family="Times,serif" font-size="10.00" fill="#000000">name: STRING</text>
<polygon fill="none" stroke="#000000" points=".5,-348 .5,-370 95.5,-370 95.5,-348 .5,-348"/>
<text text-anchor="start" x="5.092" y="-356" font-family="Times,serif" font-size="10.00" fill="#000000">description: STRING</text>
<polygon fill="none" stroke="#000000" points=".5,-326 .5,-348 95.5,-348 95.5,-326 .5,-326"/>
<text text-anchor="start" x="5.5" y="-334" font-family="Times,serif" font-size="10.00" fill="#000000">color: STRING</text>
<polygon fill="none" stroke="#000000" points=".5,-304 .5,-326 95.5,-326 95.5,-304 .5,-304"/>
<text text-anchor="start" x="5.5" y="-312" font-family="Times,serif" font-size="10.00" fill="#000000">textColor: STRING</text>
<polygon fill="none" stroke="#000000" points=".5,-282 .5,-304 95.5,-304 95.5,-282 .5,-282"/>
<text text-anchor="start" x="5.5" y="-291" font-family="Times,serif" font-style="italic" text-decoration="underline" font-size="10.00" fill="#000000">imageId</text>
<text text-anchor="start" x="38.265" y="-291" font-family="Times,serif" font-size="10.00" fill="#000000">: UUID</text>
<polygon fill="none" stroke="#000000" points=".5,-260 .5,-282 95.5,-282 95.5,-260 .5,-260"/>
<text text-anchor="start" x="5.5" y="-268" font-family="Times,serif" font-size="10.00" fill="#000000">createdAt: DATE</text>
<polygon fill="none" stroke="#000000" points=".5,-238 .5,-260 95.5,-260 95.5,-238 .5,-238"/>
<text text-anchor="start" x="5.5" y="-246" font-family="Times,serif" font-size="10.00" fill="#000000">updatedAt: DATE</text>
</g>
<!-- PartProperty&#45;&gt;Image -->
<g id="edge9" class="edge">
<title>PartProperty&#45;&gt;Image</title>
<path fill="none" stroke="#0000ff" d="M105.7141,-382.4576C150.1801,-408.7776 211.3596,-444.9904 256.8817,-471.9355"/>
<polygon fill="#0000ff" stroke="#0000ff" points="97.3294,-372.614 105.5166,-382.3408 93.0507,-379.8426 97.3294,-372.614"/>
<polygon fill="#0000ff" stroke="#0000ff" points="256.8926,-471.9419 264.4686,-482.7013 262.0559,-474.9981 267.2192,-478.0544 267.2192,-478.0544 267.2192,-478.0544 262.0559,-474.9981 269.9698,-473.4074 256.8926,-471.9419 256.8926,-471.9419"/>
</g>
<!-- PartProperty&#45;&gt;Part -->
<g id="edge8" class="edge">
<title>PartProperty&#45;&gt;Part</title>
<path fill="none" stroke="#0000ff" d="M105.7753,-313.5062C141.4558,-292.3865 187.8807,-264.907 228.3426,-240.9572"/>
<polygon fill="#0000ff" stroke="#0000ff" points="93.0507,-316.1574 105.5166,-313.6592 97.3294,-323.386 93.0507,-316.1574"/>
<polygon fill="#0000ff" stroke="#0000ff" points="228.4359,-240.902 241.5131,-239.4365 233.5992,-237.8457 238.7625,-234.7895 238.7625,-234.7895 238.7625,-234.7895 233.5992,-237.8457 236.0119,-230.1425 228.4359,-240.902 228.4359,-240.902"/>
</g>
</g>
</svg>
