<?xml version="1.0" encoding="UTF-8" standalone="no"?>
<!DOCTYPE svg PUBLIC "-//W3C//DTD SVG 1.1//EN"
 "http://www.w3.org/Graphics/SVG/1.1/DTD/svg11.dtd">
<!-- Generated by graphviz version 2.40.1 (20161225.0304)
 -->
<!-- Title: models_diagram Pages: 1 -->
<svg width="1216pt" height="848pt"
 viewBox="0.00 0.00 1216.00 848.00" xmlns="http://www.w3.org/2000/svg" xmlns:xlink="http://www.w3.org/1999/xlink">
<g id="graph0" class="graph" transform="scale(1 1) rotate(0) translate(36 812)">
<title>models_diagram</title>
<polygon fill="#ffffff" stroke="transparent" points="-36,36 -36,-812 1180,-812 1180,36 -36,36"/>
<!-- User -->
<g id="node1" class="node">
<title>User</title>
<polygon fill="#add8e6" stroke="transparent" points="820.5,-530 820.5,-552 909.5,-552 909.5,-530 820.5,-530"/>
<polygon fill="none" stroke="#000000" points="820.5,-530 820.5,-552 909.5,-552 909.5,-530 820.5,-530"/>
<text text-anchor="start" x="855.562" y="-539" font-family="Times,serif" font-weight="bold" font-size="10.00" fill="#000000">User</text>
<polygon fill="none" stroke="#000000" points="820.5,-508 820.5,-530 909.5,-530 909.5,-508 820.5,-508"/>
<text text-anchor="start" x="825.5" y="-517" font-family="Times,serif" text-decoration="underline" font-size="10.00" fill="#000000">id</text>
<text text-anchor="start" x="833.279" y="-517" font-family="Times,serif" font-size="10.00" fill="#000000">: UUID</text>
<polygon fill="none" stroke="#000000" points="820.5,-486 820.5,-508 909.5,-508 909.5,-486 820.5,-486"/>
<text text-anchor="start" x="825.5" y="-494" font-family="Times,serif" font-size="10.00" fill="#000000">googleId: STRING</text>
<polygon fill="none" stroke="#000000" points="820.5,-464 820.5,-486 909.5,-486 909.5,-464 820.5,-464"/>
<text text-anchor="start" x="825.1515" y="-472" font-family="Times,serif" font-size="10.00" fill="#000000">username: STRING</text>
<polygon fill="none" stroke="#000000" points="820.5,-442 820.5,-464 909.5,-464 909.5,-442 820.5,-442"/>
<text text-anchor="start" x="825.5" y="-450" font-family="Times,serif" font-size="10.00" fill="#000000">createdAt: DATE</text>
<polygon fill="none" stroke="#000000" points="820.5,-420 820.5,-442 909.5,-442 909.5,-420 820.5,-420"/>
<text text-anchor="start" x="825.5" y="-428" font-family="Times,serif" font-size="10.00" fill="#000000">updatedAt: DATE</text>
</g>
<!-- UserAccess -->
<g id="node8" class="node">
<title>UserAccess</title>
<polygon fill="#add8e6" stroke="transparent" points="1053.5,-611 1053.5,-633 1144.5,-633 1144.5,-611 1053.5,-611"/>
<polygon fill="none" stroke="#000000" points="1053.5,-611 1053.5,-633 1144.5,-633 1144.5,-611 1053.5,-611"/>
<text text-anchor="start" x="1075.405" y="-620" font-family="Times,serif" font-weight="bold" font-size="10.00" fill="#000000">UserAccess</text>
<polygon fill="none" stroke="#000000" points="1053.5,-589 1053.5,-611 1144.5,-611 1144.5,-589 1053.5,-589"/>
<text text-anchor="start" x="1058.5" y="-598" font-family="Times,serif" text-decoration="underline" font-size="10.00" fill="#000000">userId</text>
<text text-anchor="start" x="1083.486" y="-598" font-family="Times,serif" font-size="10.00" fill="#000000">: UUID</text>
<polygon fill="none" stroke="#000000" points="1053.5,-567 1053.5,-589 1144.5,-589 1144.5,-567 1053.5,-567"/>
<text text-anchor="start" x="1058.042" y="-576" font-family="Times,serif" text-decoration="underline" font-size="10.00" fill="#000000">accessId</text>
<text text-anchor="start" x="1091.905" y="-576" font-family="Times,serif" font-size="10.00" fill="#000000">: NUMBER</text>
</g>
<!-- User&#45;&gt;UserAccess -->
<g id="edge1" class="edge">
<title>User&#45;&gt;UserAccess</title>
<path fill="none" stroke="#0000ff" d="M920.1101,-513.0921C956.8499,-530.991 1004.8573,-554.3792 1041.8142,-572.3838"/>
<polygon fill="#0000ff" stroke="#0000ff" points="919.8523,-512.9665 911.4295,-502.8563 914.4583,-510.3387 909.0644,-507.7109 909.0644,-507.7109 909.0644,-507.7109 914.4583,-510.3387 906.6993,-512.5654 919.8523,-512.9665 919.8523,-512.9665"/>
<polygon fill="#0000ff" stroke="#0000ff" points="1042.1162,-572.5309 1050.5391,-582.6412 1047.5102,-575.1588 1052.9041,-577.7866 1052.9041,-577.7866 1052.9041,-577.7866 1047.5102,-575.1588 1055.2692,-572.9321 1042.1162,-572.5309 1042.1162,-572.5309"/>
</g>
<!-- Prototype -->
<g id="node2" class="node">
<title>Prototype</title>
<polygon fill="#add8e6" stroke="transparent" points="562,-585 562,-607 676,-607 676,-585 562,-585"/>
<polygon fill="none" stroke="#000000" points="562,-585 562,-607 676,-607 676,-585 562,-585"/>
<text text-anchor="start" x="599.5575" y="-594" font-family="Times,serif" font-weight="bold" font-size="10.00" fill="#000000">Prototype</text>
<polygon fill="none" stroke="#000000" points="562,-563 562,-585 676,-585 676,-563 562,-563"/>
<text text-anchor="start" x="567" y="-572" font-family="Times,serif" text-decoration="underline" font-size="10.00" fill="#000000">id</text>
<text text-anchor="start" x="574.779" y="-572" font-family="Times,serif" font-size="10.00" fill="#000000">: UUID</text>
<polygon fill="none" stroke="#000000" points="562,-541 562,-563 676,-563 676,-541 562,-541"/>
<text text-anchor="start" x="567" y="-550" font-family="Times,serif" font-style="italic" text-decoration="underline" font-size="10.00" fill="#000000">userId</text>
<text text-anchor="start" x="591.986" y="-550" font-family="Times,serif" font-size="10.00" fill="#000000">: UUID</text>
<polygon fill="none" stroke="#000000" points="562,-519 562,-541 676,-541 676,-519 562,-519"/>
<text text-anchor="start" x="567" y="-527" font-family="Times,serif" font-size="10.00" fill="#000000">name: STRING</text>
<polygon fill="none" stroke="#000000" points="562,-497 562,-519 676,-519 676,-497 562,-497"/>
<text text-anchor="start" x="567" y="-505" font-family="Times,serif" font-size="10.00" fill="#000000">type: ENUM</text>
<polygon fill="none" stroke="#000000" points="562,-475 562,-497 676,-497 676,-475 562,-475"/>
<text text-anchor="start" x="566.9335" y="-484" font-family="Times,serif" font-style="italic" text-decoration="underline" font-size="10.00" fill="#000000">masterPrototypeId</text>
<text text-anchor="start" x="640.8015" y="-484" font-family="Times,serif" font-size="10.00" fill="#000000">: UUID</text>
<polygon fill="none" stroke="#000000" points="562,-453 562,-475 676,-475 676,-453 562,-453"/>
<text text-anchor="start" x="567" y="-461" font-family="Times,serif" font-size="10.00" fill="#000000">groupId: UUID</text>
<polygon fill="none" stroke="#000000" points="562,-431 562,-453 676,-453 676,-431 562,-431"/>
<text text-anchor="start" x="567" y="-439" font-family="Times,serif" font-size="10.00" fill="#000000">minPlayers: NUMBER</text>
<polygon fill="none" stroke="#000000" points="562,-409 562,-431 676,-431 676,-409 562,-409"/>
<text text-anchor="start" x="567" y="-417" font-family="Times,serif" font-size="10.00" fill="#000000">maxPlayers: NUMBER</text>
<polygon fill="none" stroke="#000000" points="562,-387 562,-409 676,-409 676,-387 562,-387"/>
<text text-anchor="start" x="567" y="-395" font-family="Times,serif" font-size="10.00" fill="#000000">createdAt: DATE</text>
<polygon fill="none" stroke="#000000" points="562,-365 562,-387 676,-387 676,-365 562,-365"/>
<text text-anchor="start" x="567" y="-373" font-family="Times,serif" font-size="10.00" fill="#000000">updatedAt: DATE</text>
</g>
<!-- Prototype&#45;&gt;User -->
<g id="edge3" class="edge">
<title>Prototype&#45;&gt;User</title>
<path fill="none" stroke="#0000ff" d="M688.4047,-486C726.1202,-486 772.1771,-486 807.7285,-486"/>
<polygon fill="#0000ff" stroke="#0000ff" points="676.249,-481.8 688.249,-486.0001 676.249,-490.2 676.249,-481.8"/>
<polygon fill="#0000ff" stroke="#0000ff" points="807.8344,-486.0001 819.8344,-491.4 813.8344,-486 819.8344,-486 819.8344,-486 819.8344,-486 813.8344,-486 819.8343,-480.6 807.8344,-486.0001 807.8344,-486.0001"/>
</g>
<!-- PrototypeGroup -->
<g id="node3" class="node">
<title>PrototypeGroup</title>
<polygon fill="#add8e6" stroke="transparent" points="318.5,-622 318.5,-644 404.5,-644 404.5,-622 318.5,-622"/>
<polygon fill="none" stroke="#000000" points="318.5,-622 318.5,-644 404.5,-644 404.5,-622 318.5,-622"/>
<text text-anchor="start" x="329.2835" y="-631" font-family="Times,serif" font-weight="bold" font-size="10.00" fill="#000000">PrototypeGroup</text>
<polygon fill="none" stroke="#000000" points="318.5,-600 318.5,-622 404.5,-622 404.5,-600 318.5,-600"/>
<text text-anchor="start" x="323.5" y="-609" font-family="Times,serif" text-decoration="underline" font-size="10.00" fill="#000000">id</text>
<text text-anchor="start" x="331.279" y="-609" font-family="Times,serif" font-size="10.00" fill="#000000">: UUID</text>
<polygon fill="none" stroke="#000000" points="318.5,-578 318.5,-600 404.5,-600 404.5,-578 318.5,-578"/>
<text text-anchor="start" x="323.04" y="-587" font-family="Times,serif" text-decoration="underline" font-size="10.00" fill="#000000">prototypeId</text>
<text text-anchor="start" x="369.695" y="-587" font-family="Times,serif" font-size="10.00" fill="#000000">: UUID</text>
</g>
<!-- PrototypeGroup&#45;&gt;Prototype -->
<g id="edge4" class="edge">
<title>PrototypeGroup&#45;&gt;Prototype</title>
<path fill="none" stroke="#0000ff" d="M415.6546,-584.7114C454.9676,-565.6274 508.4458,-539.6671 550.6927,-519.1589"/>
<polygon fill="#0000ff" stroke="#0000ff" points="402.7655,-586.2995 415.395,-584.8373 406.4339,-593.8562 402.7655,-586.2995"/>
<polygon fill="#0000ff" stroke="#0000ff" points="550.936,-519.0408 564.0895,-518.6582 556.3336,-516.4206 561.7312,-513.8004 561.7312,-513.8004 561.7312,-513.8004 556.3336,-516.4206 559.373,-508.9425 550.936,-519.0408 550.936,-519.0408"/>
</g>
<!-- Access -->
<g id="node4" class="node">
<title>Access</title>
<polygon fill="#add8e6" stroke="transparent" points="24.5,-754 24.5,-776 136.5,-776 136.5,-754 24.5,-754"/>
<polygon fill="none" stroke="#000000" points="24.5,-754 24.5,-776 136.5,-776 136.5,-754 24.5,-754"/>
<text text-anchor="start" x="66.343" y="-763" font-family="Times,serif" font-weight="bold" font-size="10.00" fill="#000000">Access</text>
<polygon fill="none" stroke="#000000" points="24.5,-732 24.5,-754 136.5,-754 136.5,-732 24.5,-732"/>
<text text-anchor="start" x="29.5" y="-741" font-family="Times,serif" text-decoration="underline" font-size="10.00" fill="#000000">id</text>
<text text-anchor="start" x="37.279" y="-741" font-family="Times,serif" font-size="10.00" fill="#000000">: NUMBER</text>
<polygon fill="none" stroke="#000000" points="24.5,-710 24.5,-732 136.5,-732 136.5,-710 24.5,-710"/>
<text text-anchor="start" x="29.266" y="-718" font-family="Times,serif" font-size="10.00" fill="#000000">prototypeGroupId: UUID</text>
<polygon fill="none" stroke="#000000" points="24.5,-688 24.5,-710 136.5,-710 136.5,-688 24.5,-688"/>
<text text-anchor="start" x="29.5" y="-696" font-family="Times,serif" font-size="10.00" fill="#000000">name: STRING</text>
</g>
<!-- Access&#45;&gt;PrototypeGroup -->
<g id="edge5" class="edge">
<title>Access&#45;&gt;PrototypeGroup</title>
<path fill="none" stroke="#0000ff" d="M148.0043,-702.9323C196.7596,-681.938 261.7515,-653.9522 307.1706,-634.3945"/>
<polygon fill="#0000ff" stroke="#0000ff" points="135.0281,-703.9471 147.7108,-703.0586 138.3503,-711.6622 135.0281,-703.9471"/>
<polygon fill="#0000ff" stroke="#0000ff" points="307.2527,-634.3592 320.41,-634.5729 312.7635,-631.9862 318.2743,-629.6132 318.2743,-629.6132 318.2743,-629.6132 312.7635,-631.9862 316.1386,-624.6535 307.2527,-634.3592 307.2527,-634.3592"/>
</g>
<!-- Access&#45;&gt;UserAccess -->
<g id="edge2" class="edge">
<title>Access&#45;&gt;UserAccess</title>
<path fill="none" stroke="#0000ff" d="M148.6279,-723.1661C337.5005,-698.6758 865.3924,-630.2261 1040.9229,-607.4658"/>
<polygon fill="#0000ff" stroke="#0000ff" points="148.5825,-723.1719 135.9877,-719.3599 142.6323,-723.9435 136.6822,-724.7151 136.6822,-724.7151 136.6822,-724.7151 142.6323,-723.9435 137.3766,-730.0703 148.5825,-723.1719 148.5825,-723.1719"/>
<polygon fill="#0000ff" stroke="#0000ff" points="1041.0423,-607.4504 1053.6371,-611.2624 1046.9925,-606.6788 1052.9427,-605.9072 1052.9427,-605.9072 1052.9427,-605.9072 1046.9925,-606.6788 1052.2483,-600.5521 1041.0423,-607.4504 1041.0423,-607.4504"/>
</g>
<!-- PrototypeVersion -->
<g id="node5" class="node">
<title>PrototypeVersion</title>
<polygon fill="#add8e6" stroke="transparent" points="305.5,-487 305.5,-509 418.5,-509 418.5,-487 305.5,-487"/>
<polygon fill="none" stroke="#000000" points="305.5,-487 305.5,-509 418.5,-509 418.5,-487 305.5,-487"/>
<text text-anchor="start" x="326.73" y="-496" font-family="Times,serif" font-weight="bold" font-size="10.00" fill="#000000">PrototypeVersion</text>
<polygon fill="none" stroke="#000000" points="305.5,-465 305.5,-487 418.5,-487 418.5,-465 305.5,-465"/>
<text text-anchor="start" x="310.5" y="-474" font-family="Times,serif" text-decoration="underline" font-size="10.00" fill="#000000">id</text>
<text text-anchor="start" x="318.279" y="-474" font-family="Times,serif" font-size="10.00" fill="#000000">: UUID</text>
<polygon fill="none" stroke="#000000" points="305.5,-443 305.5,-465 418.5,-465 418.5,-443 305.5,-443"/>
<text text-anchor="start" x="310.5" y="-452" font-family="Times,serif" font-style="italic" text-decoration="underline" font-size="10.00" fill="#000000">prototypeId</text>
<text text-anchor="start" x="357.155" y="-452" font-family="Times,serif" font-size="10.00" fill="#000000">: UUID</text>
<polygon fill="none" stroke="#000000" points="305.5,-421 305.5,-443 418.5,-443 418.5,-421 305.5,-421"/>
<text text-anchor="start" x="310.2075" y="-429" font-family="Times,serif" font-size="10.00" fill="#000000">versionNumber: STRING</text>
<polygon fill="none" stroke="#000000" points="305.5,-399 305.5,-421 418.5,-421 418.5,-399 305.5,-399"/>
<text text-anchor="start" x="310.5" y="-407" font-family="Times,serif" font-size="10.00" fill="#000000">description: STRING</text>
<polygon fill="none" stroke="#000000" points="305.5,-377 305.5,-399 418.5,-399 418.5,-377 305.5,-377"/>
<text text-anchor="start" x="310.5" y="-385" font-family="Times,serif" font-size="10.00" fill="#000000">createdAt: DATE</text>
<polygon fill="none" stroke="#000000" points="305.5,-355 305.5,-377 418.5,-377 418.5,-355 305.5,-355"/>
<text text-anchor="start" x="310.5" y="-363" font-family="Times,serif" font-size="10.00" fill="#000000">updatedAt: DATE</text>
</g>
<!-- PrototypeVersion&#45;&gt;Prototype -->
<g id="edge6" class="edge">
<title>PrototypeVersion&#45;&gt;Prototype</title>
<path fill="none" stroke="#0000ff" d="M429.8574,-446.3351C466.9744,-454.1189 512.7494,-463.7183 549.9702,-471.5239"/>
<polygon fill="#0000ff" stroke="#0000ff" points="418.8715,-439.7399 429.754,-446.3135 417.1474,-447.9611 418.8715,-439.7399"/>
<polygon fill="#0000ff" stroke="#0000ff" points="549.988,-471.5275 560.6241,-479.2755 555.8602,-472.759 561.7325,-473.9905 561.7325,-473.9905 561.7325,-473.9905 555.8602,-472.759 562.8409,-468.7055 549.988,-471.5275 549.988,-471.5275"/>
</g>
<!-- Part -->
<g id="node6" class="node">
<title>Part</title>
<polygon fill="#add8e6" stroke="transparent" points=".5,-630 .5,-652 161.5,-652 161.5,-630 .5,-630"/>
<polygon fill="none" stroke="#000000" points=".5,-630 .5,-652 161.5,-652 161.5,-630 .5,-630"/>
<text text-anchor="start" x="72.947" y="-639" font-family="Times,serif" font-weight="bold" font-size="10.00" fill="#000000">Part</text>
<polygon fill="none" stroke="#000000" points=".5,-608 .5,-630 161.5,-630 161.5,-608 .5,-608"/>
<text text-anchor="start" x="5.5" y="-617" font-family="Times,serif" text-decoration="underline" font-size="10.00" fill="#000000">id</text>
<text text-anchor="start" x="13.279" y="-617" font-family="Times,serif" font-size="10.00" fill="#000000">: NUMBER</text>
<polygon fill="none" stroke="#000000" points=".5,-586 .5,-608 161.5,-608 161.5,-586 .5,-586"/>
<text text-anchor="start" x="5.5" y="-594" font-family="Times,serif" font-size="10.00" fill="#000000">type: STRING</text>
<polygon fill="none" stroke="#000000" points=".5,-564 .5,-586 161.5,-586 161.5,-564 .5,-564"/>
<text text-anchor="start" x="5.5" y="-573" font-family="Times,serif" font-style="italic" text-decoration="underline" font-size="10.00" fill="#000000">prototypeVersionId</text>
<text text-anchor="start" x="83.81" y="-573" font-family="Times,serif" font-size="10.00" fill="#000000">: UUID</text>
<polygon fill="none" stroke="#000000" points=".5,-542 .5,-564 161.5,-564 161.5,-542 .5,-542"/>
<text text-anchor="start" x="5.5" y="-550" font-family="Times,serif" font-size="10.00" fill="#000000">parentId: NUMBER</text>
<polygon fill="none" stroke="#000000" points=".5,-520 .5,-542 161.5,-542 161.5,-520 .5,-520"/>
<text text-anchor="start" x="5.5" y="-528" font-family="Times,serif" font-size="10.00" fill="#000000">name: STRING</text>
<polygon fill="none" stroke="#000000" points=".5,-498 .5,-520 161.5,-520 161.5,-498 .5,-498"/>
<text text-anchor="start" x="5.5" y="-506" font-family="Times,serif" font-size="10.00" fill="#000000">description: STRING</text>
<polygon fill="none" stroke="#000000" points=".5,-476 .5,-498 161.5,-498 161.5,-476 .5,-476"/>
<text text-anchor="start" x="5.5" y="-484" font-family="Times,serif" font-size="10.00" fill="#000000">color: STRING</text>
<polygon fill="none" stroke="#000000" points=".5,-454 .5,-476 161.5,-476 161.5,-454 .5,-454"/>
<text text-anchor="start" x="5.5" y="-462" font-family="Times,serif" font-size="10.00" fill="#000000">position: JSON</text>
<polygon fill="none" stroke="#000000" points=".5,-432 .5,-454 161.5,-454 161.5,-432 .5,-432"/>
<text text-anchor="start" x="5.5" y="-440" font-family="Times,serif" font-size="10.00" fill="#000000">width: NUMBER</text>
<polygon fill="none" stroke="#000000" points=".5,-410 .5,-432 161.5,-432 161.5,-410 .5,-410"/>
<text text-anchor="start" x="5.5" y="-418" font-family="Times,serif" font-size="10.00" fill="#000000">height: NUMBER</text>
<polygon fill="none" stroke="#000000" points=".5,-388 .5,-410 161.5,-410 161.5,-388 .5,-388"/>
<text text-anchor="start" x="5.5" y="-396" font-family="Times,serif" font-size="10.00" fill="#000000">order: NUMBER</text>
<polygon fill="none" stroke="#000000" points=".5,-366 .5,-388 161.5,-388 161.5,-366 .5,-366"/>
<text text-anchor="start" x="5.5" y="-374" font-family="Times,serif" font-size="10.00" fill="#000000">configurableTypeAsChild: ARRAY</text>
<polygon fill="none" stroke="#000000" points=".5,-344 .5,-366 161.5,-366 161.5,-344 .5,-344"/>
<text text-anchor="start" x="5.5" y="-352" font-family="Times,serif" font-size="10.00" fill="#000000">originalPartId: NUMBER</text>
<polygon fill="none" stroke="#000000" points=".5,-322 .5,-344 161.5,-344 161.5,-322 .5,-322"/>
<text text-anchor="start" x="5.5" y="-330" font-family="Times,serif" font-size="10.00" fill="#000000">isReversible: BOOLEAN</text>
<polygon fill="none" stroke="#000000" points=".5,-300 .5,-322 161.5,-322 161.5,-300 .5,-300"/>
<text text-anchor="start" x="5.5" y="-308" font-family="Times,serif" font-size="10.00" fill="#000000">isFlipped: BOOLEAN</text>
<polygon fill="none" stroke="#000000" points=".5,-278 .5,-300 161.5,-300 161.5,-278 .5,-278"/>
<text text-anchor="start" x="5.5" y="-286" font-family="Times,serif" font-size="10.00" fill="#000000">ownerId: NUMBER</text>
<polygon fill="none" stroke="#000000" points=".5,-256 .5,-278 161.5,-278 161.5,-256 .5,-256"/>
<text text-anchor="start" x="5.0615" y="-264" font-family="Times,serif" font-size="10.00" fill="#000000">canReverseCardOnDeck: BOOLEAN</text>
<polygon fill="none" stroke="#000000" points=".5,-234 .5,-256 161.5,-256 161.5,-234 .5,-234"/>
<text text-anchor="start" x="5.5" y="-242" font-family="Times,serif" font-size="10.00" fill="#000000">createdAt: DATE</text>
<polygon fill="none" stroke="#000000" points=".5,-212 .5,-234 161.5,-234 161.5,-212 .5,-212"/>
<text text-anchor="start" x="5.5" y="-220" font-family="Times,serif" font-size="10.00" fill="#000000">updatedAt: DATE</text>
</g>
<!-- Part&#45;&gt;PrototypeVersion -->
<g id="edge7" class="edge">
<title>Part&#45;&gt;PrototypeVersion</title>
<path fill="none" stroke="#0000ff" d="M173.0726,-432C211.9224,-432 256.3268,-432 292.2681,-432"/>
<polygon fill="#0000ff" stroke="#0000ff" points="161.0234,-427.8 173.0233,-432.0001 161.0233,-436.2 161.0234,-427.8"/>
<polygon fill="#0000ff" stroke="#0000ff" points="292.6051,-432.0001 304.6051,-437.4 298.6051,-432 304.6051,-432 304.6051,-432 304.6051,-432 298.6051,-432 304.605,-426.6 292.6051,-432.0001 292.6051,-432.0001"/>
</g>
<!-- Player -->
<g id="node7" class="node">
<title>Player</title>
<polygon fill="#add8e6" stroke="transparent" points="19.5,-154 19.5,-176 142.5,-176 142.5,-154 19.5,-154"/>
<polygon fill="none" stroke="#000000" points="19.5,-154 19.5,-176 142.5,-176 142.5,-154 19.5,-154"/>
<text text-anchor="start" x="68.2275" y="-163" font-family="Times,serif" font-weight="bold" font-size="10.00" fill="#000000">Player</text>
<polygon fill="none" stroke="#000000" points="19.5,-132 19.5,-154 142.5,-154 142.5,-132 19.5,-132"/>
<text text-anchor="start" x="24.5" y="-141" font-family="Times,serif" text-decoration="underline" font-size="10.00" fill="#000000">id</text>
<text text-anchor="start" x="32.279" y="-141" font-family="Times,serif" font-size="10.00" fill="#000000">: NUMBER</text>
<polygon fill="none" stroke="#000000" points="19.5,-110 19.5,-132 142.5,-132 142.5,-110 19.5,-110"/>
<text text-anchor="start" x="24.5" y="-119" font-family="Times,serif" font-style="italic" text-decoration="underline" font-size="10.00" fill="#000000">prototypeVersionId</text>
<text text-anchor="start" x="102.81" y="-119" font-family="Times,serif" font-size="10.00" fill="#000000">: UUID</text>
<polygon fill="none" stroke="#000000" points="19.5,-88 19.5,-110 142.5,-110 142.5,-88 19.5,-88"/>
<text text-anchor="start" x="24.5" y="-97" font-family="Times,serif" font-style="italic" text-decoration="underline" font-size="10.00" fill="#000000">userId</text>
<text text-anchor="start" x="49.486" y="-97" font-family="Times,serif" font-size="10.00" fill="#000000">: UUID</text>
<polygon fill="none" stroke="#000000" points="19.5,-66 19.5,-88 142.5,-88 142.5,-66 19.5,-66"/>
<text text-anchor="start" x="24.5" y="-74" font-family="Times,serif" font-size="10.00" fill="#000000">playerName: STRING</text>
<polygon fill="none" stroke="#000000" points="19.5,-44 19.5,-66 142.5,-66 142.5,-44 19.5,-44"/>
<text text-anchor="start" x="24.484" y="-52" font-family="Times,serif" font-size="10.00" fill="#000000">originalPlayerId: NUMBER</text>
<polygon fill="none" stroke="#000000" points="19.5,-22 19.5,-44 142.5,-44 142.5,-22 19.5,-22"/>
<text text-anchor="start" x="24.5" y="-30" font-family="Times,serif" font-size="10.00" fill="#000000">createdAt: DATE</text>
<polygon fill="none" stroke="#000000" points="19.5,0 19.5,-22 142.5,-22 142.5,0 19.5,0"/>
<text text-anchor="start" x="24.5" y="-8" font-family="Times,serif" font-size="10.00" fill="#000000">updatedAt: DATE</text>
</g>
<!-- Player&#45;&gt;User -->
<g id="edge9" class="edge">
<title>Player&#45;&gt;User</title>
<path fill="none" stroke="#0000ff" d="M153.6986,-113.7318C268.6343,-155.4652 496.8062,-243.7286 676,-347 723.8624,-374.5836 774.0133,-412.0384 810.5436,-441.1183"/>
<polygon fill="#0000ff" stroke="#0000ff" points="143.6919,-105.6481 153.5491,-113.6778 140.836,-113.5477 143.6919,-105.6481"/>
<polygon fill="#0000ff" stroke="#0000ff" points="810.6373,-441.1934 816.621,-452.9133 815.3182,-444.9469 819.9992,-448.7005 819.9992,-448.7005 819.9992,-448.7005 815.3182,-444.9469 823.3774,-444.4877 810.6373,-441.1934 810.6373,-441.1934"/>
</g>
<!-- Player&#45;&gt;PrototypeVersion -->
<g id="edge8" class="edge">
<title>Player&#45;&gt;PrototypeVersion</title>
<path fill="none" stroke="#0000ff" d="M149.9963,-173.0773C195.0333,-228.2116 253.2746,-299.5105 297.2347,-353.3265"/>
<polygon fill="#0000ff" stroke="#0000ff" points="145.4194,-160.8352 149.7582,-172.7858 138.9139,-166.1493 145.4194,-160.8352"/>
<polygon fill="#0000ff" stroke="#0000ff" points="297.4011,-353.5302 300.8105,-366.2399 301.1968,-358.1769 304.9926,-362.8237 304.9926,-362.8237 304.9926,-362.8237 301.1968,-358.1769 309.1747,-359.4075 297.4011,-353.5302 297.4011,-353.5302"/>
</g>
</g>
</svg>
