<?xml version="1.0" encoding="UTF-8" standalone="no"?>
<!DOCTYPE svg PUBLIC "-//W3C//DTD SVG 1.1//EN"
 "http://www.w3.org/Graphics/SVG/1.1/DTD/svg11.dtd">
<!-- Generated by graphviz version 2.40.1 (20161225.0304)
 -->
<!-- Title: models_diagram Pages: 1 -->
<svg width="1424pt" height="678pt"
 viewBox="0.00 0.00 1424.00 678.00" xmlns="http://www.w3.org/2000/svg" xmlns:xlink="http://www.w3.org/1999/xlink">
<g id="graph0" class="graph" transform="scale(1 1) rotate(0) translate(36 642)">
<title>models_diagram</title>
<polygon fill="#ffffff" stroke="transparent" points="-36,36 -36,-642 1388,-642 1388,36 -36,36"/>
<!-- Role -->
<g id="node1" class="node">
<title>Role</title>
<polygon fill="#add8e6" stroke="transparent" points="1003.5,-372 1003.5,-394 1098.5,-394 1098.5,-372 1003.5,-372"/>
<polygon fill="none" stroke="#000000" points="1003.5,-372 1003.5,-394 1098.5,-394 1098.5,-372 1003.5,-372"/>
<text text-anchor="start" x="1041.5565" y="-381" font-family="Times,serif" font-weight="bold" font-size="10.00" fill="#000000">Role</text>
<polygon fill="none" stroke="#000000" points="1003.5,-350 1003.5,-372 1098.5,-372 1098.5,-350 1003.5,-350"/>
<text text-anchor="start" x="1008.5" y="-359" font-family="Times,serif" text-decoration="underline" font-size="10.00" fill="#000000">id</text>
<text text-anchor="start" x="1016.279" y="-359" font-family="Times,serif" font-size="10.00" fill="#000000">: NUMBER</text>
<polygon fill="none" stroke="#000000" points="1003.5,-328 1003.5,-350 1098.5,-350 1098.5,-328 1003.5,-328"/>
<text text-anchor="start" x="1008.5" y="-336" font-family="Times,serif" font-size="10.00" fill="#000000">name: STRING</text>
<polygon fill="none" stroke="#000000" points="1003.5,-306 1003.5,-328 1098.5,-328 1098.5,-306 1003.5,-306"/>
<text text-anchor="start" x="1008.092" y="-314" font-family="Times,serif" font-size="10.00" fill="#000000">description: STRING</text>
<polygon fill="none" stroke="#000000" points="1003.5,-284 1003.5,-306 1098.5,-306 1098.5,-284 1003.5,-284"/>
<text text-anchor="start" x="1008.5" y="-292" font-family="Times,serif" font-size="10.00" fill="#000000">createdAt: DATE</text>
<polygon fill="none" stroke="#000000" points="1003.5,-262 1003.5,-284 1098.5,-284 1098.5,-262 1003.5,-262"/>
<text text-anchor="start" x="1008.5" y="-270" font-family="Times,serif" font-size="10.00" fill="#000000">updatedAt: DATE</text>
</g>
<!-- RolePermission -->
<g id="node3" class="node">
<title>RolePermission</title>
<polygon fill="#add8e6" stroke="transparent" points="1242,-420 1242,-442 1352,-442 1352,-420 1242,-420"/>
<polygon fill="none" stroke="#000000" points="1242,-420 1242,-442 1352,-442 1352,-420 1242,-420"/>
<text text-anchor="start" x="1265.3355" y="-429" font-family="Times,serif" font-weight="bold" font-size="10.00" fill="#000000">RolePermission</text>
<polygon fill="none" stroke="#000000" points="1242,-398 1242,-420 1352,-420 1352,-398 1242,-398"/>
<text text-anchor="start" x="1247" y="-407" font-family="Times,serif" text-decoration="underline" font-size="10.00" fill="#000000">roleId</text>
<text text-anchor="start" x="1270.876" y="-407" font-family="Times,serif" font-size="10.00" fill="#000000">: NUMBER</text>
<polygon fill="none" stroke="#000000" points="1242,-376 1242,-398 1352,-398 1352,-376 1242,-376"/>
<text text-anchor="start" x="1246.8675" y="-385" font-family="Times,serif" text-decoration="underline" font-size="10.00" fill="#000000">permissionId</text>
<text text-anchor="start" x="1299.0795" y="-385" font-family="Times,serif" font-size="10.00" fill="#000000">: NUMBER</text>
</g>
<!-- Role&#45;&gt;RolePermission -->
<g id="edge1" class="edge">
<title>Role&#45;&gt;RolePermission</title>
<path fill="none" stroke="#0000ff" d="M1109.5336,-347.3985C1145.7947,-359.3139 1192.346,-374.6106 1229.9883,-386.9799"/>
<polygon fill="#0000ff" stroke="#0000ff" points="1109.428,-347.3638 1099.7135,-338.4875 1103.7278,-345.4907 1098.0277,-343.6176 1098.0277,-343.6176 1098.0277,-343.6176 1103.7278,-345.4907 1096.3419,-348.7477 1109.428,-347.3638 1109.428,-347.3638"/>
<polygon fill="#0000ff" stroke="#0000ff" points="1230.4721,-387.1388 1240.1866,-396.0152 1236.1723,-389.0119 1241.8724,-390.8851 1241.8724,-390.8851 1241.8724,-390.8851 1236.1723,-389.0119 1243.5582,-385.7549 1230.4721,-387.1388 1230.4721,-387.1388"/>
</g>
<!-- UserRole -->
<g id="node5" class="node">
<title>UserRole</title>
<polygon fill="#add8e6" stroke="transparent" points="1245,-313 1245,-335 1350,-335 1350,-313 1245,-313"/>
<polygon fill="none" stroke="#000000" points="1245,-313 1245,-335 1350,-335 1350,-313 1245,-313"/>
<text text-anchor="start" x="1278.6185" y="-322" font-family="Times,serif" font-weight="bold" font-size="10.00" fill="#000000">UserRole</text>
<polygon fill="none" stroke="#000000" points="1245,-291 1245,-313 1350,-313 1350,-291 1245,-291"/>
<text text-anchor="start" x="1250" y="-300" font-family="Times,serif" text-decoration="underline" font-size="10.00" fill="#000000">id</text>
<text text-anchor="start" x="1257.779" y="-300" font-family="Times,serif" font-size="10.00" fill="#000000">: NUMBER</text>
<polygon fill="none" stroke="#000000" points="1245,-269 1245,-291 1350,-291 1350,-269 1245,-269"/>
<text text-anchor="start" x="1250" y="-278" font-family="Times,serif" font-style="italic" text-decoration="underline" font-size="10.00" fill="#000000">userId</text>
<text text-anchor="start" x="1274.986" y="-278" font-family="Times,serif" font-size="10.00" fill="#000000">: UUID</text>
<polygon fill="none" stroke="#000000" points="1245,-247 1245,-269 1350,-269 1350,-247 1245,-247"/>
<text text-anchor="start" x="1250" y="-256" font-family="Times,serif" font-style="italic" text-decoration="underline" font-size="10.00" fill="#000000">roleId</text>
<text text-anchor="start" x="1273.876" y="-256" font-family="Times,serif" font-size="10.00" fill="#000000">: NUMBER</text>
<polygon fill="none" stroke="#000000" points="1245,-225 1245,-247 1350,-247 1350,-225 1245,-225"/>
<text text-anchor="start" x="1249.6025" y="-233" font-family="Times,serif" font-size="10.00" fill="#000000">resourceType: STRING</text>
<polygon fill="none" stroke="#000000" points="1245,-203 1245,-225 1350,-225 1350,-203 1245,-203"/>
<text text-anchor="start" x="1250" y="-211" font-family="Times,serif" font-size="10.00" fill="#000000">resourceId: STRING</text>
<polygon fill="none" stroke="#000000" points="1245,-181 1245,-203 1350,-203 1350,-181 1245,-181"/>
<text text-anchor="start" x="1250" y="-189" font-family="Times,serif" font-size="10.00" fill="#000000">createdAt: DATE</text>
<polygon fill="none" stroke="#000000" points="1245,-159 1245,-181 1350,-181 1350,-159 1245,-159"/>
<text text-anchor="start" x="1250" y="-167" font-family="Times,serif" font-size="10.00" fill="#000000">updatedAt: DATE</text>
</g>
<!-- Role&#45;&gt;UserRole -->
<g id="edge2" class="edge">
<title>Role&#45;&gt;UserRole</title>
<path fill="none" stroke="#0000ff" d="M1109.5124,-308.6085C1146.7495,-296.3724 1194.8441,-280.5685 1232.9985,-268.0309"/>
<polygon fill="#0000ff" stroke="#0000ff" points="1109.428,-308.6362 1096.3419,-307.2523 1103.7278,-310.5093 1098.0277,-312.3824 1098.0277,-312.3824 1098.0277,-312.3824 1103.7278,-310.5093 1099.7135,-317.5125 1109.428,-308.6362 1109.428,-308.6362"/>
<polygon fill="#0000ff" stroke="#0000ff" points="1245.8086,-268.2425 1233.0971,-267.9986 1243.1862,-260.2623 1245.8086,-268.2425"/>
</g>
<!-- Permission -->
<g id="node2" class="node">
<title>Permission</title>
<polygon fill="#add8e6" stroke="transparent" points="1003.5,-584 1003.5,-606 1098.5,-606 1098.5,-584 1003.5,-584"/>
<polygon fill="none" stroke="#000000" points="1003.5,-584 1003.5,-606 1098.5,-606 1098.5,-584 1003.5,-584"/>
<text text-anchor="start" x="1028.779" y="-593" font-family="Times,serif" font-weight="bold" font-size="10.00" fill="#000000">Permission</text>
<polygon fill="none" stroke="#000000" points="1003.5,-562 1003.5,-584 1098.5,-584 1098.5,-562 1003.5,-562"/>
<text text-anchor="start" x="1008.5" y="-571" font-family="Times,serif" text-decoration="underline" font-size="10.00" fill="#000000">id</text>
<text text-anchor="start" x="1016.279" y="-571" font-family="Times,serif" font-size="10.00" fill="#000000">: NUMBER</text>
<polygon fill="none" stroke="#000000" points="1003.5,-540 1003.5,-562 1098.5,-562 1098.5,-540 1003.5,-540"/>
<text text-anchor="start" x="1008.5" y="-548" font-family="Times,serif" font-size="10.00" fill="#000000">name: STRING</text>
<polygon fill="none" stroke="#000000" points="1003.5,-518 1003.5,-540 1098.5,-540 1098.5,-518 1003.5,-518"/>
<text text-anchor="start" x="1008.5" y="-526" font-family="Times,serif" font-size="10.00" fill="#000000">resource: STRING</text>
<polygon fill="none" stroke="#000000" points="1003.5,-496 1003.5,-518 1098.5,-518 1098.5,-496 1003.5,-496"/>
<text text-anchor="start" x="1008.5" y="-504" font-family="Times,serif" font-size="10.00" fill="#000000">action: STRING</text>
<polygon fill="none" stroke="#000000" points="1003.5,-474 1003.5,-496 1098.5,-496 1098.5,-474 1003.5,-474"/>
<text text-anchor="start" x="1008.092" y="-482" font-family="Times,serif" font-size="10.00" fill="#000000">description: STRING</text>
<polygon fill="none" stroke="#000000" points="1003.5,-452 1003.5,-474 1098.5,-474 1098.5,-452 1003.5,-452"/>
<text text-anchor="start" x="1008.5" y="-460" font-family="Times,serif" font-size="10.00" fill="#000000">createdAt: DATE</text>
<polygon fill="none" stroke="#000000" points="1003.5,-430 1003.5,-452 1098.5,-452 1098.5,-430 1003.5,-430"/>
<text text-anchor="start" x="1008.5" y="-438" font-family="Times,serif" font-size="10.00" fill="#000000">updatedAt: DATE</text>
</g>
<!-- Permission&#45;&gt;RolePermission -->
<g id="edge3" class="edge">
<title>Permission&#45;&gt;RolePermission</title>
<path fill="none" stroke="#0000ff" d="M1109.0168,-492.1244C1145.4921,-475.9954 1192.5289,-455.1961 1230.4264,-438.4382"/>
<polygon fill="#0000ff" stroke="#0000ff" points="1109.0026,-492.1306 1095.8438,-492.045 1103.5151,-494.5572 1098.0277,-496.9837 1098.0277,-496.9837 1098.0277,-496.9837 1103.5151,-494.5572 1100.2116,-501.9224 1109.0026,-492.1306 1109.0026,-492.1306"/>
<polygon fill="#0000ff" stroke="#0000ff" points="1230.8975,-438.23 1244.0563,-438.3156 1236.385,-435.8034 1241.8724,-433.3769 1241.8724,-433.3769 1241.8724,-433.3769 1236.385,-435.8034 1239.6885,-428.4382 1230.8975,-438.23 1230.8975,-438.23"/>
</g>
<!-- User -->
<g id="node4" class="node">
<title>User</title>
<polygon fill="#add8e6" stroke="transparent" points="1006.5,-204 1006.5,-226 1095.5,-226 1095.5,-204 1006.5,-204"/>
<polygon fill="none" stroke="#000000" points="1006.5,-204 1006.5,-226 1095.5,-226 1095.5,-204 1006.5,-204"/>
<text text-anchor="start" x="1041.562" y="-213" font-family="Times,serif" font-weight="bold" font-size="10.00" fill="#000000">User</text>
<polygon fill="none" stroke="#000000" points="1006.5,-182 1006.5,-204 1095.5,-204 1095.5,-182 1006.5,-182"/>
<text text-anchor="start" x="1011.5" y="-191" font-family="Times,serif" text-decoration="underline" font-size="10.00" fill="#000000">id</text>
<text text-anchor="start" x="1019.279" y="-191" font-family="Times,serif" font-size="10.00" fill="#000000">: UUID</text>
<polygon fill="none" stroke="#000000" points="1006.5,-160 1006.5,-182 1095.5,-182 1095.5,-160 1006.5,-160"/>
<text text-anchor="start" x="1011.5" y="-168" font-family="Times,serif" font-size="10.00" fill="#000000">googleId: STRING</text>
<polygon fill="none" stroke="#000000" points="1006.5,-138 1006.5,-160 1095.5,-160 1095.5,-138 1006.5,-138"/>
<text text-anchor="start" x="1011.1515" y="-146" font-family="Times,serif" font-size="10.00" fill="#000000">username: STRING</text>
<polygon fill="none" stroke="#000000" points="1006.5,-116 1006.5,-138 1095.5,-138 1095.5,-116 1006.5,-116"/>
<text text-anchor="start" x="1011.5" y="-124" font-family="Times,serif" font-size="10.00" fill="#000000">createdAt: DATE</text>
<polygon fill="none" stroke="#000000" points="1006.5,-94 1006.5,-116 1095.5,-116 1095.5,-94 1006.5,-94"/>
<text text-anchor="start" x="1011.5" y="-102" font-family="Times,serif" font-size="10.00" fill="#000000">updatedAt: DATE</text>
</g>
<!-- User&#45;&gt;UserRole -->
<g id="edge4" class="edge">
<title>User&#45;&gt;UserRole</title>
<path fill="none" stroke="#0000ff" d="M1106.6425,-179.815C1144.1298,-193.0458 1193.5329,-210.4822 1232.6152,-224.2759"/>
<polygon fill="#0000ff" stroke="#0000ff" points="1106.4552,-179.749 1096.9365,-170.6629 1100.7972,-177.752 1095.1393,-175.755 1095.1393,-175.755 1095.1393,-175.755 1100.7972,-177.752 1093.342,-180.8472 1106.4552,-179.749 1106.4552,-179.749"/>
<polygon fill="#0000ff" stroke="#0000ff" points="1242.7288,-232.2994 1232.8108,-224.3449 1245.5245,-224.3783 1242.7288,-232.2994"/>
</g>
<!-- Project -->
<g id="node6" class="node">
<title>Project</title>
<polygon fill="#add8e6" stroke="transparent" points="776.5,-138 776.5,-160 859.5,-160 859.5,-138 776.5,-138"/>
<polygon fill="none" stroke="#000000" points="776.5,-138 776.5,-160 859.5,-160 859.5,-138 776.5,-138"/>
<text text-anchor="start" x="803.838" y="-147" font-family="Times,serif" font-weight="bold" font-size="10.00" fill="#000000">Project</text>
<polygon fill="none" stroke="#000000" points="776.5,-116 776.5,-138 859.5,-138 859.5,-116 776.5,-116"/>
<text text-anchor="start" x="781.5" y="-125" font-family="Times,serif" text-decoration="underline" font-size="10.00" fill="#000000">id</text>
<text text-anchor="start" x="789.279" y="-125" font-family="Times,serif" font-size="10.00" fill="#000000">: UUID</text>
<polygon fill="none" stroke="#000000" points="776.5,-94 776.5,-116 859.5,-116 859.5,-94 776.5,-94"/>
<text text-anchor="start" x="781.5" y="-103" font-family="Times,serif" font-style="italic" text-decoration="underline" font-size="10.00" fill="#000000">userId</text>
<text text-anchor="start" x="806.486" y="-103" font-family="Times,serif" font-size="10.00" fill="#000000">: UUID</text>
<polygon fill="none" stroke="#000000" points="776.5,-72 776.5,-94 859.5,-94 859.5,-72 776.5,-72"/>
<text text-anchor="start" x="781.5" y="-80" font-family="Times,serif" font-size="10.00" fill="#000000">createdAt: DATE</text>
<polygon fill="none" stroke="#000000" points="776.5,-50 776.5,-72 859.5,-72 859.5,-50 776.5,-50"/>
<text text-anchor="start" x="781.205" y="-58" font-family="Times,serif" font-size="10.00" fill="#000000">updatedAt: DATE</text>
</g>
<!-- Project&#45;&gt;User -->
<g id="edge5" class="edge">
<title>Project&#45;&gt;User</title>
<path fill="none" stroke="#0000ff" d="M871.0264,-117.635C907.7883,-126.3127 956.5104,-137.8136 993.9128,-146.6425"/>
<polygon fill="#0000ff" stroke="#0000ff" points="860.1207,-110.7452 870.8348,-117.5898 858.1908,-118.9206 860.1207,-110.7452"/>
<polygon fill="#0000ff" stroke="#0000ff" points="993.9501,-146.6512 1004.3885,-154.6637 999.7896,-148.0297 1005.6291,-149.4082 1005.6291,-149.4082 1005.6291,-149.4082 999.7896,-148.0297 1006.8698,-144.1526 993.9501,-146.6512 993.9501,-146.6512"/>
</g>
<!-- Prototype -->
<g id="node7" class="node">
<title>Prototype</title>
<polygon fill="#add8e6" stroke="transparent" points="487.5,-154 487.5,-176 632.5,-176 632.5,-154 487.5,-154"/>
<polygon fill="none" stroke="#000000" points="487.5,-154 487.5,-176 632.5,-176 632.5,-154 487.5,-154"/>
<text text-anchor="start" x="540.5575" y="-163" font-family="Times,serif" font-weight="bold" font-size="10.00" fill="#000000">Prototype</text>
<polygon fill="none" stroke="#000000" points="487.5,-132 487.5,-154 632.5,-154 632.5,-132 487.5,-132"/>
<text text-anchor="start" x="492.5" y="-141" font-family="Times,serif" text-decoration="underline" font-size="10.00" fill="#000000">id</text>
<text text-anchor="start" x="500.279" y="-141" font-family="Times,serif" font-size="10.00" fill="#000000">: UUID</text>
<polygon fill="none" stroke="#000000" points="487.5,-110 487.5,-132 632.5,-132 632.5,-110 487.5,-110"/>
<text text-anchor="start" x="492.5" y="-119" font-family="Times,serif" font-style="italic" text-decoration="underline" font-size="10.00" fill="#000000">projectId</text>
<text text-anchor="start" x="528.594" y="-119" font-family="Times,serif" font-size="10.00" fill="#000000">: UUID</text>
<polygon fill="none" stroke="#000000" points="487.5,-88 487.5,-110 632.5,-110 632.5,-88 487.5,-88"/>
<text text-anchor="start" x="492.5" y="-96" font-family="Times,serif" font-size="10.00" fill="#000000">name: STRING</text>
<polygon fill="none" stroke="#000000" points="487.5,-66 487.5,-88 632.5,-88 632.5,-66 487.5,-66"/>
<text text-anchor="start" x="492.5" y="-74" font-family="Times,serif" font-size="10.00" fill="#000000">type: ENUM</text>
<polygon fill="none" stroke="#000000" points="487.5,-44 487.5,-66 632.5,-66 632.5,-44 487.5,-44"/>
<text text-anchor="start" x="492.385" y="-53" font-family="Times,serif" font-style="italic" text-decoration="underline" font-size="10.00" fill="#000000">sourceVersionPrototypeId</text>
<text text-anchor="start" x="597.35" y="-53" font-family="Times,serif" font-size="10.00" fill="#000000">: UUID</text>
<polygon fill="none" stroke="#000000" points="487.5,-22 487.5,-44 632.5,-44 632.5,-22 487.5,-22"/>
<text text-anchor="start" x="492.5" y="-30" font-family="Times,serif" font-size="10.00" fill="#000000">createdAt: DATE</text>
<polygon fill="none" stroke="#000000" points="487.5,0 487.5,-22 632.5,-22 632.5,0 487.5,0"/>
<text text-anchor="start" x="492.5" y="-8" font-family="Times,serif" font-size="10.00" fill="#000000">updatedAt: DATE</text>
</g>
<!-- Prototype&#45;&gt;Project -->
<g id="edge6" class="edge">
<title>Prototype&#45;&gt;Project</title>
<path fill="none" stroke="#0000ff" d="M644.2523,-93.5845C683.4906,-96.1699 728.9435,-99.1649 763.4457,-101.4383"/>
<polygon fill="#0000ff" stroke="#0000ff" points="632.3301,-88.5898 644.028,-93.5698 631.7778,-96.9716 632.3301,-88.5898"/>
<polygon fill="#0000ff" stroke="#0000ff" points="763.6558,-101.452 775.2747,-107.6294 769.6428,-101.8466 775.6298,-102.2411 775.6298,-102.2411 775.6298,-102.2411 769.6428,-101.8466 775.9849,-96.8528 763.6558,-101.452 763.6558,-101.452"/>
</g>
<!-- Image -->
<g id="node8" class="node">
<title>Image</title>
<polygon fill="#add8e6" stroke="transparent" points="239,-503 239,-525 343,-525 343,-503 239,-503"/>
<polygon fill="none" stroke="#000000" points="239,-503 239,-525 343,-525 343,-503 239,-503"/>
<text text-anchor="start" x="278.507" y="-512" font-family="Times,serif" font-weight="bold" font-size="10.00" fill="#000000">Image</text>
<polygon fill="none" stroke="#000000" points="239,-481 239,-503 343,-503 343,-481 239,-481"/>
<text text-anchor="start" x="244" y="-490" font-family="Times,serif" text-decoration="underline" font-size="10.00" fill="#000000">id</text>
<text text-anchor="start" x="251.779" y="-490" font-family="Times,serif" font-size="10.00" fill="#000000">: UUID</text>
<polygon fill="none" stroke="#000000" points="239,-459 239,-481 343,-481 343,-459 239,-459"/>
<text text-anchor="start" x="243.9275" y="-467" font-family="Times,serif" font-size="10.00" fill="#000000">displayName: STRING</text>
<polygon fill="none" stroke="#000000" points="239,-437 239,-459 343,-459 343,-437 239,-437"/>
<text text-anchor="start" x="244" y="-445" font-family="Times,serif" font-size="10.00" fill="#000000">storagePath: STRING</text>
<polygon fill="none" stroke="#000000" points="239,-415 239,-437 343,-437 343,-415 239,-415"/>
<text text-anchor="start" x="244" y="-423" font-family="Times,serif" font-size="10.00" fill="#000000">contentType: STRING</text>
<polygon fill="none" stroke="#000000" points="239,-393 239,-415 343,-415 343,-393 239,-393"/>
<text text-anchor="start" x="244" y="-401" font-family="Times,serif" font-size="10.00" fill="#000000">fileSize: NUMBER</text>
<polygon fill="none" stroke="#000000" points="239,-371 239,-393 343,-393 343,-371 239,-371"/>
<text text-anchor="start" x="244" y="-380" font-family="Times,serif" font-style="italic" text-decoration="underline" font-size="10.00" fill="#000000">uploaderUserId</text>
<text text-anchor="start" x="306.191" y="-380" font-family="Times,serif" font-size="10.00" fill="#000000">: UUID</text>
<polygon fill="none" stroke="#000000" points="239,-349 239,-371 343,-371 343,-349 239,-349"/>
<text text-anchor="start" x="244" y="-357" font-family="Times,serif" font-size="10.00" fill="#000000">createdAt: DATE</text>
<polygon fill="none" stroke="#000000" points="239,-327 239,-349 343,-349 343,-327 239,-327"/>
<text text-anchor="start" x="244" y="-335" font-family="Times,serif" font-size="10.00" fill="#000000">updatedAt: DATE</text>
</g>
<!-- Part -->
<g id="node9" class="node">
<title>Part</title>
<polygon fill="#add8e6" stroke="transparent" points="248,-269 248,-291 334,-291 334,-269 248,-269"/>
<polygon fill="none" stroke="#000000" points="248,-269 248,-291 334,-291 334,-269 248,-269"/>
<text text-anchor="start" x="282.947" y="-278" font-family="Times,serif" font-weight="bold" font-size="10.00" fill="#000000">Part</text>
<polygon fill="none" stroke="#000000" points="248,-247 248,-269 334,-269 334,-247 248,-247"/>
<text text-anchor="start" x="253" y="-256" font-family="Times,serif" text-decoration="underline" font-size="10.00" fill="#000000">id</text>
<text text-anchor="start" x="260.779" y="-256" font-family="Times,serif" font-size="10.00" fill="#000000">: NUMBER</text>
<polygon fill="none" stroke="#000000" points="248,-225 248,-247 334,-247 334,-225 248,-225"/>
<text text-anchor="start" x="253" y="-233" font-family="Times,serif" font-size="10.00" fill="#000000">type: ENUM</text>
<polygon fill="none" stroke="#000000" points="248,-203 248,-225 334,-225 334,-203 248,-203"/>
<text text-anchor="start" x="252.54" y="-212" font-family="Times,serif" font-style="italic" text-decoration="underline" font-size="10.00" fill="#000000">prototypeId</text>
<text text-anchor="start" x="299.195" y="-212" font-family="Times,serif" font-size="10.00" fill="#000000">: UUID</text>
<polygon fill="none" stroke="#000000" points="248,-181 248,-203 334,-203 334,-181 248,-181"/>
<text text-anchor="start" x="253" y="-189" font-family="Times,serif" font-size="10.00" fill="#000000">position: JSON</text>
<polygon fill="none" stroke="#000000" points="248,-159 248,-181 334,-181 334,-159 248,-159"/>
<text text-anchor="start" x="253" y="-167" font-family="Times,serif" font-size="10.00" fill="#000000">width: NUMBER</text>
<polygon fill="none" stroke="#000000" points="248,-137 248,-159 334,-159 334,-137 248,-137"/>
<text text-anchor="start" x="253" y="-145" font-family="Times,serif" font-size="10.00" fill="#000000">height: NUMBER</text>
<polygon fill="none" stroke="#000000" points="248,-115 248,-137 334,-137 334,-115 248,-115"/>
<text text-anchor="start" x="253" y="-123" font-family="Times,serif" font-size="10.00" fill="#000000">order: NUMBER</text>
<polygon fill="none" stroke="#000000" points="248,-93 248,-115 334,-115 334,-93 248,-93"/>
<text text-anchor="start" x="253" y="-101" font-family="Times,serif" font-size="10.00" fill="#000000">frontSide: ENUM</text>
<polygon fill="none" stroke="#000000" points="248,-71 248,-93 334,-93 334,-71 248,-71"/>
<text text-anchor="start" x="253" y="-80" font-family="Times,serif" font-style="italic" text-decoration="underline" font-size="10.00" fill="#000000">ownerId</text>
<text text-anchor="start" x="286.316" y="-80" font-family="Times,serif" font-size="10.00" fill="#000000">: UUID</text>
<polygon fill="none" stroke="#000000" points="248,-49 248,-71 334,-71 334,-49 248,-49"/>
<text text-anchor="start" x="253" y="-57" font-family="Times,serif" font-size="10.00" fill="#000000">createdAt: DATE</text>
<polygon fill="none" stroke="#000000" points="248,-27 248,-49 334,-49 334,-27 248,-27"/>
<text text-anchor="start" x="253" y="-35" font-family="Times,serif" font-size="10.00" fill="#000000">updatedAt: DATE</text>
</g>
<!-- Part&#45;&gt;User -->
<g id="edge8" class="edge">
<title>Part&#45;&gt;User</title>
<path fill="none" stroke="#0000ff" d="M346.1875,-171.5466C385.2676,-179.7687 439.0505,-189.7524 487,-194 672.0904,-210.3962 892.0957,-183.8582 993.7818,-168.9867"/>
<polygon fill="#0000ff" stroke="#0000ff" points="335.1765,-164.8971 346.0329,-171.5136 333.4199,-173.1114 335.1765,-164.8971"/>
<polygon fill="#0000ff" stroke="#0000ff" points="994.007,-168.9533 1006.67,-172.5321 999.9419,-168.072 1005.8769,-167.1907 1005.8769,-167.1907 1005.8769,-167.1907 999.9419,-168.072 1005.0837,-161.8492 994.007,-168.9533 994.007,-168.9533"/>
</g>
<!-- Part&#45;&gt;Prototype -->
<g id="edge7" class="edge">
<title>Part&#45;&gt;Prototype</title>
<path fill="none" stroke="#0000ff" d="M345.9866,-144.4598C383.1814,-134.6243 433.0223,-121.4448 475.1946,-110.2931"/>
<polygon fill="#0000ff" stroke="#0000ff" points="333.0654,-143.5322 345.7404,-144.5248 335.2129,-151.6531 333.0654,-143.5322"/>
<polygon fill="#0000ff" stroke="#0000ff" points="475.2678,-110.2738 488.2496,-112.4265 481.0684,-108.7399 486.8691,-107.2059 486.8691,-107.2059 486.8691,-107.2059 481.0684,-108.7399 485.4885,-101.9854 475.2678,-110.2738 475.2678,-110.2738"/>
</g>
<!-- PartProperty -->
<g id="node10" class="node">
<title>PartProperty</title>
<polygon fill="#add8e6" stroke="transparent" points=".5,-380 .5,-402 95.5,-402 95.5,-380 .5,-380"/>
<polygon fill="none" stroke="#000000" points=".5,-380 .5,-402 95.5,-402 95.5,-380 .5,-380"/>
<text text-anchor="start" x="22.7295" y="-389" font-family="Times,serif" font-weight="bold" font-size="10.00" fill="#000000">PartProperty</text>
<polygon fill="none" stroke="#000000" points=".5,-358 .5,-380 95.5,-380 95.5,-358 .5,-358"/>
<text text-anchor="start" x="5.5" y="-367" font-family="Times,serif" text-decoration="underline" font-size="10.00" fill="#000000">partId</text>
<text text-anchor="start" x="29.376" y="-367" font-family="Times,serif" font-size="10.00" fill="#000000">: NUMBER</text>
<polygon fill="none" stroke="#000000" points=".5,-336 .5,-358 95.5,-358 95.5,-336 .5,-336"/>
<text text-anchor="start" x="5.5" y="-345" font-family="Times,serif" text-decoration="underline" font-size="10.00" fill="#000000">side</text>
<text text-anchor="start" x="21.607" y="-345" font-family="Times,serif" font-size="10.00" fill="#000000">: ENUM</text>
<polygon fill="none" stroke="#000000" points=".5,-314 .5,-336 95.5,-336 95.5,-314 .5,-314"/>
<text text-anchor="start" x="5.5" y="-322" font-family="Times,serif" font-size="10.00" fill="#000000">name: STRING</text>
<polygon fill="none" stroke="#000000" points=".5,-292 .5,-314 95.5,-314 95.5,-292 .5,-292"/>
<text text-anchor="start" x="5.092" y="-300" font-family="Times,serif" font-size="10.00" fill="#000000">description: STRING</text>
<polygon fill="none" stroke="#000000" points=".5,-270 .5,-292 95.5,-292 95.5,-270 .5,-270"/>
<text text-anchor="start" x="5.5" y="-278" font-family="Times,serif" font-size="10.00" fill="#000000">color: STRING</text>
<polygon fill="none" stroke="#000000" points=".5,-248 .5,-270 95.5,-270 95.5,-248 .5,-248"/>
<text text-anchor="start" x="5.5" y="-256" font-family="Times,serif" font-size="10.00" fill="#000000">textColor: STRING</text>
<polygon fill="none" stroke="#000000" points=".5,-226 .5,-248 95.5,-248 95.5,-226 .5,-226"/>
<text text-anchor="start" x="5.5" y="-235" font-family="Times,serif" font-style="italic" text-decoration="underline" font-size="10.00" fill="#000000">imageId</text>
<text text-anchor="start" x="38.265" y="-235" font-family="Times,serif" font-size="10.00" fill="#000000">: UUID</text>
<polygon fill="none" stroke="#000000" points=".5,-204 .5,-226 95.5,-226 95.5,-204 .5,-204"/>
<text text-anchor="start" x="5.5" y="-212" font-family="Times,serif" font-size="10.00" fill="#000000">createdAt: DATE</text>
<polygon fill="none" stroke="#000000" points=".5,-182 .5,-204 95.5,-204 95.5,-182 .5,-182"/>
<text text-anchor="start" x="5.5" y="-190" font-family="Times,serif" font-size="10.00" fill="#000000">updatedAt: DATE</text>
</g>
<!-- PartProperty&#45;&gt;Image -->
<g id="edge10" class="edge">
<title>PartProperty&#45;&gt;Image</title>
<path fill="none" stroke="#0000ff" d="M105.5651,-323.9537C142.4753,-344.2657 190.2542,-370.5588 228.0687,-391.3684"/>
<polygon fill="#0000ff" stroke="#0000ff" points="97.0522,-314.475 105.5405,-323.9402 93.0024,-321.8343 97.0522,-314.475"/>
<polygon fill="#0000ff" stroke="#0000ff" points="228.4425,-391.574 236.3522,-402.0906 233.6991,-394.4668 238.9557,-397.3596 238.9557,-397.3596 238.9557,-397.3596 233.6991,-394.4668 241.5592,-392.6287 228.4425,-391.574 228.4425,-391.574"/>
</g>
<!-- PartProperty&#45;&gt;Part -->
<g id="edge9" class="edge">
<title>PartProperty&#45;&gt;Part</title>
<path fill="none" stroke="#0000ff" d="M105.7747,-260.1703C145.66,-238.3849 198.1625,-209.708 237.0822,-188.45"/>
<polygon fill="#0000ff" stroke="#0000ff" points="93.014,-262.3545 105.5587,-260.2882 97.0406,-269.7265 93.014,-262.3545"/>
<polygon fill="#0000ff" stroke="#0000ff" points="237.1461,-188.4151 250.2661,-187.4019 242.4119,-185.5389 247.6776,-182.6628 247.6776,-182.6628 247.6776,-182.6628 242.4119,-185.5389 245.089,-177.9236 237.1461,-188.4151 237.1461,-188.4151"/>
</g>
</g>
</svg>
