<?xml version="1.0" encoding="UTF-8" standalone="no"?>
<!DOCTYPE svg PUBLIC "-//W3C//DTD SVG 1.1//EN"
 "http://www.w3.org/Graphics/SVG/1.1/DTD/svg11.dtd">
<!-- Generated by graphviz version 2.40.1 (20161225.0304)
 -->
<!-- Title: models_diagram Pages: 1 -->
<svg width="1209pt" height="782pt"
 viewBox="0.00 0.00 1209.00 782.00" xmlns="http://www.w3.org/2000/svg" xmlns:xlink="http://www.w3.org/1999/xlink">
<g id="graph0" class="graph" transform="scale(1 1) rotate(0) translate(36 746)">
<title>models_diagram</title>
<polygon fill="#ffffff" stroke="transparent" points="-36,36 -36,-746 1173,-746 1173,36 -36,36"/>
<!-- User -->
<g id="node1" class="node">
<title>User</title>
<polygon fill="#add8e6" stroke="transparent" points="813.5,-481 813.5,-503 902.5,-503 902.5,-481 813.5,-481"/>
<polygon fill="none" stroke="#000000" points="813.5,-481 813.5,-503 902.5,-503 902.5,-481 813.5,-481"/>
<text text-anchor="start" x="848.562" y="-490" font-family="Times,serif" font-weight="bold" font-size="10.00" fill="#000000">User</text>
<polygon fill="none" stroke="#000000" points="813.5,-459 813.5,-481 902.5,-481 902.5,-459 813.5,-459"/>
<text text-anchor="start" x="818.5" y="-468" font-family="Times,serif" text-decoration="underline" font-size="10.00" fill="#000000">id</text>
<text text-anchor="start" x="826.279" y="-468" font-family="Times,serif" font-size="10.00" fill="#000000">: UUID</text>
<polygon fill="none" stroke="#000000" points="813.5,-437 813.5,-459 902.5,-459 902.5,-437 813.5,-437"/>
<text text-anchor="start" x="818.5" y="-445" font-family="Times,serif" font-size="10.00" fill="#000000">googleId: STRING</text>
<polygon fill="none" stroke="#000000" points="813.5,-415 813.5,-437 902.5,-437 902.5,-415 813.5,-415"/>
<text text-anchor="start" x="818.1515" y="-423" font-family="Times,serif" font-size="10.00" fill="#000000">username: STRING</text>
<polygon fill="none" stroke="#000000" points="813.5,-393 813.5,-415 902.5,-415 902.5,-393 813.5,-393"/>
<text text-anchor="start" x="818.5" y="-401" font-family="Times,serif" font-size="10.00" fill="#000000">createdAt: DATE</text>
<polygon fill="none" stroke="#000000" points="813.5,-371 813.5,-393 902.5,-393 902.5,-371 813.5,-371"/>
<text text-anchor="start" x="818.5" y="-379" font-family="Times,serif" font-size="10.00" fill="#000000">updatedAt: DATE</text>
</g>
<!-- UserAccess -->
<g id="node8" class="node">
<title>UserAccess</title>
<polygon fill="#add8e6" stroke="transparent" points="1046.5,-527 1046.5,-549 1137.5,-549 1137.5,-527 1046.5,-527"/>
<polygon fill="none" stroke="#000000" points="1046.5,-527 1046.5,-549 1137.5,-549 1137.5,-527 1046.5,-527"/>
<text text-anchor="start" x="1068.405" y="-536" font-family="Times,serif" font-weight="bold" font-size="10.00" fill="#000000">UserAccess</text>
<polygon fill="none" stroke="#000000" points="1046.5,-505 1046.5,-527 1137.5,-527 1137.5,-505 1046.5,-505"/>
<text text-anchor="start" x="1051.5" y="-514" font-family="Times,serif" text-decoration="underline" font-size="10.00" fill="#000000">userId</text>
<text text-anchor="start" x="1076.486" y="-514" font-family="Times,serif" font-size="10.00" fill="#000000">: UUID</text>
<polygon fill="none" stroke="#000000" points="1046.5,-483 1046.5,-505 1137.5,-505 1137.5,-483 1046.5,-483"/>
<text text-anchor="start" x="1051.042" y="-492" font-family="Times,serif" text-decoration="underline" font-size="10.00" fill="#000000">accessId</text>
<text text-anchor="start" x="1084.905" y="-492" font-family="Times,serif" font-size="10.00" fill="#000000">: NUMBER</text>
</g>
<!-- User&#45;&gt;UserAccess -->
<g id="edge1" class="edge">
<title>User&#45;&gt;UserAccess</title>
<path fill="none" stroke="#0000ff" d="M913.6306,-455.9501C950.1606,-468.2828 997.6625,-484.3198 1034.3869,-496.7182"/>
<polygon fill="#0000ff" stroke="#0000ff" points="913.4339,-455.8837 903.7917,-446.929 907.7492,-453.9645 902.0644,-452.0452 902.0644,-452.0452 902.0644,-452.0452 907.7492,-453.9645 900.3371,-457.1615 913.4339,-455.8837 913.4339,-455.8837"/>
<polygon fill="#0000ff" stroke="#0000ff" points="1034.5346,-496.768 1044.1768,-505.7228 1040.2193,-498.6873 1045.9041,-500.6065 1045.9041,-500.6065 1045.9041,-500.6065 1040.2193,-498.6873 1047.6314,-495.4902 1034.5346,-496.768 1034.5346,-496.768"/>
</g>
<!-- UserPlayer -->
<g id="node9" class="node">
<title>UserPlayer</title>
<polygon fill="#add8e6" stroke="transparent" points="1046.5,-369 1046.5,-391 1137.5,-391 1137.5,-369 1046.5,-369"/>
<polygon fill="none" stroke="#000000" points="1046.5,-369 1046.5,-391 1137.5,-391 1137.5,-369 1046.5,-369"/>
<text text-anchor="start" x="1069.7895" y="-378" font-family="Times,serif" font-weight="bold" font-size="10.00" fill="#000000">UserPlayer</text>
<polygon fill="none" stroke="#000000" points="1046.5,-347 1046.5,-369 1137.5,-369 1137.5,-347 1046.5,-347"/>
<text text-anchor="start" x="1051.5" y="-356" font-family="Times,serif" text-decoration="underline" font-size="10.00" fill="#000000">userId</text>
<text text-anchor="start" x="1076.486" y="-356" font-family="Times,serif" font-size="10.00" fill="#000000">: UUID</text>
<polygon fill="none" stroke="#000000" points="1046.5,-325 1046.5,-347 1137.5,-347 1137.5,-325 1046.5,-325"/>
<text text-anchor="start" x="1051.316" y="-334" font-family="Times,serif" text-decoration="underline" font-size="10.00" fill="#000000">playerId</text>
<text text-anchor="start" x="1084.631" y="-334" font-family="Times,serif" font-size="10.00" fill="#000000">: NUMBER</text>
</g>
<!-- User&#45;&gt;UserPlayer -->
<g id="edge2" class="edge">
<title>User&#45;&gt;UserPlayer</title>
<path fill="none" stroke="#0000ff" d="M913.6306,-418.0499C950.1606,-405.7172 997.6625,-389.6802 1034.3869,-377.2818"/>
<polygon fill="#0000ff" stroke="#0000ff" points="913.4339,-418.1163 900.3371,-416.8385 907.7492,-420.0355 902.0644,-421.9548 902.0644,-421.9548 902.0644,-421.9548 907.7492,-420.0355 903.7917,-427.071 913.4339,-418.1163 913.4339,-418.1163"/>
<polygon fill="#0000ff" stroke="#0000ff" points="1034.5346,-377.232 1047.6314,-378.5098 1040.2193,-375.3127 1045.9041,-373.3935 1045.9041,-373.3935 1045.9041,-373.3935 1040.2193,-375.3127 1044.1768,-368.2772 1034.5346,-377.232 1034.5346,-377.232"/>
</g>
<!-- Prototype -->
<g id="node2" class="node">
<title>Prototype</title>
<polygon fill="#add8e6" stroke="transparent" points="555,-536 555,-558 669,-558 669,-536 555,-536"/>
<polygon fill="none" stroke="#000000" points="555,-536 555,-558 669,-558 669,-536 555,-536"/>
<text text-anchor="start" x="592.5575" y="-545" font-family="Times,serif" font-weight="bold" font-size="10.00" fill="#000000">Prototype</text>
<polygon fill="none" stroke="#000000" points="555,-514 555,-536 669,-536 669,-514 555,-514"/>
<text text-anchor="start" x="560" y="-523" font-family="Times,serif" text-decoration="underline" font-size="10.00" fill="#000000">id</text>
<text text-anchor="start" x="567.779" y="-523" font-family="Times,serif" font-size="10.00" fill="#000000">: UUID</text>
<polygon fill="none" stroke="#000000" points="555,-492 555,-514 669,-514 669,-492 555,-492"/>
<text text-anchor="start" x="560" y="-501" font-family="Times,serif" font-style="italic" text-decoration="underline" font-size="10.00" fill="#000000">userId</text>
<text text-anchor="start" x="584.986" y="-501" font-family="Times,serif" font-size="10.00" fill="#000000">: UUID</text>
<polygon fill="none" stroke="#000000" points="555,-470 555,-492 669,-492 669,-470 555,-470"/>
<text text-anchor="start" x="560" y="-478" font-family="Times,serif" font-size="10.00" fill="#000000">name: STRING</text>
<polygon fill="none" stroke="#000000" points="555,-448 555,-470 669,-470 669,-448 555,-448"/>
<text text-anchor="start" x="560" y="-456" font-family="Times,serif" font-size="10.00" fill="#000000">type: ENUM</text>
<polygon fill="none" stroke="#000000" points="555,-426 555,-448 669,-448 669,-426 555,-426"/>
<text text-anchor="start" x="559.9335" y="-435" font-family="Times,serif" font-style="italic" text-decoration="underline" font-size="10.00" fill="#000000">masterPrototypeId</text>
<text text-anchor="start" x="633.8015" y="-435" font-family="Times,serif" font-size="10.00" fill="#000000">: UUID</text>
<polygon fill="none" stroke="#000000" points="555,-404 555,-426 669,-426 669,-404 555,-404"/>
<text text-anchor="start" x="560" y="-412" font-family="Times,serif" font-size="10.00" fill="#000000">groupId: UUID</text>
<polygon fill="none" stroke="#000000" points="555,-382 555,-404 669,-404 669,-382 555,-382"/>
<text text-anchor="start" x="560" y="-390" font-family="Times,serif" font-size="10.00" fill="#000000">minPlayers: NUMBER</text>
<polygon fill="none" stroke="#000000" points="555,-360 555,-382 669,-382 669,-360 555,-360"/>
<text text-anchor="start" x="560" y="-368" font-family="Times,serif" font-size="10.00" fill="#000000">maxPlayers: NUMBER</text>
<polygon fill="none" stroke="#000000" points="555,-338 555,-360 669,-360 669,-338 555,-338"/>
<text text-anchor="start" x="560" y="-346" font-family="Times,serif" font-size="10.00" fill="#000000">createdAt: DATE</text>
<polygon fill="none" stroke="#000000" points="555,-316 555,-338 669,-338 669,-316 555,-316"/>
<text text-anchor="start" x="560" y="-324" font-family="Times,serif" font-size="10.00" fill="#000000">updatedAt: DATE</text>
</g>
<!-- Prototype&#45;&gt;User -->
<g id="edge5" class="edge">
<title>Prototype&#45;&gt;User</title>
<path fill="none" stroke="#0000ff" d="M681.4047,-437C719.1202,-437 765.1771,-437 800.7285,-437"/>
<polygon fill="#0000ff" stroke="#0000ff" points="669.249,-432.8 681.249,-437.0001 669.249,-441.2 669.249,-432.8"/>
<polygon fill="#0000ff" stroke="#0000ff" points="800.8344,-437.0001 812.8344,-442.4 806.8344,-437 812.8344,-437 812.8344,-437 812.8344,-437 806.8344,-437 812.8343,-431.6 800.8344,-437.0001 800.8344,-437.0001"/>
</g>
<!-- PrototypeGroup -->
<g id="node3" class="node">
<title>PrototypeGroup</title>
<polygon fill="#add8e6" stroke="transparent" points="311.5,-561 311.5,-583 397.5,-583 397.5,-561 311.5,-561"/>
<polygon fill="none" stroke="#000000" points="311.5,-561 311.5,-583 397.5,-583 397.5,-561 311.5,-561"/>
<text text-anchor="start" x="322.2835" y="-570" font-family="Times,serif" font-weight="bold" font-size="10.00" fill="#000000">PrototypeGroup</text>
<polygon fill="none" stroke="#000000" points="311.5,-539 311.5,-561 397.5,-561 397.5,-539 311.5,-539"/>
<text text-anchor="start" x="316.5" y="-548" font-family="Times,serif" text-decoration="underline" font-size="10.00" fill="#000000">id</text>
<text text-anchor="start" x="324.279" y="-548" font-family="Times,serif" font-size="10.00" fill="#000000">: UUID</text>
<polygon fill="none" stroke="#000000" points="311.5,-517 311.5,-539 397.5,-539 397.5,-517 311.5,-517"/>
<text text-anchor="start" x="316.04" y="-526" font-family="Times,serif" font-style="italic" text-decoration="underline" font-size="10.00" fill="#000000">prototypeId</text>
<text text-anchor="start" x="362.695" y="-526" font-family="Times,serif" font-size="10.00" fill="#000000">: UUID</text>
</g>
<!-- PrototypeGroup&#45;&gt;Prototype -->
<g id="edge6" class="edge">
<title>PrototypeGroup&#45;&gt;Prototype</title>
<path fill="none" stroke="#0000ff" d="M408.6546,-526.2351C447.9676,-508.9831 501.4458,-485.5151 543.6927,-466.9756"/>
<polygon fill="#0000ff" stroke="#0000ff" points="395.9119,-527.2404 408.5882,-526.2641 399.2875,-534.9323 395.9119,-527.2404"/>
<polygon fill="#0000ff" stroke="#0000ff" points="543.7427,-466.9537 556.9012,-467.0764 549.237,-464.5426 554.7312,-462.1315 554.7312,-462.1315 554.7312,-462.1315 549.237,-464.5426 552.5613,-457.1867 543.7427,-466.9537 543.7427,-466.9537"/>
</g>
<!-- Access -->
<g id="node4" class="node">
<title>Access</title>
<polygon fill="#add8e6" stroke="transparent" points="21,-688 21,-710 133,-710 133,-688 21,-688"/>
<polygon fill="none" stroke="#000000" points="21,-688 21,-710 133,-710 133,-688 21,-688"/>
<text text-anchor="start" x="62.843" y="-697" font-family="Times,serif" font-weight="bold" font-size="10.00" fill="#000000">Access</text>
<polygon fill="none" stroke="#000000" points="21,-666 21,-688 133,-688 133,-666 21,-666"/>
<text text-anchor="start" x="26" y="-675" font-family="Times,serif" text-decoration="underline" font-size="10.00" fill="#000000">id</text>
<text text-anchor="start" x="33.779" y="-675" font-family="Times,serif" font-size="10.00" fill="#000000">: NUMBER</text>
<polygon fill="none" stroke="#000000" points="21,-644 21,-666 133,-666 133,-644 21,-644"/>
<text text-anchor="start" x="25.766" y="-653" font-family="Times,serif" font-style="italic" text-decoration="underline" font-size="10.00" fill="#000000">prototypeGroupId</text>
<text text-anchor="start" x="97.969" y="-653" font-family="Times,serif" font-size="10.00" fill="#000000">: UUID</text>
<polygon fill="none" stroke="#000000" points="21,-622 21,-644 133,-644 133,-622 21,-622"/>
<text text-anchor="start" x="26" y="-630" font-family="Times,serif" font-size="10.00" fill="#000000">name: STRING</text>
</g>
<!-- Access&#45;&gt;PrototypeGroup -->
<g id="edge7" class="edge">
<title>Access&#45;&gt;PrototypeGroup</title>
<path fill="none" stroke="#0000ff" d="M144.2706,-637.8797C192.0305,-617.9152 255.3348,-591.4529 299.9547,-572.8009"/>
<polygon fill="#0000ff" stroke="#0000ff" points="131.5364,-638.6506 144.2279,-637.8975 134.7761,-646.4007 131.5364,-638.6506"/>
<polygon fill="#0000ff" stroke="#0000ff" points="300.0881,-572.7452 313.2424,-573.0993 305.6239,-570.4311 311.1597,-568.117 311.1597,-568.117 311.1597,-568.117 305.6239,-570.4311 309.077,-563.1348 300.0881,-572.7452 300.0881,-572.7452"/>
</g>
<!-- Access&#45;&gt;UserAccess -->
<g id="edge3" class="edge">
<title>Access&#45;&gt;UserAccess</title>
<path fill="none" stroke="#0000ff" d="M145.2751,-655.9051C333.7384,-628.0397 858.8197,-550.4032 1033.875,-524.5202"/>
<polygon fill="#0000ff" stroke="#0000ff" points="145.2238,-655.9126 132.563,-652.326 139.2883,-656.7902 133.3529,-657.6679 133.3529,-657.6679 133.3529,-657.6679 139.2883,-656.7902 134.1427,-663.0098 145.2238,-655.9126 145.2238,-655.9126"/>
<polygon fill="#0000ff" stroke="#0000ff" points="1033.9937,-524.5027 1046.6545,-528.0894 1039.9292,-523.6251 1045.8646,-522.7475 1045.8646,-522.7475 1045.8646,-522.7475 1039.9292,-523.6251 1045.0748,-517.4055 1033.9937,-524.5027 1033.9937,-524.5027"/>
</g>
<!-- PrototypeVersion -->
<g id="node5" class="node">
<title>PrototypeVersion</title>
<polygon fill="#add8e6" stroke="transparent" points="298.5,-432 298.5,-454 411.5,-454 411.5,-432 298.5,-432"/>
<polygon fill="none" stroke="#000000" points="298.5,-432 298.5,-454 411.5,-454 411.5,-432 298.5,-432"/>
<text text-anchor="start" x="319.73" y="-441" font-family="Times,serif" font-weight="bold" font-size="10.00" fill="#000000">PrototypeVersion</text>
<polygon fill="none" stroke="#000000" points="298.5,-410 298.5,-432 411.5,-432 411.5,-410 298.5,-410"/>
<text text-anchor="start" x="303.5" y="-419" font-family="Times,serif" text-decoration="underline" font-size="10.00" fill="#000000">id</text>
<text text-anchor="start" x="311.279" y="-419" font-family="Times,serif" font-size="10.00" fill="#000000">: UUID</text>
<polygon fill="none" stroke="#000000" points="298.5,-388 298.5,-410 411.5,-410 411.5,-388 298.5,-388"/>
<text text-anchor="start" x="303.5" y="-397" font-family="Times,serif" font-style="italic" text-decoration="underline" font-size="10.00" fill="#000000">prototypeId</text>
<text text-anchor="start" x="350.155" y="-397" font-family="Times,serif" font-size="10.00" fill="#000000">: UUID</text>
<polygon fill="none" stroke="#000000" points="298.5,-366 298.5,-388 411.5,-388 411.5,-366 298.5,-366"/>
<text text-anchor="start" x="303.2075" y="-374" font-family="Times,serif" font-size="10.00" fill="#000000">versionNumber: STRING</text>
<polygon fill="none" stroke="#000000" points="298.5,-344 298.5,-366 411.5,-366 411.5,-344 298.5,-344"/>
<text text-anchor="start" x="303.5" y="-352" font-family="Times,serif" font-size="10.00" fill="#000000">description: STRING</text>
<polygon fill="none" stroke="#000000" points="298.5,-322 298.5,-344 411.5,-344 411.5,-322 298.5,-322"/>
<text text-anchor="start" x="303.5" y="-330" font-family="Times,serif" font-size="10.00" fill="#000000">createdAt: DATE</text>
<polygon fill="none" stroke="#000000" points="298.5,-300 298.5,-322 411.5,-322 411.5,-300 298.5,-300"/>
<text text-anchor="start" x="303.5" y="-308" font-family="Times,serif" font-size="10.00" fill="#000000">updatedAt: DATE</text>
</g>
<!-- PrototypeVersion&#45;&gt;Prototype -->
<g id="edge8" class="edge">
<title>PrototypeVersion&#45;&gt;Prototype</title>
<path fill="none" stroke="#0000ff" d="M422.8574,-392.9279C459.9744,-401.5766 505.7494,-412.2426 542.9702,-420.9154"/>
<polygon fill="#0000ff" stroke="#0000ff" points="411.9626,-386.0768 422.6964,-392.8905 410.0563,-394.2577 411.9626,-386.0768"/>
<polygon fill="#0000ff" stroke="#0000ff" points="543.0456,-420.9329 553.507,-428.9152 548.889,-422.2945 554.7325,-423.6561 554.7325,-423.6561 554.7325,-423.6561 548.889,-422.2945 555.958,-418.397 543.0456,-420.9329 543.0456,-420.9329"/>
</g>
<!-- Part -->
<g id="node6" class="node">
<title>Part</title>
<polygon fill="#add8e6" stroke="transparent" points="0,-564 0,-586 154,-586 154,-564 0,-564"/>
<polygon fill="none" stroke="#000000" points="0,-564 0,-586 154,-586 154,-564 0,-564"/>
<text text-anchor="start" x="68.947" y="-573" font-family="Times,serif" font-weight="bold" font-size="10.00" fill="#000000">Part</text>
<polygon fill="none" stroke="#000000" points="0,-542 0,-564 154,-564 154,-542 0,-542"/>
<text text-anchor="start" x="5" y="-551" font-family="Times,serif" text-decoration="underline" font-size="10.00" fill="#000000">id</text>
<text text-anchor="start" x="12.779" y="-551" font-family="Times,serif" font-size="10.00" fill="#000000">: NUMBER</text>
<polygon fill="none" stroke="#000000" points="0,-520 0,-542 154,-542 154,-520 0,-520"/>
<text text-anchor="start" x="5" y="-528" font-family="Times,serif" font-size="10.00" fill="#000000">type: STRING</text>
<polygon fill="none" stroke="#000000" points="0,-498 0,-520 154,-520 154,-498 0,-498"/>
<text text-anchor="start" x="5" y="-507" font-family="Times,serif" font-style="italic" text-decoration="underline" font-size="10.00" fill="#000000">prototypeVersionId</text>
<text text-anchor="start" x="83.31" y="-507" font-family="Times,serif" font-size="10.00" fill="#000000">: UUID</text>
<polygon fill="none" stroke="#000000" points="0,-476 0,-498 154,-498 154,-476 0,-476"/>
<text text-anchor="start" x="5" y="-484" font-family="Times,serif" font-size="10.00" fill="#000000">parentId: NUMBER</text>
<polygon fill="none" stroke="#000000" points="0,-454 0,-476 154,-476 154,-454 0,-454"/>
<text text-anchor="start" x="5" y="-462" font-family="Times,serif" font-size="10.00" fill="#000000">name: STRING</text>
<polygon fill="none" stroke="#000000" points="0,-432 0,-454 154,-454 154,-432 0,-432"/>
<text text-anchor="start" x="5" y="-440" font-family="Times,serif" font-size="10.00" fill="#000000">description: STRING</text>
<polygon fill="none" stroke="#000000" points="0,-410 0,-432 154,-432 154,-410 0,-410"/>
<text text-anchor="start" x="5" y="-418" font-family="Times,serif" font-size="10.00" fill="#000000">color: STRING</text>
<polygon fill="none" stroke="#000000" points="0,-388 0,-410 154,-410 154,-388 0,-388"/>
<text text-anchor="start" x="5" y="-396" font-family="Times,serif" font-size="10.00" fill="#000000">position: JSON</text>
<polygon fill="none" stroke="#000000" points="0,-366 0,-388 154,-388 154,-366 0,-366"/>
<text text-anchor="start" x="5" y="-374" font-family="Times,serif" font-size="10.00" fill="#000000">width: NUMBER</text>
<polygon fill="none" stroke="#000000" points="0,-344 0,-366 154,-366 154,-344 0,-344"/>
<text text-anchor="start" x="5" y="-352" font-family="Times,serif" font-size="10.00" fill="#000000">height: NUMBER</text>
<polygon fill="none" stroke="#000000" points="0,-322 0,-344 154,-344 154,-322 0,-322"/>
<text text-anchor="start" x="5" y="-330" font-family="Times,serif" font-size="10.00" fill="#000000">order: NUMBER</text>
<polygon fill="none" stroke="#000000" points="0,-300 0,-322 154,-322 154,-300 0,-300"/>
<text text-anchor="start" x="4.655" y="-308" font-family="Times,serif" font-size="10.00" fill="#000000">configurableTypeAsChild: ARRAY</text>
<polygon fill="none" stroke="#000000" points="0,-278 0,-300 154,-300 154,-278 0,-278"/>
<text text-anchor="start" x="5" y="-286" font-family="Times,serif" font-size="10.00" fill="#000000">isReversible: BOOLEAN</text>
<polygon fill="none" stroke="#000000" points="0,-256 0,-278 154,-278 154,-256 0,-256"/>
<text text-anchor="start" x="5" y="-264" font-family="Times,serif" font-size="10.00" fill="#000000">isFlipped: BOOLEAN</text>
<polygon fill="none" stroke="#000000" points="0,-234 0,-256 154,-256 154,-234 0,-234"/>
<text text-anchor="start" x="5" y="-242" font-family="Times,serif" font-size="10.00" fill="#000000">ownerId: NUMBER</text>
<polygon fill="none" stroke="#000000" points="0,-212 0,-234 154,-234 154,-212 0,-212"/>
<text text-anchor="start" x="5" y="-220" font-family="Times,serif" font-size="10.00" fill="#000000">originalPartId: NUMBER</text>
<polygon fill="none" stroke="#000000" points="0,-190 0,-212 154,-212 154,-190 0,-190"/>
<text text-anchor="start" x="5" y="-198" font-family="Times,serif" font-size="10.00" fill="#000000">createdAt: DATE</text>
<polygon fill="none" stroke="#000000" points="0,-168 0,-190 154,-190 154,-168 0,-168"/>
<text text-anchor="start" x="5" y="-176" font-family="Times,serif" font-size="10.00" fill="#000000">updatedAt: DATE</text>
</g>
<!-- Part&#45;&gt;PrototypeVersion -->
<g id="edge9" class="edge">
<title>Part&#45;&gt;PrototypeVersion</title>
<path fill="none" stroke="#0000ff" d="M166.547,-377C205.1299,-377 249.5442,-377 285.5074,-377"/>
<polygon fill="#0000ff" stroke="#0000ff" points="154.2993,-372.8 166.2992,-377.0001 154.2992,-381.2 154.2993,-372.8"/>
<polygon fill="#0000ff" stroke="#0000ff" points="285.8522,-377.0001 297.8523,-382.4 291.8522,-377 297.8522,-377 297.8522,-377 297.8522,-377 291.8522,-377 297.8522,-371.6 285.8522,-377.0001 285.8522,-377.0001"/>
</g>
<!-- Player -->
<g id="node7" class="node">
<title>Player</title>
<polygon fill="#add8e6" stroke="transparent" points="18,-110 18,-132 136,-132 136,-110 18,-110"/>
<polygon fill="none" stroke="#000000" points="18,-110 18,-132 136,-132 136,-110 18,-110"/>
<text text-anchor="start" x="64.2275" y="-119" font-family="Times,serif" font-weight="bold" font-size="10.00" fill="#000000">Player</text>
<polygon fill="none" stroke="#000000" points="18,-88 18,-110 136,-110 136,-88 18,-88"/>
<text text-anchor="start" x="23" y="-97" font-family="Times,serif" text-decoration="underline" font-size="10.00" fill="#000000">id</text>
<text text-anchor="start" x="30.779" y="-97" font-family="Times,serif" font-size="10.00" fill="#000000">: NUMBER</text>
<polygon fill="none" stroke="#000000" points="18,-66 18,-88 136,-88 136,-66 18,-66"/>
<text text-anchor="start" x="22.7125" y="-75" font-family="Times,serif" font-style="italic" text-decoration="underline" font-size="10.00" fill="#000000">prototypeVersionId</text>
<text text-anchor="start" x="101.0225" y="-75" font-family="Times,serif" font-size="10.00" fill="#000000">: UUID</text>
<polygon fill="none" stroke="#000000" points="18,-44 18,-66 136,-66 136,-44 18,-44"/>
<text text-anchor="start" x="23" y="-52" font-family="Times,serif" font-size="10.00" fill="#000000">playerName: STRING</text>
<polygon fill="none" stroke="#000000" points="18,-22 18,-44 136,-44 136,-22 18,-22"/>
<text text-anchor="start" x="23" y="-30" font-family="Times,serif" font-size="10.00" fill="#000000">createdAt: DATE</text>
<polygon fill="none" stroke="#000000" points="18,0 18,-22 136,-22 136,0 18,0"/>
<text text-anchor="start" x="23" y="-8" font-family="Times,serif" font-size="10.00" fill="#000000">updatedAt: DATE</text>
</g>
<!-- Player&#45;&gt;PrototypeVersion -->
<g id="edge10" class="edge">
<title>Player&#45;&gt;PrototypeVersion</title>
<path fill="none" stroke="#0000ff" d="M144.4711,-139.4476C147.6984,-143.0101 150.8882,-146.5418 154,-150 199.6416,-200.7227 250.5311,-258.3515 289.62,-302.851"/>
<polygon fill="#0000ff" stroke="#0000ff" points="139.5045,-127.7299 144.4618,-139.4374 133.2856,-133.3767 139.5045,-127.7299"/>
<polygon fill="#0000ff" stroke="#0000ff" points="289.8585,-303.1227 293.718,-315.703 293.8172,-307.6314 297.7759,-312.1402 297.7759,-312.1402 297.7759,-312.1402 293.8172,-307.6314 301.8338,-308.5774 289.8585,-303.1227 289.8585,-303.1227"/>
</g>
<!-- Player&#45;&gt;UserPlayer -->
<g id="edge4" class="edge">
<title>Player&#45;&gt;UserPlayer</title>
<path fill="none" stroke="#0000ff" d="M148.1184,-86.4698C339.1273,-141.4472 860.5809,-291.5354 1034.32,-341.5421"/>
<polygon fill="#0000ff" stroke="#0000ff" points="147.8328,-86.3876 137.7946,-77.8791 142.0669,-84.728 136.301,-83.0684 136.301,-83.0684 136.301,-83.0684 142.0669,-84.728 134.8073,-88.2577 147.8328,-86.3876 147.8328,-86.3876"/>
<polygon fill="#0000ff" stroke="#0000ff" points="1034.4463,-341.5784 1044.4845,-350.0869 1040.2122,-343.238 1045.9782,-344.8976 1045.9782,-344.8976 1045.9782,-344.8976 1040.2122,-343.238 1047.4718,-339.7083 1034.4463,-341.5784 1034.4463,-341.5784"/>
</g>
</g>
</svg>
