<?xml version="1.0" encoding="UTF-8" standalone="no"?>
<!DOCTYPE svg PUBLIC "-//W3C//DTD SVG 1.1//EN"
 "http://www.w3.org/Graphics/SVG/1.1/DTD/svg11.dtd">
<!-- Generated by graphviz version 2.40.1 (20161225.0304)
 -->
<!-- Title: models_diagram Pages: 1 -->
<svg width="1424pt" height="694pt"
 viewBox="0.00 0.00 1424.00 694.00" xmlns="http://www.w3.org/2000/svg" xmlns:xlink="http://www.w3.org/1999/xlink">
<g id="graph0" class="graph" transform="scale(1 1) rotate(0) translate(36 658)">
<title>models_diagram</title>
<polygon fill="#ffffff" stroke="transparent" points="-36,36 -36,-658 1388,-658 1388,36 -36,36"/>
<!-- Role -->
<g id="node1" class="node">
<title>Role</title>
<polygon fill="#add8e6" stroke="transparent" points="1003.5,-388 1003.5,-410 1098.5,-410 1098.5,-388 1003.5,-388"/>
<polygon fill="none" stroke="#000000" points="1003.5,-388 1003.5,-410 1098.5,-410 1098.5,-388 1003.5,-388"/>
<text text-anchor="start" x="1041.5565" y="-397" font-family="Times,serif" font-weight="bold" font-size="10.00" fill="#000000">Role</text>
<polygon fill="none" stroke="#000000" points="1003.5,-366 1003.5,-388 1098.5,-388 1098.5,-366 1003.5,-366"/>
<text text-anchor="start" x="1008.5" y="-375" font-family="Times,serif" text-decoration="underline" font-size="10.00" fill="#000000">id</text>
<text text-anchor="start" x="1016.279" y="-375" font-family="Times,serif" font-size="10.00" fill="#000000">: NUMBER</text>
<polygon fill="none" stroke="#000000" points="1003.5,-344 1003.5,-366 1098.5,-366 1098.5,-344 1003.5,-344"/>
<text text-anchor="start" x="1008.5" y="-352" font-family="Times,serif" font-size="10.00" fill="#000000">name: STRING</text>
<polygon fill="none" stroke="#000000" points="1003.5,-322 1003.5,-344 1098.5,-344 1098.5,-322 1003.5,-322"/>
<text text-anchor="start" x="1008.092" y="-330" font-family="Times,serif" font-size="10.00" fill="#000000">description: STRING</text>
<polygon fill="none" stroke="#000000" points="1003.5,-300 1003.5,-322 1098.5,-322 1098.5,-300 1003.5,-300"/>
<text text-anchor="start" x="1008.5" y="-308" font-family="Times,serif" font-size="10.00" fill="#000000">createdAt: DATE</text>
<polygon fill="none" stroke="#000000" points="1003.5,-278 1003.5,-300 1098.5,-300 1098.5,-278 1003.5,-278"/>
<text text-anchor="start" x="1008.5" y="-286" font-family="Times,serif" font-size="10.00" fill="#000000">updatedAt: DATE</text>
</g>
<!-- RolePermission -->
<g id="node3" class="node">
<title>RolePermission</title>
<polygon fill="#add8e6" stroke="transparent" points="1242,-436 1242,-458 1352,-458 1352,-436 1242,-436"/>
<polygon fill="none" stroke="#000000" points="1242,-436 1242,-458 1352,-458 1352,-436 1242,-436"/>
<text text-anchor="start" x="1265.3355" y="-445" font-family="Times,serif" font-weight="bold" font-size="10.00" fill="#000000">RolePermission</text>
<polygon fill="none" stroke="#000000" points="1242,-414 1242,-436 1352,-436 1352,-414 1242,-414"/>
<text text-anchor="start" x="1247" y="-423" font-family="Times,serif" text-decoration="underline" font-size="10.00" fill="#000000">roleId</text>
<text text-anchor="start" x="1270.876" y="-423" font-family="Times,serif" font-size="10.00" fill="#000000">: NUMBER</text>
<polygon fill="none" stroke="#000000" points="1242,-392 1242,-414 1352,-414 1352,-392 1242,-392"/>
<text text-anchor="start" x="1246.8675" y="-401" font-family="Times,serif" text-decoration="underline" font-size="10.00" fill="#000000">permissionId</text>
<text text-anchor="start" x="1299.0795" y="-401" font-family="Times,serif" font-size="10.00" fill="#000000">: NUMBER</text>
</g>
<!-- Role&#45;&gt;RolePermission -->
<g id="edge1" class="edge">
<title>Role&#45;&gt;RolePermission</title>
<path fill="none" stroke="#0000ff" d="M1109.5336,-363.3985C1145.7947,-375.3139 1192.346,-390.6106 1229.9883,-402.9799"/>
<polygon fill="#0000ff" stroke="#0000ff" points="1109.428,-363.3638 1099.7135,-354.4875 1103.7278,-361.4907 1098.0277,-359.6176 1098.0277,-359.6176 1098.0277,-359.6176 1103.7278,-361.4907 1096.3419,-364.7477 1109.428,-363.3638 1109.428,-363.3638"/>
<polygon fill="#0000ff" stroke="#0000ff" points="1230.4721,-403.1388 1240.1866,-412.0152 1236.1723,-405.0119 1241.8724,-406.8851 1241.8724,-406.8851 1241.8724,-406.8851 1236.1723,-405.0119 1243.5582,-401.7549 1230.4721,-403.1388 1230.4721,-403.1388"/>
</g>
<!-- UserRole -->
<g id="node5" class="node">
<title>UserRole</title>
<polygon fill="#add8e6" stroke="transparent" points="1245,-329 1245,-351 1350,-351 1350,-329 1245,-329"/>
<polygon fill="none" stroke="#000000" points="1245,-329 1245,-351 1350,-351 1350,-329 1245,-329"/>
<text text-anchor="start" x="1278.6185" y="-338" font-family="Times,serif" font-weight="bold" font-size="10.00" fill="#000000">UserRole</text>
<polygon fill="none" stroke="#000000" points="1245,-307 1245,-329 1350,-329 1350,-307 1245,-307"/>
<text text-anchor="start" x="1250" y="-316" font-family="Times,serif" text-decoration="underline" font-size="10.00" fill="#000000">id</text>
<text text-anchor="start" x="1257.779" y="-316" font-family="Times,serif" font-size="10.00" fill="#000000">: NUMBER</text>
<polygon fill="none" stroke="#000000" points="1245,-285 1245,-307 1350,-307 1350,-285 1245,-285"/>
<text text-anchor="start" x="1250" y="-294" font-family="Times,serif" font-style="italic" text-decoration="underline" font-size="10.00" fill="#000000">userId</text>
<text text-anchor="start" x="1274.986" y="-294" font-family="Times,serif" font-size="10.00" fill="#000000">: UUID</text>
<polygon fill="none" stroke="#000000" points="1245,-263 1245,-285 1350,-285 1350,-263 1245,-263"/>
<text text-anchor="start" x="1250" y="-272" font-family="Times,serif" font-style="italic" text-decoration="underline" font-size="10.00" fill="#000000">roleId</text>
<text text-anchor="start" x="1273.876" y="-272" font-family="Times,serif" font-size="10.00" fill="#000000">: NUMBER</text>
<polygon fill="none" stroke="#000000" points="1245,-241 1245,-263 1350,-263 1350,-241 1245,-241"/>
<text text-anchor="start" x="1249.6025" y="-249" font-family="Times,serif" font-size="10.00" fill="#000000">resourceType: STRING</text>
<polygon fill="none" stroke="#000000" points="1245,-219 1245,-241 1350,-241 1350,-219 1245,-219"/>
<text text-anchor="start" x="1250" y="-227" font-family="Times,serif" font-size="10.00" fill="#000000">resourceId: STRING</text>
<polygon fill="none" stroke="#000000" points="1245,-197 1245,-219 1350,-219 1350,-197 1245,-197"/>
<text text-anchor="start" x="1250" y="-205" font-family="Times,serif" font-size="10.00" fill="#000000">createdAt: DATE</text>
<polygon fill="none" stroke="#000000" points="1245,-175 1245,-197 1350,-197 1350,-175 1245,-175"/>
<text text-anchor="start" x="1250" y="-183" font-family="Times,serif" font-size="10.00" fill="#000000">updatedAt: DATE</text>
</g>
<!-- Role&#45;&gt;UserRole -->
<g id="edge2" class="edge">
<title>Role&#45;&gt;UserRole</title>
<path fill="none" stroke="#0000ff" d="M1109.5124,-324.6085C1146.7495,-312.3724 1194.8441,-296.5685 1232.9985,-284.0309"/>
<polygon fill="#0000ff" stroke="#0000ff" points="1109.428,-324.6362 1096.3419,-323.2523 1103.7278,-326.5093 1098.0277,-328.3824 1098.0277,-328.3824 1098.0277,-328.3824 1103.7278,-326.5093 1099.7135,-333.5125 1109.428,-324.6362 1109.428,-324.6362"/>
<polygon fill="#0000ff" stroke="#0000ff" points="1245.8086,-284.2425 1233.0971,-283.9986 1243.1862,-276.2623 1245.8086,-284.2425"/>
</g>
<!-- Permission -->
<g id="node2" class="node">
<title>Permission</title>
<polygon fill="#add8e6" stroke="transparent" points="1003.5,-600 1003.5,-622 1098.5,-622 1098.5,-600 1003.5,-600"/>
<polygon fill="none" stroke="#000000" points="1003.5,-600 1003.5,-622 1098.5,-622 1098.5,-600 1003.5,-600"/>
<text text-anchor="start" x="1028.779" y="-609" font-family="Times,serif" font-weight="bold" font-size="10.00" fill="#000000">Permission</text>
<polygon fill="none" stroke="#000000" points="1003.5,-578 1003.5,-600 1098.5,-600 1098.5,-578 1003.5,-578"/>
<text text-anchor="start" x="1008.5" y="-587" font-family="Times,serif" text-decoration="underline" font-size="10.00" fill="#000000">id</text>
<text text-anchor="start" x="1016.279" y="-587" font-family="Times,serif" font-size="10.00" fill="#000000">: NUMBER</text>
<polygon fill="none" stroke="#000000" points="1003.5,-556 1003.5,-578 1098.5,-578 1098.5,-556 1003.5,-556"/>
<text text-anchor="start" x="1008.5" y="-564" font-family="Times,serif" font-size="10.00" fill="#000000">name: STRING</text>
<polygon fill="none" stroke="#000000" points="1003.5,-534 1003.5,-556 1098.5,-556 1098.5,-534 1003.5,-534"/>
<text text-anchor="start" x="1008.5" y="-542" font-family="Times,serif" font-size="10.00" fill="#000000">resource: STRING</text>
<polygon fill="none" stroke="#000000" points="1003.5,-512 1003.5,-534 1098.5,-534 1098.5,-512 1003.5,-512"/>
<text text-anchor="start" x="1008.5" y="-520" font-family="Times,serif" font-size="10.00" fill="#000000">action: STRING</text>
<polygon fill="none" stroke="#000000" points="1003.5,-490 1003.5,-512 1098.5,-512 1098.5,-490 1003.5,-490"/>
<text text-anchor="start" x="1008.092" y="-498" font-family="Times,serif" font-size="10.00" fill="#000000">description: STRING</text>
<polygon fill="none" stroke="#000000" points="1003.5,-468 1003.5,-490 1098.5,-490 1098.5,-468 1003.5,-468"/>
<text text-anchor="start" x="1008.5" y="-476" font-family="Times,serif" font-size="10.00" fill="#000000">createdAt: DATE</text>
<polygon fill="none" stroke="#000000" points="1003.5,-446 1003.5,-468 1098.5,-468 1098.5,-446 1003.5,-446"/>
<text text-anchor="start" x="1008.5" y="-454" font-family="Times,serif" font-size="10.00" fill="#000000">updatedAt: DATE</text>
</g>
<!-- Permission&#45;&gt;RolePermission -->
<g id="edge3" class="edge">
<title>Permission&#45;&gt;RolePermission</title>
<path fill="none" stroke="#0000ff" d="M1109.0168,-508.1244C1145.4921,-491.9954 1192.5289,-471.1961 1230.4264,-454.4382"/>
<polygon fill="#0000ff" stroke="#0000ff" points="1109.0026,-508.1306 1095.8438,-508.045 1103.5151,-510.5572 1098.0277,-512.9837 1098.0277,-512.9837 1098.0277,-512.9837 1103.5151,-510.5572 1100.2116,-517.9224 1109.0026,-508.1306 1109.0026,-508.1306"/>
<polygon fill="#0000ff" stroke="#0000ff" points="1230.8975,-454.23 1244.0563,-454.3156 1236.385,-451.8034 1241.8724,-449.3769 1241.8724,-449.3769 1241.8724,-449.3769 1236.385,-451.8034 1239.6885,-444.4382 1230.8975,-454.23 1230.8975,-454.23"/>
</g>
<!-- User -->
<g id="node4" class="node">
<title>User</title>
<polygon fill="#add8e6" stroke="transparent" points="1006.5,-220 1006.5,-242 1095.5,-242 1095.5,-220 1006.5,-220"/>
<polygon fill="none" stroke="#000000" points="1006.5,-220 1006.5,-242 1095.5,-242 1095.5,-220 1006.5,-220"/>
<text text-anchor="start" x="1041.562" y="-229" font-family="Times,serif" font-weight="bold" font-size="10.00" fill="#000000">User</text>
<polygon fill="none" stroke="#000000" points="1006.5,-198 1006.5,-220 1095.5,-220 1095.5,-198 1006.5,-198"/>
<text text-anchor="start" x="1011.5" y="-207" font-family="Times,serif" text-decoration="underline" font-size="10.00" fill="#000000">id</text>
<text text-anchor="start" x="1019.279" y="-207" font-family="Times,serif" font-size="10.00" fill="#000000">: UUID</text>
<polygon fill="none" stroke="#000000" points="1006.5,-176 1006.5,-198 1095.5,-198 1095.5,-176 1006.5,-176"/>
<text text-anchor="start" x="1011.5" y="-184" font-family="Times,serif" font-size="10.00" fill="#000000">googleId: STRING</text>
<polygon fill="none" stroke="#000000" points="1006.5,-154 1006.5,-176 1095.5,-176 1095.5,-154 1006.5,-154"/>
<text text-anchor="start" x="1011.1515" y="-162" font-family="Times,serif" font-size="10.00" fill="#000000">username: STRING</text>
<polygon fill="none" stroke="#000000" points="1006.5,-132 1006.5,-154 1095.5,-154 1095.5,-132 1006.5,-132"/>
<text text-anchor="start" x="1011.5" y="-140" font-family="Times,serif" font-size="10.00" fill="#000000">createdAt: DATE</text>
<polygon fill="none" stroke="#000000" points="1006.5,-110 1006.5,-132 1095.5,-132 1095.5,-110 1006.5,-110"/>
<text text-anchor="start" x="1011.5" y="-118" font-family="Times,serif" font-size="10.00" fill="#000000">updatedAt: DATE</text>
</g>
<!-- User&#45;&gt;UserRole -->
<g id="edge4" class="edge">
<title>User&#45;&gt;UserRole</title>
<path fill="none" stroke="#0000ff" d="M1106.6425,-195.815C1144.1298,-209.0458 1193.5329,-226.4822 1232.6152,-240.2759"/>
<polygon fill="#0000ff" stroke="#0000ff" points="1106.4552,-195.749 1096.9365,-186.6629 1100.7972,-193.752 1095.1393,-191.755 1095.1393,-191.755 1095.1393,-191.755 1100.7972,-193.752 1093.342,-196.8472 1106.4552,-195.749 1106.4552,-195.749"/>
<polygon fill="#0000ff" stroke="#0000ff" points="1242.7288,-248.2994 1232.8108,-240.3449 1245.5245,-240.3783 1242.7288,-248.2994"/>
</g>
<!-- Image -->
<g id="node6" class="node">
<title>Image</title>
<polygon fill="#add8e6" stroke="transparent" points="239,-520 239,-542 343,-542 343,-520 239,-520"/>
<polygon fill="none" stroke="#000000" points="239,-520 239,-542 343,-542 343,-520 239,-520"/>
<text text-anchor="start" x="278.507" y="-529" font-family="Times,serif" font-weight="bold" font-size="10.00" fill="#000000">Image</text>
<polygon fill="none" stroke="#000000" points="239,-498 239,-520 343,-520 343,-498 239,-498"/>
<text text-anchor="start" x="244" y="-507" font-family="Times,serif" text-decoration="underline" font-size="10.00" fill="#000000">id</text>
<text text-anchor="start" x="251.779" y="-507" font-family="Times,serif" font-size="10.00" fill="#000000">: UUID</text>
<polygon fill="none" stroke="#000000" points="239,-476 239,-498 343,-498 343,-476 239,-476"/>
<text text-anchor="start" x="243.9275" y="-484" font-family="Times,serif" font-size="10.00" fill="#000000">displayName: STRING</text>
<polygon fill="none" stroke="#000000" points="239,-454 239,-476 343,-476 343,-454 239,-454"/>
<text text-anchor="start" x="244" y="-462" font-family="Times,serif" font-size="10.00" fill="#000000">storagePath: STRING</text>
<polygon fill="none" stroke="#000000" points="239,-432 239,-454 343,-454 343,-432 239,-432"/>
<text text-anchor="start" x="244" y="-440" font-family="Times,serif" font-size="10.00" fill="#000000">contentType: STRING</text>
<polygon fill="none" stroke="#000000" points="239,-410 239,-432 343,-432 343,-410 239,-410"/>
<text text-anchor="start" x="244" y="-418" font-family="Times,serif" font-size="10.00" fill="#000000">fileSize: NUMBER</text>
<polygon fill="none" stroke="#000000" points="239,-388 239,-410 343,-410 343,-388 239,-388"/>
<text text-anchor="start" x="244" y="-397" font-family="Times,serif" font-style="italic" text-decoration="underline" font-size="10.00" fill="#000000">uploaderUserId</text>
<text text-anchor="start" x="306.191" y="-397" font-family="Times,serif" font-size="10.00" fill="#000000">: UUID</text>
<polygon fill="none" stroke="#000000" points="239,-366 239,-388 343,-388 343,-366 239,-366"/>
<text text-anchor="start" x="244" y="-374" font-family="Times,serif" font-size="10.00" fill="#000000">createdAt: DATE</text>
<polygon fill="none" stroke="#000000" points="239,-344 239,-366 343,-366 343,-344 239,-344"/>
<text text-anchor="start" x="244" y="-352" font-family="Times,serif" font-size="10.00" fill="#000000">updatedAt: DATE</text>
</g>
<!-- Project -->
<g id="node7" class="node">
<title>Project</title>
<polygon fill="#add8e6" stroke="transparent" points="776.5,-154 776.5,-176 859.5,-176 859.5,-154 776.5,-154"/>
<polygon fill="none" stroke="#000000" points="776.5,-154 776.5,-176 859.5,-176 859.5,-154 776.5,-154"/>
<text text-anchor="start" x="803.838" y="-163" font-family="Times,serif" font-weight="bold" font-size="10.00" fill="#000000">Project</text>
<polygon fill="none" stroke="#000000" points="776.5,-132 776.5,-154 859.5,-154 859.5,-132 776.5,-132"/>
<text text-anchor="start" x="781.5" y="-141" font-family="Times,serif" text-decoration="underline" font-size="10.00" fill="#000000">id</text>
<text text-anchor="start" x="789.279" y="-141" font-family="Times,serif" font-size="10.00" fill="#000000">: UUID</text>
<polygon fill="none" stroke="#000000" points="776.5,-110 776.5,-132 859.5,-132 859.5,-110 776.5,-110"/>
<text text-anchor="start" x="781.5" y="-119" font-family="Times,serif" font-style="italic" text-decoration="underline" font-size="10.00" fill="#000000">userId</text>
<text text-anchor="start" x="806.486" y="-119" font-family="Times,serif" font-size="10.00" fill="#000000">: UUID</text>
<polygon fill="none" stroke="#000000" points="776.5,-88 776.5,-110 859.5,-110 859.5,-88 776.5,-88"/>
<text text-anchor="start" x="781.5" y="-96" font-family="Times,serif" font-size="10.00" fill="#000000">createdAt: DATE</text>
<polygon fill="none" stroke="#000000" points="776.5,-66 776.5,-88 859.5,-88 859.5,-66 776.5,-66"/>
<text text-anchor="start" x="781.205" y="-74" font-family="Times,serif" font-size="10.00" fill="#000000">updatedAt: DATE</text>
</g>
<!-- Project&#45;&gt;User -->
<g id="edge5" class="edge">
<title>Project&#45;&gt;User</title>
<path fill="none" stroke="#0000ff" d="M871.0264,-133.635C907.7883,-142.3127 956.5104,-153.8136 993.9128,-162.6425"/>
<polygon fill="#0000ff" stroke="#0000ff" points="860.1207,-126.7452 870.8348,-133.5898 858.1908,-134.9206 860.1207,-126.7452"/>
<polygon fill="#0000ff" stroke="#0000ff" points="993.9501,-162.6512 1004.3885,-170.6637 999.7896,-164.0297 1005.6291,-165.4082 1005.6291,-165.4082 1005.6291,-165.4082 999.7896,-164.0297 1006.8698,-160.1526 993.9501,-162.6512 993.9501,-162.6512"/>
</g>
<!-- Prototype -->
<g id="node8" class="node">
<title>Prototype</title>
<polygon fill="#add8e6" stroke="transparent" points="487.5,-176 487.5,-198 632.5,-198 632.5,-176 487.5,-176"/>
<polygon fill="none" stroke="#000000" points="487.5,-176 487.5,-198 632.5,-198 632.5,-176 487.5,-176"/>
<text text-anchor="start" x="540.5575" y="-185" font-family="Times,serif" font-weight="bold" font-size="10.00" fill="#000000">Prototype</text>
<polygon fill="none" stroke="#000000" points="487.5,-154 487.5,-176 632.5,-176 632.5,-154 487.5,-154"/>
<text text-anchor="start" x="492.5" y="-163" font-family="Times,serif" text-decoration="underline" font-size="10.00" fill="#000000">id</text>
<text text-anchor="start" x="500.279" y="-163" font-family="Times,serif" font-size="10.00" fill="#000000">: UUID</text>
<polygon fill="none" stroke="#000000" points="487.5,-132 487.5,-154 632.5,-154 632.5,-132 487.5,-132"/>
<text text-anchor="start" x="492.5" y="-141" font-family="Times,serif" font-style="italic" text-decoration="underline" font-size="10.00" fill="#000000">projectId</text>
<text text-anchor="start" x="528.594" y="-141" font-family="Times,serif" font-size="10.00" fill="#000000">: UUID</text>
<polygon fill="none" stroke="#000000" points="487.5,-110 487.5,-132 632.5,-132 632.5,-110 487.5,-110"/>
<text text-anchor="start" x="492.5" y="-118" font-family="Times,serif" font-size="10.00" fill="#000000">name: STRING</text>
<polygon fill="none" stroke="#000000" points="487.5,-88 487.5,-110 632.5,-110 632.5,-88 487.5,-88"/>
<text text-anchor="start" x="492.5" y="-96" font-family="Times,serif" font-size="10.00" fill="#000000">type: ENUM</text>
<polygon fill="none" stroke="#000000" points="487.5,-66 487.5,-88 632.5,-88 632.5,-66 487.5,-66"/>
<text text-anchor="start" x="492.5" y="-74" font-family="Times,serif" font-size="10.00" fill="#000000">versionNumber: NUMBER</text>
<polygon fill="none" stroke="#000000" points="487.5,-44 487.5,-66 632.5,-66 632.5,-44 487.5,-44"/>
<text text-anchor="start" x="492.385" y="-53" font-family="Times,serif" font-style="italic" text-decoration="underline" font-size="10.00" fill="#000000">sourceVersionPrototypeId</text>
<text text-anchor="start" x="597.35" y="-53" font-family="Times,serif" font-size="10.00" fill="#000000">: UUID</text>
<polygon fill="none" stroke="#000000" points="487.5,-22 487.5,-44 632.5,-44 632.5,-22 487.5,-22"/>
<text text-anchor="start" x="492.5" y="-30" font-family="Times,serif" font-size="10.00" fill="#000000">createdAt: DATE</text>
<polygon fill="none" stroke="#000000" points="487.5,0 487.5,-22 632.5,-22 632.5,0 487.5,0"/>
<text text-anchor="start" x="492.5" y="-8" font-family="Times,serif" font-size="10.00" fill="#000000">updatedAt: DATE</text>
</g>
<!-- Prototype&#45;&gt;Project -->
<g id="edge6" class="edge">
<title>Prototype&#45;&gt;Project</title>
<path fill="none" stroke="#0000ff" d="M644.2523,-106.2269C683.4906,-109.5728 728.9435,-113.4487 763.4457,-116.3907"/>
<polygon fill="#0000ff" stroke="#0000ff" points="632.4108,-101.002 644.0106,-106.2064 631.6971,-109.3716 632.4108,-101.002"/>
<polygon fill="#0000ff" stroke="#0000ff" points="763.6732,-116.41 775.171,-122.8101 769.6515,-116.9199 775.6298,-117.4297 775.6298,-117.4297 775.6298,-117.4297 769.6515,-116.9199 776.0886,-112.0492 763.6732,-116.41 763.6732,-116.41"/>
</g>
<!-- Part -->
<g id="node9" class="node">
<title>Part</title>
<polygon fill="#add8e6" stroke="transparent" points="248,-286 248,-308 334,-308 334,-286 248,-286"/>
<polygon fill="none" stroke="#000000" points="248,-286 248,-308 334,-308 334,-286 248,-286"/>
<text text-anchor="start" x="282.947" y="-295" font-family="Times,serif" font-weight="bold" font-size="10.00" fill="#000000">Part</text>
<polygon fill="none" stroke="#000000" points="248,-264 248,-286 334,-286 334,-264 248,-264"/>
<text text-anchor="start" x="253" y="-273" font-family="Times,serif" text-decoration="underline" font-size="10.00" fill="#000000">id</text>
<text text-anchor="start" x="260.779" y="-273" font-family="Times,serif" font-size="10.00" fill="#000000">: NUMBER</text>
<polygon fill="none" stroke="#000000" points="248,-242 248,-264 334,-264 334,-242 248,-242"/>
<text text-anchor="start" x="253" y="-250" font-family="Times,serif" font-size="10.00" fill="#000000">type: ENUM</text>
<polygon fill="none" stroke="#000000" points="248,-220 248,-242 334,-242 334,-220 248,-220"/>
<text text-anchor="start" x="252.54" y="-229" font-family="Times,serif" font-style="italic" text-decoration="underline" font-size="10.00" fill="#000000">prototypeId</text>
<text text-anchor="start" x="299.195" y="-229" font-family="Times,serif" font-size="10.00" fill="#000000">: UUID</text>
<polygon fill="none" stroke="#000000" points="248,-198 248,-220 334,-220 334,-198 248,-198"/>
<text text-anchor="start" x="253" y="-206" font-family="Times,serif" font-size="10.00" fill="#000000">position: JSON</text>
<polygon fill="none" stroke="#000000" points="248,-176 248,-198 334,-198 334,-176 248,-176"/>
<text text-anchor="start" x="253" y="-184" font-family="Times,serif" font-size="10.00" fill="#000000">width: NUMBER</text>
<polygon fill="none" stroke="#000000" points="248,-154 248,-176 334,-176 334,-154 248,-154"/>
<text text-anchor="start" x="253" y="-162" font-family="Times,serif" font-size="10.00" fill="#000000">height: NUMBER</text>
<polygon fill="none" stroke="#000000" points="248,-132 248,-154 334,-154 334,-132 248,-132"/>
<text text-anchor="start" x="253" y="-140" font-family="Times,serif" font-size="10.00" fill="#000000">order: NUMBER</text>
<polygon fill="none" stroke="#000000" points="248,-110 248,-132 334,-132 334,-110 248,-110"/>
<text text-anchor="start" x="253" y="-118" font-family="Times,serif" font-size="10.00" fill="#000000">frontSide: ENUM</text>
<polygon fill="none" stroke="#000000" points="248,-88 248,-110 334,-110 334,-88 248,-88"/>
<text text-anchor="start" x="253" y="-97" font-family="Times,serif" font-style="italic" text-decoration="underline" font-size="10.00" fill="#000000">ownerId</text>
<text text-anchor="start" x="286.316" y="-97" font-family="Times,serif" font-size="10.00" fill="#000000">: UUID</text>
<polygon fill="none" stroke="#000000" points="248,-66 248,-88 334,-88 334,-66 248,-66"/>
<text text-anchor="start" x="253" y="-74" font-family="Times,serif" font-size="10.00" fill="#000000">createdAt: DATE</text>
<polygon fill="none" stroke="#000000" points="248,-44 248,-66 334,-66 334,-44 248,-44"/>
<text text-anchor="start" x="253" y="-52" font-family="Times,serif" font-size="10.00" fill="#000000">updatedAt: DATE</text>
</g>
<!-- Part&#45;&gt;User -->
<g id="edge8" class="edge">
<title>Part&#45;&gt;User</title>
<path fill="none" stroke="#0000ff" d="M346.0814,-190.3355C385.1125,-199.7305 438.8804,-211.1399 487,-216 672.0034,-234.6853 892.0506,-203.7549 993.7642,-186.4505"/>
<polygon fill="#0000ff" stroke="#0000ff" points="335.2068,-183.3508 345.8648,-190.2825 333.2104,-191.5101 335.2068,-183.3508"/>
<polygon fill="#0000ff" stroke="#0000ff" points="994.0377,-186.4034 1006.7817,-189.6822 999.9502,-185.3822 1005.8627,-184.361 1005.8627,-184.361 1005.8627,-184.361 999.9502,-185.3822 1004.9436,-179.0398 994.0377,-186.4034 994.0377,-186.4034"/>
</g>
<!-- Part&#45;&gt;Prototype -->
<g id="edge7" class="edge">
<title>Part&#45;&gt;Prototype</title>
<path fill="none" stroke="#0000ff" d="M345.7243,-160.3063C382.9393,-149.6338 432.9029,-135.3053 475.169,-123.1843"/>
<polygon fill="#0000ff" stroke="#0000ff" points="332.9813,-159.5914 345.6742,-160.3205 335.297,-167.6659 332.9813,-159.5914"/>
<polygon fill="#0000ff" stroke="#0000ff" points="475.334,-123.1371 488.3577,-125.0198 481.1015,-121.483 486.8691,-119.829 486.8691,-119.829 486.8691,-119.829 481.1015,-121.483 485.3804,-114.6382 475.334,-123.1371 475.334,-123.1371"/>
</g>
<!-- PartProperty -->
<g id="node10" class="node">
<title>PartProperty</title>
<polygon fill="#add8e6" stroke="transparent" points=".5,-397 .5,-419 95.5,-419 95.5,-397 .5,-397"/>
<polygon fill="none" stroke="#000000" points=".5,-397 .5,-419 95.5,-419 95.5,-397 .5,-397"/>
<text text-anchor="start" x="22.7295" y="-406" font-family="Times,serif" font-weight="bold" font-size="10.00" fill="#000000">PartProperty</text>
<polygon fill="none" stroke="#000000" points=".5,-375 .5,-397 95.5,-397 95.5,-375 .5,-375"/>
<text text-anchor="start" x="5.5" y="-384" font-family="Times,serif" text-decoration="underline" font-size="10.00" fill="#000000">partId</text>
<text text-anchor="start" x="29.376" y="-384" font-family="Times,serif" font-size="10.00" fill="#000000">: NUMBER</text>
<polygon fill="none" stroke="#000000" points=".5,-353 .5,-375 95.5,-375 95.5,-353 .5,-353"/>
<text text-anchor="start" x="5.5" y="-362" font-family="Times,serif" text-decoration="underline" font-size="10.00" fill="#000000">side</text>
<text text-anchor="start" x="21.607" y="-362" font-family="Times,serif" font-size="10.00" fill="#000000">: ENUM</text>
<polygon fill="none" stroke="#000000" points=".5,-331 .5,-353 95.5,-353 95.5,-331 .5,-331"/>
<text text-anchor="start" x="5.5" y="-339" font-family="Times,serif" font-size="10.00" fill="#000000">name: STRING</text>
<polygon fill="none" stroke="#000000" points=".5,-309 .5,-331 95.5,-331 95.5,-309 .5,-309"/>
<text text-anchor="start" x="5.092" y="-317" font-family="Times,serif" font-size="10.00" fill="#000000">description: STRING</text>
<polygon fill="none" stroke="#000000" points=".5,-287 .5,-309 95.5,-309 95.5,-287 .5,-287"/>
<text text-anchor="start" x="5.5" y="-295" font-family="Times,serif" font-size="10.00" fill="#000000">color: STRING</text>
<polygon fill="none" stroke="#000000" points=".5,-265 .5,-287 95.5,-287 95.5,-265 .5,-265"/>
<text text-anchor="start" x="5.5" y="-273" font-family="Times,serif" font-size="10.00" fill="#000000">textColor: STRING</text>
<polygon fill="none" stroke="#000000" points=".5,-243 .5,-265 95.5,-265 95.5,-243 .5,-243"/>
<text text-anchor="start" x="5.5" y="-252" font-family="Times,serif" font-style="italic" text-decoration="underline" font-size="10.00" fill="#000000">imageId</text>
<text text-anchor="start" x="38.265" y="-252" font-family="Times,serif" font-size="10.00" fill="#000000">: UUID</text>
<polygon fill="none" stroke="#000000" points=".5,-221 .5,-243 95.5,-243 95.5,-221 .5,-221"/>
<text text-anchor="start" x="5.5" y="-229" font-family="Times,serif" font-size="10.00" fill="#000000">createdAt: DATE</text>
<polygon fill="none" stroke="#000000" points=".5,-199 .5,-221 95.5,-221 95.5,-199 .5,-199"/>
<text text-anchor="start" x="5.5" y="-207" font-family="Times,serif" font-size="10.00" fill="#000000">updatedAt: DATE</text>
</g>
<!-- PartProperty&#45;&gt;Image -->
<g id="edge10" class="edge">
<title>PartProperty&#45;&gt;Image</title>
<path fill="none" stroke="#0000ff" d="M105.5651,-340.9537C142.4753,-361.2657 190.2542,-387.5588 228.0687,-408.3684"/>
<polygon fill="#0000ff" stroke="#0000ff" points="97.0522,-331.475 105.5405,-340.9402 93.0024,-338.8343 97.0522,-331.475"/>
<polygon fill="#0000ff" stroke="#0000ff" points="228.4425,-408.574 236.3522,-419.0906 233.6991,-411.4668 238.9557,-414.3596 238.9557,-414.3596 238.9557,-414.3596 233.6991,-411.4668 241.5592,-409.6287 228.4425,-408.574 228.4425,-408.574"/>
</g>
<!-- PartProperty&#45;&gt;Part -->
<g id="edge9" class="edge">
<title>PartProperty&#45;&gt;Part</title>
<path fill="none" stroke="#0000ff" d="M105.7747,-277.1703C145.66,-255.3849 198.1625,-226.708 237.0822,-205.45"/>
<polygon fill="#0000ff" stroke="#0000ff" points="93.014,-279.3545 105.5587,-277.2882 97.0406,-286.7265 93.014,-279.3545"/>
<polygon fill="#0000ff" stroke="#0000ff" points="237.1461,-205.4151 250.2661,-204.4019 242.4119,-202.5389 247.6776,-199.6628 247.6776,-199.6628 247.6776,-199.6628 242.4119,-202.5389 245.089,-194.9236 237.1461,-205.4151 237.1461,-205.4151"/>
</g>
</g>
</svg>
