<?xml version="1.0" encoding="UTF-8" standalone="no"?>
<!DOCTYPE svg PUBLIC "-//W3C//DTD SVG 1.1//EN"
 "http://www.w3.org/Graphics/SVG/1.1/DTD/svg11.dtd">
<!-- Generated by graphviz version 2.40.1 (20161225.0304)
 -->
<!-- Title: models_diagram Pages: 1 -->
<svg width="1431pt" height="892pt"
 viewBox="0.00 0.00 1431.00 892.00" xmlns="http://www.w3.org/2000/svg" xmlns:xlink="http://www.w3.org/1999/xlink">
<g id="graph0" class="graph" transform="scale(1 1) rotate(0) translate(36 856)">
<title>models_diagram</title>
<polygon fill="#ffffff" stroke="transparent" points="-36,36 -36,-856 1395,-856 1395,36 -36,36"/>
<!-- User -->
<g id="node1" class="node">
<title>User</title>
<polygon fill="#add8e6" stroke="transparent" points="1035.5,-577 1035.5,-599 1124.5,-599 1124.5,-577 1035.5,-577"/>
<polygon fill="none" stroke="#000000" points="1035.5,-577 1035.5,-599 1124.5,-599 1124.5,-577 1035.5,-577"/>
<text text-anchor="start" x="1070.562" y="-586" font-family="Times,serif" font-weight="bold" font-size="10.00" fill="#000000">User</text>
<polygon fill="none" stroke="#000000" points="1035.5,-555 1035.5,-577 1124.5,-577 1124.5,-555 1035.5,-555"/>
<text text-anchor="start" x="1040.5" y="-564" font-family="Times,serif" text-decoration="underline" font-size="10.00" fill="#000000">id</text>
<text text-anchor="start" x="1048.279" y="-564" font-family="Times,serif" font-size="10.00" fill="#000000">: UUID</text>
<polygon fill="none" stroke="#000000" points="1035.5,-533 1035.5,-555 1124.5,-555 1124.5,-533 1035.5,-533"/>
<text text-anchor="start" x="1040.5" y="-541" font-family="Times,serif" font-size="10.00" fill="#000000">googleId: STRING</text>
<polygon fill="none" stroke="#000000" points="1035.5,-511 1035.5,-533 1124.5,-533 1124.5,-511 1035.5,-511"/>
<text text-anchor="start" x="1040.1515" y="-519" font-family="Times,serif" font-size="10.00" fill="#000000">username: STRING</text>
<polygon fill="none" stroke="#000000" points="1035.5,-489 1035.5,-511 1124.5,-511 1124.5,-489 1035.5,-489"/>
<text text-anchor="start" x="1040.5" y="-497" font-family="Times,serif" font-size="10.00" fill="#000000">createdAt: DATE</text>
<polygon fill="none" stroke="#000000" points="1035.5,-467 1035.5,-489 1124.5,-489 1124.5,-467 1035.5,-467"/>
<text text-anchor="start" x="1040.5" y="-475" font-family="Times,serif" font-size="10.00" fill="#000000">updatedAt: DATE</text>
</g>
<!-- UserAccess -->
<g id="node9" class="node">
<title>UserAccess</title>
<polygon fill="#add8e6" stroke="transparent" points="1268.5,-483 1268.5,-505 1359.5,-505 1359.5,-483 1268.5,-483"/>
<polygon fill="none" stroke="#000000" points="1268.5,-483 1268.5,-505 1359.5,-505 1359.5,-483 1268.5,-483"/>
<text text-anchor="start" x="1290.405" y="-492" font-family="Times,serif" font-weight="bold" font-size="10.00" fill="#000000">UserAccess</text>
<polygon fill="none" stroke="#000000" points="1268.5,-461 1268.5,-483 1359.5,-483 1359.5,-461 1268.5,-461"/>
<text text-anchor="start" x="1273.5" y="-470" font-family="Times,serif" text-decoration="underline" font-size="10.00" fill="#000000">userId</text>
<text text-anchor="start" x="1298.486" y="-470" font-family="Times,serif" font-size="10.00" fill="#000000">: UUID</text>
<polygon fill="none" stroke="#000000" points="1268.5,-439 1268.5,-461 1359.5,-461 1359.5,-439 1268.5,-439"/>
<text text-anchor="start" x="1273.042" y="-448" font-family="Times,serif" text-decoration="underline" font-size="10.00" fill="#000000">accessId</text>
<text text-anchor="start" x="1306.905" y="-448" font-family="Times,serif" font-size="10.00" fill="#000000">: NUMBER</text>
</g>
<!-- User&#45;&gt;UserAccess -->
<g id="edge1" class="edge">
<title>User&#45;&gt;UserAccess</title>
<path fill="none" stroke="#0000ff" d="M1135.8915,-518.2997C1172.2369,-508.825 1219.3619,-496.5403 1255.936,-487.006"/>
<polygon fill="#0000ff" stroke="#0000ff" points="1135.6763,-518.3557 1122.7022,-516.1574 1129.8704,-519.8692 1124.0644,-521.3828 1124.0644,-521.3828 1124.0644,-521.3828 1129.8704,-519.8692 1125.4266,-526.6082 1135.6763,-518.3557 1135.6763,-518.3557"/>
<polygon fill="#0000ff" stroke="#0000ff" points="1256.2922,-486.9132 1269.2663,-489.1115 1262.0982,-485.3997 1267.9041,-483.8861 1267.9041,-483.8861 1267.9041,-483.8861 1262.0982,-485.3997 1266.5419,-478.6607 1256.2922,-486.9132 1256.2922,-486.9132"/>
</g>
<!-- PrototypeGroup -->
<g id="node2" class="node">
<title>PrototypeGroup</title>
<polygon fill="#add8e6" stroke="transparent" points="808.5,-566 808.5,-588 891.5,-588 891.5,-566 808.5,-566"/>
<polygon fill="none" stroke="#000000" points="808.5,-566 808.5,-588 891.5,-588 891.5,-566 808.5,-566"/>
<text text-anchor="start" x="817.7835" y="-575" font-family="Times,serif" font-weight="bold" font-size="10.00" fill="#000000">PrototypeGroup</text>
<polygon fill="none" stroke="#000000" points="808.5,-544 808.5,-566 891.5,-566 891.5,-544 808.5,-544"/>
<text text-anchor="start" x="813.5" y="-553" font-family="Times,serif" text-decoration="underline" font-size="10.00" fill="#000000">id</text>
<text text-anchor="start" x="821.279" y="-553" font-family="Times,serif" font-size="10.00" fill="#000000">: UUID</text>
<polygon fill="none" stroke="#000000" points="808.5,-522 808.5,-544 891.5,-544 891.5,-522 808.5,-522"/>
<text text-anchor="start" x="813.5" y="-531" font-family="Times,serif" font-style="italic" text-decoration="underline" font-size="10.00" fill="#000000">userId</text>
<text text-anchor="start" x="838.486" y="-531" font-family="Times,serif" font-size="10.00" fill="#000000">: UUID</text>
<polygon fill="none" stroke="#000000" points="808.5,-500 808.5,-522 891.5,-522 891.5,-500 808.5,-500"/>
<text text-anchor="start" x="813.5" y="-508" font-family="Times,serif" font-size="10.00" fill="#000000">createdAt: DATE</text>
<polygon fill="none" stroke="#000000" points="808.5,-478 808.5,-500 891.5,-500 891.5,-478 808.5,-478"/>
<text text-anchor="start" x="813.205" y="-486" font-family="Times,serif" font-size="10.00" fill="#000000">updatedAt: DATE</text>
</g>
<!-- PrototypeGroup&#45;&gt;User -->
<g id="edge3" class="edge">
<title>PrototypeGroup&#45;&gt;User</title>
<path fill="none" stroke="#0000ff" d="M903.3218,-533C939.0254,-533 985.8274,-533 1022.2189,-533"/>
<polygon fill="#0000ff" stroke="#0000ff" points="891.1513,-528.8 903.1513,-533.0001 891.1512,-537.2 891.1513,-528.8"/>
<polygon fill="#0000ff" stroke="#0000ff" points="1022.6216,-533.0001 1034.6216,-538.4 1028.6216,-533 1034.6216,-533 1034.6216,-533 1034.6216,-533 1028.6216,-533 1034.6215,-527.6 1022.6216,-533.0001 1022.6216,-533.0001"/>
</g>
<!-- Access -->
<g id="node3" class="node">
<title>Access</title>
<polygon fill="#add8e6" stroke="transparent" points="548,-399 548,-421 660,-421 660,-399 548,-399"/>
<polygon fill="none" stroke="#000000" points="548,-399 548,-421 660,-421 660,-399 548,-399"/>
<text text-anchor="start" x="589.843" y="-408" font-family="Times,serif" font-weight="bold" font-size="10.00" fill="#000000">Access</text>
<polygon fill="none" stroke="#000000" points="548,-377 548,-399 660,-399 660,-377 548,-377"/>
<text text-anchor="start" x="553" y="-386" font-family="Times,serif" text-decoration="underline" font-size="10.00" fill="#000000">id</text>
<text text-anchor="start" x="560.779" y="-386" font-family="Times,serif" font-size="10.00" fill="#000000">: NUMBER</text>
<polygon fill="none" stroke="#000000" points="548,-355 548,-377 660,-377 660,-355 548,-355"/>
<text text-anchor="start" x="552.766" y="-364" font-family="Times,serif" font-style="italic" text-decoration="underline" font-size="10.00" fill="#000000">prototypeGroupId</text>
<text text-anchor="start" x="624.969" y="-364" font-family="Times,serif" font-size="10.00" fill="#000000">: UUID</text>
<polygon fill="none" stroke="#000000" points="548,-333 548,-355 660,-355 660,-333 548,-333"/>
<text text-anchor="start" x="553" y="-341" font-family="Times,serif" font-size="10.00" fill="#000000">name: STRING</text>
</g>
<!-- Access&#45;&gt;PrototypeGroup -->
<g id="edge4" class="edge">
<title>Access&#45;&gt;PrototypeGroup</title>
<path fill="none" stroke="#0000ff" d="M670.3033,-419.1316C710.1935,-444.4794 760.2507,-476.2876 797.3125,-499.8381"/>
<polygon fill="#0000ff" stroke="#0000ff" points="662.2675,-409.0491 670.1431,-419.0299 657.7624,-416.1389 662.2675,-409.0491"/>
<polygon fill="#0000ff" stroke="#0000ff" points="797.7576,-500.1209 804.9896,-511.1144 802.8217,-503.3388 807.8858,-506.5567 807.8858,-506.5567 807.8858,-506.5567 802.8217,-503.3388 810.7819,-501.999 797.7576,-500.1209 797.7576,-500.1209"/>
</g>
<!-- Access&#45;&gt;UserAccess -->
<g id="edge2" class="edge">
<title>Access&#45;&gt;UserAccess</title>
<path fill="none" stroke="#0000ff" d="M672.3452,-386.1512C811.5446,-404.7896 1125.7203,-446.8568 1255.6136,-464.2492"/>
<polygon fill="#0000ff" stroke="#0000ff" points="672.1602,-386.1265 660.983,-379.1817 666.2132,-385.3302 660.2663,-384.5339 660.2663,-384.5339 660.2663,-384.5339 666.2132,-385.3302 659.5496,-389.8861 672.1602,-386.1265 672.1602,-386.1265"/>
<polygon fill="#0000ff" stroke="#0000ff" points="1255.7027,-464.261 1266.8799,-471.2059 1261.6497,-465.0573 1267.5966,-465.8537 1267.5966,-465.8537 1267.5966,-465.8537 1261.6497,-465.0573 1268.3133,-460.5014 1255.7027,-464.261 1255.7027,-464.261"/>
</g>
<!-- Image -->
<g id="node4" class="node">
<title>Image</title>
<polygon fill="#add8e6" stroke="transparent" points="267.5,-586 267.5,-608 371.5,-608 371.5,-586 267.5,-586"/>
<polygon fill="none" stroke="#000000" points="267.5,-586 267.5,-608 371.5,-608 371.5,-586 267.5,-586"/>
<text text-anchor="start" x="307.007" y="-595" font-family="Times,serif" font-weight="bold" font-size="10.00" fill="#000000">Image</text>
<polygon fill="none" stroke="#000000" points="267.5,-564 267.5,-586 371.5,-586 371.5,-564 267.5,-564"/>
<text text-anchor="start" x="272.5" y="-573" font-family="Times,serif" text-decoration="underline" font-size="10.00" fill="#000000">id</text>
<text text-anchor="start" x="280.279" y="-573" font-family="Times,serif" font-size="10.00" fill="#000000">: UUID</text>
<polygon fill="none" stroke="#000000" points="267.5,-542 267.5,-564 371.5,-564 371.5,-542 267.5,-542"/>
<text text-anchor="start" x="272.4275" y="-550" font-family="Times,serif" font-size="10.00" fill="#000000">displayName: STRING</text>
<polygon fill="none" stroke="#000000" points="267.5,-520 267.5,-542 371.5,-542 371.5,-520 267.5,-520"/>
<text text-anchor="start" x="272.5" y="-528" font-family="Times,serif" font-size="10.00" fill="#000000">storagePath: STRING</text>
<polygon fill="none" stroke="#000000" points="267.5,-498 267.5,-520 371.5,-520 371.5,-498 267.5,-498"/>
<text text-anchor="start" x="272.5" y="-506" font-family="Times,serif" font-size="10.00" fill="#000000">contentType: STRING</text>
<polygon fill="none" stroke="#000000" points="267.5,-476 267.5,-498 371.5,-498 371.5,-476 267.5,-476"/>
<text text-anchor="start" x="272.5" y="-484" font-family="Times,serif" font-size="10.00" fill="#000000">fileSize: NUMBER</text>
<polygon fill="none" stroke="#000000" points="267.5,-454 267.5,-476 371.5,-476 371.5,-454 267.5,-454"/>
<text text-anchor="start" x="272.5" y="-463" font-family="Times,serif" font-style="italic" text-decoration="underline" font-size="10.00" fill="#000000">uploaderUserId</text>
<text text-anchor="start" x="334.691" y="-463" font-family="Times,serif" font-size="10.00" fill="#000000">: UUID</text>
<polygon fill="none" stroke="#000000" points="267.5,-432 267.5,-454 371.5,-454 371.5,-432 267.5,-432"/>
<text text-anchor="start" x="272.5" y="-440" font-family="Times,serif" font-size="10.00" fill="#000000">createdAt: DATE</text>
<polygon fill="none" stroke="#000000" points="267.5,-410 267.5,-432 371.5,-432 371.5,-410 267.5,-410"/>
<text text-anchor="start" x="272.5" y="-418" font-family="Times,serif" font-size="10.00" fill="#000000">updatedAt: DATE</text>
</g>
<!-- Prototype -->
<g id="node5" class="node">
<title>Prototype</title>
<polygon fill="#add8e6" stroke="transparent" points="544,-655 544,-677 664,-677 664,-655 544,-655"/>
<polygon fill="none" stroke="#000000" points="544,-655 544,-677 664,-677 664,-655 544,-655"/>
<text text-anchor="start" x="584.5575" y="-664" font-family="Times,serif" font-weight="bold" font-size="10.00" fill="#000000">Prototype</text>
<polygon fill="none" stroke="#000000" points="544,-633 544,-655 664,-655 664,-633 544,-633"/>
<text text-anchor="start" x="549" y="-642" font-family="Times,serif" text-decoration="underline" font-size="10.00" fill="#000000">id</text>
<text text-anchor="start" x="556.779" y="-642" font-family="Times,serif" font-size="10.00" fill="#000000">: UUID</text>
<polygon fill="none" stroke="#000000" points="544,-611 544,-633 664,-633 664,-611 544,-611"/>
<text text-anchor="start" x="549" y="-620" font-family="Times,serif" font-style="italic" text-decoration="underline" font-size="10.00" fill="#000000">prototypeGroupId</text>
<text text-anchor="start" x="621.203" y="-620" font-family="Times,serif" font-size="10.00" fill="#000000">: UUID</text>
<polygon fill="none" stroke="#000000" points="544,-589 544,-611 664,-611 664,-589 544,-589"/>
<text text-anchor="start" x="549" y="-597" font-family="Times,serif" font-size="10.00" fill="#000000">name: STRING</text>
<polygon fill="none" stroke="#000000" points="544,-567 544,-589 664,-589 664,-567 544,-567"/>
<text text-anchor="start" x="549" y="-575" font-family="Times,serif" font-size="10.00" fill="#000000">type: ENUM</text>
<polygon fill="none" stroke="#000000" points="544,-545 544,-567 664,-567 664,-545 544,-545"/>
<text text-anchor="start" x="549" y="-553" font-family="Times,serif" font-size="10.00" fill="#000000">minPlayers: NUMBER</text>
<polygon fill="none" stroke="#000000" points="544,-523 544,-545 664,-545 664,-523 544,-523"/>
<text text-anchor="start" x="549" y="-531" font-family="Times,serif" font-size="10.00" fill="#000000">maxPlayers: NUMBER</text>
<polygon fill="none" stroke="#000000" points="544,-501 544,-523 664,-523 664,-501 544,-501"/>
<text text-anchor="start" x="548.8725" y="-509" font-family="Times,serif" font-size="10.00" fill="#000000">versionNumber: NUMBER</text>
<polygon fill="none" stroke="#000000" points="544,-479 544,-501 664,-501 664,-479 544,-479"/>
<text text-anchor="start" x="549" y="-487" font-family="Times,serif" font-size="10.00" fill="#000000">createdAt: DATE</text>
<polygon fill="none" stroke="#000000" points="544,-457 544,-479 664,-479 664,-457 544,-457"/>
<text text-anchor="start" x="549" y="-465" font-family="Times,serif" font-size="10.00" fill="#000000">updatedAt: DATE</text>
</g>
<!-- Prototype&#45;&gt;PrototypeGroup -->
<g id="edge5" class="edge">
<title>Prototype&#45;&gt;PrototypeGroup</title>
<path fill="none" stroke="#0000ff" d="M676.1342,-557.0099C714.442,-551.7046 760.7233,-545.2949 795.8283,-540.4332"/>
<polygon fill="#0000ff" stroke="#0000ff" points="663.4799,-554.5224 675.9426,-557.0364 664.6323,-562.843 663.4799,-554.5224"/>
<polygon fill="#0000ff" stroke="#0000ff" points="795.8613,-540.4287 808.4887,-544.1313 801.8045,-539.6055 807.7478,-538.7824 807.7478,-538.7824 807.7478,-538.7824 801.8045,-539.6055 807.007,-533.4334 795.8613,-540.4287 795.8613,-540.4287"/>
</g>
<!-- Part -->
<g id="node6" class="node">
<title>Part</title>
<polygon fill="#add8e6" stroke="transparent" points="239.5,-352 239.5,-374 400.5,-374 400.5,-352 239.5,-352"/>
<polygon fill="none" stroke="#000000" points="239.5,-352 239.5,-374 400.5,-374 400.5,-352 239.5,-352"/>
<text text-anchor="start" x="311.947" y="-361" font-family="Times,serif" font-weight="bold" font-size="10.00" fill="#000000">Part</text>
<polygon fill="none" stroke="#000000" points="239.5,-330 239.5,-352 400.5,-352 400.5,-330 239.5,-330"/>
<text text-anchor="start" x="244.5" y="-339" font-family="Times,serif" text-decoration="underline" font-size="10.00" fill="#000000">id</text>
<text text-anchor="start" x="252.279" y="-339" font-family="Times,serif" font-size="10.00" fill="#000000">: NUMBER</text>
<polygon fill="none" stroke="#000000" points="239.5,-308 239.5,-330 400.5,-330 400.5,-308 239.5,-308"/>
<text text-anchor="start" x="244.5" y="-316" font-family="Times,serif" font-size="10.00" fill="#000000">type: ENUM</text>
<polygon fill="none" stroke="#000000" points="239.5,-286 239.5,-308 400.5,-308 400.5,-286 239.5,-286"/>
<text text-anchor="start" x="244.5" y="-295" font-family="Times,serif" font-style="italic" text-decoration="underline" font-size="10.00" fill="#000000">prototypeId</text>
<text text-anchor="start" x="291.155" y="-295" font-family="Times,serif" font-size="10.00" fill="#000000">: UUID</text>
<polygon fill="none" stroke="#000000" points="239.5,-264 239.5,-286 400.5,-286 400.5,-264 239.5,-264"/>
<text text-anchor="start" x="244.5" y="-272" font-family="Times,serif" font-size="10.00" fill="#000000">parentId: NUMBER</text>
<polygon fill="none" stroke="#000000" points="239.5,-242 239.5,-264 400.5,-264 400.5,-242 239.5,-242"/>
<text text-anchor="start" x="244.5" y="-250" font-family="Times,serif" font-size="10.00" fill="#000000">position: JSON</text>
<polygon fill="none" stroke="#000000" points="239.5,-220 239.5,-242 400.5,-242 400.5,-220 239.5,-220"/>
<text text-anchor="start" x="244.5" y="-228" font-family="Times,serif" font-size="10.00" fill="#000000">width: NUMBER</text>
<polygon fill="none" stroke="#000000" points="239.5,-198 239.5,-220 400.5,-220 400.5,-198 239.5,-198"/>
<text text-anchor="start" x="244.5" y="-206" font-family="Times,serif" font-size="10.00" fill="#000000">height: NUMBER</text>
<polygon fill="none" stroke="#000000" points="239.5,-176 239.5,-198 400.5,-198 400.5,-176 239.5,-176"/>
<text text-anchor="start" x="244.5" y="-184" font-family="Times,serif" font-size="10.00" fill="#000000">order: NUMBER</text>
<polygon fill="none" stroke="#000000" points="239.5,-154 239.5,-176 400.5,-176 400.5,-154 239.5,-154"/>
<text text-anchor="start" x="244.5" y="-162" font-family="Times,serif" font-size="10.00" fill="#000000">configurableTypeAsChild: ARRAY</text>
<polygon fill="none" stroke="#000000" points="239.5,-132 239.5,-154 400.5,-154 400.5,-132 239.5,-132"/>
<text text-anchor="start" x="244.5" y="-140" font-family="Times,serif" font-size="10.00" fill="#000000">originalPartId: NUMBER</text>
<polygon fill="none" stroke="#000000" points="239.5,-110 239.5,-132 400.5,-132 400.5,-110 239.5,-110"/>
<text text-anchor="start" x="244.5" y="-118" font-family="Times,serif" font-size="10.00" fill="#000000">isReversible: BOOLEAN</text>
<polygon fill="none" stroke="#000000" points="239.5,-88 239.5,-110 400.5,-110 400.5,-88 239.5,-88"/>
<text text-anchor="start" x="244.5" y="-96" font-family="Times,serif" font-size="10.00" fill="#000000">isFlipped: BOOLEAN</text>
<polygon fill="none" stroke="#000000" points="239.5,-66 239.5,-88 400.5,-88 400.5,-66 239.5,-66"/>
<text text-anchor="start" x="244.5" y="-74" font-family="Times,serif" font-size="10.00" fill="#000000">ownerId: NUMBER</text>
<polygon fill="none" stroke="#000000" points="239.5,-44 239.5,-66 400.5,-66 400.5,-44 239.5,-44"/>
<text text-anchor="start" x="244.0615" y="-52" font-family="Times,serif" font-size="10.00" fill="#000000">canReverseCardOnDeck: BOOLEAN</text>
<polygon fill="none" stroke="#000000" points="239.5,-22 239.5,-44 400.5,-44 400.5,-22 239.5,-22"/>
<text text-anchor="start" x="244.5" y="-30" font-family="Times,serif" font-size="10.00" fill="#000000">createdAt: DATE</text>
<polygon fill="none" stroke="#000000" points="239.5,0 239.5,-22 400.5,-22 400.5,0 239.5,0"/>
<text text-anchor="start" x="244.5" y="-8" font-family="Times,serif" font-size="10.00" fill="#000000">updatedAt: DATE</text>
</g>
<!-- Part&#45;&gt;Prototype -->
<g id="edge6" class="edge">
<title>Part&#45;&gt;Prototype</title>
<path fill="none" stroke="#0000ff" d="M407.3986,-304.4041C449.0472,-360.0332 498.0121,-425.4345 536.6571,-477.0517"/>
<polygon fill="#0000ff" stroke="#0000ff" points="403.4375,-292.1054 407.2673,-304.2287 396.7132,-297.1398 403.4375,-292.1054"/>
<polygon fill="#0000ff" stroke="#0000ff" points="536.8038,-477.2476 539.673,-490.0901 540.3997,-482.0506 543.9957,-486.8537 543.9957,-486.8537 543.9957,-486.8537 540.3997,-482.0506 548.3185,-483.6173 536.8038,-477.2476 536.8038,-477.2476"/>
</g>
<!-- PartProperty -->
<g id="node7" class="node">
<title>PartProperty</title>
<polygon fill="#add8e6" stroke="transparent" points=".5,-436 .5,-458 95.5,-458 95.5,-436 .5,-436"/>
<polygon fill="none" stroke="#000000" points=".5,-436 .5,-458 95.5,-458 95.5,-436 .5,-436"/>
<text text-anchor="start" x="22.7295" y="-445" font-family="Times,serif" font-weight="bold" font-size="10.00" fill="#000000">PartProperty</text>
<polygon fill="none" stroke="#000000" points=".5,-414 .5,-436 95.5,-436 95.5,-414 .5,-414"/>
<text text-anchor="start" x="5.5" y="-423" font-family="Times,serif" text-decoration="underline" font-size="10.00" fill="#000000">partId</text>
<text text-anchor="start" x="29.376" y="-423" font-family="Times,serif" font-size="10.00" fill="#000000">: NUMBER</text>
<polygon fill="none" stroke="#000000" points=".5,-392 .5,-414 95.5,-414 95.5,-392 .5,-392"/>
<text text-anchor="start" x="5.5" y="-401" font-family="Times,serif" text-decoration="underline" font-size="10.00" fill="#000000">side</text>
<text text-anchor="start" x="21.607" y="-401" font-family="Times,serif" font-size="10.00" fill="#000000">: ENUM</text>
<polygon fill="none" stroke="#000000" points=".5,-370 .5,-392 95.5,-392 95.5,-370 .5,-370"/>
<text text-anchor="start" x="5.5" y="-378" font-family="Times,serif" font-size="10.00" fill="#000000">name: STRING</text>
<polygon fill="none" stroke="#000000" points=".5,-348 .5,-370 95.5,-370 95.5,-348 .5,-348"/>
<text text-anchor="start" x="5.092" y="-356" font-family="Times,serif" font-size="10.00" fill="#000000">description: STRING</text>
<polygon fill="none" stroke="#000000" points=".5,-326 .5,-348 95.5,-348 95.5,-326 .5,-326"/>
<text text-anchor="start" x="5.5" y="-334" font-family="Times,serif" font-size="10.00" fill="#000000">color: STRING</text>
<polygon fill="none" stroke="#000000" points=".5,-304 .5,-326 95.5,-326 95.5,-304 .5,-304"/>
<text text-anchor="start" x="5.5" y="-312" font-family="Times,serif" font-size="10.00" fill="#000000">textColor: STRING</text>
<polygon fill="none" stroke="#000000" points=".5,-282 .5,-304 95.5,-304 95.5,-282 .5,-282"/>
<text text-anchor="start" x="5.5" y="-291" font-family="Times,serif" font-style="italic" text-decoration="underline" font-size="10.00" fill="#000000">imageId</text>
<text text-anchor="start" x="38.265" y="-291" font-family="Times,serif" font-size="10.00" fill="#000000">: UUID</text>
<polygon fill="none" stroke="#000000" points=".5,-260 .5,-282 95.5,-282 95.5,-260 .5,-260"/>
<text text-anchor="start" x="5.5" y="-268" font-family="Times,serif" font-size="10.00" fill="#000000">createdAt: DATE</text>
<polygon fill="none" stroke="#000000" points=".5,-238 .5,-260 95.5,-260 95.5,-238 .5,-238"/>
<text text-anchor="start" x="5.5" y="-246" font-family="Times,serif" font-size="10.00" fill="#000000">updatedAt: DATE</text>
</g>
<!-- PartProperty&#45;&gt;Image -->
<g id="edge8" class="edge">
<title>PartProperty&#45;&gt;Image</title>
<path fill="none" stroke="#0000ff" d="M105.7141,-382.4576C150.1801,-408.7776 211.3596,-444.9904 256.8817,-471.9355"/>
<polygon fill="#0000ff" stroke="#0000ff" points="97.3294,-372.614 105.5166,-382.3408 93.0507,-379.8426 97.3294,-372.614"/>
<polygon fill="#0000ff" stroke="#0000ff" points="256.8926,-471.9419 264.4686,-482.7013 262.0559,-474.9981 267.2192,-478.0544 267.2192,-478.0544 267.2192,-478.0544 262.0559,-474.9981 269.9698,-473.4074 256.8926,-471.9419 256.8926,-471.9419"/>
</g>
<!-- PartProperty&#45;&gt;Part -->
<g id="edge7" class="edge">
<title>PartProperty&#45;&gt;Part</title>
<path fill="none" stroke="#0000ff" d="M105.7753,-313.5062C141.4558,-292.3865 187.8807,-264.907 228.3426,-240.9572"/>
<polygon fill="#0000ff" stroke="#0000ff" points="93.0507,-316.1574 105.5166,-313.6592 97.3294,-323.386 93.0507,-316.1574"/>
<polygon fill="#0000ff" stroke="#0000ff" points="228.4359,-240.902 241.5131,-239.4365 233.5992,-237.8457 238.7625,-234.7895 238.7625,-234.7895 238.7625,-234.7895 233.5992,-237.8457 236.0119,-230.1425 228.4359,-240.902 228.4359,-240.902"/>
</g>
<!-- Player -->
<g id="node8" class="node">
<title>Player</title>
<polygon fill="#add8e6" stroke="transparent" points="258.5,-798 258.5,-820 381.5,-820 381.5,-798 258.5,-798"/>
<polygon fill="none" stroke="#000000" points="258.5,-798 258.5,-820 381.5,-820 381.5,-798 258.5,-798"/>
<text text-anchor="start" x="307.2275" y="-807" font-family="Times,serif" font-weight="bold" font-size="10.00" fill="#000000">Player</text>
<polygon fill="none" stroke="#000000" points="258.5,-776 258.5,-798 381.5,-798 381.5,-776 258.5,-776"/>
<text text-anchor="start" x="263.5" y="-785" font-family="Times,serif" text-decoration="underline" font-size="10.00" fill="#000000">id</text>
<text text-anchor="start" x="271.279" y="-785" font-family="Times,serif" font-size="10.00" fill="#000000">: NUMBER</text>
<polygon fill="none" stroke="#000000" points="258.5,-754 258.5,-776 381.5,-776 381.5,-754 258.5,-754"/>
<text text-anchor="start" x="263.5" y="-763" font-family="Times,serif" font-style="italic" text-decoration="underline" font-size="10.00" fill="#000000">prototypeId</text>
<text text-anchor="start" x="310.155" y="-763" font-family="Times,serif" font-size="10.00" fill="#000000">: UUID</text>
<polygon fill="none" stroke="#000000" points="258.5,-732 258.5,-754 381.5,-754 381.5,-732 258.5,-732"/>
<text text-anchor="start" x="263.5" y="-741" font-family="Times,serif" font-style="italic" text-decoration="underline" font-size="10.00" fill="#000000">userId</text>
<text text-anchor="start" x="288.486" y="-741" font-family="Times,serif" font-size="10.00" fill="#000000">: UUID</text>
<polygon fill="none" stroke="#000000" points="258.5,-710 258.5,-732 381.5,-732 381.5,-710 258.5,-710"/>
<text text-anchor="start" x="263.5" y="-718" font-family="Times,serif" font-size="10.00" fill="#000000">playerName: STRING</text>
<polygon fill="none" stroke="#000000" points="258.5,-688 258.5,-710 381.5,-710 381.5,-688 258.5,-688"/>
<text text-anchor="start" x="263.484" y="-696" font-family="Times,serif" font-size="10.00" fill="#000000">originalPlayerId: NUMBER</text>
<polygon fill="none" stroke="#000000" points="258.5,-666 258.5,-688 381.5,-688 381.5,-666 258.5,-666"/>
<text text-anchor="start" x="263.5" y="-674" font-family="Times,serif" font-size="10.00" fill="#000000">createdAt: DATE</text>
<polygon fill="none" stroke="#000000" points="258.5,-644 258.5,-666 381.5,-666 381.5,-644 258.5,-644"/>
<text text-anchor="start" x="263.5" y="-652" font-family="Times,serif" font-size="10.00" fill="#000000">updatedAt: DATE</text>
</g>
<!-- Player&#45;&gt;User -->
<g id="edge10" class="edge">
<title>Player&#45;&gt;User</title>
<path fill="none" stroke="#0000ff" d="M393.2749,-729.7145C463.6987,-726.2159 572.35,-717.3678 664,-695 797.5243,-662.4125 945.662,-597.1215 1023.9406,-560.1523"/>
<polygon fill="#0000ff" stroke="#0000ff" points="380.8187,-726.0932 393.0021,-729.7271 381.2117,-734.484 380.8187,-726.0932"/>
<polygon fill="#0000ff" stroke="#0000ff" points="1024.1342,-560.0604 1037.2904,-559.7881 1029.5536,-557.4855 1034.973,-554.9106 1034.973,-554.9106 1034.973,-554.9106 1029.5536,-557.4855 1032.6556,-550.0331 1024.1342,-560.0604 1024.1342,-560.0604"/>
</g>
<!-- Player&#45;&gt;Prototype -->
<g id="edge9" class="edge">
<title>Player&#45;&gt;Prototype</title>
<path fill="none" stroke="#0000ff" d="M391.6616,-690.1488C435.1323,-664.9373 490.2448,-632.974 533.4274,-607.9297"/>
<polygon fill="#0000ff" stroke="#0000ff" points="379.1251,-692.5643 391.6128,-690.1771 383.3394,-699.8306 379.1251,-692.5643"/>
<polygon fill="#0000ff" stroke="#0000ff" points="533.4718,-607.9039 546.5615,-606.5548 538.6621,-604.8937 543.8523,-601.8835 543.8523,-601.8835 543.8523,-601.8835 538.6621,-604.8937 541.1432,-597.2123 533.4718,-607.9039 533.4718,-607.9039"/>
</g>
</g>
</svg>
