<?xml version="1.0" encoding="UTF-8" standalone="no"?>
<!DOCTYPE svg PUBLIC "-//W3C//DTD SVG 1.1//EN"
 "http://www.w3.org/Graphics/SVG/1.1/DTD/svg11.dtd">
<!-- Generated by graphviz version 2.40.1 (20161225.0304)
 -->
<!-- Title: models_diagram Pages: 1 -->
<svg width="1455pt" height="1016pt"
 viewBox="0.00 0.00 1455.00 1016.00" xmlns="http://www.w3.org/2000/svg" xmlns:xlink="http://www.w3.org/1999/xlink">
<g id="graph0" class="graph" transform="scale(1 1) rotate(0) translate(36 980)">
<title>models_diagram</title>
<polygon fill="#ffffff" stroke="transparent" points="-36,36 -36,-980 1419,-980 1419,36 -36,36"/>
<!-- User -->
<g id="node1" class="node">
<title>User</title>
<polygon fill="#add8e6" stroke="transparent" points="1059.5,-470 1059.5,-492 1148.5,-492 1148.5,-470 1059.5,-470"/>
<polygon fill="none" stroke="#000000" points="1059.5,-470 1059.5,-492 1148.5,-492 1148.5,-470 1059.5,-470"/>
<text text-anchor="start" x="1094.562" y="-479" font-family="Times,serif" font-weight="bold" font-size="10.00" fill="#000000">User</text>
<polygon fill="none" stroke="#000000" points="1059.5,-448 1059.5,-470 1148.5,-470 1148.5,-448 1059.5,-448"/>
<text text-anchor="start" x="1064.5" y="-457" font-family="Times,serif" text-decoration="underline" font-size="10.00" fill="#000000">id</text>
<text text-anchor="start" x="1072.279" y="-457" font-family="Times,serif" font-size="10.00" fill="#000000">: UUID</text>
<polygon fill="none" stroke="#000000" points="1059.5,-426 1059.5,-448 1148.5,-448 1148.5,-426 1059.5,-426"/>
<text text-anchor="start" x="1064.5" y="-434" font-family="Times,serif" font-size="10.00" fill="#000000">googleId: STRING</text>
<polygon fill="none" stroke="#000000" points="1059.5,-404 1059.5,-426 1148.5,-426 1148.5,-404 1059.5,-404"/>
<text text-anchor="start" x="1064.1515" y="-412" font-family="Times,serif" font-size="10.00" fill="#000000">username: STRING</text>
<polygon fill="none" stroke="#000000" points="1059.5,-382 1059.5,-404 1148.5,-404 1148.5,-382 1059.5,-382"/>
<text text-anchor="start" x="1064.5" y="-390" font-family="Times,serif" font-size="10.00" fill="#000000">createdAt: DATE</text>
<polygon fill="none" stroke="#000000" points="1059.5,-360 1059.5,-382 1148.5,-382 1148.5,-360 1059.5,-360"/>
<text text-anchor="start" x="1064.5" y="-368" font-family="Times,serif" font-size="10.00" fill="#000000">updatedAt: DATE</text>
</g>
<!-- UserAccess -->
<g id="node10" class="node">
<title>UserAccess</title>
<polygon fill="#add8e6" stroke="transparent" points="1292.5,-538 1292.5,-560 1383.5,-560 1383.5,-538 1292.5,-538"/>
<polygon fill="none" stroke="#000000" points="1292.5,-538 1292.5,-560 1383.5,-560 1383.5,-538 1292.5,-538"/>
<text text-anchor="start" x="1314.405" y="-547" font-family="Times,serif" font-weight="bold" font-size="10.00" fill="#000000">UserAccess</text>
<polygon fill="none" stroke="#000000" points="1292.5,-516 1292.5,-538 1383.5,-538 1383.5,-516 1292.5,-516"/>
<text text-anchor="start" x="1297.5" y="-525" font-family="Times,serif" text-decoration="underline" font-size="10.00" fill="#000000">userId</text>
<text text-anchor="start" x="1322.486" y="-525" font-family="Times,serif" font-size="10.00" fill="#000000">: UUID</text>
<polygon fill="none" stroke="#000000" points="1292.5,-494 1292.5,-516 1383.5,-516 1383.5,-494 1292.5,-494"/>
<text text-anchor="start" x="1297.042" y="-503" font-family="Times,serif" text-decoration="underline" font-size="10.00" fill="#000000">accessId</text>
<text text-anchor="start" x="1330.905" y="-503" font-family="Times,serif" font-size="10.00" fill="#000000">: NUMBER</text>
</g>
<!-- User&#45;&gt;UserAccess -->
<g id="edge1" class="edge">
<title>User&#45;&gt;UserAccess</title>
<path fill="none" stroke="#0000ff" d="M1159.1101,-450.0027C1195.8499,-465.8604 1243.8573,-486.5816 1280.8142,-502.5331"/>
<polygon fill="#0000ff" stroke="#0000ff" points="1159.0819,-449.9906 1150.2044,-440.2772 1153.5732,-447.6128 1148.0644,-445.2351 1148.0644,-445.2351 1148.0644,-445.2351 1153.5732,-447.6128 1145.9244,-450.193 1159.0819,-449.9906 1159.0819,-449.9906"/>
<polygon fill="#0000ff" stroke="#0000ff" points="1280.8866,-502.5642 1289.7642,-512.2776 1286.3954,-504.942 1291.9041,-507.3197 1291.9041,-507.3197 1291.9041,-507.3197 1286.3954,-504.942 1294.0441,-502.3618 1280.8866,-502.5642 1280.8866,-502.5642"/>
</g>
<!-- Prototype -->
<g id="node2" class="node">
<title>Prototype</title>
<polygon fill="#add8e6" stroke="transparent" points="801,-525 801,-547 915,-547 915,-525 801,-525"/>
<polygon fill="none" stroke="#000000" points="801,-525 801,-547 915,-547 915,-525 801,-525"/>
<text text-anchor="start" x="838.5575" y="-534" font-family="Times,serif" font-weight="bold" font-size="10.00" fill="#000000">Prototype</text>
<polygon fill="none" stroke="#000000" points="801,-503 801,-525 915,-525 915,-503 801,-503"/>
<text text-anchor="start" x="806" y="-512" font-family="Times,serif" text-decoration="underline" font-size="10.00" fill="#000000">id</text>
<text text-anchor="start" x="813.779" y="-512" font-family="Times,serif" font-size="10.00" fill="#000000">: UUID</text>
<polygon fill="none" stroke="#000000" points="801,-481 801,-503 915,-503 915,-481 801,-481"/>
<text text-anchor="start" x="806" y="-490" font-family="Times,serif" font-style="italic" text-decoration="underline" font-size="10.00" fill="#000000">userId</text>
<text text-anchor="start" x="830.986" y="-490" font-family="Times,serif" font-size="10.00" fill="#000000">: UUID</text>
<polygon fill="none" stroke="#000000" points="801,-459 801,-481 915,-481 915,-459 801,-459"/>
<text text-anchor="start" x="806" y="-467" font-family="Times,serif" font-size="10.00" fill="#000000">name: STRING</text>
<polygon fill="none" stroke="#000000" points="801,-437 801,-459 915,-459 915,-437 801,-437"/>
<text text-anchor="start" x="806" y="-445" font-family="Times,serif" font-size="10.00" fill="#000000">type: ENUM</text>
<polygon fill="none" stroke="#000000" points="801,-415 801,-437 915,-437 915,-415 801,-415"/>
<text text-anchor="start" x="805.9335" y="-424" font-family="Times,serif" font-style="italic" text-decoration="underline" font-size="10.00" fill="#000000">masterPrototypeId</text>
<text text-anchor="start" x="879.8015" y="-424" font-family="Times,serif" font-size="10.00" fill="#000000">: UUID</text>
<polygon fill="none" stroke="#000000" points="801,-393 801,-415 915,-415 915,-393 801,-393"/>
<text text-anchor="start" x="806" y="-401" font-family="Times,serif" font-size="10.00" fill="#000000">groupId: UUID</text>
<polygon fill="none" stroke="#000000" points="801,-371 801,-393 915,-393 915,-371 801,-371"/>
<text text-anchor="start" x="806" y="-379" font-family="Times,serif" font-size="10.00" fill="#000000">minPlayers: NUMBER</text>
<polygon fill="none" stroke="#000000" points="801,-349 801,-371 915,-371 915,-349 801,-349"/>
<text text-anchor="start" x="806" y="-357" font-family="Times,serif" font-size="10.00" fill="#000000">maxPlayers: NUMBER</text>
<polygon fill="none" stroke="#000000" points="801,-327 801,-349 915,-349 915,-327 801,-327"/>
<text text-anchor="start" x="806" y="-335" font-family="Times,serif" font-size="10.00" fill="#000000">createdAt: DATE</text>
<polygon fill="none" stroke="#000000" points="801,-305 801,-327 915,-327 915,-305 801,-305"/>
<text text-anchor="start" x="806" y="-313" font-family="Times,serif" font-size="10.00" fill="#000000">updatedAt: DATE</text>
</g>
<!-- Prototype&#45;&gt;User -->
<g id="edge3" class="edge">
<title>Prototype&#45;&gt;User</title>
<path fill="none" stroke="#0000ff" d="M927.4047,-426C965.1202,-426 1011.1771,-426 1046.7285,-426"/>
<polygon fill="#0000ff" stroke="#0000ff" points="915.249,-421.8 927.249,-426.0001 915.249,-430.2 915.249,-421.8"/>
<polygon fill="#0000ff" stroke="#0000ff" points="1046.8344,-426.0001 1058.8344,-431.4 1052.8344,-426 1058.8344,-426 1058.8344,-426 1058.8344,-426 1052.8344,-426 1058.8343,-420.6 1046.8344,-426.0001 1046.8344,-426.0001"/>
</g>
<!-- PrototypeGroup -->
<g id="node3" class="node">
<title>PrototypeGroup</title>
<polygon fill="#add8e6" stroke="transparent" points="557.5,-549 557.5,-571 643.5,-571 643.5,-549 557.5,-549"/>
<polygon fill="none" stroke="#000000" points="557.5,-549 557.5,-571 643.5,-571 643.5,-549 557.5,-549"/>
<text text-anchor="start" x="568.2835" y="-558" font-family="Times,serif" font-weight="bold" font-size="10.00" fill="#000000">PrototypeGroup</text>
<polygon fill="none" stroke="#000000" points="557.5,-527 557.5,-549 643.5,-549 643.5,-527 557.5,-527"/>
<text text-anchor="start" x="562.5" y="-536" font-family="Times,serif" text-decoration="underline" font-size="10.00" fill="#000000">id</text>
<text text-anchor="start" x="570.279" y="-536" font-family="Times,serif" font-size="10.00" fill="#000000">: UUID</text>
<polygon fill="none" stroke="#000000" points="557.5,-505 557.5,-527 643.5,-527 643.5,-505 557.5,-505"/>
<text text-anchor="start" x="562.04" y="-514" font-family="Times,serif" text-decoration="underline" font-size="10.00" fill="#000000">prototypeId</text>
<text text-anchor="start" x="608.695" y="-514" font-family="Times,serif" font-size="10.00" fill="#000000">: UUID</text>
</g>
<!-- PrototypeGroup&#45;&gt;Prototype -->
<g id="edge4" class="edge">
<title>PrototypeGroup&#45;&gt;Prototype</title>
<path fill="none" stroke="#0000ff" d="M654.6546,-514.4454C693.9676,-497.3461 747.4458,-474.0857 789.6927,-455.7104"/>
<polygon fill="#0000ff" stroke="#0000ff" points="641.9245,-515.4023 654.6039,-514.4674 645.2749,-523.1052 641.9245,-515.4023"/>
<polygon fill="#0000ff" stroke="#0000ff" points="789.7271,-455.6955 802.8851,-455.861 795.2292,-453.3023 800.7312,-450.9091 800.7312,-450.9091 800.7312,-450.9091 795.2292,-453.3023 798.5774,-445.9573 789.7271,-455.6955 789.7271,-455.6955"/>
</g>
<!-- Access -->
<g id="node4" class="node">
<title>Access</title>
<polygon fill="#add8e6" stroke="transparent" points="263.5,-922 263.5,-944 375.5,-944 375.5,-922 263.5,-922"/>
<polygon fill="none" stroke="#000000" points="263.5,-922 263.5,-944 375.5,-944 375.5,-922 263.5,-922"/>
<text text-anchor="start" x="305.343" y="-931" font-family="Times,serif" font-weight="bold" font-size="10.00" fill="#000000">Access</text>
<polygon fill="none" stroke="#000000" points="263.5,-900 263.5,-922 375.5,-922 375.5,-900 263.5,-900"/>
<text text-anchor="start" x="268.5" y="-909" font-family="Times,serif" text-decoration="underline" font-size="10.00" fill="#000000">id</text>
<text text-anchor="start" x="276.279" y="-909" font-family="Times,serif" font-size="10.00" fill="#000000">: NUMBER</text>
<polygon fill="none" stroke="#000000" points="263.5,-878 263.5,-900 375.5,-900 375.5,-878 263.5,-878"/>
<text text-anchor="start" x="268.266" y="-886" font-family="Times,serif" font-size="10.00" fill="#000000">prototypeGroupId: UUID</text>
<polygon fill="none" stroke="#000000" points="263.5,-856 263.5,-878 375.5,-878 375.5,-856 263.5,-856"/>
<text text-anchor="start" x="268.5" y="-864" font-family="Times,serif" font-size="10.00" fill="#000000">name: STRING</text>
</g>
<!-- Access&#45;&gt;PrototypeGroup -->
<g id="edge5" class="edge">
<title>Access&#45;&gt;PrototypeGroup</title>
<path fill="none" stroke="#0000ff" d="M384.7905,-853.2011C390.1733,-848.32 395.3312,-843.2243 400,-838 482.383,-745.8155 470.0119,-699.049 544,-600 548.9186,-593.4153 554.4146,-586.7206 559.9942,-580.2844"/>
<polygon fill="#0000ff" stroke="#0000ff" points="372.8148,-858.0246 384.6331,-853.3375 378.3172,-864.3716 372.8148,-858.0246"/>
<polygon fill="#0000ff" stroke="#0000ff" points="560.2003,-580.0526 572.208,-574.6696 564.1859,-575.5676 568.1715,-571.0826 568.1715,-571.0826 568.1715,-571.0826 564.1859,-575.5676 564.135,-567.4955 560.2003,-580.0526 560.2003,-580.0526"/>
</g>
<!-- Access&#45;&gt;UserAccess -->
<g id="edge2" class="edge">
<title>Access&#45;&gt;UserAccess</title>
<path fill="none" stroke="#0000ff" d="M387.0502,-875.2493C575.6056,-806.1617 1105.2457,-612.0991 1280.4364,-547.9084"/>
<polygon fill="#0000ff" stroke="#0000ff" points="386.9496,-875.2861 373.8243,-874.3442 381.3159,-877.3503 375.6822,-879.4146 375.6822,-879.4146 375.6822,-879.4146 381.3159,-877.3503 377.54,-884.485 386.9496,-875.2861 386.9496,-875.2861"/>
<polygon fill="#0000ff" stroke="#0000ff" points="1280.6752,-547.8209 1293.8005,-548.7628 1286.3089,-545.7567 1291.9427,-543.6924 1291.9427,-543.6924 1291.9427,-543.6924 1286.3089,-545.7567 1290.0848,-538.6221 1280.6752,-547.8209 1280.6752,-547.8209"/>
</g>
<!-- Image -->
<g id="node5" class="node">
<title>Image</title>
<polygon fill="#add8e6" stroke="transparent" points="267.5,-798 267.5,-820 371.5,-820 371.5,-798 267.5,-798"/>
<polygon fill="none" stroke="#000000" points="267.5,-798 267.5,-820 371.5,-820 371.5,-798 267.5,-798"/>
<text text-anchor="start" x="307.007" y="-807" font-family="Times,serif" font-weight="bold" font-size="10.00" fill="#000000">Image</text>
<polygon fill="none" stroke="#000000" points="267.5,-776 267.5,-798 371.5,-798 371.5,-776 267.5,-776"/>
<text text-anchor="start" x="272.5" y="-785" font-family="Times,serif" text-decoration="underline" font-size="10.00" fill="#000000">id</text>
<text text-anchor="start" x="280.279" y="-785" font-family="Times,serif" font-size="10.00" fill="#000000">: UUID</text>
<polygon fill="none" stroke="#000000" points="267.5,-754 267.5,-776 371.5,-776 371.5,-754 267.5,-754"/>
<text text-anchor="start" x="272.4275" y="-762" font-family="Times,serif" font-size="10.00" fill="#000000">displayName: STRING</text>
<polygon fill="none" stroke="#000000" points="267.5,-732 267.5,-754 371.5,-754 371.5,-732 267.5,-732"/>
<text text-anchor="start" x="272.5" y="-740" font-family="Times,serif" font-size="10.00" fill="#000000">storagePath: STRING</text>
<polygon fill="none" stroke="#000000" points="267.5,-710 267.5,-732 371.5,-732 371.5,-710 267.5,-710"/>
<text text-anchor="start" x="272.5" y="-718" font-family="Times,serif" font-size="10.00" fill="#000000">contentType: STRING</text>
<polygon fill="none" stroke="#000000" points="267.5,-688 267.5,-710 371.5,-710 371.5,-688 267.5,-688"/>
<text text-anchor="start" x="272.5" y="-696" font-family="Times,serif" font-size="10.00" fill="#000000">fileSize: NUMBER</text>
<polygon fill="none" stroke="#000000" points="267.5,-666 267.5,-688 371.5,-688 371.5,-666 267.5,-666"/>
<text text-anchor="start" x="272.5" y="-675" font-family="Times,serif" font-style="italic" text-decoration="underline" font-size="10.00" fill="#000000">uploaderUserId</text>
<text text-anchor="start" x="334.691" y="-675" font-family="Times,serif" font-size="10.00" fill="#000000">: UUID</text>
<polygon fill="none" stroke="#000000" points="267.5,-644 267.5,-666 371.5,-666 371.5,-644 267.5,-644"/>
<text text-anchor="start" x="272.5" y="-652" font-family="Times,serif" font-size="10.00" fill="#000000">createdAt: DATE</text>
<polygon fill="none" stroke="#000000" points="267.5,-622 267.5,-644 371.5,-644 371.5,-622 267.5,-622"/>
<text text-anchor="start" x="272.5" y="-630" font-family="Times,serif" font-size="10.00" fill="#000000">updatedAt: DATE</text>
</g>
<!-- PrototypeVersion -->
<g id="node6" class="node">
<title>PrototypeVersion</title>
<polygon fill="#add8e6" stroke="transparent" points="544.5,-443 544.5,-465 657.5,-465 657.5,-443 544.5,-443"/>
<polygon fill="none" stroke="#000000" points="544.5,-443 544.5,-465 657.5,-465 657.5,-443 544.5,-443"/>
<text text-anchor="start" x="565.73" y="-452" font-family="Times,serif" font-weight="bold" font-size="10.00" fill="#000000">PrototypeVersion</text>
<polygon fill="none" stroke="#000000" points="544.5,-421 544.5,-443 657.5,-443 657.5,-421 544.5,-421"/>
<text text-anchor="start" x="549.5" y="-430" font-family="Times,serif" text-decoration="underline" font-size="10.00" fill="#000000">id</text>
<text text-anchor="start" x="557.279" y="-430" font-family="Times,serif" font-size="10.00" fill="#000000">: UUID</text>
<polygon fill="none" stroke="#000000" points="544.5,-399 544.5,-421 657.5,-421 657.5,-399 544.5,-399"/>
<text text-anchor="start" x="549.5" y="-408" font-family="Times,serif" font-style="italic" text-decoration="underline" font-size="10.00" fill="#000000">prototypeId</text>
<text text-anchor="start" x="596.155" y="-408" font-family="Times,serif" font-size="10.00" fill="#000000">: UUID</text>
<polygon fill="none" stroke="#000000" points="544.5,-377 544.5,-399 657.5,-399 657.5,-377 544.5,-377"/>
<text text-anchor="start" x="549.2075" y="-385" font-family="Times,serif" font-size="10.00" fill="#000000">versionNumber: STRING</text>
<polygon fill="none" stroke="#000000" points="544.5,-355 544.5,-377 657.5,-377 657.5,-355 544.5,-355"/>
<text text-anchor="start" x="549.5" y="-363" font-family="Times,serif" font-size="10.00" fill="#000000">createdAt: DATE</text>
<polygon fill="none" stroke="#000000" points="544.5,-333 544.5,-355 657.5,-355 657.5,-333 544.5,-333"/>
<text text-anchor="start" x="549.5" y="-341" font-family="Times,serif" font-size="10.00" fill="#000000">updatedAt: DATE</text>
</g>
<!-- PrototypeVersion&#45;&gt;Prototype -->
<g id="edge6" class="edge">
<title>PrototypeVersion&#45;&gt;Prototype</title>
<path fill="none" stroke="#0000ff" d="M669.1224,-406.1954C706.0402,-410.0664 751.464,-414.8292 788.5134,-418.714"/>
<polygon fill="#0000ff" stroke="#0000ff" points="657.4475,-400.7482 668.944,-406.1767 656.5714,-409.1024 657.4475,-400.7482"/>
<polygon fill="#0000ff" stroke="#0000ff" points="788.7979,-418.7438 800.1693,-425.3658 794.7652,-419.3695 800.7325,-419.9953 800.7325,-419.9953 800.7325,-419.9953 794.7652,-419.3695 801.2957,-414.6247 788.7979,-418.7438 788.7979,-418.7438"/>
</g>
<!-- Part -->
<g id="node7" class="node">
<title>Part</title>
<polygon fill="#add8e6" stroke="transparent" points="239.5,-564 239.5,-586 400.5,-586 400.5,-564 239.5,-564"/>
<polygon fill="none" stroke="#000000" points="239.5,-564 239.5,-586 400.5,-586 400.5,-564 239.5,-564"/>
<text text-anchor="start" x="311.947" y="-573" font-family="Times,serif" font-weight="bold" font-size="10.00" fill="#000000">Part</text>
<polygon fill="none" stroke="#000000" points="239.5,-542 239.5,-564 400.5,-564 400.5,-542 239.5,-542"/>
<text text-anchor="start" x="244.5" y="-551" font-family="Times,serif" text-decoration="underline" font-size="10.00" fill="#000000">id</text>
<text text-anchor="start" x="252.279" y="-551" font-family="Times,serif" font-size="10.00" fill="#000000">: NUMBER</text>
<polygon fill="none" stroke="#000000" points="239.5,-520 239.5,-542 400.5,-542 400.5,-520 239.5,-520"/>
<text text-anchor="start" x="244.5" y="-528" font-family="Times,serif" font-size="10.00" fill="#000000">type: ENUM</text>
<polygon fill="none" stroke="#000000" points="239.5,-498 239.5,-520 400.5,-520 400.5,-498 239.5,-498"/>
<text text-anchor="start" x="244.5" y="-507" font-family="Times,serif" font-style="italic" text-decoration="underline" font-size="10.00" fill="#000000">prototypeVersionId</text>
<text text-anchor="start" x="322.81" y="-507" font-family="Times,serif" font-size="10.00" fill="#000000">: UUID</text>
<polygon fill="none" stroke="#000000" points="239.5,-476 239.5,-498 400.5,-498 400.5,-476 239.5,-476"/>
<text text-anchor="start" x="244.5" y="-484" font-family="Times,serif" font-size="10.00" fill="#000000">parentId: NUMBER</text>
<polygon fill="none" stroke="#000000" points="239.5,-454 239.5,-476 400.5,-476 400.5,-454 239.5,-454"/>
<text text-anchor="start" x="244.5" y="-462" font-family="Times,serif" font-size="10.00" fill="#000000">position: JSON</text>
<polygon fill="none" stroke="#000000" points="239.5,-432 239.5,-454 400.5,-454 400.5,-432 239.5,-432"/>
<text text-anchor="start" x="244.5" y="-440" font-family="Times,serif" font-size="10.00" fill="#000000">width: NUMBER</text>
<polygon fill="none" stroke="#000000" points="239.5,-410 239.5,-432 400.5,-432 400.5,-410 239.5,-410"/>
<text text-anchor="start" x="244.5" y="-418" font-family="Times,serif" font-size="10.00" fill="#000000">height: NUMBER</text>
<polygon fill="none" stroke="#000000" points="239.5,-388 239.5,-410 400.5,-410 400.5,-388 239.5,-388"/>
<text text-anchor="start" x="244.5" y="-396" font-family="Times,serif" font-size="10.00" fill="#000000">order: NUMBER</text>
<polygon fill="none" stroke="#000000" points="239.5,-366 239.5,-388 400.5,-388 400.5,-366 239.5,-366"/>
<text text-anchor="start" x="244.5" y="-374" font-family="Times,serif" font-size="10.00" fill="#000000">configurableTypeAsChild: ARRAY</text>
<polygon fill="none" stroke="#000000" points="239.5,-344 239.5,-366 400.5,-366 400.5,-344 239.5,-344"/>
<text text-anchor="start" x="244.5" y="-352" font-family="Times,serif" font-size="10.00" fill="#000000">originalPartId: NUMBER</text>
<polygon fill="none" stroke="#000000" points="239.5,-322 239.5,-344 400.5,-344 400.5,-322 239.5,-322"/>
<text text-anchor="start" x="244.5" y="-330" font-family="Times,serif" font-size="10.00" fill="#000000">isReversible: BOOLEAN</text>
<polygon fill="none" stroke="#000000" points="239.5,-300 239.5,-322 400.5,-322 400.5,-300 239.5,-300"/>
<text text-anchor="start" x="244.5" y="-308" font-family="Times,serif" font-size="10.00" fill="#000000">isFlipped: BOOLEAN</text>
<polygon fill="none" stroke="#000000" points="239.5,-278 239.5,-300 400.5,-300 400.5,-278 239.5,-278"/>
<text text-anchor="start" x="244.5" y="-286" font-family="Times,serif" font-size="10.00" fill="#000000">ownerId: NUMBER</text>
<polygon fill="none" stroke="#000000" points="239.5,-256 239.5,-278 400.5,-278 400.5,-256 239.5,-256"/>
<text text-anchor="start" x="244.0615" y="-264" font-family="Times,serif" font-size="10.00" fill="#000000">canReverseCardOnDeck: BOOLEAN</text>
<polygon fill="none" stroke="#000000" points="239.5,-234 239.5,-256 400.5,-256 400.5,-234 239.5,-234"/>
<text text-anchor="start" x="244.5" y="-242" font-family="Times,serif" font-size="10.00" fill="#000000">createdAt: DATE</text>
<polygon fill="none" stroke="#000000" points="239.5,-212 239.5,-234 400.5,-234 400.5,-212 239.5,-212"/>
<text text-anchor="start" x="244.5" y="-220" font-family="Times,serif" font-size="10.00" fill="#000000">updatedAt: DATE</text>
</g>
<!-- Part&#45;&gt;PrototypeVersion -->
<g id="edge7" class="edge">
<title>Part&#45;&gt;PrototypeVersion</title>
<path fill="none" stroke="#0000ff" d="M412.0726,-399C450.9224,-399 495.3268,-399 531.2681,-399"/>
<polygon fill="#0000ff" stroke="#0000ff" points="400.0234,-394.8 412.0233,-399.0001 400.0233,-403.2 400.0234,-394.8"/>
<polygon fill="#0000ff" stroke="#0000ff" points="531.6051,-399.0001 543.6051,-404.4 537.6051,-399 543.6051,-399 543.6051,-399 543.6051,-399 537.6051,-399 543.605,-393.6 531.6051,-399.0001 531.6051,-399.0001"/>
</g>
<!-- PartProperty -->
<g id="node8" class="node">
<title>PartProperty</title>
<polygon fill="#add8e6" stroke="transparent" points=".5,-648 .5,-670 95.5,-670 95.5,-648 .5,-648"/>
<polygon fill="none" stroke="#000000" points=".5,-648 .5,-670 95.5,-670 95.5,-648 .5,-648"/>
<text text-anchor="start" x="22.7295" y="-657" font-family="Times,serif" font-weight="bold" font-size="10.00" fill="#000000">PartProperty</text>
<polygon fill="none" stroke="#000000" points=".5,-626 .5,-648 95.5,-648 95.5,-626 .5,-626"/>
<text text-anchor="start" x="5.5" y="-635" font-family="Times,serif" text-decoration="underline" font-size="10.00" fill="#000000">partId</text>
<text text-anchor="start" x="29.376" y="-635" font-family="Times,serif" font-size="10.00" fill="#000000">: NUMBER</text>
<polygon fill="none" stroke="#000000" points=".5,-604 .5,-626 95.5,-626 95.5,-604 .5,-604"/>
<text text-anchor="start" x="5.5" y="-613" font-family="Times,serif" text-decoration="underline" font-size="10.00" fill="#000000">side</text>
<text text-anchor="start" x="21.607" y="-613" font-family="Times,serif" font-size="10.00" fill="#000000">: ENUM</text>
<polygon fill="none" stroke="#000000" points=".5,-582 .5,-604 95.5,-604 95.5,-582 .5,-582"/>
<text text-anchor="start" x="5.5" y="-590" font-family="Times,serif" font-size="10.00" fill="#000000">name: STRING</text>
<polygon fill="none" stroke="#000000" points=".5,-560 .5,-582 95.5,-582 95.5,-560 .5,-560"/>
<text text-anchor="start" x="5.092" y="-568" font-family="Times,serif" font-size="10.00" fill="#000000">description: STRING</text>
<polygon fill="none" stroke="#000000" points=".5,-538 .5,-560 95.5,-560 95.5,-538 .5,-538"/>
<text text-anchor="start" x="5.5" y="-546" font-family="Times,serif" font-size="10.00" fill="#000000">color: STRING</text>
<polygon fill="none" stroke="#000000" points=".5,-516 .5,-538 95.5,-538 95.5,-516 .5,-516"/>
<text text-anchor="start" x="5.5" y="-524" font-family="Times,serif" font-size="10.00" fill="#000000">textColor: STRING</text>
<polygon fill="none" stroke="#000000" points=".5,-494 .5,-516 95.5,-516 95.5,-494 .5,-494"/>
<text text-anchor="start" x="5.5" y="-503" font-family="Times,serif" font-style="italic" text-decoration="underline" font-size="10.00" fill="#000000">imageId</text>
<text text-anchor="start" x="38.265" y="-503" font-family="Times,serif" font-size="10.00" fill="#000000">: UUID</text>
<polygon fill="none" stroke="#000000" points=".5,-472 .5,-494 95.5,-494 95.5,-472 .5,-472"/>
<text text-anchor="start" x="5.5" y="-480" font-family="Times,serif" font-size="10.00" fill="#000000">createdAt: DATE</text>
<polygon fill="none" stroke="#000000" points=".5,-450 .5,-472 95.5,-472 95.5,-450 .5,-450"/>
<text text-anchor="start" x="5.5" y="-458" font-family="Times,serif" font-size="10.00" fill="#000000">updatedAt: DATE</text>
</g>
<!-- PartProperty&#45;&gt;Image -->
<g id="edge9" class="edge">
<title>PartProperty&#45;&gt;Image</title>
<path fill="none" stroke="#0000ff" d="M105.7141,-594.4576C150.1801,-620.7776 211.3596,-656.9904 256.8817,-683.9355"/>
<polygon fill="#0000ff" stroke="#0000ff" points="97.3294,-584.614 105.5166,-594.3408 93.0507,-591.8426 97.3294,-584.614"/>
<polygon fill="#0000ff" stroke="#0000ff" points="256.8926,-683.9419 264.4686,-694.7013 262.0559,-686.9981 267.2192,-690.0544 267.2192,-690.0544 267.2192,-690.0544 262.0559,-686.9981 269.9698,-685.4074 256.8926,-683.9419 256.8926,-683.9419"/>
</g>
<!-- PartProperty&#45;&gt;Part -->
<g id="edge8" class="edge">
<title>PartProperty&#45;&gt;Part</title>
<path fill="none" stroke="#0000ff" d="M105.7753,-525.5062C141.4558,-504.3865 187.8807,-476.907 228.3426,-452.9572"/>
<polygon fill="#0000ff" stroke="#0000ff" points="93.0507,-528.1574 105.5166,-525.6592 97.3294,-535.386 93.0507,-528.1574"/>
<polygon fill="#0000ff" stroke="#0000ff" points="228.4359,-452.902 241.5131,-451.4365 233.5992,-449.8457 238.7625,-446.7895 238.7625,-446.7895 238.7625,-446.7895 233.5992,-449.8457 236.0119,-442.1425 228.4359,-452.902 228.4359,-452.902"/>
</g>
<!-- Player -->
<g id="node9" class="node">
<title>Player</title>
<polygon fill="#add8e6" stroke="transparent" points="258.5,-154 258.5,-176 381.5,-176 381.5,-154 258.5,-154"/>
<polygon fill="none" stroke="#000000" points="258.5,-154 258.5,-176 381.5,-176 381.5,-154 258.5,-154"/>
<text text-anchor="start" x="307.2275" y="-163" font-family="Times,serif" font-weight="bold" font-size="10.00" fill="#000000">Player</text>
<polygon fill="none" stroke="#000000" points="258.5,-132 258.5,-154 381.5,-154 381.5,-132 258.5,-132"/>
<text text-anchor="start" x="263.5" y="-141" font-family="Times,serif" text-decoration="underline" font-size="10.00" fill="#000000">id</text>
<text text-anchor="start" x="271.279" y="-141" font-family="Times,serif" font-size="10.00" fill="#000000">: NUMBER</text>
<polygon fill="none" stroke="#000000" points="258.5,-110 258.5,-132 381.5,-132 381.5,-110 258.5,-110"/>
<text text-anchor="start" x="263.5" y="-119" font-family="Times,serif" font-style="italic" text-decoration="underline" font-size="10.00" fill="#000000">prototypeVersionId</text>
<text text-anchor="start" x="341.81" y="-119" font-family="Times,serif" font-size="10.00" fill="#000000">: UUID</text>
<polygon fill="none" stroke="#000000" points="258.5,-88 258.5,-110 381.5,-110 381.5,-88 258.5,-88"/>
<text text-anchor="start" x="263.5" y="-97" font-family="Times,serif" font-style="italic" text-decoration="underline" font-size="10.00" fill="#000000">userId</text>
<text text-anchor="start" x="288.486" y="-97" font-family="Times,serif" font-size="10.00" fill="#000000">: UUID</text>
<polygon fill="none" stroke="#000000" points="258.5,-66 258.5,-88 381.5,-88 381.5,-66 258.5,-66"/>
<text text-anchor="start" x="263.5" y="-74" font-family="Times,serif" font-size="10.00" fill="#000000">playerName: STRING</text>
<polygon fill="none" stroke="#000000" points="258.5,-44 258.5,-66 381.5,-66 381.5,-44 258.5,-44"/>
<text text-anchor="start" x="263.484" y="-52" font-family="Times,serif" font-size="10.00" fill="#000000">originalPlayerId: NUMBER</text>
<polygon fill="none" stroke="#000000" points="258.5,-22 258.5,-44 381.5,-44 381.5,-22 258.5,-22"/>
<text text-anchor="start" x="263.5" y="-30" font-family="Times,serif" font-size="10.00" fill="#000000">createdAt: DATE</text>
<polygon fill="none" stroke="#000000" points="258.5,0 258.5,-22 381.5,-22 381.5,0 258.5,0"/>
<text text-anchor="start" x="263.5" y="-8" font-family="Times,serif" font-size="10.00" fill="#000000">updatedAt: DATE</text>
</g>
<!-- Player&#45;&gt;User -->
<g id="edge11" class="edge">
<title>Player&#45;&gt;User</title>
<path fill="none" stroke="#0000ff" d="M393.008,-104.6592C508.4715,-132.5387 737.4763,-194.8166 915,-287 963.6948,-312.2859 1013.4289,-349.5358 1049.5767,-379.1113"/>
<polygon fill="#0000ff" stroke="#0000ff" points="382.1612,-97.7442 392.8537,-104.6224 380.2057,-105.9134 382.1612,-97.7442"/>
<polygon fill="#0000ff" stroke="#0000ff" points="1049.6813,-379.1977 1055.4915,-391.0047 1054.3064,-383.0199 1058.9314,-386.8421 1058.9314,-386.8421 1058.9314,-386.8421 1054.3064,-383.0199 1062.3714,-382.6796 1049.6813,-379.1977 1049.6813,-379.1977"/>
</g>
<!-- Player&#45;&gt;PrototypeVersion -->
<g id="edge10" class="edge">
<title>Player&#45;&gt;PrototypeVersion</title>
<path fill="none" stroke="#0000ff" d="M389.2918,-165.2429C434.1071,-214.8427 491.9042,-278.8103 535.7054,-327.2878"/>
<polygon fill="#0000ff" stroke="#0000ff" points="384.283,-153.4345 389.2116,-165.1541 378.0503,-159.066 384.283,-153.4345"/>
<polygon fill="#0000ff" stroke="#0000ff" points="535.9476,-327.5559 539.9859,-340.08 539.9701,-332.0078 543.9926,-336.4598 543.9926,-336.4598 543.9926,-336.4598 539.9701,-332.0078 547.9993,-332.8395 535.9476,-327.5559 535.9476,-327.5559"/>
</g>
</g>
</svg>
